<?xml version="1.0" encoding="utf-8"?>
<!-- Generator: Adobe Illustrator 27.5.0, SVG Export Plug-In . SVG Version: 6.00 Build 0)  -->
<svg version="1.1" id="Layer_1" xmlns="http://www.w3.org/2000/svg" xmlns:xlink="http://www.w3.org/1999/xlink" x="0px" y="0px"
	 viewBox="0 0 3450 2000" style="enable-background:new 0 0 3450 2000;" xml:space="preserve">
<rect style="fill:#FFFFFF;" width="3450" height="2000"/>
<g>
	<path style="fill:#EAFCFC;" d="M1180.908,137.631c450.391-25.477,922.608,107.232,853.195,299.608
		c-69.413,192.376,371.096-68.332,546.89,1.028c125.153,49.38,75.123,199.703,135.671,260.274
		c138.825,138.881,280.806-36.006,457.493,68.926c123.996,73.639,147.966,534.419,110.106,833.851
		c-18.334,145.003-131.82,259.596-276.586,279.717l0,0L795.344,1815.54l-269.553,20.874c0,0-486.153-180.571-96.597-433.18
		c205.206-133.065,56.691-239.864,34.707-303.48c-25.241-73.041-84.137-200.606,172.48-294.223
		c256.617-93.616,190.359-297.309,184.049-339.487C814.12,423.865,730.517,163.108,1180.908,137.631L1180.908,137.631z"/>
	<path style="fill:#256653;" d="M2963.458,494.853c0,0-45.09,98.163-75.433,139.628c-30.343,41.465-59.244,81.118-83.456,196.204
		c-24.212,115.086-20.06,126.654-26.685,156.379c-6.625,29.726-49.75,150.158-49.998,172.243
		c-0.25,22.085-87.151,147.803-109.41,206.644s-61.691,142.892-59.475,185.686l9.904-2.515c0,0,8.074-99.781,76.77-200.619
		c68.696-100.839,58.871-119.88,136.885-171.683c78.013-51.804,128.397-194.904,128.397-194.904s79.357-155.432,75.665-236.234
		C2982.932,664.879,3003.998,592.007,2963.458,494.853z"/>
	<path style="fill:#256653;" d="M2857.865,343.877c0,0-2.625,64.482-23.425,102.788c-20.8,38.305-38.716,61.571-42.493,103.015
		c-3.776,41.443-16.839,148.29-74.837,200.452c-57.998,52.162-65.406,208.459-109.555,255.739
		c-44.147,47.28-49.914,81.262-41.765,162.354c8.148,81.093,35.85,193.471-28.195,340.158l-14.475-36.484
		c0,0,45.818-120.678,34.727-191.338c-11.092-70.661-49.689-177.43-35.563-228.639c14.128-51.208-38.402-61.209-6.771-138.659
		c31.632-77.45,18.641-104.36,61.7-171.325c0,0,4.416-3.135,15.738-59.792c11.323-56.657,102.593-160.501,144.653-195.938
		S2840.282,393.979,2857.865,343.877z"/>
	<path style="fill:#3C8F7C;" d="M2686.547,663.14c0,0-50.369,86.234-51.086,141.739c-0.717,55.504,5.297,100.652-20.186,176.659
		c-25.482,76.007,25.098,124.056,10.52,166.021c-14.579,41.965-15.707,91.649-15.263,129.327
		c0.443,37.677-57.694,162.37-66.543,225.507c-8.849,63.136,2.459,63.346,2.459,63.346s9.638-83.357,23.016-110.92
		s54.052-122.59,63.554-159.356c9.501-36.767,35.259-60.364,57.477-122.631c22.219-62.266,53.803-114.708,51.392-203.062
		C2739.475,881.416,2775.031,788.162,2686.547,663.14z"/>
	<path style="fill:#3C8F7C;" d="M2579.912,1507.88c0,0,23.489-109.44,122.533-120.37s157.226,8.653,227.195-71.303
		c69.969-79.957,110.61-206.843,132.963-228.688c0,0-35.155-18.084-93.604,36.559c-58.448,54.642-99.5,96.09-133.337,127.904
		c-33.838,31.815-61.316,11.071-97.039,32.046c-29.938,17.579-68.654,68.379-85.705,94.989c-5.538,8.645-12.105,16.575-19.65,23.537
		c-6.862,6.333-15.035,14.095-20.278,19.809c-10.484,11.428-40.735,85.908-40.735,85.908L2579.912,1507.88z"/>
	<path style="fill:#3C8F7C;" d="M2545.004,1488.569c0,0,34.908-133.84,11.527-199.337c-23.381-65.498-96.576-113.965-93.635-155.107
		s49.934-152.345,11.619-235.137c0,0-14.556,73.85-28.916,90.278c-14.361,16.428-112.926,82.676-95.452,170.167
		c17.474,87.49,113.29,107.944,136.889,133.701c23.598,25.757,55.456,25.725,55.657,42.851c0.201,17.125,6.416,79.399-4.164,140.843
		L2545.004,1488.569z"/>
	<path style="fill:#327F6B;" d="M2583.172,1399.001l49.035-141.257c0,0,28.809-113.615,45.506-208.359
		c16.697-94.745,8.834-386.245,8.834-386.245s-50.369,86.235-51.086,141.739s5.297,100.652-20.186,176.659
		c-25.482,76.007,25.098,124.056,10.52,166.021c-14.579,41.965-15.707,91.649-15.263,129.326
		c0.443,37.678-57.694,162.371-66.543,225.508c-4.847,34.586-3.644,50.268-1.566,57.397
		C2534.559,1504.567,2583.172,1399.001,2583.172,1399.001z"/>
	<path style="fill:#327F6B;" d="M2824.717,1314.854c-43.745,8.736-82.859,5.755-134.79,44.408s-82.474,79.933-82.474,79.933
		s-23.344,41.718-32.994,63.711c-1.391,3.361-2.205,5.365-2.205,5.365l7.657-0.392c0,0,23.49-109.44,122.534-120.37
		s157.226,8.653,227.195-71.304c69.969-79.956,110.61-206.842,132.963-228.687c0,0-74.423,57.896-120.408,109.137
		S2868.463,1306.118,2824.717,1314.854z"/>
	<path style="fill:#327F6B;" d="M2445.6,989.266c-14.361,16.427-112.926,82.676-95.452,170.167
		c17.474,87.49,113.291,107.944,136.889,133.701s55.456,25.724,55.657,42.851c0.201,17.126,6.416,79.399-4.164,140.843l2.828,5.129
		c5.169-23.981,12.344-60.498,14.689-88.23c3.809-45.035-3.49-63.676-17.965-100.16c-14.476-36.484-104.418-110.789-126.956-149.855
		c-22.538-39.067,43.458-104.372,58.106-135.901c14.648-31.529,5.283-108.821,5.283-108.821S2459.96,972.838,2445.6,989.266z"/>
	<path style="fill:#50BFA5;" d="M2616.818,1429.983l13.217-31.939c10.254-23.491,36.494-34.709,58.607-25.056l0,0
		c55.728,24.326,79.955,92.036,54.113,151.234l-18.893,43.279c-8.277,18.961-5.395,39.818,5.767,54.526
		c10.136,13.356,11.792,31.929,4.763,48.03l-9.96,22.816c-10.783,24.703-31.764,42.999-56.649,50.544
		c-14.554,4.412-27.406,15.335-34.203,30.906l-14.104,32.307c-15.591,35.718-55.487,52.773-89.11,38.097l-19.183-8.374
		c-33.624-14.678-48.241-55.53-32.65-91.248l0,0c25.214-42.706,23.203-74.582,14.27-96.201
		c-13.137-31.788-12.985-68.363,1.227-100.919l1.992-4.565c15-34.361,43.965-60.016,78.459-71.002
		C2589.708,1467.568,2605.581,1455.727,2616.818,1429.983z"/>
	<path style="fill:#96D9C9;" d="M2378.86,1881.035c27.044-35.063,175.339-222.908,272.033-254.211
		c106.733-34.553,6.138,102.684,6.138,102.684s189.343-207.042,258.826-188.377c63.691,17.109,0,145.443,0,145.443
		s71.735-71.064,158.73-71.064c84.666,0-59.15,252.035-66.91,265.525H2378.86z"/>
	<g>
		<g>
			<path style="fill:#3C8F7C;" d="M2949.477,1474.679c-77.36,120.822-133.82,255.038-166.104,397.625l-5.303-1.421
				c32.146-139.602,88.229-273.584,165.461-394.272c17.949-28.05,37.332-61.324,70.939-72.267c0.647-0.211,0.895,0.774,0.275,1.008
				C2984.05,1416.918,2966.27,1448.451,2949.477,1474.679z"/>
		</g>
		<g>
			<path style="fill:#3C8F7C;" d="M2802.023,1877.304c86.448-117.557,191.547-226.213,316.514-320.699
				c1.248-0.943,2.932,1.231,1.676,2.196c-118.523,91.106-223.381,198.69-311.616,320.266L2802.023,1877.304z"/>
		</g>
		<path style="fill:#3C8F7C;" d="M2956.547,1399.751c1.991,2.928,9.614,10.566,11.854,20.603c3.008,9.521,0.632,21.438,0.378,21.021
			c-0.575,0.237,8.82-7.707,11.756-20.342c3.799-12.118,1.14-28.928-3.587-34.497c-8.163-12.589-22.426-13.865-25.195-7.76
			C2948.813,1384.838,2952.541,1393.089,2956.547,1399.751z"/>
		<path style="fill:#3C8F7C;" d="M2975.054,1507.597c-2.889-2.049-10.376-9.821-20.365-12.258
			c-9.46-3.195-21.421-1.056-21.009-0.792c-0.248,0.569,7.879-8.667,20.569-11.354c12.19-3.56,28.944-0.569,34.42,4.267
			c12.426,8.409,13.42,22.694,7.262,25.343C2989.811,1515.622,2981.636,1511.732,2975.054,1507.597z"/>
		<path style="fill:#3C8F7C;" d="M2947.124,1554.863c-2.889-2.048-10.375-9.82-20.365-12.258
			c-9.459-3.195-21.421-1.056-21.009-0.792c-0.248,0.569,7.88-8.667,20.569-11.353c12.191-3.561,28.944-0.569,34.42,4.266
			c12.426,8.41,13.42,22.694,7.263,25.344C2961.882,1562.889,2953.706,1558.999,2947.124,1554.863z"/>
		<path style="fill:#3C8F7C;" d="M3046.747,1664.499c-2.889-2.049-10.376-9.821-20.365-12.259
			c-9.459-3.195-21.421-1.055-21.009-0.792c-0.248,0.57,7.879-8.667,20.569-11.353c12.19-3.561,28.944-0.569,34.42,4.266
			c12.426,8.41,13.42,22.695,7.262,25.344C3061.504,1672.524,3053.329,1668.635,3046.747,1664.499z"/>
		<path style="fill:#3C8F7C;" d="M3097.645,1619.659c-2.889-2.049-10.375-9.821-20.365-12.258
			c-9.459-3.195-21.421-1.056-21.009-0.792c-0.248,0.569,7.879-8.667,20.569-11.354c12.191-3.56,28.944-0.569,34.42,4.267
			c12.426,8.409,13.42,22.694,7.262,25.343C3112.401,1627.686,3104.227,1623.795,3097.645,1619.659z"/>
		<path style="fill:#3C8F7C;" d="M2917.468,1453.235c2.428,2.577,11.16,8.919,14.954,18.476c4.472,8.928,4.005,21.07,3.687,20.698
			c-0.529,0.324,7.495-9.001,8.403-21.94c1.841-12.566-3.436-28.746-8.98-33.5c-10.047-11.146-24.332-10.156-26.104-3.691
			C2907.48,1439.729,2912.463,1447.287,2917.468,1453.235z"/>
		<path style="fill:#3C8F7C;" d="M2876.397,1506.839c3.456,1.834,15.53,5.157,21.604,14.193c6.874,8.042,7.747,21.794,7.29,21.516
			c-0.646,0.59,8.607-13.267,8.207-28.099c0.855-14.815-7.942-30.605-15.699-33.528c-14.359-8.121-32.729-0.878-34.237,7.1
			C2861.826,1496.057,2869.195,1502.353,2876.397,1506.839z"/>
		<path style="fill:#3C8F7C;" d="M2833.171,1588.027c3.716,1.227,16.178,2.473,23.685,10.358
			c8.128,6.771,11.302,20.181,10.805,19.982c-0.539,0.69,6.253-14.525,3.364-29.078c-1.648-14.749-12.977-28.834-21.114-30.411
			c-15.521-5.59-32.412,4.64-32.557,12.757C2816.994,1579.85,2825.317,1584.816,2833.171,1588.027z"/>
		<path style="fill:#3C8F7C;" d="M2961.081,1644.582c2.707,1.688,12.34,5.08,16.766,12.775c5.134,6.933,5.061,18.17,4.705,17.917
			c-0.56,0.443,7.757-10.302,8.276-22.39c1.539-12.002-4.719-25.348-10.861-28.167c-11.219-7.423-26.574-2.577-28.255,3.826
			C2949.843,1634.982,2955.479,1640.522,2961.081,1644.582z"/>
		<path style="fill:#3C8F7C;" d="M3027.674,1418.76c-1.619-1.339-5.708-6.264-11.511-8.143c-5.456-2.305-12.626-1.562-12.394-1.388
			c-0.172,0.326,5.04-4.782,12.665-5.816c7.367-1.572,17.147,0.93,20.175,4.03c6.982,5.519,6.945,14.012,3.187,15.31
			C3036.053,1424.152,3031.387,1421.494,3027.674,1418.76z"/>
		<path style="fill:#3C8F7C;" d="M3012.164,1384.258c0.072,2.1,1.477,8.346-0.578,14.088c-1.506,5.729-6.471,10.954-6.467,10.663
			c-0.363-0.063,6.864-1.072,12.338-6.479c5.743-4.875,9.732-14.148,9.125-18.439c-0.108-8.899-6.857-14.056-10.18-11.87
			C3013.008,1374.33,3012.266,1379.648,3012.164,1384.258z"/>
		<path style="fill:#3C8F7C;" d="M3134.298,1573.985c-1.619-1.338-5.708-6.264-11.511-8.143c-5.456-2.304-12.626-1.562-12.394-1.388
			c-0.171,0.326,5.04-4.782,12.665-5.816c7.367-1.572,17.146,0.93,20.175,4.03c6.982,5.519,6.945,14.013,3.187,15.31
			C3142.677,1579.379,3138.01,1576.72,3134.298,1573.985z"/>
		<path style="fill:#3C8F7C;" d="M3115.588,1539.188c0.243,2.087,2.154,8.195,0.578,14.088c-1.032,5.832-5.553,11.446-5.572,11.156
			c-0.367-0.032,6.754-1.631,11.766-7.469c5.325-5.329,8.541-14.897,7.584-19.124c-0.836-8.86-7.986-13.446-11.118-10.997
			C3115.615,1529.223,3115.311,1534.585,3115.588,1539.188z"/>
	</g>
	<g>
		<g>
			<path style="fill:#3C8F7C;" d="M3102.566,1764.056c-78.994,8.658-152.564,43.528-223.389,77.53
				c-47.76,22.93-45.351,29.462-55.079,32.876c-1.576,0.554-3.152-1.158-2.386-2.678c3.744-7.412,13.555-12.427,20.383-16.69
				c7.947-4.962,16.249-9.349,24.674-13.439c18.027-8.752,36.523-16.629,54.9-24.612c37.383-16.243,75.371-31.521,114.864-41.862
				c21.651-5.669,43.683-9.758,65.979-11.768C3102.93,1763.375,3102.979,1764.01,3102.566,1764.056L3102.566,1764.056z"/>
		</g>
		<path style="fill:#3C8F7C;" d="M3031.371,1739.565c0.514,3.24,3.89,12.65,1.807,21.945c-1.234,9.167-7.927,18.219-7.977,17.768
			c-0.574-0.028,10.435-2.979,17.88-12.411c7.966-8.658,12.368-23.796,10.604-30.329c-1.875-13.772-13.326-20.469-18.056-16.444
			C3030.772,1724.016,3030.643,1732.401,3031.371,1739.565z"/>
		<path style="fill:#3C8F7C;" d="M2961.78,1764.482c0.514,3.24,3.89,12.65,1.807,21.945c-1.234,9.167-7.927,18.219-7.976,17.768
			c-0.576-0.028,10.434-2.979,17.879-12.411c7.965-8.658,12.367-23.796,10.604-30.329c-1.875-13.772-13.326-20.469-18.056-16.444
			C2961.182,1748.933,2961.052,1757.318,2961.78,1764.482z"/>
		<path style="fill:#3C8F7C;" d="M2891.069,1796.001c0.514,3.24,3.89,12.65,1.807,21.945c-1.234,9.167-7.927,18.218-7.976,17.768
			c-0.575-0.028,10.434-2.979,17.879-12.411c7.965-8.658,12.368-23.797,10.604-30.329c-1.875-13.772-13.326-20.469-18.056-16.444
			C2890.471,1780.451,2890.341,1788.837,2891.069,1796.001z"/>
		<path style="fill:#3C8F7C;" d="M3052.146,1804.585c-1.43-2.675-4.193-11.493-10.915-17.181c-6.026-6.066-16.01-9.001-15.795-8.642
			c-0.408,0.342,9.352-3.628,20.103-0.832c10.702,1.935,22.396,10.633,24.741,16.432c6.305,11.196,1.604,22.521-4.128,22.196
			C3060.384,1816.378,3055.607,1810.271,3052.146,1804.585z"/>
		<path style="fill:#3C8F7C;" d="M2979.76,1830.206c-1.43-2.675-4.193-11.493-10.916-17.181c-6.025-6.066-16.01-9.002-15.794-8.642
			c-0.408,0.342,9.352-3.628,20.103-0.832c10.701,1.935,22.395,10.633,24.74,16.432c6.305,11.196,1.604,22.521-4.127,22.195
			C2987.998,1841.999,2983.222,1835.892,2979.76,1830.206z"/>
		<path style="fill:#3C8F7C;" d="M3107.273,1778.211c-1.251-1.491-4.152-6.663-9.124-9.347c-4.585-3.013-11.242-3.537-11.06-3.34
			c-0.211,0.269,5.393-3.513,12.513-3.178c6.976-0.199,15.468,3.718,17.707,7.049c5.438,6.197,3.981,13.931,0.34,14.483
			C3114.004,1784.527,3110.198,1781.323,3107.273,1778.211z"/>
		<path style="fill:#3C8F7C;" d="M3098.92,1744.179c-0.287,1.925-0.053,7.851-2.886,12.739c-2.331,4.966-7.73,8.896-7.678,8.632
			c-0.32-0.118,6.434,0.173,12.326-3.838c6.049-3.48,11.236-11.262,11.401-15.272c1.393-8.126-3.895-13.954-7.287-12.52
			C3101.351,1735.274,3099.783,1739.996,3098.92,1744.179z"/>
	</g>
	<g>
		<g>
			<path style="fill:#3C8F7C;" d="M676.478,1181.168c-66.084-106.194-78.415-234.428-77.122-323.302
				c1.403-96.482,18.716-168.722,18.89-169.441l-4.78-1.732c-0.176,0.724-17.627,73.493-19.054,170.615
				c-1.319,89.75,11.152,219.301,78.054,326.811L676.478,1181.168z"/>
		</g>
		<g>
			<path style="fill:#3C8F7C;" d="M634.518,670.776c-1.624,21.833-11.022,40.144-24.553,51.384
				c-11.563-15.203-18.051-36.023-16.427-57.856c1.624-21.833,11.022-40.144,24.553-51.384
				C629.654,628.123,636.142,648.943,634.518,670.776z"/>
		</g>
		<g>
			<path style="fill:#3C8F7C;" d="M589.854,721.175c11.211,18.894,14.686,40.404,11.095,59.077
				c-17.167-4.21-33.782-16.564-44.993-35.458c-11.21-18.894-14.685-40.404-11.095-59.077
				C562.028,689.926,578.644,702.281,589.854,721.175z"/>
		</g>
		<g>
			<path style="fill:#3C8F7C;" d="M564.551,780.482c17.408,11.655,29.208,29.634,33.746,48.594
				c-16.544,4.844-35.945,1.934-53.353-9.721c-17.408-11.655-29.208-29.634-33.746-48.594
				C527.742,765.917,547.143,768.828,564.551,780.482z"/>
		</g>
		<g>
			<path style="fill:#3C8F7C;" d="M572.354,863.074c13.782,9.257,22.324,25.082,24.654,42.582
				c-14.361,6.288-30.519,5.522-44.302-3.736c-13.782-9.257-22.324-25.082-24.654-42.581
				C542.413,853.05,558.572,853.816,572.354,863.074z"/>
		</g>
		<g>
			<path style="fill:#3C8F7C;" d="M629.306,765.217c15.493-8.52,32.834-8.995,47.678-2.844
				c-3.921,16.471-14.348,31.266-29.841,39.786c-15.493,8.52-32.835,8.996-47.678,2.843
				C603.385,788.533,613.813,773.737,629.306,765.217z"/>
		</g>
		<g>
			<path style="fill:#3C8F7C;" d="M627.59,822.258c15.494-8.52,32.835-8.995,47.678-2.843c-3.92,16.47-14.348,31.266-29.841,39.786
				c-15.493,8.52-32.834,8.995-47.678,2.843C601.67,845.573,612.097,830.778,627.59,822.258z"/>
		</g>
	</g>
	<g>
		<g>
			<path style="fill:#96D9C9;" d="M632.015,1700.668c-146.403-53.125-248.807-179.837-308.933-276.78
				c-65.273-105.241-96.216-199.119-96.521-200.056l-6.469,2.567c0.307,0.942,31.464,95.518,97.154,201.472
				c60.701,97.91,164.172,225.912,312.389,279.696L632.015,1700.668z"/>
		</g>
		<g>
			<path style="fill:#96D9C9;" d="M232.279,1189.731c13.33,25.026,15.65,53.468,8.517,78.122
				c-23.278-5.654-44.849-22.068-58.18-47.095c-13.33-25.026-15.65-53.468-8.516-78.122
				C197.376,1148.292,218.948,1164.705,232.279,1189.731z"/>
		</g>
		<g>
			<path style="fill:#96D9C9;" d="M217.94,1285.441c25.444,9.96,44.173,29.91,53.146,53.355
				c-21.842,11.383-48.717,13.48-74.161,3.521s-44.173-29.91-53.146-53.355C165.622,1277.579,192.497,1275.48,217.94,1285.441z"/>
		</g>
		<g>
			<path style="fill:#96D9C9;" d="M231.117,1372.797c27.264-3.586,52.725,4.842,70.859,21.059
				c-14.886,20.56-38.291,35.414-65.555,39c-27.264,3.586-52.725-4.842-70.859-21.059
				C180.448,1391.236,203.853,1376.383,231.117,1372.797z"/>
		</g>
		<g>
			<path style="fill:#96D9C9;" d="M282.731,1456.49c27.264-3.586,52.725,4.842,70.859,21.059c-14.885,20.561-38.29,35.415-65.554,39
				c-27.265,3.586-52.726-4.841-70.859-21.058C232.063,1474.931,255.467,1460.076,282.731,1456.49z"/>
		</g>
		<g>
			<path style="fill:#96D9C9;" d="M278.605,1326.139c1.482-26.427,12.542-50.282,28.811-66.558
				c14.474,15.729,22.876,39.239,21.394,65.666c-1.482,26.428-12.542,50.283-28.811,66.559
				C285.525,1376.076,277.123,1352.566,278.605,1326.139z"/>
		</g>
		<g>
			<path style="fill:#96D9C9;" d="M332.503,1412.765c1.093-26.439,11.804-50.49,27.838-67.064
				c14.711,15.445,23.463,38.782,22.37,65.221c-1.093,26.439-11.804,50.491-27.839,67.065
				C340.162,1462.54,331.41,1439.204,332.503,1412.765z"/>
		</g>
		<g>
			<path style="fill:#96D9C9;" d="M370.755,1543.036c10.396-5.474,21.831-5.644,31.474-1.479
				c-2.949,10.795-10.147,20.435-20.543,25.908c-10.397,5.474-21.832,5.645-31.474,1.479
				C353.161,1558.15,360.359,1548.51,370.755,1543.036z"/>
		</g>
	</g>
	<path style="fill:#3C8F7C;" d="M948.408,1571.846c0,0,113.817-239.373,75.768-292.786
		c-52.583-73.814-117.966,152.692-121.155,132.784c-30.116-188.012-23.813-425.138-164.661-461.073
		c-80.066-20.427,5.293,177.096-4.65,227.99c-9.943,50.893-143.134-130.805-225.164-226.936
		c-82.031-96.131-132.259-43.092-84.708,73.531c45.98,112.771,212.549,244.91,175.262,256.221
		c-37.286,11.309-246.364-145.787-277.875-87.89c-38.635,70.987,283.443,196.291,251.128,210.428
		c-32.315,14.137-185.745-52.322-185.745,4.226c0,56.547,212.013,70.678,206.499,95.128c-8.929,39.592-142.108-61.769-152.51-6.837
		c-10.639,56.184,180.792,60.444,174.105,104.389c-3.843,25.255-52.058-1.178-60.779,33.54
		c-19.886,79.167,281.768,190.101,281.768,190.101L948.408,1571.846z"/>
	<path style="fill:#96D9C9;" d="M1188.844,1615.318c45.798,21.382,33.443,74.476,33.443,74.476s124.171-96.625,170.588-40.228
		c46.417,56.396,22.028,166.947-32.42,184.919c-54.448,17.971-527.992,5.376-527.992,5.376S1147.649,1596.086,1188.844,1615.318z"/>
	<g>
		<g>
			<g>
				<path style="fill:#50BFA5;" d="M948.411,1418.15l5.658-3.307c-87.473-155.224-104.951-333.417-104.21-455.571
					c0.805-132.564,22.641-229.593,22.862-230.558l-6.552-2.414c-0.223,0.971-22.218,98.65-23.046,232.001
					C842.356,1081.492,860.003,1261.271,948.411,1418.15z"/>
			</g>
			<g>
				<path style="fill:#50BFA5;" d="M893.628,706.97c-1.887,29.81-13.96,53.714-31.503,67.328
					c-15.257-22.489-23.948-52.012-22.061-81.822c1.887-29.81,13.96-53.714,31.503-67.328
					C886.825,647.637,895.516,677.161,893.628,706.97z"/>
			</g>
			<g>
				<path style="fill:#50BFA5;" d="M835.861,770.199c14.835,27.519,19.601,57.58,15.113,82.774
					c-22.455-8.133-44.277-27.394-59.111-54.912c-14.835-27.518-19.601-57.58-15.113-82.774
					C799.204,723.42,821.026,742.681,835.861,770.199z"/>
			</g>
			<g>
				<path style="fill:#50BFA5;" d="M803.461,848.324c22.849,18.407,38.444,44.747,44.57,71.446
					c-21.546,4.405-46.902-2.245-69.751-20.651c-22.849-18.407-38.444-44.747-44.57-71.445
					C755.256,823.268,780.612,829.917,803.461,848.324z"/>
			</g>
			<g>
				<path style="fill:#50BFA5;" d="M824.947,990.22c10.038,6.991,17.292,17.58,20.62,28.642c-8.829,2.597-19.565,0.655-29.603-6.336
					c-10.038-6.99-17.292-17.579-20.619-28.642C804.173,981.288,814.91,983.229,824.947,990.22z"/>
			</g>
			<g>
				<path style="fill:#50BFA5;" d="M829.815,1042.568c10.038,6.99,17.292,17.579,20.62,28.642
					c-8.829,2.597-19.565,0.655-29.603-6.336c-10.038-6.99-17.292-17.579-20.619-28.642
					C809.042,1033.636,819.778,1035.577,829.815,1042.568z"/>
			</g>
			<g>
				<path style="fill:#50BFA5;" d="M887.831,836.162c20.134-9.605,42.767-7.893,62.209,2.594
					c-4.943,22.12-18.396,41.049-38.531,50.655c-20.134,9.605-42.767,7.892-62.209-2.595
					C854.243,864.696,867.696,845.768,887.831,836.162z"/>
			</g>
			<g>
				<path style="fill:#50BFA5;" d="M886.199,914.387c20.134-9.606,42.767-7.892,62.208,2.594
					c-4.943,22.12-18.396,41.049-38.531,50.654c-20.134,9.606-42.767,7.893-62.209-2.595
					C852.611,942.921,866.064,923.993,886.199,914.387z"/>
			</g>
			<g>
				<path style="fill:#50BFA5;" d="M874.492,1025.685c13.105-6.252,27.836-5.137,40.49,1.688
					c-3.217,14.397-11.974,26.718-25.079,32.97c-13.105,6.252-27.836,5.137-40.49-1.688
					C852.63,1044.257,861.387,1031.937,874.492,1025.685z"/>
			</g>
		</g>
	</g>
	<g>
		<g>
			<path style="fill:#50BFA5;" d="M832.463,1839.388c0,0,206.944-42.469,252.083-83.826c45.14-41.358,25.165-57.485,25.165-57.485
				s79.528-62.651,78.287-103.56s-53.054-20.153-53.054-20.153s87.814-112.687,66.985-134.117
				c-38.796-39.918-140.326,77.214-140.326,77.214s30.13-55.719-1.657-64.566c-47.938-13.343-83.197,124.079-83.197,124.079
				s8.943-54.273-24.099-47.069C893.368,1542.829,832.463,1839.388,832.463,1839.388z"/>
		</g>
	</g>
	<path style="fill:#50BFA5;" d="M929.595,1826.468c0,0-135.625-170.386-196.426-198.897c-64.784-30.381-8.608,74.897-8.608,74.897
		s-138.524-135.618-171.06-101.753c-32.536,33.863,2.204,65.551,2.204,65.551s-115.994-21.479-132.906,21.824
		c-25.989,66.543,164.793,99.645,164.793,99.645s-80.088,7.48-61.8,48.68C553.371,1898.545,929.595,1826.468,929.595,1826.468z"/>
	<path style="fill:#96D9C9;" d="M422.798,1688.09c16.913-43.303,132.907-21.824,132.907-21.824s-34.74-31.688-2.205-65.551
		c32.536-33.865,140.968,46.102,140.968,46.102s-16.8-73.495,64.653-15.682c58.178,41.294,170.473,195.333,170.473,195.333
		L422.798,1688.09z"/>
	<polygon style="fill:#B75742;" points="964.07,807.886 838.723,1841.997 856.613,1861.358 963.976,1432.516 	"/>
	<polygon style="fill:#355389;" points="979.316,703.977 856.613,1861.358 1127.467,1861.358 1060.186,680.144 	"/>
	<path style="fill:#EDD7BE;" d="M940.419,1848.298h1512.103c25.856,0,48.248-22.155,50.013-49.487l68.893-1067.046
		c1.492-23.105-15.018-41.835-36.876-41.835H1015.209c-21.858,0-40.788,18.73-42.279,41.835l-69.387,1074.698
		C902.051,1829.568,918.561,1848.298,940.419,1848.298z"/>
	<polygon style="fill:#184655;" points="1060.399,683.889 1060.186,680.144 972.319,687.965 856.613,1861.358 869.534,1861.358 
		992.237,703.977 	"/>
	<path style="fill:#FEF8F8;" d="M979.095,827.941l-65.498,989.541c1.987,24.185,23.228,30.816,35.509,30.816h196.326
		L1028.273,738.722L979.095,827.941z"/>
	<path style="fill:#9BC1F9;" d="M1135.761,1075.008h-102.039c-14.638,0-25.403-12.352-24.044-27.589l9.47-106.22
		c1.358-15.237,14.325-27.589,28.963-27.589h102.039c14.638,0,25.402,12.352,24.044,27.589l-9.469,106.22
		C1163.366,1062.656,1150.398,1075.008,1135.761,1075.008z"/>
	<path style="fill:#9BC1F9;" d="M1355.71,1075.008h-102.039c-14.638,0-25.402-12.352-24.044-27.589l9.469-106.22
		c1.358-15.237,14.325-27.589,28.963-27.589h102.039c14.638,0,25.402,12.352,24.044,27.589l-9.469,106.22
		C1383.315,1062.656,1370.348,1075.008,1355.71,1075.008z"/>
	<path style="fill:#9BC1F9;" d="M1575.66,1075.008h-102.039c-14.637,0-25.402-12.352-24.044-27.589l9.469-106.22
		c1.358-15.237,14.326-27.589,28.963-27.589h102.039c14.637,0,25.402,12.352,24.044,27.589l-9.469,106.22
		C1603.265,1062.656,1590.297,1075.008,1575.66,1075.008z"/>
	<path style="fill:#9BC1F9;" d="M1795.609,1075.008h-102.04c-14.637,0-25.402-12.352-24.044-27.589l9.469-106.22
		c1.358-15.237,14.326-27.589,28.963-27.589h102.04c14.637,0,25.402,12.352,24.043,27.589l-9.469,106.22
		C1823.214,1062.656,1810.247,1075.008,1795.609,1075.008z"/>
	<path style="fill:#9BC1F9;" d="M2015.559,1075.008H1913.52c-14.638,0-25.402-12.352-24.044-27.589l9.469-106.22
		c1.358-15.237,14.326-27.589,28.964-27.589h102.039c14.638,0,25.402,12.352,24.044,27.589l-9.47,106.22
		C2043.163,1062.656,2030.196,1075.008,2015.559,1075.008z"/>
	<path style="fill:#F47458;" d="M2235.508,1075.008h-102.039c-14.638,0-25.402-12.352-24.044-27.589l9.47-106.22
		c1.357-15.237,14.325-27.589,28.963-27.589h102.039c14.638,0,25.402,12.352,24.044,27.589l-9.47,106.22
		C2263.113,1062.656,2250.146,1075.008,2235.508,1075.008z"/>
	<path style="fill:#F47458;" d="M2455.457,1075.008h-102.039c-14.637,0-25.402-12.352-24.044-27.589l9.47-106.22
		c1.358-15.237,14.325-27.589,28.963-27.589h102.039c14.638,0,25.402,12.352,24.044,27.589l-9.47,106.22
		C2483.063,1062.656,2470.095,1075.008,2455.457,1075.008z"/>
	<path style="fill:#9BC1F9;" d="M1114.098,1318.011h-102.039c-14.638,0-25.402-12.353-24.044-27.589l9.469-106.22
		c1.358-15.237,14.326-27.59,28.963-27.59h102.039c14.637,0,25.402,12.353,24.044,27.59l-9.47,106.22
		C1141.703,1305.658,1128.735,1318.011,1114.098,1318.011z"/>
	<path style="fill:#9BC1F9;" d="M1334.047,1318.011h-102.039c-14.637,0-25.402-12.353-24.044-27.589l9.469-106.22
		c1.358-15.237,14.326-27.59,28.963-27.59h102.039c14.638,0,25.402,12.353,24.044,27.59l-9.469,106.22
		C1361.652,1305.658,1348.685,1318.011,1334.047,1318.011z"/>
	<path style="fill:#9BC1F9;" d="M1553.997,1318.011h-102.039c-14.638,0-25.402-12.353-24.044-27.589l9.47-106.22
		c1.358-15.237,14.325-27.59,28.963-27.59h102.039c14.638,0,25.402,12.353,24.044,27.59l-9.47,106.22
		C1581.602,1305.658,1568.634,1318.011,1553.997,1318.011z"/>
	<path style="fill:#9BC1F9;" d="M1773.945,1318.011h-102.039c-14.637,0-25.402-12.353-24.044-27.589l9.469-106.22
		c1.358-15.237,14.326-27.59,28.963-27.59h102.039c14.638,0,25.402,12.353,24.044,27.59l-9.469,106.22
		C1801.551,1305.658,1788.583,1318.011,1773.945,1318.011z"/>
	<path style="fill:#9BC1F9;" d="M1993.896,1318.011h-102.039c-14.638,0-25.402-12.353-24.044-27.589l9.469-106.22
		c1.358-15.237,14.326-27.59,28.963-27.59h102.039c14.638,0,25.402,12.353,24.044,27.59l-9.469,106.22
		C2021.5,1305.658,2008.533,1318.011,1993.896,1318.011z"/>
	<path style="fill:#F47458;" d="M2213.845,1318.011h-102.039c-14.638,0-25.402-12.353-24.044-27.589l9.469-106.22
		c1.358-15.237,14.326-27.59,28.963-27.59h102.04c14.638,0,25.402,12.353,24.044,27.59l-9.47,106.22
		C2241.449,1305.658,2228.482,1318.011,2213.845,1318.011z"/>
	<path style="fill:#F47458;" d="M2433.794,1318.011h-102.039c-14.638,0-25.402-12.353-24.044-27.589l9.47-106.22
		c1.358-15.237,14.325-27.59,28.963-27.59h102.039c14.638,0,25.402,12.353,24.044,27.59l-9.47,106.22
		C2461.398,1305.658,2448.432,1318.011,2433.794,1318.011z"/>
	<path style="fill:#9BC1F9;" d="M1092.435,1561.014H990.395c-14.638,0-25.403-12.353-24.044-27.59l9.469-106.219
		c1.359-15.237,14.326-27.59,28.963-27.59h102.039c14.638,0,25.402,12.353,24.044,27.59l-9.469,106.219
		C1120.039,1548.661,1107.072,1561.014,1092.435,1561.014z"/>
	<path style="fill:#9BC1F9;" d="M1312.384,1561.014h-102.039c-14.638,0-25.402-12.353-24.044-27.59l9.469-106.219
		c1.358-15.237,14.326-27.59,28.963-27.59h102.039c14.637,0,25.402,12.353,24.044,27.59l-9.47,106.219
		C1339.988,1548.661,1327.021,1561.014,1312.384,1561.014z"/>
	<path style="fill:#9BC1F9;" d="M1532.333,1561.014h-102.039c-14.638,0-25.402-12.353-24.044-27.59l9.469-106.219
		c1.358-15.237,14.326-27.59,28.963-27.59h102.039c14.637,0,25.402,12.353,24.044,27.59l-9.469,106.219
		C1559.938,1548.661,1546.971,1561.014,1532.333,1561.014z"/>
	<path style="fill:#9BC1F9;" d="M1752.282,1561.014h-102.039c-14.638,0-25.403-12.353-24.044-27.59l9.47-106.219
		c1.358-15.237,14.325-27.59,28.963-27.59h102.039c14.638,0,25.402,12.353,24.044,27.59l-9.469,106.219
		C1779.888,1548.661,1766.92,1561.014,1752.282,1561.014z"/>
	<path style="fill:#9BC1F9;" d="M1972.232,1561.014h-102.04c-14.638,0-25.402-12.353-24.044-27.59l9.47-106.219
		c1.358-15.237,14.325-27.59,28.963-27.59h102.039c14.638,0,25.402,12.353,24.044,27.59l-9.469,106.219
		C1999.837,1548.661,1986.869,1561.014,1972.232,1561.014z"/>
	<path style="fill:#F47458;" d="M2192.182,1561.014h-102.039c-14.638,0-25.402-12.353-24.045-27.59l9.47-106.219
		c1.358-15.237,14.325-27.59,28.964-27.59h102.039c14.637,0,25.402,12.353,24.043,27.59l-9.469,106.219
		C2219.786,1548.661,2206.818,1561.014,2192.182,1561.014z"/>
	<path style="fill:#F47458;" d="M2412.131,1561.014h-102.039c-14.638,0-25.402-12.353-24.044-27.59l9.469-106.219
		c1.358-15.237,14.326-27.59,28.964-27.59h102.039c14.637,0,25.402,12.353,24.044,27.59l-9.47,106.219
		C2439.735,1548.661,2426.768,1561.014,2412.131,1561.014z"/>
	<path style="fill:#9BC1F9;" d="M1070.771,1804.016H968.732c-14.638,0-25.402-12.352-24.044-27.589l9.469-106.22
		c1.358-15.237,14.326-27.589,28.963-27.589h102.039c14.638,0,25.403,12.352,24.044,27.589l-9.469,106.22
		C1098.376,1791.664,1085.408,1804.016,1070.771,1804.016z"/>
	<path style="fill:#9BC1F9;" d="M1290.72,1804.016h-102.039c-14.637,0-25.402-12.352-24.044-27.589l9.469-106.22
		c1.358-15.237,14.326-27.589,28.963-27.589h102.039c14.637,0,25.402,12.352,24.044,27.589l-9.469,106.22
		C1318.325,1791.664,1305.358,1804.016,1290.72,1804.016z"/>
	<path style="fill:#9BC1F9;" d="M1510.67,1804.016h-102.039c-14.638,0-25.402-12.352-24.044-27.589l9.469-106.22
		c1.358-15.237,14.326-27.589,28.963-27.589h102.039c14.638,0,25.402,12.352,24.044,27.589l-9.47,106.22
		C1538.274,1791.664,1525.307,1804.016,1510.67,1804.016z"/>
	<path style="fill:#9BC1F9;" d="M1730.619,1804.016H1628.58c-14.638,0-25.402-12.352-24.044-27.589l9.469-106.22
		c1.358-15.237,14.326-27.589,28.963-27.589h102.039c14.638,0,25.402,12.352,24.044,27.589l-9.47,106.22
		C1758.225,1791.664,1745.257,1804.016,1730.619,1804.016z"/>
	<path style="fill:#9BC1F9;" d="M1950.568,1804.016h-102.039c-14.637,0-25.402-12.352-24.044-27.589l9.47-106.22
		c1.358-15.237,14.325-27.589,28.963-27.589h102.039c14.638,0,25.402,12.352,24.044,27.589l-9.47,106.22
		C1978.174,1791.664,1965.206,1804.016,1950.568,1804.016z"/>
	<path style="fill:#E0C8A9;" d="M2561.031,1881.035H1048.928c-25.856,0-47.308-21.326-47.912-47.634L977.413,806.319
		c-0.511-22.24,16.794-40.268,38.653-40.268h1519.343c21.857,0,39.992,18.028,40.503,40.268l23.772,1034.449
		C2600.194,1863.007,2582.889,1881.035,2561.031,1881.035z"/>
	<path style="fill:#FEF8F8;" d="M2571.864,1881.753H1059.761c-25.857,0-47.308-21.327-47.913-47.634L988.246,807.036
		c-0.511-22.239,16.794-40.268,38.652-40.268h1519.343c21.858,0,39.992,18.029,40.503,40.268l23.772,1034.448
		C2611.027,1863.725,2593.723,1881.753,2571.864,1881.753z"/>
	<path style="fill:#F7CC7F;" d="M630.703,360.77c-1.133-16.317,11.177-30.463,27.494-31.596
		c16.317-1.133,30.463,11.177,31.596,27.494c1.133,16.317-11.177,30.463-27.494,31.596
		C645.981,389.396,631.835,377.086,630.703,360.77z"/>
	<g>
		<path style="fill:#F7CC7F;" d="M680.926,444.401c-1.769-8.592-2.838-17.79-5.769-26.07c-2.521-7.121-13.633-4.946-13.07,2.702
			c0.69,9.365,3.615,18.86,5.578,28.034c0.794,3.715,5.71,5.44,8.963,4.298C680.605,451.969,681.694,448.134,680.926,444.401
			L680.926,444.401z"/>
	</g>
	<g>
		<path style="fill:#F7CC7F;" d="M731.681,407.711c-9.816-5.788-18.371-12.959-27.429-19.803c-7.076-5.346-14.704,3.856-8.884,10.21
			c8.358,9.126,19.331,16.256,29.924,22.501c3.352,1.976,8.013,0.045,9.649-3.259C736.776,413.655,735.041,409.691,731.681,407.711
			L731.681,407.711z"/>
	</g>
	<g>
		<path style="fill:#F7CC7F;" d="M713.092,354.694c-2.222,1.783-2.666,4.344-1.294,6.832c3.32,6.022,11.746,5.723,17.73,5.52
			c6.244-0.212,12.49-1.481,18.394-3.497c8.727-2.979,3.997-16.524-4.762-13.535C726.028,355.863,719.542,349.515,713.092,354.694z"
			/>
	</g>
	<g>
		<path style="fill:#F7CC7F;" d="M703.661,297.107c-8.62,12.611-15.664,16.869-14.567,23.811c0.642,4.058,3.85,5.996,7.767,5.107
			c4.63-1.05,7.151-5.959,9.927-9.405c2.662-3.304,5.273-6.616,7.649-10.135c2.157-3.193,2.461-7.327-0.699-10.077
			C711.09,294.103,705.85,293.904,703.661,297.107L703.661,297.107z"/>
	</g>
	<g>
		<path style="fill:#F7CC7F;" d="M670.078,294.922c-2.756-7.644-3.361-10.424-6.935-13.976c-3.107-3.087-9.667-1.118-10.101,3.431
			c-0.506,5.305,0.606,7.275,3.502,15.307c1.313,3.643,5.473,5.676,9.148,4.387C669.336,302.792,671.396,298.579,670.078,294.922
			L670.078,294.922z"/>
	</g>
	<g>
		<path style="fill:#F7CC7F;" d="M633.806,313.418c-12.426-9.441-14.954-12.1-19.835-11.585c-2.862,0.302-6.075,3.05-5.45,6.263
			c1.161,5.969,4.633,7.59,16.058,15.925c3.064,2.235,7.273,2.348,9.915-0.688C636.861,320.611,636.84,315.724,633.806,313.418
			L633.806,313.418z"/>
	</g>
	<g>
		<path style="fill:#F7CC7F;" d="M583.892,356.69c-4.896,2.598-2.929,11.064,2.374,11.757c5.084,0.664,7.047-0.152,31.715-4.656
			c3.81-0.696,6.948-3.478,6.658-7.651c-0.246-3.542-3.815-7.35-7.651-6.658C591.369,354.104,588.805,354.084,583.892,356.69z"/>
	</g>
	<g>
		<path style="fill:#F7CC7F;" d="M622.54,397.045c-13.52,13.086-15.5,10.774-20.839,18.776c-2.442,3.659,1.584,9.491,5.836,8.711
			c5.455-1,6.921-1.921,14.032-7.555c4.132-3.274,8.083-6.784,11.879-10.44c2.814-2.71,2.055-7.796-0.708-10.2
			C629.583,393.589,625.355,394.321,622.54,397.045L622.54,397.045z"/>
	</g>
	<polygon style="fill:#50BFA5;" points="938.813,371.905 955.892,351.831 986.018,349.702 1003.206,326.64 1033.59,331.463 
		1054.474,305.698 1084.202,307.448 1109.313,283.96 1098.939,279.412 1080.164,296.974 1048.794,295.126 1028.718,319.894 
		997.827,314.99 978.859,340.439 949.44,342.519 933.611,361.125 914.987,359.595 909.811,369.523 	"/>
	<path style="fill:#FED333;" d="M2144.764,315.877l-16.143,18.001l5.678,23.502c0.458,1.899-1.459,3.5-3.245,2.709l-22.108-9.79
		l-20.598,12.663c-1.664,1.023-3.779-0.307-3.579-2.25l2.479-24.052l-18.407-15.677c-1.487-1.267-0.877-3.688,1.033-4.098
		l23.641-5.075l9.222-22.352c0.745-1.806,3.237-1.973,4.217-0.284l12.132,20.915l24.107,1.863
		C2145.139,312.105,2146.068,314.423,2144.764,315.877z"/>
	<polygon style="fill:#F47458;" points="1377.783,339.473 1354.932,304.148 1332.961,321.525 1324.634,310.996 1358.185,284.463 
		1380.899,319.576 1406.401,298.7 1427.72,330.391 1456.875,312.541 1463.883,323.988 1423.761,348.555 1403.494,318.427 	"/>
	<path style="fill:#07345A;" d="M1707.486,296.691l13.279-21.568l-10.664-4.324c-2.333-0.946-3.458-3.605-2.512-5.938l0,0
		c0.946-2.333,3.605-3.458,5.939-2.512l12.297,4.987l11.872-19.369l-11.39-4.619c-2.333-0.946-3.458-3.605-2.512-5.939l0,0
		c0.946-2.333,3.605-3.458,5.938-2.511l13.023,5.281l13.788-22.18c1.171-1.884,3.529-2.652,5.585-1.818l1.989,0.806
		c2.609,1.059,3.645,4.206,2.174,6.607l-12.823,20.929l18.883,7.658l13.787-22.18c1.172-1.885,3.53-2.652,5.586-1.818l2.171,0.88
		c2.609,1.059,3.645,4.206,2.174,6.607l-12.823,20.929l10.663,4.324c2.334,0.946,3.459,3.605,2.512,5.939l0,0
		c-0.945,2.333-3.604,3.458-5.938,2.512l-12.297-4.987l-11.69,19.442l11.39,4.619c2.333,0.946,3.458,3.605,2.512,5.939l0,0
		c-0.946,2.333-3.605,3.458-5.938,2.511l-13.023-5.282l-14.084,22.874c-1.167,1.896-3.532,2.671-5.596,1.835l-2.325-0.943
		c-2.613-1.06-3.647-4.214-2.169-6.616l13.279-21.568l-18.883-7.658l-14.083,22.874c-1.167,1.896-3.533,2.671-5.596,1.835
		l-2.325-0.943C1707.042,302.247,1706.008,299.093,1707.486,296.691z M1755.604,279.412l11.871-19.369l-18.882-7.658l-11.872,19.369
		L1755.604,279.412z"/>
	<polygon style="fill:#256653;" points="2523.303,299.149 2494.351,294.506 2477.598,319.273 2445.513,311.771 2435.803,343.653 
		2399.145,336.77 2386.582,365.025 2350.23,364.168 2350.555,350.41 2377.734,351.049 2390.99,321.234 2426.229,327.851 
		2436.101,295.435 2471.506,303.714 2487.867,279.528 2514.701,283.832 2522.123,265.701 2534.861,270.916 	"/>
	<path style="fill:#B75742;" d="M2470.868,611.235H1059.436c-51.809,0-90.942,41.522-87.407,92.742l9.485,137.406h1599.05
		l-9.485-137.406C2567.543,652.757,2522.678,611.235,2470.868,611.235z"/>
	<path style="fill:#F47458;" d="M2478.155,611.235H1066.723c-51.809,0-90.942,41.522-87.407,92.742l9.486,137.406h1599.049
		l-9.485-137.406C2574.831,652.757,2529.965,611.235,2478.155,611.235z"/>
	<path style="fill:#F47458;" d="M1185.417,1094.215h-102.039c-14.637,0-26.906-12.222-27.404-27.299l-3.465-105.1
		c-0.497-15.077,10.966-27.299,25.604-27.299h102.039c14.637,0,26.907,12.222,27.404,27.299l3.465,105.1
		C1211.517,1081.993,1200.054,1094.215,1185.417,1094.215z"/>
	<path style="fill:#9BC1F9;" d="M1405.366,1094.215h-102.039c-14.638,0-26.907-12.222-27.404-27.299l-3.465-105.1
		c-0.497-15.077,10.966-27.299,25.604-27.299H1400.1c14.638,0,26.907,12.222,27.404,27.299l3.466,105.1
		C1431.467,1081.993,1420.003,1094.215,1405.366,1094.215z"/>
	<path style="fill:#9BC1F9;" d="M1625.315,1094.215h-102.039c-14.638,0-26.907-12.222-27.404-27.299l-3.465-105.1
		c-0.497-15.077,10.966-27.299,25.604-27.299h102.039c14.638,0,26.906,12.222,27.404,27.299l3.465,105.1
		C1651.416,1081.993,1639.953,1094.215,1625.315,1094.215z"/>
	<path style="fill:#9BC1F9;" d="M1845.265,1094.215h-102.039c-14.638,0-26.906-12.222-27.404-27.299l-3.465-105.1
		c-0.497-15.077,10.966-27.299,25.604-27.299h102.039c14.638,0,26.907,12.222,27.404,27.299l3.465,105.1
		C1871.365,1081.993,1859.902,1094.215,1845.265,1094.215z"/>
	<path style="fill:#9BC1F9;" d="M2065.215,1094.215h-102.04c-14.638,0-26.906-12.222-27.403-27.299l-3.466-105.1
		c-0.497-15.077,10.967-27.299,25.604-27.299h102.039c14.638,0,26.907,12.222,27.404,27.299l3.465,105.1
		C2091.314,1081.993,2079.852,1094.215,2065.215,1094.215z"/>
	<path style="fill:#9BC1F9;" d="M2285.164,1094.215h-102.039c-14.638,0-26.907-12.222-27.404-27.299l-3.465-105.1
		c-0.498-15.077,10.966-27.299,25.603-27.299h102.04c14.637,0,26.906,12.222,27.403,27.299l3.466,105.1
		C2311.265,1081.993,2299.801,1094.215,2285.164,1094.215z"/>
	<path style="fill:#F47458;" d="M2505.113,1094.215h-102.039c-14.638,0-26.906-12.222-27.404-27.299l-3.465-105.1
		c-0.498-15.077,10.966-27.299,25.604-27.299h102.039c14.637,0,26.906,12.222,27.403,27.299l3.466,105.1
		C2531.214,1081.993,2519.75,1094.215,2505.113,1094.215z"/>
	<path style="fill:#F47458;" d="M1193.345,1334.656h-102.039c-14.638,0-26.907-12.222-27.404-27.298l-3.465-105.101
		c-0.497-15.076,10.966-27.299,25.604-27.299h102.039c14.638,0,26.906,12.223,27.404,27.299l3.465,105.101
		C1219.445,1322.435,1207.982,1334.656,1193.345,1334.656z"/>
	<path style="fill:#9BC1F9;" d="M1413.294,1334.656h-102.039c-14.638,0-26.906-12.222-27.403-27.298l-3.466-105.101
		c-0.497-15.076,10.966-27.299,25.604-27.299h102.039c14.638,0,26.907,12.223,27.404,27.299l3.465,105.101
		C1439.395,1322.435,1427.932,1334.656,1413.294,1334.656z"/>
	<path style="fill:#9BC1F9;" d="M1633.243,1334.656h-102.039c-14.638,0-26.907-12.222-27.404-27.298l-3.466-105.101
		c-0.497-15.076,10.966-27.299,25.604-27.299h102.039c14.638,0,26.907,12.223,27.404,27.299l3.465,105.101
		C1659.344,1322.435,1647.881,1334.656,1633.243,1334.656z"/>
	<path style="fill:#9BC1F9;" d="M1853.193,1334.656h-102.039c-14.638,0-26.907-12.222-27.404-27.298l-3.465-105.101
		c-0.497-15.076,10.966-27.299,25.604-27.299h102.038c14.638,0,26.907,12.223,27.404,27.299l3.466,105.101
		C1879.294,1322.435,1867.83,1334.656,1853.193,1334.656z"/>
	<path style="fill:#9BC1F9;" d="M2073.143,1334.656h-102.039c-14.638,0-26.906-12.222-27.404-27.298l-3.465-105.101
		c-0.497-15.076,10.966-27.299,25.604-27.299h102.039c14.637,0,26.906,12.223,27.403,27.299l3.466,105.101
		C2099.243,1322.435,2087.78,1334.656,2073.143,1334.656z"/>
	<path style="fill:#9BC1F9;" d="M2293.092,1334.656h-102.039c-14.638,0-26.906-12.222-27.403-27.298l-3.466-105.101
		c-0.497-15.076,10.966-27.299,25.604-27.299h102.039c14.638,0,26.906,12.223,27.403,27.299l3.466,105.101
		C2319.192,1322.435,2307.729,1334.656,2293.092,1334.656z"/>
	<path style="fill:#F47458;" d="M2513.041,1334.656h-102.039c-14.638,0-26.906-12.222-27.403-27.298l-3.466-105.101
		c-0.497-15.076,10.966-27.299,25.604-27.299h102.039c14.638,0,26.906,12.223,27.404,27.299l3.465,105.101
		C2539.142,1322.435,2527.679,1334.656,2513.041,1334.656z"/>
	<path style="fill:#F47458;" d="M1201.273,1575.099h-102.04c-14.637,0-26.906-12.223-27.403-27.299l-3.466-105.1
		c-0.497-15.077,10.966-27.299,25.604-27.299h102.039c14.638,0,26.907,12.222,27.404,27.299l3.465,105.1
		C1227.374,1562.876,1215.91,1575.099,1201.273,1575.099z"/>
	<path style="fill:#9BC1F9;" d="M1421.222,1575.099h-102.039c-14.638,0-26.907-12.223-27.404-27.299l-3.465-105.1
		c-0.497-15.077,10.966-27.299,25.604-27.299h102.039c14.638,0,26.907,12.222,27.404,27.299l3.465,105.1
		C1447.323,1562.876,1435.86,1575.099,1421.222,1575.099z"/>
	<path style="fill:#9BC1F9;" d="M1641.171,1575.099h-102.039c-14.638,0-26.907-12.223-27.404-27.299l-3.465-105.1
		c-0.497-15.077,10.966-27.299,25.604-27.299h102.039c14.638,0,26.907,12.222,27.404,27.299l3.465,105.1
		C1667.272,1562.876,1655.809,1575.099,1641.171,1575.099z"/>
	<path style="fill:#9BC1F9;" d="M1861.121,1575.099h-102.039c-14.638,0-26.907-12.223-27.404-27.299l-3.465-105.1
		c-0.497-15.077,10.966-27.299,25.604-27.299h102.039c14.638,0,26.906,12.222,27.403,27.299l3.466,105.1
		C1887.222,1562.876,1875.759,1575.099,1861.121,1575.099z"/>
	<path style="fill:#9BC1F9;" d="M2081.07,1575.099h-102.039c-14.638,0-26.906-12.223-27.403-27.299l-3.466-105.1
		c-0.497-15.077,10.966-27.299,25.604-27.299h102.039c14.638,0,26.906,12.222,27.403,27.299l3.466,105.1
		C2107.171,1562.876,2095.708,1575.099,2081.07,1575.099z"/>
	<path style="fill:#9BC1F9;" d="M2301.02,1575.099H2198.98c-14.637,0-26.906-12.223-27.403-27.299l-3.466-105.1
		c-0.497-15.077,10.967-27.299,25.604-27.299h102.039c14.638,0,26.906,12.222,27.404,27.299l3.465,105.1
		C2327.12,1562.876,2315.657,1575.099,2301.02,1575.099z"/>
	<path style="fill:#F47458;" d="M2520.969,1575.099H2418.93c-14.637,0-26.906-12.223-27.403-27.299l-3.466-105.1
		c-0.497-15.077,10.967-27.299,25.604-27.299h102.039c14.638,0,26.907,12.222,27.404,27.299l3.465,105.1
		C2547.07,1562.876,2535.606,1575.099,2520.969,1575.099z"/>
	<path style="fill:#F47458;" d="M1209.201,1815.54h-102.039c-14.637,0-26.907-12.222-27.404-27.299l-3.465-105.1
		c-0.497-15.077,10.966-27.299,25.604-27.299h102.039c14.638,0,26.907,12.222,27.404,27.299l3.465,105.1
		C1235.302,1803.318,1223.838,1815.54,1209.201,1815.54z"/>
	<path style="fill:#9BC1F9;" d="M1429.15,1815.54h-102.039c-14.638,0-26.907-12.222-27.404-27.299l-3.465-105.1
		c-0.498-15.077,10.966-27.299,25.604-27.299h102.039c14.637,0,26.906,12.222,27.403,27.299l3.466,105.1
		C1455.251,1803.318,1443.788,1815.54,1429.15,1815.54z"/>
	<path style="fill:#9BC1F9;" d="M1649.1,1815.54h-102.039c-14.638,0-26.906-12.222-27.404-27.299l-3.465-105.1
		c-0.497-15.077,10.966-27.299,25.604-27.299h102.039c14.638,0,26.907,12.222,27.404,27.299l3.465,105.1
		C1675.2,1803.318,1663.737,1815.54,1649.1,1815.54z"/>
	<path style="fill:#9BC1F9;" d="M1869.049,1815.54H1767.01c-14.638,0-26.906-12.222-27.403-27.299l-3.466-105.1
		c-0.497-15.077,10.966-27.299,25.604-27.299h102.039c14.638,0,26.906,12.222,27.404,27.299l3.465,105.1
		C1895.149,1803.318,1883.687,1815.54,1869.049,1815.54z"/>
	<path style="fill:#9BC1F9;" d="M2088.998,1815.54h-102.039c-14.637,0-26.906-12.222-27.403-27.299l-3.466-105.1
		c-0.497-15.077,10.967-27.299,25.604-27.299h102.039c14.638,0,26.907,12.222,27.404,27.299l3.465,105.1
		C2115.1,1803.318,2103.636,1815.54,2088.998,1815.54z"/>
	<g>
		<path style="fill:#FFFFFF;" d="M1071.904,774.393c2.207,1.289,5.376,2.363,8.635,2.363c4.833,0,7.482-2.523,7.23-6.174
			c-0.233-3.382-2.322-5.315-7.393-7.194c-6.119-2.094-10.022-5.154-10.375-10.254c-0.389-5.638,4.046-9.825,11.16-9.825
			c3.748,0,6.522,0.859,8.214,1.771l-1.04,3.812c-1.239-0.644-3.757-1.718-7.069-1.718c-4.996,0-6.693,2.952-6.522,5.422
			c0.233,3.382,2.575,5.046,7.758,6.979c6.354,2.362,9.708,5.315,10.075,10.63c0.385,5.583-3.462,10.415-12.098,10.415
			c-3.529,0-7.455-1.021-9.499-2.309L1071.904,774.393z"/>
		<path style="fill:#FFFFFF;" d="M1121.062,772.997c0.185,2.685,0.403,5.047,0.707,7.087h-4.236l-0.564-4.241h-0.108
			c-1.105,2.093-3.686,4.832-8.356,4.832c-4.127,0-9.225-2.255-9.855-11.382l-1.049-15.194h4.779l0.993,14.389
			c0.341,4.94,2.092,8.268,6.436,8.268c3.205,0,5.279-2.201,6.004-4.295c0.223-0.698,0.326-1.557,0.267-2.416l-1.101-15.945h4.779
			L1121.062,772.997z"/>
		<path style="fill:#FFFFFF;" d="M1128.17,761.132c-0.185-2.685-0.392-4.886-0.703-7.034h4.236l0.568,4.295h0.108
			c1.133-2.47,4.007-4.886,8.352-4.886c3.639,0,9.434,2.148,10.049,11.06l1.071,15.516h-4.778l-1.034-14.979
			c-0.289-4.188-2.105-7.678-6.613-7.678c-3.149,0-5.441,2.201-6.074,4.832c-0.176,0.591-0.23,1.397-0.174,2.202l1.079,15.623
			h-4.778L1128.17,761.132z"/>
	</g>
	<g>
		<path style="fill:#FFFFFF;" d="M1324.933,761.131c-0.092-0.297-0.263-1.118-0.516-2.464c-0.219-1.119-0.406-2.045-0.563-2.779
			c-0.098,0.874-0.264,1.748-0.495,2.622c-0.231,0.873-0.537,1.765-0.916,2.673l-8.744,20.447l-11.596-20.866
			c-0.484-0.856-0.908-1.686-1.272-2.49c-0.365-0.803-0.689-1.599-0.973-2.385c0.037,0.804,0.029,1.647-0.025,2.53
			c-0.054,0.882-0.163,1.804-0.326,2.765l-2.859,18.9h-5.807l6.413-40.003l13.127,24.222c0.203,0.384,0.517,1.022,0.94,1.914
			s0.938,1.992,1.542,3.303c0.294-1.101,0.782-2.499,1.46-4.194c0.18-0.455,0.315-0.804,0.405-1.049l9.52-24.195l12.147,40.003
			h-5.859L1324.933,761.131z"/>
		<path style="fill:#FFFFFF;" d="M1338.245,767.685c-0.125-1.817,0.104-3.535,0.692-5.151c0.586-1.617,1.49-3.054,2.711-4.313
			c1.205-1.24,2.623-2.193,4.258-2.857c1.633-0.664,3.369-0.996,5.208-0.996c1.891,0,3.695,0.332,5.412,0.996
			c1.716,0.664,3.282,1.642,4.697,2.936c1.414,1.276,2.521,2.717,3.321,4.326c0.801,1.608,1.262,3.294,1.384,5.059
			c0.126,1.835-0.094,3.556-0.664,5.164c-0.57,1.608-1.466,3.032-2.688,4.272c-1.289,1.311-2.749,2.303-4.382,2.975
			c-1.634,0.673-3.377,1.01-5.234,1.01c-1.821,0-3.594-0.337-5.32-1.01c-1.726-0.672-3.287-1.646-4.683-2.923
			c-1.415-1.293-2.523-2.743-3.323-4.351C1338.833,771.215,1338.371,769.503,1338.245,767.685z M1359.859,767.737
			c-0.159-2.307-1.046-4.26-2.658-5.859c-1.614-1.599-3.507-2.398-5.681-2.398c-2.158,0-3.936,0.799-5.336,2.398
			c-1.401,1.6-2.021,3.552-1.862,5.859c0.159,2.307,1.049,4.26,2.671,5.859c1.622,1.599,3.51,2.398,5.668,2.398
			c2.156,0,3.935-0.8,5.335-2.398C1359.397,771.997,1360.019,770.044,1359.859,767.737z"/>
		<path style="fill:#FFFFFF;" d="M1372.882,780.084l-1.715-24.851h5.408l0.281,4.063c1.03-1.712,2.297-2.962,3.799-3.748
			c1.5-0.786,3.364-1.18,5.592-1.18c1.874,0,3.489,0.293,4.847,0.878c1.357,0.585,2.448,1.455,3.269,2.608
			c0.489,0.682,0.862,1.477,1.12,2.386c0.257,0.909,0.464,2.5,0.621,4.771l1.041,15.073h-5.807l-0.881-12.766
			c-0.226-3.268-0.778-5.44-1.656-6.514c-0.879-1.075-2.343-1.612-4.394-1.612c-1.343,0-2.524,0.245-3.542,0.734
			c-1.019,0.49-1.798,1.18-2.337,2.071c-0.382,0.594-0.626,1.359-0.729,2.293c-0.104,0.935-0.084,2.425,0.057,4.469l0.782,11.325
			H1372.882z"/>
	</g>
	<g>
		<path style="fill:#FFFFFF;" d="M1526.145,747.002l2.284,33.082h-6.312l-2.284-33.082h-10.314l-0.366-5.295h26.886l0.366,5.295
			H1526.145z"/>
		<path style="fill:#FFFFFF;" d="M1541.429,755.233l0.966,13.998c0.166,2.412,0.789,4.142,1.869,5.19
			c1.081,1.048,2.751,1.573,5.015,1.573c2.263,0,3.861-0.524,4.796-1.573c0.936-1.049,1.319-2.778,1.153-5.19l-0.966-13.998h5.754
			l0.849,12.294c0.328,4.754-0.397,8.205-2.175,10.354c-1.779,2.15-4.781,3.225-9.005,3.225c-4.295,0-7.48-1.066-9.555-3.198
			c-2.073-2.132-3.275-5.592-3.605-10.38l-0.849-12.294H1541.429z"/>
		<path style="fill:#FFFFFF;" d="M1592.909,768.498h-20.099c0.302,2.324,1.125,4.137,2.471,5.439
			c1.344,1.303,3.06,1.953,5.146,1.953c1.856,0,3.377-0.384,4.561-1.153c1.184-0.769,2.177-2.01,2.978-3.723l5.036,2.674
			c-1.241,2.499-2.863,4.36-4.864,5.583s-4.407,1.835-7.218,1.835c-4.03,0-7.323-1.215-9.877-3.644
			c-2.555-2.429-3.971-5.671-4.25-9.725c-0.269-3.897,0.743-7.1,3.035-9.607c2.293-2.507,5.375-3.762,9.247-3.762
			c4.048,0,7.282,1.145,9.703,3.434c2.42,2.29,3.773,5.496,4.058,9.62L1592.909,768.498z M1586.679,764.67
			c-0.353-1.783-1.135-3.141-2.35-4.076c-1.213-0.935-2.819-1.403-4.816-1.403c-1.893,0-3.381,0.455-4.467,1.363
			c-1.086,0.909-1.796,2.28-2.129,4.116H1586.679z"/>
	</g>
	<g>
		<path style="fill:#FFFFFF;" d="M1729.93,741.707h6.23l8.683,19.372c0.565,1.276,1.044,2.394,1.438,3.355
			c0.393,0.961,0.742,1.861,1.048,2.7c0.478-2.027,0.986-4.011,1.523-5.951c0.071-0.245,0.122-0.41,0.151-0.498l6.381-20.499
			l9.662,20.893c0.458,1.014,0.896,2.027,1.311,3.041c0.415,1.014,0.808,2.036,1.179,3.067c0.123-0.786,0.302-1.651,0.537-2.595
			c0.235-0.944,0.547-2.062,0.936-3.355l5.942-19.529h6.285l-12.282,39.871l-10.367-21.889c-0.456-0.979-0.874-1.918-1.255-2.818
			c-0.381-0.9-0.722-1.751-1.025-2.556c-0.229,1.031-0.462,1.997-0.7,2.896c-0.239,0.9-0.489,1.761-0.75,2.582l-7.193,21.784
			L1729.93,741.707z"/>
		<path style="fill:#FFFFFF;" d="M1808.143,768.498h-20.1c0.303,2.324,1.126,4.137,2.471,5.439c1.345,1.303,3.061,1.953,5.146,1.953
			c1.856,0,3.378-0.384,4.562-1.153c1.184-0.769,2.178-2.01,2.979-3.723l5.036,2.674c-1.242,2.499-2.863,4.36-4.864,5.583
			c-2.002,1.223-4.407,1.835-7.218,1.835c-4.03,0-7.323-1.215-9.877-3.644c-2.555-2.429-3.971-5.671-4.251-9.725
			c-0.269-3.897,0.743-7.1,3.035-9.607c2.294-2.507,5.375-3.762,9.247-3.762c4.048,0,7.282,1.145,9.702,3.434
			c2.421,2.29,3.773,5.496,4.059,9.62L1808.143,768.498z M1801.911,764.67c-0.352-1.783-1.135-3.141-2.349-4.076
			c-1.213-0.935-2.819-1.403-4.816-1.403c-1.893,0-3.381,0.455-4.467,1.363c-1.086,0.909-1.796,2.28-2.129,4.116H1801.911z"/>
		<path style="fill:#FFFFFF;" d="M1830.028,739.453h5.753l2.805,40.631h-5.753l-0.223-3.225c-0.926,1.434-2.051,2.5-3.372,3.198
			c-1.321,0.699-2.866,1.049-4.634,1.049c-3.554,0-6.434-1.202-8.642-3.604c-2.207-2.403-3.455-5.692-3.743-9.87
			c-0.273-3.967,0.548-7.169,2.465-9.607c1.918-2.438,4.556-3.657,7.914-3.657c2.051,0,3.835,0.424,5.353,1.271
			c1.516,0.848,2.664,2.067,3.447,3.657L1830.028,739.453z M1832.128,767.58c-0.177-2.569-0.92-4.57-2.229-6.003
			c-1.311-1.433-3.052-2.15-5.227-2.15c-2.174,0-3.834,0.739-4.978,2.215c-1.144,1.477-1.626,3.526-1.445,6.147
			c0.183,2.639,0.923,4.675,2.225,6.108c1.301,1.433,3.048,2.15,5.24,2.15c2.085,0,3.72-0.774,4.904-2.32
			C1831.801,772.18,1832.305,770.131,1832.128,767.58z"/>
	</g>
	<g>
		<path style="fill:#FFFFFF;" d="M1968.756,747.002l2.283,33.082h-6.312l-2.283-33.082h-10.314l-0.365-5.295h26.886l0.366,5.295
			H1968.756z"/>
		<path style="fill:#FFFFFF;" d="M1985.649,780.084l-2.806-40.631h5.408l1.37,19.844c1.03-1.712,2.297-2.962,3.799-3.748
			c1.501-0.786,3.364-1.18,5.593-1.18c1.873,0,3.488,0.293,4.846,0.878c1.357,0.585,2.448,1.455,3.27,2.608
			c0.489,0.682,0.861,1.477,1.12,2.386c0.257,0.909,0.464,2.5,0.621,4.771l1.04,15.073h-5.807l-0.881-12.766
			c-0.226-3.268-0.778-5.44-1.656-6.514c-0.879-1.075-2.344-1.612-4.395-1.612c-1.343,0-2.523,0.245-3.541,0.734
			c-1.02,0.49-1.798,1.18-2.337,2.071c-0.383,0.594-0.627,1.359-0.729,2.293c-0.104,0.935-0.085,2.425,0.057,4.469l0.781,11.325
			H1985.649z"/>
		<path style="fill:#FFFFFF;" d="M2021.426,755.233l0.966,13.998c0.167,2.412,0.79,4.142,1.87,5.19
			c1.08,1.048,2.751,1.573,5.015,1.573c2.262,0,3.86-0.524,4.796-1.573c0.936-1.049,1.319-2.778,1.152-5.19l-0.966-13.998h5.755
			l0.849,12.294c0.328,4.754-0.398,8.205-2.176,10.354c-1.779,2.15-4.78,3.225-9.005,3.225c-4.296,0-7.48-1.066-9.555-3.198
			c-2.073-2.132-3.275-5.592-3.605-10.38l-0.85-12.294H2021.426z"/>
	</g>
	<g>
		<path style="fill:#FFFFFF;" d="M2179.803,780.084l-2.649-38.377h21.663l0.365,5.295h-15.353l0.661,9.568h15.352l0.379,5.479
			h-15.353l1.245,18.035H2179.803z"/>
		<path style="fill:#FFFFFF;" d="M2211.186,759.191c0.505-1.643,1.238-2.857,2.201-3.643c0.962-0.786,2.194-1.18,3.697-1.18
			c0.813,0,1.619,0.096,2.419,0.288c0.8,0.193,1.593,0.472,2.378,0.839l-1.734,4.824c-0.52-0.35-1.072-0.607-1.658-0.773
			c-0.585-0.166-1.232-0.249-1.939-0.249c-1.909,0-3.227,0.756-3.953,2.268c-0.727,1.512-0.967,4.05-0.721,7.615l0.753,10.905
			h-5.753l-1.72-24.903h5.753L2211.186,759.191z"/>
		<path style="fill:#FFFFFF;" d="M2223.905,744.485c-0.065-0.961,0.235-1.791,0.903-2.49c0.666-0.699,1.495-1.049,2.485-1.049
			c1.025,0,1.901,0.337,2.628,1.009c0.728,0.673,1.126,1.516,1.195,2.529c0.07,1.014-0.215,1.866-0.857,2.556
			c-0.641,0.69-1.466,1.036-2.474,1.036c-0.99,0-1.867-0.354-2.632-1.062C2224.39,746.308,2223.973,745.464,2223.905,744.485z
			 M2227.132,780.084l-1.716-24.851h5.755l1.716,24.851H2227.132z"/>
	</g>
	<g>
		<path style="fill:#FFFFFF;" d="M2398.352,772.403l4.878-2.307c0.595,1.713,1.561,3.02,2.896,3.919
			c1.335,0.9,2.992,1.35,4.973,1.35c1.872,0,3.326-0.515,4.36-1.546c1.033-1.031,1.491-2.412,1.372-4.142
			c-0.156-2.255-2.186-4.264-6.092-6.029c-0.548-0.262-0.968-0.454-1.26-0.577c-4.42-2.062-7.398-3.928-8.937-5.597
			c-1.538-1.668-2.391-3.71-2.558-6.121c-0.216-3.128,0.684-5.662,2.697-7.602c2.015-1.94,4.761-2.91,8.244-2.91
			c2.863,0,5.297,0.546,7.299,1.638c2.002,1.093,3.444,2.661,4.33,4.706l-4.759,2.517c-0.862-1.206-1.776-2.088-2.743-2.647
			c-0.967-0.56-2.05-0.839-3.252-0.839c-1.697,0-3.016,0.438-3.953,1.311c-0.939,0.874-1.357,2.044-1.256,3.513
			c0.159,2.307,2.499,4.456,7.021,6.448c0.348,0.158,0.62,0.28,0.821,0.367c3.957,1.748,6.709,3.456,8.255,5.125
			c1.548,1.669,2.407,3.753,2.58,6.252c0.251,3.635-0.708,6.523-2.876,8.664c-2.168,2.141-5.223,3.211-9.164,3.211
			c-3.307,0-6.067-0.751-8.283-2.255C2400.729,777.349,2399.197,775.2,2398.352,772.403z"/>
		<path style="fill:#FFFFFF;" d="M2454.086,780.084h-5.754l-0.223-3.225c-0.926,1.434-2.051,2.5-3.373,3.198
			c-1.32,0.699-2.865,1.049-4.633,1.049c-3.554,0-6.434-1.202-8.642-3.604c-2.207-2.403-3.455-5.692-3.743-9.87
			c-0.273-3.967,0.548-7.169,2.465-9.607c1.918-2.438,4.556-3.657,7.914-3.657c2.051,0,3.835,0.424,5.352,1.271
			c1.517,0.848,2.666,2.067,3.448,3.657l-0.28-4.063h5.753L2454.086,780.084z M2447.627,767.58c-0.177-2.569-0.92-4.57-2.229-6.003
			c-1.311-1.433-3.052-2.15-5.226-2.15c-2.175,0-3.835,0.739-4.979,2.215c-1.145,1.477-1.626,3.526-1.445,6.147
			c0.183,2.639,0.924,4.675,2.225,6.108c1.301,1.433,3.047,2.15,5.24,2.15c2.068,0,3.697-0.778,4.89-2.333
			C2447.295,772.159,2447.803,770.114,2447.627,767.58z"/>
		<path style="fill:#FFFFFF;" d="M2463.393,780.084l-1.371-19.87h-4.402l-0.344-4.981h4.402l-0.65-9.411h5.754l0.649,9.411h4.401
			l0.344,4.981h-4.401l1.372,19.87H2463.393z"/>
	</g>
	<path style="fill:#F47458;" d="M1890.652,1046.402c-3.822,18.58-12.432,38.315-30.696,51.491
		c-23.159,16.707-57.581,16.927-83.71,0.536l-0.303-0.181c-10.74-6.375-44.395-30.891-26.548-78.716l9.732,3.631
		c-14.622,39.181,10.596,59.314,22.117,66.152c0.232,0.138,0.407,0.243,0.521,0.313c22.64,14.203,52.294,14.137,72.113-0.16
		c30.261-21.831,30.134-65.813,28.675-83.709c-0.615-7.55-1.751-16.242-5.508-23.474c-8.034-15.469-27.609-30.118-47.602-35.626
		c-19.932-5.491-37.972-7.516-53.617-6.016c-17.826,1.708-34.78,11.735-43.195,25.543c-0.673,1.104-1.349,2.201-2.021,3.295
		c-9.374,15.233-17.471,28.389-15.017,51.808l-10.33,1.082c-2.822-26.935,7.001-42.896,16.501-58.334
		c0.665-1.081,1.331-2.165,1.997-3.256c10.058-16.504,30.105-28.468,51.074-30.477c16.91-1.621,36.212,0.512,57.367,6.341
		c19.076,5.256,43.19,19.926,54.062,40.852c4.606,8.869,5.942,18.837,6.643,27.418
		C1893.662,1014.18,1894.06,1029.833,1890.652,1046.402z"/>
	<ellipse style="fill:#B75742;" cx="2386.52" cy="663.515" rx="25.462" ry="30.39"/>
	<path style="fill:#A54737;" d="M2386.52,633.125c-2.609,0-5.126,0.471-7.496,1.341c10.403,3.819,17.966,15.379,17.966,29.049
		c0,13.67-7.563,25.23-17.966,29.049c2.37,0.87,4.887,1.341,7.496,1.341c14.063,0,25.462-13.606,25.462-30.39
		C2411.981,646.731,2400.582,633.125,2386.52,633.125z"/>
	<path style="fill:#184655;" d="M2278.704,430.991c-74.121,0-134.423,66.042-134.423,147.219c0,11.354,1.201,22.403,3.436,33.025
		h20.629c-2.555-10.537-3.938-21.603-3.938-33.025c0-70.079,51.272-127.093,114.297-127.093
		c63.023,0,114.296,57.014,114.296,127.093c0,35.781-13.367,68.156-34.84,91.275c-3.826,4.12-3.419,10.59,0.831,14.271
		c0.051,0.044,0.103,0.088,0.153,0.133c4.035,3.474,10.124,3.163,13.748-0.739c24.82-26.726,40.234-63.898,40.234-104.94
		C2413.127,497.034,2352.824,430.991,2278.704,430.991z"/>
	<path style="fill:#F47458;" d="M2361.058,664.407c0,0,1.227,17.432,13.507,25.943c12.281,8.512-17.039,12.984-18.53,11.493
		c-1.49-1.491-15.073-10.271-15.405-19.05c-0.331-8.779,2.485-15.902,2.982-17.061c0.497-1.16,4.307-7.951,5.301-7.951
		C2349.905,657.781,2361.058,664.407,2361.058,664.407z"/>
	<ellipse style="fill:#B75742;" cx="2041.127" cy="663.515" rx="25.462" ry="30.39"/>
	<path style="fill:#A54737;" d="M2041.127,633.125c-2.609,0-5.126,0.471-7.496,1.341c10.403,3.819,17.967,15.379,17.967,29.049
		c0,13.67-7.563,25.23-17.967,29.049c2.37,0.87,4.887,1.341,7.496,1.341c14.063,0,25.462-13.606,25.462-30.39
		C2066.589,646.731,2055.189,633.125,2041.127,633.125z"/>
	<path style="fill:#184655;" d="M1933.312,430.991c-74.121,0-134.423,66.042-134.423,147.219c0,11.354,1.201,22.403,3.436,33.025
		h20.63c-2.556-10.537-3.939-21.603-3.939-33.025c0-70.079,51.273-127.093,114.297-127.093s114.297,57.014,114.297,127.093
		c0,35.781-13.368,68.156-34.84,91.275c-3.827,4.12-3.419,10.59,0.83,14.271c0.052,0.044,0.103,0.088,0.153,0.133
		c4.035,3.474,10.124,3.163,13.748-0.739c24.82-26.726,40.234-63.898,40.234-104.94
		C2067.734,497.034,2007.433,430.991,1933.312,430.991z"/>
	<path style="fill:#F47458;" d="M2015.665,664.407c0,0,1.227,17.432,13.507,25.943c12.281,8.512-17.039,12.984-18.529,11.493
		c-1.491-1.491-15.074-10.271-15.406-19.05c-0.331-8.779,2.485-15.902,2.982-17.061c0.497-1.16,4.307-7.951,5.301-7.951
		S2015.665,664.407,2015.665,664.407z"/>
	<path style="fill:#B75742;" d="M1721.197,663.515c0,16.784-11.4,30.39-25.462,30.39c-14.063,0-25.462-13.606-25.462-30.39
		c0-16.784,11.4-30.39,25.462-30.39C1709.797,633.125,1721.197,646.731,1721.197,663.515z"/>
	<path style="fill:#A54737;" d="M1695.735,633.125c-2.609,0-5.126,0.471-7.496,1.341c10.403,3.819,17.966,15.379,17.966,29.049
		c0,13.67-7.563,25.23-17.966,29.049c2.37,0.87,4.887,1.341,7.496,1.341c14.062,0,25.462-13.606,25.462-30.39
		C1721.197,646.731,1709.797,633.125,1695.735,633.125z"/>
	<path style="fill:#184655;" d="M1587.919,430.991c-74.121,0-134.423,66.042-134.423,147.219c0,11.354,1.201,22.403,3.436,33.025
		h20.629c-2.555-10.537-3.939-21.603-3.939-33.025c0-70.079,51.273-127.093,114.297-127.093
		c63.023,0,114.296,57.014,114.296,127.093c0,35.781-13.367,68.156-34.84,91.275c-3.826,4.12-3.419,10.59,0.83,14.271
		c0.051,0.044,0.103,0.088,0.154,0.133c4.035,3.474,10.124,3.163,13.748-0.739c24.82-26.726,40.234-63.898,40.234-104.94
		C1722.342,497.034,1662.04,430.991,1587.919,430.991z"/>
	<path style="fill:#F47458;" d="M1670.272,664.407c0,0,1.227,17.432,13.507,25.943c12.281,8.512-17.039,12.984-18.529,11.493
		c-1.491-1.491-15.074-10.271-15.405-19.05c-0.332-8.779,2.484-15.902,2.981-17.061c0.497-1.16,4.307-7.951,5.301-7.951
		C1659.121,657.781,1670.272,664.407,1670.272,664.407z"/>
	<ellipse style="fill:#B75742;" cx="1350.342" cy="663.515" rx="25.462" ry="30.39"/>
	<path style="fill:#A54737;" d="M1350.342,633.125c-2.609,0-5.126,0.471-7.496,1.341c10.403,3.819,17.966,15.379,17.966,29.049
		c0,13.67-7.563,25.23-17.966,29.049c2.37,0.87,4.887,1.341,7.496,1.341c14.062,0,25.462-13.606,25.462-30.39
		C1375.804,646.731,1364.404,633.125,1350.342,633.125z"/>
	<path style="fill:#184655;" d="M1242.527,430.991c-74.122,0-134.424,66.042-134.424,147.219c0,11.354,1.201,22.403,3.436,33.025
		h20.629c-2.555-10.537-3.939-21.603-3.939-33.025c0-70.079,51.273-127.093,114.298-127.093
		c63.023,0,114.296,57.014,114.296,127.093c0,35.781-13.367,68.156-34.84,91.275c-3.826,4.12-3.419,10.59,0.831,14.271
		c0.051,0.044,0.102,0.088,0.154,0.133c4.035,3.474,10.124,3.163,13.747-0.739c24.821-26.726,40.234-63.898,40.234-104.94
		C1376.949,497.034,1316.647,430.991,1242.527,430.991z"/>
	<path style="fill:#F47458;" d="M1324.88,664.407c0,0,1.226,17.432,13.507,25.943c12.281,8.512-17.039,12.984-18.53,11.493
		c-1.491-1.491-15.074-10.271-15.405-19.05c-0.332-8.779,2.484-15.902,2.981-17.061c0.497-1.16,4.307-7.951,5.301-7.951
		C1313.729,657.781,1324.88,664.407,1324.88,664.407z"/>
	<path style="fill:#F7CC7F;" d="M2609.025,1841.484l-1.61-70.101l-76.6,14.956c0,0-228.098,26.504-229.091,26.504
		c-0.994,0-220.229,64.271-220.229,64.271l-27.39,4.639h516.267C2592.231,1881.753,2609.537,1863.725,2609.025,1841.484z"/>
	<path style="fill:#FAE0B2;" d="M2054.106,1881.753c0,0,182.146-39.775,326.011-289.221c0,0,70.562,192.316,227.298,178.852
		C2607.415,1771.384,2397.354,1869.108,2054.106,1881.753z"/>
	<path style="fill:#0E2E35;" d="M1374.318,905.122c-4.761-0.361-9.503-0.929-14.182-1.877c-5.289-1.072-12.072-2.177-16.083-1.793
		c-8.442,0.809-22.189,5.178-27.786,15.464c-6.973,12.815-26.192,8.631-8.979,62.135c19.483,60.562,52.11,45.107,52.68,43.854
		c0.569-1.253,20.65-47.134,20.65-47.134s16.169,20.07,15.958,19.236C1396.374,994.203,1431.507,909.459,1374.318,905.122z"/>
	<path style="fill:#F7A491;" d="M1387.596,1126.513c6.508-5.292,56.837,16.792,56.199,24.48s35.119,82.216,35.119,82.216
		l61.793-49.271l0.025,0.016c0.546-1.782,6.404-20.945,6.689-24.373c0.299-3.596,10.74-9.888,15.59-8.961
		c4.85,0.926-4.147,7.01-4.738,8.126c-1.607,3.039,4.609,4.181,4.609,4.181s17.854-9.799,18.233-15.562s4.065-17.841,7.922-15.314
		c1.991,1.304,1.972,9.873,1.351,13.939c1.147-4.615,2.771-9.828,4.352-10.344c2.889-0.944,4.325,2.729,3.8,4.533
		c-0.525,1.805-5.188,21.401-6.606,23.606c-1.385,2.155-30.218,25.385-34.372,30.427c0,0-79.927,91.37-85.618,93.761
		c-4.993,2.097-22.796-29.391-39.617-50.294C1415.507,1216.775,1367.259,1143.048,1387.596,1126.513z"/>
	<path style="fill:#F48C7F;" d="M1226.324,1798.359c0,0-10.983,10.717-11.232,14.65c-0.249,3.933-0.973,46.066,3.511,50
		c4.483,3.933,17.654,6.722,13.419,11.146c-3.2,3.344-27.82,2.629-44.136,1.73c-4.763-0.262-10.736-38.265-12.623-43.851
		c-2.74-8.112-9.403-26.384-6.912-32.038c1.214-2.756,7.021-8.418,15.202-13.702c8.606-5.558,16.84-17.934,16.84-17.934
		L1226.324,1798.359z"/>
	<path style="fill:#F7A491;" d="M1340.098,1823.315c0,0-9.829,27.766-9.841,27.837c-0.731,4.399-3.608,15.268-3.608,19.266
		c0,15.023,67.752-12.752,52.568-19.41c-1.375-0.603-5.687-5.416-6.139-10.528c-0.696-7.879,5.708-17.76,5.708-17.76
		L1340.098,1823.315z"/>
	<g>
		<path style="fill:#355389;" d="M1446.384,1306.28c0,0,4.939,49.775,4.939,50.518c0,80.519,15.961,237.801,12.926,252.938
			c-7.405,36.924-87.104,225.28-87.104,225.28l-43.076-5.148l56.132-225.517l-20.656-90.771l-29.229-179.428L1446.384,1306.28z"/>
		<path style="fill:#466EB6;" d="M1301.817,1350.307l-8.173,47.177l-22.114,194.161l-84.217,189.764c0,0,11.847,27.611,29.323,31.49
			l134.038-194.829l83.262-249.301l-2.923-55.386L1301.817,1350.307z"/>
	</g>
	<path style="fill:#3C8F7C;" d="M1463.563,1187.766l-59.73,6.098c0,0-2.74-48.968-2.74-72.326c0-28.338,2.413-64.839,5.835-64.054
		c9.605,2.205,22.541,7.508,30.242,18.089C1463.818,1112.188,1463.563,1187.766,1463.563,1187.766z"/>
	<path style="fill:#96D9C9;" d="M1434.22,1116.539c1.251,8.641,24.212,243.534,24.212,243.534
		c-108.757,52.526-168.769,9.356-168.769,9.356s3.559-164.945-0.707-187.396c-2.822-14.854-6.34-113.556,3.286-116.32
		c12.352-3.547,26.514-7.314,41.952-8.917c13.177-1.367,64.366-2.16,73.524,0.916
		C1407.718,1057.712,1428.958,1080.205,1434.22,1116.539z"/>
	<path style="fill:#184655;" d="M1184.086,1786.029c0,0,25.313,71.273,35.221,74.713c2.631,0.914,15.256,3.231,17.638,8.815
		c0.717,1.682,0,7.299,0,7.299h-52.762c0,0-6.674-31.402-9.311-45.2c0,0-13.966-33.713-12.415-36.776
		S1184.086,1786.029,1184.086,1786.029z"/>
	<path style="fill:#184655;" d="M1322.795,1875.375l7.759-24.51c0,0,16.294,6.894,24.441,5.745
		c8.147-1.149,24.053-5.745,24.053-5.745c32.52,10.704,59.16,15.898,54.314,24.51l0,0H1322.795z"/>
	<g>
		<path style="fill:#F7A491;" d="M1471.945,1287.974c0.246-0.104,1.131-0.799,1.641-1.219c-1.934-23.013-1.585-45.312,5.638-52.851
			c-0.173-0.361-1.752-3.717-3.401-7.197c-8.371,6.475-12.347,23.673-10.787,51.592c0.107,1.921,0.659,3.386,1.104,5.781
			C1468.564,1286.747,1470.767,1288.469,1471.945,1287.974z"/>
	</g>
	<path style="fill:#F7A491;" d="M1378.073,1032.65l3.209,23.81c0,0,7.189,34.303-2.06,40.916s-39.333-41.894-39.333-41.894
		l3.178-60.332L1378.073,1032.65z"/>
	<path style="fill:#F47458;" d="M1342.041,1014.703c7.64,20.578,25.837,33.228,38.753,38.134l-2.721-20.187l-35.006-37.5
		L1342.041,1014.703z"/>
	<g>
		<polygon style="fill:#F2E9DA;" points="1630.796,1117.006 1729.38,967.137 1560.077,1026.431 1537.527,1091.685 		"/>
		<polygon style="fill:#E0D5C3;" points="1537.527,1091.685 1561.521,1098.199 1729.38,967.137 1560.077,1026.431 		"/>
		<polygon style="fill:#E8BA70;" points="1560.077,1026.431 1603.899,1011.083 1580.016,1051.968 1042.182,1471.901 
			1038.51,1433.662 		"/>
		<polygon style="fill:#F7CC7F;" points="1580.016,1051.968 1630.106,1044.648 1610.857,1091.469 1073.023,1511.401 
			1042.182,1471.901 		"/>
		<polygon style="fill:#FAE0B2;" points="1610.857,1091.469 1656.313,1078.214 1630.796,1117.006 1109.229,1524.237 
			1073.023,1511.401 		"/>
		
			<rect x="1052.281" y="1451.132" transform="matrix(0.7882 -0.6154 0.6154 0.7882 -680.2801 975.7103)" style="fill:#50BFA5;" width="50.248" height="50.114"/>
		<polygon style="fill:#96D9C9;" points="1112.629,1480.478 1073.023,1511.401 1109.229,1524.237 1132.568,1506.015 		"/>
		<polygon style="fill:#3C8F7C;" points="1061.849,1415.439 1038.51,1433.662 1042.182,1471.901 1081.788,1440.978 		"/>
		
			<rect x="1129.738" y="1445.414" transform="matrix(-0.6154 -0.7882 0.7882 -0.6154 688.5449 3286.0071)" style="fill:#FEF8F8;" width="32.399" height="59.219"/>
		
			<rect x="1078.957" y="1380.376" transform="matrix(-0.6154 -0.7882 0.7882 -0.6154 657.7766 3140.9187)" style="fill:#EDDFCA;" width="32.4" height="59.22"/>
		
			<rect x="1095.49" y="1412.895" transform="matrix(-0.6154 -0.7882 0.7882 -0.6154 673.1534 3213.4612)" style="fill:#F2E9DA;" width="50.115" height="59.22"/>
		<path style="fill:#E86752;" d="M1695.922,1018c0.338-0.513,33.458-50.863,33.458-50.863l-57.459,20.123l20.421,8.794
			L1695.922,1018z"/>
		<polygon style="fill:#D85648;" points="1692.342,996.055 1692.342,996.055 1729.38,967.137 1729.38,967.137 1671.921,987.261 		
			"/>
	</g>
	<path style="fill:#F8A492;" d="M1181.948,1362.562c-0.067-0.503-0.077-1.007-0.027-1.513
		c1.603-16.267,15.109-152.863,17.383-158.67c2.054-5.243,62.628-91.879,62.628-91.879l29.773,40.563l-58.256,77.706
		c-1.306,4.938-22.324,97.148-22.324,97.148s-4.308,16.808-6.238,26.876c0.88,2.425,1.744,4.716,2.509,6.596
		c1.931,4.018,4.208,7.314,6.277,10.088c2.604,3.49,6.909,11.116,7.439,13.156c0.617,2.372,1.729,7.303,2.358,10.277
		c0.63,2.977,1.492,6.44,1.637,8.056c0.088,0.982,1.102,2.942,1.882,4.327c1.163,2.063-0.821,4.496-3.068,3.75
		c-2.117-0.703-3.765-3.442-4.78-5.15c-2.866-4.818-4.395-13.617-5.108-13.15c-0.713,0.465-3.225,15.393-3.622,17.08
		c-0.397,1.688-3.411,19.021-5.111,22.189s-3.951,2.639-4.547,0.654c-0.514-1.707,1.877-25.961,1.877-25.961
		s0.298-3.094-1.057-2.127s-3.569,22.982-4.512,26.204c-0.942,3.221-3.089,4.93-4.913,2.341c-2.217-3.15,1.596-26.502,1.596-26.502
		s0.427-2.936-0.827-2.663c-1.254,0.273-2.825,19.037-3.801,20.66c-0.976,1.622-3.439,2.205-4.614-0.501
		c-1.383-3.186,2.2-24.004,2.2-24.004s-0.176-1.657-0.958-1.106c-0.782,0.55-3.265,16.449-4.883,17.922
		c-1.358,1.236-2.491,0.036-2.491,0.036c-2.969-2.025,1.583-17.149,1.538-24.67c-0.044-7.52,3.443-15.97,2.403-24.924
		C1182.247,1364.809,1182.064,1363.43,1181.948,1362.562z"/>
	<path style="fill:#3C8F7C;" d="M1214.608,1165.37l51.743,34.74c0,0,29.164-43.397,44.819-58.848
		c19.611-19.354-7.143-78.645-19.779-75.29C1263.129,1073.476,1214.608,1165.37,1214.608,1165.37z"/>
	<path style="fill:#F7A491;" d="M1350.682,928.701c17.365-7.499,37.277,2.897,41.401,21.072c1.792,7.9,3.629,17.866,4.667,28.836
		c2.496,26.384-9.22,53.142-21.218,54.057c-11.998,0.915-46.46-13.659-50.521-51.076
		C1322.503,958.488,1332.46,936.57,1350.682,928.701z"/>
	<path style="fill:#F7A491;" d="M1334.077,983.881c0.444,5.828-3.059,10.848-7.825,11.211c-4.766,0.363-8.99-4.067-9.435-9.895
		c-0.444-5.828,3.059-10.848,7.825-11.211C1329.408,973.623,1333.632,978.052,1334.077,983.881z"/>
	<path style="fill:#0E2E35;" d="M1324.642,973.986c0,0,14.766-0.08,17.666-10.292c2.9-10.213,16.469-34.102,41.925-32.071
		c25.456,2.031-25.534-14.15-27.409-13.675c-1.875,0.475-24.414,6.019-24.414,6.019s-13.742,18.613-13.971,20.333
		c-0.229,1.721-0.915,20.019-0.915,20.019L1324.642,973.986z"/>
	<path style="fill:#FFFFFF;" d="M1386.229,999.543l-24.646,1.959c0,0,1.312,9.315,12.175,8.767
		C1387.003,1009.601,1386.229,999.543,1386.229,999.543z"/>
</g>
</svg>
