<svg width="199" height="138" viewBox="0 0 199 138" fill="none" xmlns="http://www.w3.org/2000/svg">
<path d="M30.9409 137.682C30.9409 137.682 33.607 126.031 43.981 126.031C54.355 126.031 56.09 137.61 56.09 137.61L30.9409 137.682Z" fill="url(#paint0_linear_2_4868)" stroke="#707070" stroke-width="0.5"/>
<path d="M30.9409 137.682C30.9409 137.682 33.607 126.031 43.981 126.031C54.355 126.031 56.09 137.61 56.09 137.61L30.9409 137.682Z" stroke="black" stroke-width="0.5" stroke-linecap="round" stroke-linejoin="round"/>
<path d="M92.5979 121.401L94.424 127.501C94.424 127.501 105.435 123.779 105.706 123.278C103.929 120.518 99.911 120.738 97.824 121.401C96.51 121.438 95.97 119.301 95.97 119.301L92.5979 121.401Z" fill="white" stroke="#707070" stroke-width="0.5"/>
<path d="M92.5979 121.401L94.424 127.501C94.424 127.501 105.435 123.779 105.706 123.278C103.929 120.518 99.911 120.738 97.824 121.401C96.51 121.438 95.97 119.301 95.97 119.301L92.5979 121.401Z" stroke="#1A1A1A" stroke-width="0.5" stroke-linecap="round" stroke-linejoin="round"/>
<path d="M100.69 125.316L102.096 116.307L100.879 116.007L99.2788 125.959L100.69 125.316Z" fill="white" stroke="#707070" stroke-width="0.5"/>
<path d="M100.69 125.316L102.096 116.307L100.879 116.007L99.2788 125.959L100.69 125.316Z" stroke="#1A1A1A" stroke-width="0.5" stroke-linecap="round" stroke-linejoin="round"/>
<path d="M109.76 32.2497L112.136 29.8667C112.136 29.8667 114.802 32.6267 116.536 29.9917C118.27 27.3567 119.781 15.0017 113.236 14.8757C106.691 14.7497 108.368 24.9107 108.368 25.4757C107.683 26.479 106.914 27.4218 106.068 28.2937C106.068 28.2937 108.668 32.2737 109.76 32.2497Z" fill="white" stroke="#707070" stroke-width="0.5"/>
<path d="M109.76 32.2497L112.136 29.8667C112.136 29.8667 114.802 32.6267 116.536 29.9917C118.27 27.3567 119.781 15.0017 113.236 14.8757C106.691 14.7497 108.368 24.9107 108.368 25.4757C107.683 26.479 106.914 27.4218 106.068 28.2937C106.068 28.2937 108.667 32.2747 109.76 32.2497Z" stroke="#1A1A1A" stroke-width="0.5" stroke-linecap="round" stroke-linejoin="round"/>
<path d="M152.01 55.7611C152.01 55.7611 153.69 45.3491 161.51 45.1611C165.91 51.9351 158.436 61.8011 158.436 61.8011L152.008 61.4111C152.008 61.4111 151.258 57.0781 152.008 55.7611" fill="url(#paint1_linear_2_4868)"/>
<path d="M152.01 55.7611C152.01 55.7611 153.69 45.3491 161.51 45.1611C165.91 51.9351 158.436 61.8011 158.436 61.8011L152.008 61.4111C152.008 61.4111 151.258 57.0781 152.008 55.7611" stroke="#707070" stroke-width="0.5"/>
<path d="M152.01 55.7611C152.01 55.7611 153.69 45.3491 161.51 45.1611C165.91 51.9351 158.436 61.8011 158.436 61.8011L152.008 61.4111C152.008 61.4111 151.26 57.0781 152.01 55.7611Z" stroke="black" stroke-width="0.5" stroke-linecap="round" stroke-linejoin="round"/>
<path d="M94.9568 57.1687L97.2867 119.596L91.9578 121.647C91.9578 121.647 78.1157 62.4858 78.1157 56.0638C78.1157 49.6418 94.9568 57.1637 94.9568 57.1637" fill="url(#paint2_linear_2_4868)"/>
<path d="M94.9568 57.1687L97.2867 119.596L91.9578 121.647C91.9578 121.647 78.1157 62.4858 78.1157 56.0638C78.1157 49.6418 94.9568 57.1637 94.9568 57.1637" stroke="#707070" stroke-width="0.5"/>
<path d="M94.9568 57.1686L97.2867 119.596L91.9578 121.647C91.9578 121.647 78.1157 62.4857 78.1157 56.0637C78.1157 49.6417 94.9568 57.1686 94.9568 57.1686Z" stroke="black" stroke-width="0.5" stroke-linecap="round" stroke-linejoin="round"/>
<path d="M126.569 137.682C126.569 137.682 142.376 121.646 163.332 121.646C184.288 121.646 190.78 137.682 190.78 137.682H126.569Z" fill="url(#paint3_linear_2_4868)" stroke="#707070" stroke-width="0.5"/>
<path d="M126.569 137.682C126.569 137.682 142.376 121.646 163.332 121.646C184.288 121.646 190.78 137.682 190.78 137.682H126.569Z" stroke="black" stroke-width="0.5" stroke-linecap="round" stroke-linejoin="round"/>
<path d="M133.214 68.6831L103.059 111.083L104.944 114.144L134.612 72.4441L133.214 68.6831Z" fill="white" stroke="#707070" stroke-width="0.5"/>
<path d="M133.214 68.6831L103.059 111.083L104.944 114.144L134.612 72.4441L133.214 68.6831Z" stroke="#1A1A1A" stroke-width="0.5" stroke-linecap="round" stroke-linejoin="round"/>
<path d="M0.920898 137.683L198.147 137.495" stroke="#1A1A1A" stroke-width="0.5" stroke-linecap="round"/>
<path d="M58.5959 74.6699C42.5059 74.6699 29.4629 88.7858 29.4629 106.2C29.4629 123.614 42.5059 137.728 58.5959 137.728C74.6859 137.728 87.7299 123.612 87.7299 106.2C87.7299 88.7878 74.6869 74.6699 58.5959 74.6699ZM58.5959 133.496C44.6659 133.496 33.3729 121.275 33.3729 106.196C33.3729 91.1169 44.6669 78.8959 58.5959 78.8959C72.5249 78.8959 83.8189 91.1179 83.8189 106.196C83.8189 121.274 72.5249 133.496 58.5959 133.496Z" fill="#FF8888" stroke="#707070" stroke-width="0.5"/>
<path d="M58.5959 74.6699C42.5059 74.6699 29.4629 88.7858 29.4629 106.2C29.4629 123.614 42.5059 137.728 58.5959 137.728C74.6859 137.728 87.7299 123.612 87.7299 106.2C87.7299 88.7878 74.6859 74.6699 58.5959 74.6699ZM58.5959 133.496C44.6659 133.496 33.3729 121.275 33.3729 106.196C33.3729 91.1169 44.6669 78.8959 58.5959 78.8959C72.5249 78.8959 83.8189 91.1179 83.8189 106.196C83.8189 121.274 72.5249 133.496 58.5959 133.496Z" stroke="#1A1A1A" stroke-width="0.5" stroke-linecap="round" stroke-linejoin="round"/>
<path d="M151.791 74.6699C135.702 74.6699 122.659 88.7858 122.659 106.2C122.659 123.614 135.702 137.728 151.791 137.728C167.88 137.728 180.924 123.612 180.924 106.2C180.924 88.7878 167.881 74.6699 151.791 74.6699ZM151.791 133.496C137.862 133.496 126.569 121.275 126.569 106.196C126.569 91.1169 137.862 78.8959 151.791 78.8959C165.72 78.8959 177.014 91.1179 177.014 106.196C177.014 121.274 165.721 133.496 151.791 133.496Z" fill="#FF8888" stroke="#707070" stroke-width="0.5"/>
<path d="M151.791 74.6699C135.702 74.6699 122.659 88.7858 122.659 106.2C122.659 123.614 135.702 137.728 151.791 137.728C167.88 137.728 180.924 123.612 180.924 106.2C180.924 88.7878 167.881 74.6699 151.791 74.6699ZM151.791 133.496C137.862 133.496 126.569 121.275 126.569 106.196C126.569 91.1169 137.862 78.8959 151.791 78.8959C165.72 78.8959 177.014 91.1179 177.014 106.196C177.014 121.274 165.72 133.496 151.791 133.496Z" stroke="#1A1A1A" stroke-width="0.5" stroke-linecap="round" stroke-linejoin="round"/>
<path d="M79.48 61.3369L100.164 113.808H103.057L81.7939 60.2939L79.48 61.3369Z" fill="white" stroke="#707070" stroke-width="0.5"/>
<path d="M79.48 61.3369L100.164 113.808H103.057L81.7939 60.2939L79.48 61.3369Z" stroke="#1A1A1A" stroke-width="0.5" stroke-linecap="round" stroke-linejoin="round"/>
<path d="M107.944 109.578C107.844 108.315 107.378 107.109 106.603 106.108C105.828 105.106 104.778 104.352 103.582 103.937C102.385 103.523 101.094 103.466 99.8653 103.774C98.637 104.083 97.5251 104.742 96.6657 105.672C95.8064 106.602 95.2367 107.763 95.0266 109.012C94.8164 110.261 94.9749 111.544 95.4825 112.704C95.9901 113.864 96.825 114.851 97.8849 115.544C98.9447 116.237 100.184 116.607 101.45 116.607C103.242 116.533 104.933 115.752 106.15 114.435C107.367 113.117 108.012 111.37 107.944 109.578Z" fill="#FF8888" stroke="#707070" stroke-width="0.5"/>
<path d="M101.451 116.606C105.037 116.606 107.945 113.459 107.945 109.578C107.945 105.696 105.037 102.55 101.451 102.55C97.8642 102.55 94.9568 105.696 94.9568 109.578C94.9568 113.459 97.8642 116.606 101.451 116.606Z" stroke="#1A1A1A" stroke-width="0.5" stroke-linecap="round" stroke-linejoin="round"/>
<path d="M126.569 51.9789L149.375 113.386L151.689 112.086L127.424 48.376L126.569 51.9789Z" fill="white" stroke="#707070" stroke-width="0.5"/>
<path d="M126.569 51.9789L149.375 113.386L151.689 112.086L127.424 48.376L126.569 51.9789Z" stroke="#1A1A1A" stroke-width="0.5" stroke-linecap="round" stroke-linejoin="round"/>
<path d="M70.6069 62.6616C71.6069 66.3806 74.8859 68.7466 79.1589 70.5256L85.5889 64.6797L91.2469 64.2617V62.2217L70.6069 62.6616Z" fill="#FF8888" stroke="#707070" stroke-width="0.5"/>
<path d="M70.6069 62.6616C71.6069 66.3806 74.8859 68.7466 79.1589 70.5256L85.5889 64.6797L91.2469 64.2617V62.2217L70.6069 62.6616Z" stroke="#1A1A1A" stroke-width="0.5" stroke-linecap="round" stroke-linejoin="round"/>
<path d="M136.301 59.0957L143.951 76.9957H157.384C160.878 76.9957 163.62 73.7516 163.307 69.9846L162.497 60.1847L136.301 59.0957Z" stroke="#1A1A1A" stroke-width="0.5" stroke-linecap="round" stroke-linejoin="round"/>
<path d="M39.9429 75.9868H84.3508L85.2148 78.1788H40.0989L39.9429 75.9868Z" fill="white" stroke="#707070" stroke-width="0.5"/>
<path d="M39.9429 75.9868H84.3508L85.2148 78.1788H40.0989L39.9429 75.9868Z" stroke="#1A1A1A" stroke-width="0.5" stroke-linecap="round" stroke-linejoin="round"/>
<path d="M155.949 110.996C155.892 110.275 155.626 109.585 155.184 109.013C154.742 108.44 154.142 108.009 153.458 107.772C152.775 107.535 152.037 107.503 151.335 107.678C150.633 107.854 149.998 108.231 149.507 108.762C149.016 109.294 148.69 109.957 148.57 110.67C148.45 111.384 148.54 112.117 148.83 112.779C149.12 113.442 149.597 114.006 150.203 114.402C150.809 114.798 151.516 115.009 152.24 115.009C153.263 114.967 154.228 114.521 154.924 113.769C155.619 113.017 155.988 112.019 155.949 110.996Z" fill="#FF8888" stroke="#707070" stroke-width="0.5"/>
<path d="M152.239 115.011C154.287 115.011 155.948 113.214 155.948 110.997C155.948 108.78 154.287 106.983 152.239 106.983C150.19 106.983 148.53 108.78 148.53 110.997C148.53 113.214 150.19 115.011 152.239 115.011Z" stroke="#1A1A1A" stroke-width="0.5" stroke-linecap="round" stroke-linejoin="round"/>
<path d="M62.3049 110.996C62.2479 110.275 61.982 109.586 61.5397 109.014C61.0974 108.442 60.4979 108.011 59.8146 107.774C59.1312 107.537 58.3936 107.505 57.6921 107.68C56.9905 107.856 56.3555 108.233 55.8646 108.764C55.3737 109.295 55.0483 109.958 54.9281 110.671C54.808 111.384 54.8984 112.117 55.1882 112.779C55.478 113.442 55.9547 114.006 56.5599 114.402C57.1651 114.798 57.8727 115.009 58.5959 115.009C59.6194 114.967 60.5845 114.521 61.2797 113.769C61.9749 113.017 62.3436 112.019 62.3049 110.996Z" fill="#FF8888" stroke="#707070" stroke-width="0.5"/>
<path d="M58.596 115.011C60.6444 115.011 62.305 113.214 62.305 110.997C62.305 108.78 60.6444 106.983 58.596 106.983C56.5475 106.983 54.887 108.78 54.887 110.997C54.887 113.214 56.5475 115.011 58.596 115.011Z" stroke="#1A1A1A" stroke-width="0.5" stroke-linecap="round" stroke-linejoin="round"/>
<path d="M46.9749 75.418L57.5999 112.159L91.9568 92.522L90.8568 89.7421L59.1798 108.392L49.6368 75.417L46.9749 75.418Z" fill="white" stroke="#707070" stroke-width="0.5"/>
<path d="M46.9749 75.418L57.5999 112.159L91.9568 92.522L90.8568 89.7421L59.1798 108.392L49.6368 75.417L46.9749 75.418Z" stroke="#1A1A1A" stroke-width="0.5" stroke-linecap="round" stroke-linejoin="round"/>
<path d="M101.344 97.1528L98.7917 102.939C98.7917 102.939 109.15 108.439 109.665 108.272C110.129 104.947 107.072 102.115 105.136 101.043C104.159 100.092 105.122 98.1428 105.122 98.1428L101.344 97.1528Z" fill="white" stroke="#707070" stroke-width="0.5"/>
<path d="M101.344 97.1528L98.7917 102.939C98.7917 102.939 109.15 108.439 109.665 108.272C110.129 104.947 107.072 102.115 105.136 101.043C104.159 100.092 105.122 98.1428 105.122 98.1428L101.344 97.1528Z" stroke="#1A1A1A" stroke-width="0.5" stroke-linecap="round" stroke-linejoin="round"/>
<path d="M94.957 49.9219C94.957 49.9219 117.989 48.4009 120.307 59.4399C122.625 70.4789 106.069 101.84 106.069 101.84L100.369 100.84L107.943 64.2109C107.943 64.2109 88.564 71.353 79.479 67.054C70.394 62.755 75.442 45.897 75.442 45.897" fill="url(#paint4_linear_2_4868)"/>
<path d="M94.957 49.9219C94.957 49.9219 117.989 48.4009 120.307 59.4399C122.625 70.4789 106.069 101.84 106.069 101.84L100.369 100.84L107.943 64.2109C107.943 64.2109 88.564 71.353 79.479 67.054C70.394 62.755 75.442 45.897 75.442 45.897" stroke="#707070" stroke-width="0.5"/>
<path d="M94.957 49.9219C94.957 49.9219 117.989 48.4009 120.307 59.4399C122.625 70.4789 106.069 101.84 106.069 101.84L100.369 100.84L107.943 64.2109C107.943 64.2109 88.564 71.353 79.479 67.054C70.394 62.755 75.442 45.897 75.442 45.897" stroke="black" stroke-width="0.5" stroke-linecap="round" stroke-linejoin="round"/>
<path d="M94.845 51.1498V53.0318L75.123 50.0318C75.123 50.0318 75.373 48.6457 75.991 48.3947C76.609 48.1437 94.845 51.1548 94.845 51.1548" fill="#FF8888"/>
<path d="M94.845 51.1498V53.0318L75.123 50.0318C75.123 50.0318 75.373 48.6457 75.991 48.3947C76.609 48.1437 94.845 51.1548 94.845 51.1548" stroke="#707070" stroke-width="0.5"/>
<path d="M94.845 51.1498V53.0318L75.123 50.0318C75.123 50.0318 75.373 48.6458 75.991 48.3948C76.609 48.1438 94.845 51.1498 94.845 51.1498Z" stroke="#1A1A1A" stroke-width="0.5" stroke-linecap="round" stroke-linejoin="round"/>
<path d="M74.0449 50.8107L94.9229 53.8837C94.9229 53.8837 106.34 35.4437 110.338 30.3637C109.767 28.6976 108.663 27.2662 107.196 26.291C105.729 25.3159 103.982 24.8515 102.225 24.9697C94.4049 25.2087 86.4619 30.7397 82.1149 36.4477C78.8613 40.8962 76.1521 45.7182 74.0449 50.8107Z" fill="white" stroke="#707070" stroke-width="0.5"/>
<path d="M74.0449 50.8107L94.9229 53.8837C94.9229 53.8837 106.34 35.4437 110.338 30.3637C109.767 28.6976 108.663 27.2662 107.196 26.291C105.729 25.3159 103.982 24.8515 102.225 24.9697C94.4049 25.2087 86.4619 30.7397 82.1149 36.4477C78.8613 40.8962 76.1521 45.7182 74.0449 50.8107Z" stroke="#1A1A1A" stroke-width="0.5" stroke-linecap="round" stroke-linejoin="round"/>
<path d="M38.7068 111.36C38.8881 114.65 40.3189 117.746 42.7068 120.016" stroke="#1A1A1A" stroke-width="0.5" stroke-linecap="round" stroke-linejoin="round"/>
<path d="M43.981 116.002C45.0996 118.265 46.7746 120.208 48.8489 121.647" stroke="#1A1A1A" stroke-width="0.5" stroke-linecap="round" stroke-linejoin="round"/>
<path d="M155.466 93.23C157.113 93.5469 158.67 94.2201 160.03 95.2025C161.389 96.1849 162.517 97.4527 163.334 98.917" stroke="#1A1A1A" stroke-width="0.5" stroke-linecap="round" stroke-linejoin="round"/>
<path d="M165.434 95.7871C167.82 98.889 169.388 102.541 169.993 106.408" stroke="#1A1A1A" stroke-width="0.5" stroke-linecap="round" stroke-linejoin="round"/>
<path d="M138.612 64.8271H162.855" stroke="#1A1A1A" stroke-width="0.5" stroke-linecap="round" stroke-linejoin="round"/>
<path d="M140.875 69.6079H162.854" stroke="#1A1A1A" stroke-width="0.5" stroke-linecap="round" stroke-linejoin="round"/>
<path d="M149.051 61.1888C149.051 61.1888 143.141 55.5088 144.997 48.4678C152.879 49.3298 152.879 61.1888 152.879 61.1888H149.051Z" fill="url(#paint5_linear_2_4868)" stroke="#707070" stroke-width="0.5"/>
<path d="M149.051 61.1888C149.051 61.1888 143.141 55.5088 144.997 48.4678C152.879 49.3298 152.879 61.1888 152.879 61.1888H149.051Z" stroke="black" stroke-width="0.5" stroke-linecap="round" stroke-linejoin="round"/>
<path d="M145.981 50.0479L150.734 60.8359" stroke="#1A1A1A" stroke-width="0.5" stroke-linecap="round" stroke-linejoin="round"/>
<path d="M103.056 25.6051L107.299 23.8921C107.299 23.8921 113.099 31.0321 110.957 33.1361C107.789 29.7071 103.057 25.6051 103.057 25.6051" fill="url(#paint6_linear_2_4868)"/>
<path d="M103.056 25.6051L107.299 23.8921C107.299 23.8921 113.099 31.0321 110.957 33.1361C107.789 29.7071 103.057 25.6051 103.057 25.6051" stroke="#707070" stroke-width="0.5"/>
<path d="M103.056 25.6051L107.299 23.8921C107.299 23.8921 113.099 31.0321 110.957 33.1361C107.789 29.7051 103.056 25.6051 103.056 25.6051Z" stroke="black" stroke-width="0.5" stroke-linecap="round" stroke-linejoin="round"/>
<path d="M79.4808 14.3329C79.4808 14.3329 76.4929 31.3929 90.2479 27.5459C104.003 23.6989 103.842 23.8659 107.248 25.2039C110.654 26.5419 111.61 23.6149 112.139 21.2729C115.139 20.6039 114.593 17.1729 114.593 17.1729C114.593 17.1729 115.093 18.4729 117.276 17.9489C118.07 15.5839 113.237 10.3149 106.076 14.3289C98.9148 18.3429 94.6609 10.0639 91.7239 5.1289C88.7869 0.193903 68.3099 -2.7321 68.2329 7.3029C68.9329 10.7319 73.4329 15.8329 79.4889 14.3279" fill="#FF8888"/>
<path d="M79.4808 14.3329C79.4808 14.3329 76.4929 31.3929 90.2479 27.5459C104.003 23.6989 103.842 23.8659 107.248 25.2039C110.654 26.5419 111.61 23.6149 112.139 21.2729C115.139 20.6039 114.593 17.1729 114.593 17.1729C114.593 17.1729 115.093 18.4729 117.276 17.9489C118.07 15.5839 113.237 10.3149 106.076 14.3289C98.9148 18.3429 94.6609 10.0639 91.7239 5.1289C88.7869 0.193903 68.3099 -2.7321 68.2329 7.3029C68.9329 10.7319 73.4329 15.8329 79.4889 14.3279" stroke="#707070" stroke-width="0.5"/>
<path d="M79.4808 14.3329C79.4808 14.3329 76.4929 31.3929 90.2479 27.5459C104.003 23.6989 103.842 23.8659 107.248 25.2039C110.654 26.5419 111.61 23.6149 112.139 21.2729C115.139 20.6039 114.593 17.1729 114.593 17.1729C114.593 17.1729 115.093 18.4729 117.276 17.9489C118.07 15.5839 113.237 10.3149 106.076 14.3289C98.9148 18.3429 94.6609 10.0639 91.7239 5.1289C88.7869 0.193903 68.3099 -2.7321 68.2329 7.3029C68.9209 10.7369 73.4278 15.8379 79.4808 14.3329Z" stroke="#1A1A1A" stroke-width="0.5" stroke-linecap="round" stroke-linejoin="round"/>
<path d="M75.6138 45.623C75.6138 45.623 89.8798 47.003 94.4578 49.762" stroke="#1A1A1A" stroke-width="0.5" stroke-linecap="round" stroke-linejoin="round"/>
<path d="M77.1848 42.7891C77.1848 42.7891 92.8739 44.089 97.2219 48.774" stroke="#1A1A1A" stroke-width="0.5" stroke-linecap="round" stroke-linejoin="round"/>
<path d="M103.209 104.679L101.452 112.037L102.652 112.413L104.009 106.925L106.231 107.712L106.97 106.57L103.209 104.679Z" fill="white" stroke="#707070" stroke-width="0.5"/>
<path d="M103.209 104.679L101.452 112.037L102.652 112.413L104.009 106.925L106.231 107.712L106.97 106.57L103.209 104.679Z" stroke="#1A1A1A" stroke-width="0.5" stroke-linecap="round" stroke-linejoin="round"/>
<path d="M97.6758 126.602L97.8757 127.502L102.743 125.694V124.565L97.6758 126.602Z" fill="#FF8888" stroke="#707070" stroke-width="0.5"/>
<path d="M97.6758 126.602L97.8757 127.502L102.743 125.694V124.565L97.6758 126.602Z" stroke="#1A1A1A" stroke-width="0.5" stroke-linecap="round" stroke-linejoin="round"/>
<path d="M128.662 55.9328L131.24 48.6538L123.049 48.9458C123.049 48.9458 122.972 49.7818 123.397 49.9458C123.822 50.1098 128.613 50.1548 128.613 50.1548C128.613 50.1548 125.658 53.8328 126.567 56.2818L128.662 55.9328Z" fill="#FF8888" stroke="#707070" stroke-width="0.5"/>
<path d="M128.662 55.9328L131.24 48.6538L123.049 48.9458C123.049 48.9458 122.972 49.7818 123.397 49.9458C123.822 50.1098 128.613 50.1548 128.613 50.1548C128.613 50.1548 125.658 53.8328 126.567 56.2818L128.662 55.9328Z" stroke="#1A1A1A" stroke-width="0.5" stroke-linecap="round" stroke-linejoin="round"/>
<path d="M119.843 48.022C119.843 48.022 125.116 44.5411 127.261 45.5761C129.406 46.6111 128.161 51.2841 126.884 51.2841C125.607 51.2841 124.594 51.6601 124.276 51.2841C123.958 50.9081 123.899 48.996 123.668 49.105C123.437 49.214 121.638 49.967 121.638 49.967C121.638 49.967 119.576 48.6811 119.843 48.0231" fill="white"/>
<path d="M119.843 48.022C119.843 48.022 125.116 44.5411 127.261 45.5761C129.406 46.6111 128.161 51.2841 126.884 51.2841C125.607 51.2841 124.594 51.6601 124.276 51.2841C123.958 50.9081 123.899 48.996 123.668 49.105C123.437 49.214 121.638 49.967 121.638 49.967C121.638 49.967 119.576 48.6811 119.843 48.0231" stroke="#707070" stroke-width="0.5"/>
<path d="M119.843 48.022C119.843 48.022 125.116 44.5411 127.261 45.5761C129.406 46.6111 128.161 51.2841 126.884 51.2841C125.607 51.2841 124.594 51.6601 124.276 51.2841C123.958 50.9081 123.899 48.996 123.668 49.105C123.437 49.214 121.638 49.967 121.638 49.967C121.638 49.967 119.576 48.685 119.843 48.022Z" stroke="#1A1A1A" stroke-width="0.5" stroke-linecap="round" stroke-linejoin="round"/>
<path d="M103.058 44.4979C103.058 44.4979 102.879 55.2859 106.069 56.8749C109.259 58.4639 122.659 50.0589 122.659 50.0589L121.08 47.0059C121.08 47.0059 109.335 52.6929 109.102 49.1799C108.869 45.6669 108.253 41.3188 108.253 41.3188L103.058 44.4979Z" fill="white" stroke="#707070" stroke-width="0.5"/>
<path d="M103.058 44.4979C103.058 44.4979 102.879 55.2859 106.069 56.8749C109.259 58.4639 122.659 50.0589 122.659 50.0589L121.08 47.0059C121.08 47.0059 109.335 52.6929 109.102 49.1799C108.869 45.6669 108.253 41.3188 108.253 41.3188L103.058 44.4979Z" stroke="#1A1A1A" stroke-width="0.5" stroke-linecap="round" stroke-linejoin="round"/>
<path d="M98.7468 38.3181C99.0938 44.7181 99.9229 46.3331 102.108 51.2381C102.108 51.2381 106.397 47.3501 109.408 44.0881C108.713 35.4321 108.713 30.2881 108.713 30.2881" fill="white"/>
<path d="M98.7468 38.3181C99.0938 44.7181 99.9229 46.3331 102.108 51.2381C102.108 51.2381 106.397 47.3501 109.408 44.0881C108.713 35.4321 108.713 30.2881 108.713 30.2881" stroke="#707070" stroke-width="0.5"/>
<path d="M98.7468 38.3181C99.0938 44.7181 99.9229 46.3331 102.108 51.2381C102.108 51.2381 106.397 47.3501 109.408 44.0881C108.713 35.4321 108.713 30.2881 108.713 30.2881" stroke="#1A1A1A" stroke-width="0.5" stroke-linecap="round" stroke-linejoin="round"/>
<path d="M112.135 29.8669L110.899 27.8809C110.899 27.8809 110.711 29.8959 111.432 30.5709L112.132 29.8709" fill="#FF8888"/>
<path d="M112.135 29.8669L110.899 27.8809C110.899 27.8809 110.711 29.8959 111.432 30.5709L112.132 29.8709" stroke="#707070" stroke-width="0.5"/>
<path d="M112.135 29.8669L110.899 27.8809C110.899 27.8809 110.711 29.8959 111.432 30.5709L112.135 29.8669Z" stroke="#1A1A1A" stroke-width="0.5" stroke-linecap="round" stroke-linejoin="round"/>
<path d="M135.839 51.1487L141.75 61.1898L146.45 61.0818L139.957 48.4688L135.839 51.1487Z" fill="white" stroke="#707070" stroke-width="0.5"/>
<path d="M135.839 51.1487L141.75 61.1898L146.45 61.0818L139.957 48.4688L135.839 51.1487Z" stroke="#1A1A1A" stroke-width="0.5" stroke-linecap="round" stroke-linejoin="round"/>
<path d="M138.636 51.9978C138.636 51.9978 141.084 51.0268 139.953 48.8778C138.822 46.7288 135.101 50.0848 135.84 51.5588C136.579 53.0328 138.621 50.6807 138.621 50.6807" fill="white"/>
<path d="M138.636 51.9978C138.636 51.9978 141.084 51.0268 139.953 48.8778C138.822 46.7288 135.101 50.0848 135.84 51.5588C136.579 53.0328 138.621 50.6807 138.621 50.6807" stroke="#707070" stroke-width="0.5"/>
<path d="M138.636 51.9978C138.636 51.9978 141.084 51.0268 139.953 48.8778C138.822 46.7288 135.101 50.0848 135.84 51.5588C136.579 53.0328 138.621 50.6807 138.621 50.6807" stroke="#1A1A1A" stroke-width="0.5" stroke-linecap="round" stroke-linejoin="round"/>
<path d="M60.281 108.024L60.968 107.985" stroke="#1A1A1A" stroke-width="0.5" stroke-linecap="round" stroke-linejoin="round"/>
<path d="M62.314 107.964L99.33 105.885" stroke="#1A1A1A" stroke-width="0.5" stroke-linecap="round" stroke-linejoin="round" stroke-dasharray="11.75 11.75"/>
<path d="M100.003 106.01L100.69 105.971" stroke="#1A1A1A" stroke-width="0.5" stroke-linecap="round" stroke-linejoin="round"/>
<path d="M60.281 112.41L100.879 116.004" stroke="#1A1A1A" stroke-width="0.5" stroke-linecap="round" stroke-linejoin="round" stroke-dasharray="12 12"/>
<path d="M5.55797 29.2271H52.385C52.385 29.2271 51.844 19.3521 41.567 18.4271C31.29 17.5021 28.967 23.1101 28.967 23.1101C28.967 23.1101 28.511 14.6601 20.554 14.7631C13.796 14.8511 12.761 21.5901 13.821 24.8631C11.121 21.4691 4.85797 22.5901 5.55297 29.2191" fill="white"/>
<path d="M5.55797 29.2271H52.385C52.385 29.2271 51.844 19.3521 41.567 18.4271C31.29 17.5021 28.967 23.1101 28.967 23.1101C28.967 23.1101 28.511 14.6601 20.554 14.7631C13.796 14.8511 12.761 21.5901 13.821 24.8631C11.121 21.4691 4.85797 22.5901 5.55297 29.2191" stroke="#707070" stroke-width="0.5"/>
<path d="M5.55782 29.2271H52.3848C52.3848 29.2271 51.8438 19.3521 41.5668 18.4271C31.2898 17.5021 28.9668 23.1101 28.9668 23.1101C28.9668 23.1101 28.5108 14.6601 20.5538 14.7631C13.7958 14.8511 12.7608 21.5901 13.8208 24.8631C11.1298 21.4771 4.86282 22.5951 5.55782 29.2271Z" stroke="#1A1A1A" stroke-width="0.5" stroke-linecap="round" stroke-linejoin="round"/>
<path d="M33.3728 53.27H52.3848" stroke="#1A1A1A" stroke-width="0.5" stroke-linecap="round" stroke-linejoin="round"/>
<path d="M42.626 50.6411H55.072" stroke="#1A1A1A" stroke-width="0.5" stroke-linecap="round" stroke-linejoin="round"/>
<path d="M57.656 36.9839H62.907" stroke="#1A1A1A" stroke-width="0.5" stroke-linecap="round" stroke-linejoin="round"/>
<path d="M44.428 63.722C44.428 63.722 62.303 62.365 65.845 66.26C66.989 73.106 67.371 76.74 67.371 76.74H46.009L44.428 63.722Z" fill="white" stroke="#707070" stroke-width="0.5"/>
<path d="M44.428 63.722C44.428 63.722 62.303 62.365 65.845 66.26C66.989 73.106 67.371 76.74 67.371 76.74H46.009L44.428 63.722Z" stroke="#1A1A1A" stroke-width="0.5" stroke-linecap="round" stroke-linejoin="round"/>
<path d="M47.3159 63.1808C47.3159 63.1808 62.8479 62.3547 63.9919 57.9277C65.2522 60.1589 65.8658 62.6972 65.7639 65.2577C64.4019 64.2967 57.1259 63.3987 47.3159 63.1797" fill="white"/>
<path d="M47.3159 63.1808C47.3159 63.1808 62.8479 62.3547 63.9919 57.9277C65.2522 60.1589 65.8658 62.6972 65.7639 65.2577C64.4019 64.2967 57.1259 63.3987 47.3159 63.1797" stroke="#707070" stroke-width="0.5"/>
<path d="M47.3159 63.1808C47.3159 63.1808 62.8479 62.3547 63.9919 57.9277C65.2522 60.1589 65.8658 62.6972 65.7639 65.2577C64.4009 64.2967 57.1259 63.3988 47.3159 63.1808Z" stroke="#1A1A1A" stroke-width="0.5" stroke-linecap="round" stroke-linejoin="round"/>
<path d="M44.7769 66.858C44.7769 66.858 60.3679 66.272 66.2139 68.774" stroke="#1A1A1A" stroke-width="0.5" stroke-linecap="round" stroke-linejoin="round"/>
<path d="M45.1318 69.5167C45.1318 69.5167 62.4718 68.8418 66.6108 71.0748" stroke="#1A1A1A" stroke-width="0.5" stroke-linecap="round" stroke-linejoin="round"/>
<path d="M54.6729 60.7759C54.6729 60.7759 48.4789 62.013 51.5119 78.96" stroke="#1A1A1A" stroke-width="0.5" stroke-linecap="round" stroke-linejoin="round"/>
<path d="M54.1648 61.7848C54.1648 61.7848 50.0778 59.1288 52.2648 57.8238C54.4518 56.5188 54.1648 61.6528 54.1648 61.6528" stroke="#1A1A1A" stroke-width="0.5" stroke-linecap="round" stroke-linejoin="round"/>
<path d="M54.868 61.8189C54.868 61.8189 53.785 56.308 56.728 57.127C59.671 57.946 54.868 61.8189 54.868 61.8189Z" stroke="#1A1A1A" stroke-width="0.5" stroke-linecap="round" stroke-linejoin="round"/>
<path d="M47.3159 59.187C47.3159 59.187 51.3649 61.38 53.8019 61.447" stroke="#1A1A1A" stroke-width="0.5" stroke-linecap="round" stroke-linejoin="round"/>
<defs>
<linearGradient id="paint0_linear_2_4868" x1="43.5154" y1="126.031" x2="43.5154" y2="137.682" gradientUnits="userSpaceOnUse">
<stop stop-color="#A8FED9"/>
<stop offset="1" stop-color="#00F1FF"/>
</linearGradient>
<linearGradient id="paint1_linear_2_4868" x1="157.286" y1="45.1611" x2="157.286" y2="61.8011" gradientUnits="userSpaceOnUse">
<stop stop-color="#A8FED9"/>
<stop offset="1" stop-color="#00F1FF"/>
</linearGradient>
<linearGradient id="paint2_linear_2_4868" x1="87.7012" y1="53.4692" x2="87.7012" y2="121.647" gradientUnits="userSpaceOnUse">
<stop stop-color="#A8FED9"/>
<stop offset="1" stop-color="#00F1FF"/>
</linearGradient>
<linearGradient id="paint3_linear_2_4868" x1="158.675" y1="121.646" x2="158.675" y2="137.682" gradientUnits="userSpaceOnUse">
<stop stop-color="#A8FED9"/>
<stop offset="1" stop-color="#00F1FF"/>
</linearGradient>
<linearGradient id="paint4_linear_2_4868" x1="97.2865" y1="45.897" x2="97.2865" y2="101.84" gradientUnits="userSpaceOnUse">
<stop stop-color="#A8FED9"/>
<stop offset="1" stop-color="#00F1FF"/>
</linearGradient>
<linearGradient id="paint5_linear_2_4868" x1="148.758" y1="48.4678" x2="148.758" y2="61.1888" gradientUnits="userSpaceOnUse">
<stop stop-color="#A8FED9"/>
<stop offset="1" stop-color="#00F1FF"/>
</linearGradient>
<linearGradient id="paint6_linear_2_4868" x1="107.244" y1="23.8921" x2="107.244" y2="33.1361" gradientUnits="userSpaceOnUse">
<stop stop-color="#A8FED9"/>
<stop offset="1" stop-color="#00F1FF"/>
</linearGradient>
</defs>
</svg>
