<svg width="161" height="95" viewBox="0 0 161 95" fill="none" xmlns="http://www.w3.org/2000/svg">
<mask id="mask0_2_6614" style="mask-type:luminance" maskUnits="userSpaceOnUse" x="0" y="0" width="161" height="95">
<path d="M160.496 0.448242H0.871948V94.9362H160.496V0.448242Z" fill="white"/>
</mask>
<g mask="url(#mask0_2_6614)">
<path d="M87.194 19.138C87.194 19.138 85.322 73.438 72.133 80.92C58.944 88.402 77.9419 94.867 77.9419 94.867H117.912C117.912 94.867 91.6189 55.935 92.8689 19.311C87.7939 18.952 87.194 19.138 87.194 19.138Z" stroke="#1A1A1A" stroke-width="0.5" stroke-linecap="round" stroke-linejoin="round"/>
<path d="M33.412 14.1303C29.967 11.4823 28.389 14.9303 27.902 16.3793C26.656 15.4883 23.356 13.6213 22.119 17.7853C20.58 22.9643 30.733 25.1153 30.733 25.1153C30.733 25.1153 37.696 17.4243 33.412 14.1303Z" fill="url(#paint0_linear_2_6614)" stroke="#707070" stroke-width="0.5"/>
<path d="M33.412 14.1303C29.967 11.4823 28.389 14.9303 27.902 16.3793C26.656 15.4883 23.356 13.6213 22.119 17.7853C20.58 22.9643 30.733 25.1153 30.733 25.1153C30.733 25.1153 37.697 17.4243 33.412 14.1303Z" stroke="black" stroke-width="0.5" stroke-linecap="round" stroke-linejoin="round"/>
<path d="M24.437 94.7434C24.437 94.7434 36.527 87.4134 59.473 87.1664C82.419 86.9194 98.268 94.7434 98.268 94.7434H24.437Z" fill="#1C0311" stroke="#707070" stroke-width="0.5"/>
<path d="M24.437 94.7434C24.437 94.7434 36.527 87.4134 59.473 87.1664C82.419 86.9194 98.268 94.7434 98.268 94.7434H24.437Z" stroke="#1A1A1A" stroke-width="0.5" stroke-linecap="round" stroke-linejoin="round"/>
<path d="M72.127 58.6562C72.127 58.6562 76.897 66.0842 76.897 69.5212C76.897 72.9582 71.4619 76.3953 71.4619 76.3953L62.7539 66.2502L72.127 58.6562Z" fill="white" stroke="#707070" stroke-width="0.5"/>
<path d="M72.127 58.6562C72.127 58.6562 76.897 66.0842 76.897 69.5212C76.897 72.9582 71.4619 76.3953 71.4619 76.3953L62.7539 66.2502L72.127 58.6562Z" stroke="#1A1A1A" stroke-width="0.5" stroke-linecap="round" stroke-linejoin="round"/>
<path d="M38.405 58.6562C38.405 58.6562 33.635 66.0842 33.635 69.5212C33.635 72.9582 39.071 76.3953 39.071 76.3953L47.779 66.2502L38.405 58.6562Z" fill="white" stroke="#707070" stroke-width="0.5"/>
<path d="M38.405 58.6562C38.405 58.6562 33.635 66.0842 33.635 69.5212C33.635 72.9582 39.071 76.3953 39.071 76.3953L47.779 66.2502L38.405 58.6562Z" stroke="#1A1A1A" stroke-width="0.5" stroke-linecap="round" stroke-linejoin="round"/>
<path d="M37.296 60.54C37.296 60.54 45.6161 45.3511 56.1541 45.3511C66.6921 45.3511 73.454 59.764 73.454 59.764L65.092 68.045H43.192L37.296 60.54Z" fill="#FF8888" stroke="#707070" stroke-width="0.5"/>
<path d="M37.296 60.54C37.296 60.54 45.6161 45.3511 56.1541 45.3511C66.6921 45.3511 73.454 59.764 73.454 59.764L65.092 68.045H43.192L37.296 60.54Z" stroke="#1A1A1A" stroke-width="0.5" stroke-linecap="round" stroke-linejoin="round"/>
<path d="M40.178 87.5842L42.538 93.5403H69.538V86.4253L40.178 87.5842Z" fill="#FF700F" stroke="#707070" stroke-width="0.5"/>
<path d="M40.178 87.5842L42.538 93.5403H69.538V86.4253L40.178 87.5842Z" stroke="black" stroke-width="0.5" stroke-linecap="round" stroke-linejoin="round"/>
<path d="M0.942993 94.8652H160.495" stroke="#1A1A1A" stroke-width="0.5" stroke-linecap="round" stroke-linejoin="round"/>
<path d="M52.993 81.7731C52.993 81.7731 18.217 64.4731 13.558 77.4491C8.89901 90.4251 46.005 94.0801 46.005 94.0801L52.993 81.7731Z" fill="url(#paint1_linear_2_6614)" stroke="#707070" stroke-width="0.5"/>
<path d="M52.993 81.7731C52.993 81.7731 18.217 64.4731 13.558 77.4491C8.89901 90.4251 46.005 94.0801 46.005 94.0801L52.993 81.7731Z" stroke="black" stroke-width="0.5" stroke-linecap="round" stroke-linejoin="round"/>
<path d="M58.427 81.7731C58.427 81.7731 93.2031 64.4731 97.8621 77.4491C102.521 90.4251 65.415 94.0801 65.415 94.0801L58.427 81.7731Z" fill="url(#paint2_linear_2_6614)" stroke="#707070" stroke-width="0.5"/>
<path d="M58.427 81.7731C58.427 81.7731 93.2031 64.4731 97.8621 77.4491C102.521 90.4251 65.415 94.0801 65.415 94.0801L58.427 81.7731Z" stroke="black" stroke-width="0.5" stroke-linecap="round" stroke-linejoin="round"/>
<path d="M72.128 91.6733H35.983V94.7433H72.128V91.6733Z" fill="white" stroke="#707070" stroke-width="0.5"/>
<path d="M72.128 91.6733H35.983V94.7433H72.128V91.6733Z" stroke="#1A1A1A" stroke-width="0.5" stroke-linecap="round" stroke-linejoin="round"/>
<path d="M52.0499 49.5091C53.0655 47.454 53.9184 45.3225 54.601 43.1341L59.537 43.0791C59.537 43.0791 58.5369 46.8491 60.9789 49.5091C58.3169 52.2811 52.0499 49.5091 52.0499 49.5091Z" fill="white" stroke="#707070" stroke-width="0.5"/>
<path d="M52.0499 49.5091C53.0655 47.454 53.9184 45.3225 54.601 43.1341L59.537 43.0791C59.537 43.0791 58.5369 46.8491 60.9789 49.5091C58.3169 52.2811 52.0499 49.5091 52.0499 49.5091Z" stroke="#1A1A1A" stroke-width="0.5" stroke-linecap="round" stroke-linejoin="round"/>
<path d="M63.1381 37.5421C63.1381 41.5141 60.521 44.7351 57.293 44.7351C54.065 44.7351 51.449 41.5151 51.449 37.5421C51.449 33.5691 54.066 30.3491 57.293 30.3491C60.52 30.3491 63.1381 33.5691 63.1381 37.5421Z" fill="white" stroke="#707070" stroke-width="0.5"/>
<path d="M57.294 44.7351C60.5221 44.7351 63.139 41.5147 63.139 37.5421C63.139 33.5695 60.5221 30.3491 57.294 30.3491C54.0659 30.3491 51.449 33.5695 51.449 37.5421C51.449 41.5147 54.0659 44.7351 57.294 44.7351Z" stroke="#1A1A1A" stroke-width="0.5" stroke-linecap="round" stroke-linejoin="round"/>
<path d="M72.1279 68.0454H36.4089V90.5524H72.1279V68.0454Z" fill="white" stroke="#707070" stroke-width="0.5"/>
<path d="M72.1279 68.0454H36.4089V90.5524H72.1279V68.0454Z" stroke="#1A1A1A" stroke-width="0.5" stroke-linecap="round" stroke-linejoin="round"/>
<path d="M50.6589 48.6094C50.6589 48.6094 50.9389 45.4365 52.4189 45.3525C53.8989 45.2685 55.8989 51.0524 55.8989 51.0524C55.8989 51.0524 50.9789 50.6524 50.6599 48.6144" fill="url(#paint3_linear_2_6614)"/>
<path d="M50.6589 48.6094C50.6589 48.6094 50.9389 45.4365 52.4189 45.3525C53.8989 45.2685 55.8989 51.0524 55.8989 51.0524C55.8989 51.0524 50.9789 50.6524 50.6599 48.6144" stroke="#707070" stroke-width="0.5"/>
<path d="M50.6589 48.6094C50.6589 48.6094 50.9389 45.4365 52.4189 45.3525C53.8989 45.2685 55.8989 51.0524 55.8989 51.0524C55.8989 51.0524 50.9789 50.6484 50.6589 48.6094Z" stroke="black" stroke-width="0.5" stroke-linecap="round" stroke-linejoin="round"/>
<path d="M56.698 51.0473C56.698 51.0473 57.978 45.3723 59.818 45.3473C61.658 45.3223 61.4979 49.0843 61.4979 49.0843C61.4979 49.0843 60.627 51.6963 56.698 51.0433" fill="url(#paint4_linear_2_6614)"/>
<path d="M56.698 51.0473C56.698 51.0473 57.978 45.3723 59.818 45.3473C61.658 45.3223 61.4979 49.0843 61.4979 49.0843C61.4979 49.0843 60.627 51.6963 56.698 51.0433" stroke="#707070" stroke-width="0.5"/>
<path d="M56.698 51.0473C56.698 51.0473 57.978 45.3723 59.818 45.3473C61.658 45.3223 61.4979 49.0843 61.4979 49.0843C61.4979 49.0843 60.627 51.7013 56.698 51.0473Z" stroke="black" stroke-width="0.5" stroke-linecap="round" stroke-linejoin="round"/>
<path d="M56.515 52.4062V56.1642" stroke="#707070" stroke-width="0.5"/>
<path d="M56.515 52.4062V56.1642" stroke="#1A1A1A" stroke-width="0.5" stroke-linecap="round" stroke-linejoin="round"/>
<path d="M56.515 59.6821V63.9991" stroke="#707070" stroke-width="0.5"/>
<path d="M56.515 59.6821V63.9991" stroke="#1A1A1A" stroke-width="0.5" stroke-linecap="round" stroke-linejoin="round"/>
<path d="M52.1379 37.1363C52.1379 37.1363 56.457 36.1773 57.597 33.5983C58.8826 35.6937 60.833 37.2981 63.137 38.1553C63.137 38.1553 65.5829 32.3394 61.4999 27.8424C57.4169 23.3454 47.5289 31.3803 48.1539 43.0723C53.3979 44.6313 55.3769 44.3374 55.3769 44.3374C55.3769 44.3374 51.7769 39.4743 52.1379 37.1373" fill="#1C0311"/>
<path d="M52.1379 37.1363C52.1379 37.1363 56.457 36.1773 57.597 33.5983C58.8826 35.6937 60.833 37.2981 63.137 38.1553C63.137 38.1553 65.5829 32.3394 61.4999 27.8424C57.4169 23.3454 47.5289 31.3803 48.1539 43.0723C53.3979 44.6313 55.3769 44.3374 55.3769 44.3374C55.3769 44.3374 51.7769 39.4743 52.1379 37.1373" stroke="#707070" stroke-width="0.5"/>
<path d="M52.1379 37.1363C52.1379 37.1363 56.457 36.1773 57.597 33.5983C58.8826 35.6937 60.833 37.2981 63.137 38.1553C63.137 38.1553 65.5829 32.3394 61.4999 27.8424C57.4169 23.3454 47.5289 31.3803 48.1539 43.0723C53.3979 44.6313 55.3769 44.3374 55.3769 44.3374C55.3769 44.3374 51.7779 39.4753 52.1379 37.1363Z" fill="#FF8888" stroke="#1A1A1A" stroke-width="0.5" stroke-linecap="round" stroke-linejoin="round"/>
<path d="M62.754 65.0781C62.754 65.0781 64.8969 67.2152 65.0969 68.0452" stroke="#1A1A1A" stroke-width="0.5" stroke-linecap="round" stroke-linejoin="round"/>
<path d="M43.0229 68.0452C43.4812 66.7989 44.3577 65.7502 45.5029 65.0781" stroke="#1A1A1A" stroke-width="0.5" stroke-linecap="round" stroke-linejoin="round"/>
<path d="M109.148 67.5063V94.8654H138.016L109.148 67.5063ZM114.917 80.9194L123.55 89.1003H114.917V80.9194Z" fill="white" stroke="#707070" stroke-width="0.5"/>
<path d="M109.148 67.5063V94.8654H138.016L109.148 67.5063ZM114.917 80.9194L123.55 89.1003H114.917V80.9194Z" stroke="#1A1A1A" stroke-width="0.5" stroke-linecap="round" stroke-linejoin="round"/>
<path d="M109.148 72.0273H111.246" stroke="#1A1A1A" stroke-width="0.5" stroke-linecap="round" stroke-linejoin="round"/>
<path d="M109.148 77.3291H111.246" stroke="#1A1A1A" stroke-width="0.5" stroke-linecap="round" stroke-linejoin="round"/>
<path d="M109.148 82.6313H111.246" stroke="#1A1A1A" stroke-width="0.5" stroke-linecap="round" stroke-linejoin="round"/>
<path d="M109.148 87.9331H111.246" stroke="#1A1A1A" stroke-width="0.5" stroke-linecap="round" stroke-linejoin="round"/>
<path d="M43.019 90.5522H40.707V91.6732H43.019V90.5522Z" fill="#1C0311" stroke="#707070" stroke-width="0.5"/>
<path d="M43.019 90.5522H40.707V91.6732H43.019V90.5522Z" stroke="#1A1A1A" stroke-width="0.5" stroke-linecap="round" stroke-linejoin="round"/>
<path d="M68.432 90.5522H66.12V91.6732H68.432V90.5522Z" fill="#1C0311" stroke="#707070" stroke-width="0.5"/>
<path d="M68.432 90.5522H66.12V91.6732H68.432V90.5522Z" stroke="#1A1A1A" stroke-width="0.5" stroke-linecap="round" stroke-linejoin="round"/>
<path d="M57.8719 80.8311C57.5235 81.2169 57.0971 81.5244 56.621 81.7332C56.1448 81.942 55.6298 82.0471 55.11 82.042C54.6546 82.081 54.196 82.0249 53.7634 81.8774C53.3308 81.7298 52.9336 81.4941 52.5969 81.185C52.2602 80.8759 51.9915 80.5001 51.8076 80.0817C51.6237 79.6633 51.5288 79.2111 51.5288 78.7541C51.5288 78.297 51.6237 77.845 51.8076 77.4266C51.9915 77.0081 52.2602 76.6324 52.5969 76.3233C52.9336 76.0142 53.3308 75.7783 53.7634 75.6308C54.196 75.4832 54.6546 75.4272 55.11 75.4661C55.7127 75.458 56.308 75.6 56.8422 75.8793C57.3764 76.1586 57.8326 76.5665 58.1699 77.0661C57.7174 77.1516 57.3077 77.3893 57.0087 77.7395C56.7097 78.0898 56.5394 78.5318 56.526 78.9921C56.5352 79.3997 56.6694 79.7946 56.9103 80.1235C57.1512 80.4523 57.4862 80.6993 57.8719 80.8311Z" fill="#FF8888" stroke="#707070" stroke-width="0.5"/>
<path d="M57.8719 80.8311C57.5235 81.2169 57.0971 81.5244 56.621 81.7332C56.1448 81.942 55.6298 82.0471 55.11 82.042C54.6546 82.081 54.196 82.0249 53.7634 81.8774C53.3308 81.7298 52.9336 81.4941 52.5969 81.185C52.2602 80.8759 51.9915 80.5001 51.8076 80.0817C51.6237 79.6633 51.5288 79.2111 51.5288 78.7541C51.5288 78.297 51.6237 77.845 51.8076 77.4266C51.9915 77.0081 52.2602 76.6324 52.5969 76.3233C52.9336 76.0142 53.3308 75.7783 53.7634 75.6308C54.196 75.4832 54.6546 75.4272 55.11 75.4661C55.7127 75.458 56.308 75.6 56.8422 75.8793C57.3764 76.1586 57.8326 76.5665 58.1699 77.0661C57.7174 77.1516 57.3077 77.3893 57.0087 77.7395C56.7097 78.0898 56.5394 78.5318 56.526 78.9921C56.5352 79.3995 56.6691 79.7943 56.9098 80.1232C57.1505 80.4521 57.4863 80.6992 57.8719 80.8311Z" stroke="#1A1A1A" stroke-width="0.5" stroke-linecap="round" stroke-linejoin="round"/>
<path d="M127.834 27.0323C127.836 29.3595 127.147 31.635 125.856 33.5709C124.564 35.5068 122.727 37.0161 120.578 37.908C118.428 38.7999 116.063 39.0343 113.78 38.5815C111.497 38.1288 109.4 37.0092 107.754 35.3643C106.107 33.7195 104.986 31.6234 104.531 29.3411C104.076 27.0588 104.308 24.6929 105.198 22.5425C106.088 20.3922 107.596 18.5541 109.53 17.2607C111.465 15.9673 113.74 15.2768 116.067 15.2764C117.611 15.276 119.141 15.5798 120.568 16.1705C121.996 16.7613 123.292 17.6273 124.385 18.7192C125.477 19.8112 126.344 21.1076 126.936 22.5345C127.527 23.9613 127.832 25.4908 127.832 27.0354" fill="white"/>
<path d="M127.834 27.0323C127.836 29.3595 127.147 31.635 125.856 33.5709C124.564 35.5068 122.727 37.0161 120.578 37.908C118.428 38.7999 116.063 39.0343 113.78 38.5815C111.497 38.1288 109.4 37.0092 107.754 35.3643C106.107 33.7195 104.986 31.6234 104.531 29.3411C104.076 27.0588 104.308 24.6929 105.198 22.5425C106.088 20.3922 107.596 18.5541 109.53 17.2607C111.465 15.9673 113.74 15.2768 116.067 15.2764C117.611 15.276 119.141 15.5798 120.568 16.1705C121.996 16.7613 123.292 17.6273 124.385 18.7192C125.477 19.8112 126.344 21.1076 126.936 22.5345C127.527 23.9613 127.832 25.4908 127.832 27.0354" stroke="#707070" stroke-width="0.5"/>
<path d="M116.069 38.7914C122.567 38.7914 127.834 33.5268 127.834 27.0324C127.834 20.5381 122.567 15.2734 116.069 15.2734C109.571 15.2734 104.304 20.5381 104.304 27.0324C104.304 33.5268 109.571 38.7914 116.069 38.7914Z" stroke="#1A1A1A" stroke-width="0.5" stroke-linecap="round" stroke-linejoin="round"/>
<path d="M124.642 27.0324C124.643 28.7281 124.141 30.386 123.199 31.7964C122.258 33.2067 120.919 34.3062 119.352 34.9557C117.786 35.6051 116.062 35.7755 114.399 35.4451C112.736 35.1148 111.208 34.2986 110.008 33.0998C108.809 31.901 107.992 30.3735 107.661 28.7104C107.33 27.0472 107.499 25.3233 108.148 23.7566C108.797 22.1898 109.896 20.8507 111.306 19.9085C112.716 18.9663 114.373 18.4634 116.069 18.4634C117.195 18.4631 118.309 18.6846 119.349 19.1151C120.389 19.5455 121.334 20.1766 122.13 20.9724C122.926 21.7681 123.558 22.7128 123.989 23.7526C124.42 24.7923 124.642 25.9068 124.642 27.0324Z" fill="url(#paint5_linear_2_6614)" stroke="#707070" stroke-width="0.5"/>
<path d="M116.069 35.6014C120.804 35.6014 124.642 31.7649 124.642 27.0324C124.642 22.2999 120.804 18.4634 116.069 18.4634C111.334 18.4634 107.496 22.2999 107.496 27.0324C107.496 31.7649 111.334 35.6014 116.069 35.6014Z" stroke="black" stroke-width="0.5" stroke-linecap="round" stroke-linejoin="round"/>
<path d="M121.189 27.031C121.189 28.0436 120.89 29.0336 120.328 29.8758C119.766 30.718 118.966 31.3746 118.031 31.7625C117.095 32.1504 116.066 32.2522 115.073 32.055C114.08 31.8578 113.167 31.3706 112.451 30.6548C111.735 29.939 111.247 29.0269 111.049 28.0338C110.852 27.0407 110.953 26.0113 111.34 25.0758C111.728 24.1402 112.384 23.3406 113.226 22.778C114.067 22.2153 115.057 21.915 116.07 21.915C117.427 21.9148 118.729 22.4536 119.689 23.413C120.649 24.3724 121.188 25.6738 121.189 27.031Z" fill="white" stroke="#707070" stroke-width="0.5"/>
<path d="M116.069 32.147C118.896 32.147 121.188 29.8565 121.188 27.031C121.188 24.2056 118.896 21.915 116.069 21.915C113.242 21.915 110.95 24.2056 110.95 27.031C110.95 29.8565 113.242 32.147 116.069 32.147Z" stroke="#1A1A1A" stroke-width="0.5" stroke-linecap="round" stroke-linejoin="round"/>
<path d="M117.98 27.032C117.98 27.4102 117.868 27.78 117.658 28.0946C117.448 28.4092 117.15 28.6544 116.8 28.7993C116.451 28.9441 116.066 28.9821 115.696 28.9084C115.325 28.8348 114.984 28.6528 114.716 28.3854C114.449 28.1181 114.267 27.7774 114.193 27.4064C114.119 27.0355 114.157 26.6511 114.301 26.3016C114.446 25.9522 114.691 25.6535 115.006 25.4434C115.32 25.2332 115.69 25.1211 116.068 25.1211C116.319 25.121 116.568 25.1703 116.8 25.2662C117.031 25.3622 117.242 25.503 117.42 25.6804C117.597 25.8579 117.738 26.0686 117.834 26.3005C117.931 26.5325 117.98 26.781 117.98 27.032Z" fill="#FF8888" stroke="#707070" stroke-width="0.5"/>
<path d="M116.069 28.9431C117.125 28.9431 117.981 28.0875 117.981 27.0321C117.981 25.9767 117.125 25.1211 116.069 25.1211C115.013 25.1211 114.157 25.9767 114.157 27.0321C114.157 28.0875 115.013 28.9431 116.069 28.9431Z" stroke="#1A1A1A" stroke-width="0.5" stroke-linecap="round" stroke-linejoin="round"/>
<path d="M116.069 27.0324L129.422 15.2734" stroke="#1A1A1A" stroke-width="0.5" stroke-linecap="round" stroke-linejoin="round"/>
<path d="M128.549 13.7363L128.432 16.1443L130.77 16.7783L134.224 14.2303L131.424 13.6963L131.369 11.3413L128.549 13.7363Z" fill="#1C0311" stroke="#707070" stroke-width="0.5"/>
<path d="M128.549 13.7363L128.432 16.1443L130.77 16.7783L134.224 14.2303L131.424 13.6963L131.369 11.3413L128.549 13.7363Z" fill="#FF8888" stroke="#1A1A1A" stroke-width="0.5" stroke-linecap="round" stroke-linejoin="round"/>
<path d="M147.225 46.7783H138.675C138.811 42.0013 147.09 41.9863 147.225 46.7783Z" fill="url(#paint6_linear_2_6614)" stroke="#707070" stroke-width="0.5"/>
<path d="M147.225 46.7783H138.675C138.811 42.0013 147.09 41.9863 147.225 46.7783Z" stroke="black" stroke-width="0.5" stroke-linecap="round" stroke-linejoin="round"/>
<path d="M147.227 46.8883V87.9333H138.674V46.9093C138.674 46.8653 138.674 46.8213 138.674 46.7783H147.224C147.224 46.8153 147.224 46.8513 147.224 46.8883" fill="white"/>
<path d="M147.227 46.8883V87.9333H138.674V46.9093C138.674 46.8653 138.674 46.8213 138.674 46.7783H147.224C147.224 46.8153 147.224 46.8513 147.224 46.8883" stroke="#707070" stroke-width="0.5"/>
<path d="M147.227 46.8883V87.9333H138.674V46.9093C138.674 46.8653 138.674 46.8213 138.674 46.7783H147.224C147.226 46.8153 147.227 46.8513 147.227 46.8883Z" stroke="#1A1A1A" stroke-width="0.5" stroke-linecap="round" stroke-linejoin="round"/>
<path d="M143.114 94.6191C143.356 94.6191 143.831 94.0002 144.375 93.1392H141.81C142.379 94.0002 142.872 94.6191 143.11 94.6191" fill="#1C0311"/>
<path d="M143.114 94.6191C143.356 94.6191 143.831 94.0002 144.375 93.1392H141.81C142.379 94.0002 142.872 94.6191 143.11 94.6191" stroke="#707070" stroke-width="0.5"/>
<path d="M143.114 94.6191C143.356 94.6191 143.831 94.0002 144.375 93.1392H141.81C142.38 94.0002 142.873 94.6191 143.114 94.6191Z" stroke="#1A1A1A" stroke-width="0.5" stroke-linecap="round" stroke-linejoin="round"/>
<path d="M138.811 87.9331C138.811 87.9331 140.511 91.17 141.811 93.14H144.376C145.621 91.171 147.227 87.9331 147.227 87.9331H138.811Z" fill="white" stroke="#707070" stroke-width="0.5"/>
<path d="M138.811 87.9331C138.811 87.9331 140.511 91.17 141.811 93.14H144.376C145.621 91.171 147.227 87.9331 147.227 87.9331H138.811Z" stroke="#1A1A1A" stroke-width="0.5" stroke-linecap="round" stroke-linejoin="round"/>
<path d="M140.894 46.8882V87.9332" stroke="#1A1A1A" stroke-width="0.5" stroke-linecap="round" stroke-linejoin="round"/>
<path d="M144.376 46.8882V87.9332" stroke="#1A1A1A" stroke-width="0.5" stroke-linecap="round" stroke-linejoin="round"/>
<path d="M147.227 46.7783H147.225" stroke="#1A1A1A" stroke-width="0.5" stroke-linecap="round" stroke-linejoin="round"/>
<path d="M138.675 46.7783H138.674" stroke="#1A1A1A" stroke-width="0.5" stroke-linecap="round" stroke-linejoin="round"/>
<path d="M92.2631 2.69824C91.5906 1.90772 90.8659 1.16306 90.094 0.469238C89.2259 1.24912 88.4174 2.0928 87.675 2.99324C89.1289 2.38779 90.7427 2.28227 92.2631 2.69324" fill="#FF8888"/>
<path d="M92.2631 2.69824C91.5906 1.90772 90.8659 1.16306 90.094 0.469238C89.2259 1.24912 88.4174 2.0928 87.675 2.99324C89.1289 2.38779 90.7427 2.28227 92.2631 2.69324" stroke="#707070" stroke-width="0.5"/>
<path d="M92.2631 2.69824C91.5906 1.90772 90.8659 1.16306 90.094 0.469238C89.2259 1.24912 88.4174 2.0928 87.675 2.99324C89.1295 2.38945 90.7433 2.28569 92.2631 2.69824Z" stroke="#1A1A1A" stroke-width="0.5" stroke-linecap="round" stroke-linejoin="round"/>
<path d="M92.2629 2.69504C90.7426 2.28407 89.1289 2.38959 87.675 2.99504C86.428 4.51104 85.166 6.48304 85.166 8.25503V19.495H95.022V8.25604C95.022 6.36504 93.5849 4.24704 92.2629 2.69804" fill="white"/>
<path d="M92.2629 2.69504C90.7426 2.28407 89.1289 2.38959 87.675 2.99504C86.428 4.51104 85.166 6.48303 85.166 8.25503V19.495H95.022V8.25604C95.022 6.36504 93.5849 4.24704 92.2629 2.69804" stroke="#707070" stroke-width="0.5"/>
<path d="M92.2629 2.69504C90.7426 2.28407 89.1289 2.38959 87.675 2.99504C86.428 4.51104 85.166 6.48303 85.166 8.25503V19.495H95.022V8.25604C95.022 6.36504 93.5849 4.24704 92.2629 2.69504Z" stroke="#1A1A1A" stroke-width="0.5" stroke-linecap="round" stroke-linejoin="round"/>
<path d="M92.1699 7.25926C92.1701 7.61788 92.064 7.96851 91.8649 8.26678C91.6658 8.56506 91.3828 8.79759 91.0515 8.93497C90.7202 9.07234 90.3557 9.10839 90.0039 9.03855C89.6521 8.96871 89.329 8.79612 89.0753 8.5426C88.8217 8.28909 88.6489 7.96604 88.5788 7.61433C88.5088 7.26261 88.5447 6.89803 88.6819 6.56669C88.8191 6.23535 89.0514 5.95214 89.3496 5.75288C89.6478 5.55362 89.9983 5.44727 90.3569 5.44727C90.595 5.44713 90.8307 5.49391 91.0507 5.58491C91.2706 5.67591 91.4705 5.80936 91.6389 5.97763C91.8073 6.1459 91.9408 6.34571 92.032 6.56561C92.1231 6.78552 92.1699 7.02122 92.1699 7.25926Z" fill="#FF8888" stroke="#707070" stroke-width="0.5"/>
<path d="M90.358 9.07127C91.3593 9.07127 92.171 8.26001 92.171 7.25927C92.171 6.25853 91.3593 5.44727 90.358 5.44727C89.3568 5.44727 88.545 6.25853 88.545 7.25927C88.545 8.26001 89.3568 9.07127 90.358 9.07127Z" stroke="#1A1A1A" stroke-width="0.5" stroke-linecap="round" stroke-linejoin="round"/>
<path d="M89.677 12.3823C89.677 12.3823 88.66 18.0193 88.834 19.7183C89.2479 21.6193 89.8416 23.4767 90.6071 25.2653C90.6071 25.2653 90.555 13.3653 89.677 12.3823Z" fill="#FF700F" stroke="#707070" stroke-width="0.5"/>
<path d="M89.677 12.3823C89.677 12.3823 88.66 18.0193 88.834 19.7183C89.2479 21.6193 89.8416 23.4767 90.6071 25.2653C90.6071 25.2653 90.555 13.3663 89.677 12.3823Z" fill="url(#paint7_linear_2_6614)" stroke="black" stroke-width="0.5" stroke-linecap="round" stroke-linejoin="round"/>
<path d="M95.022 13.0093L93.597 19.4963L95.022 25.2673C95.022 25.2673 96.9681 20.7943 96.6901 18.2883C96.4002 16.4553 95.8379 14.676 95.022 13.0093Z" fill="#FF700F" stroke="#707070" stroke-width="0.5"/>
<path d="M95.022 13.0093L93.597 19.4963L95.022 25.2673C95.022 25.2673 96.9681 20.7943 96.6901 18.2883C96.4002 16.4553 95.8379 14.676 95.022 13.0093Z" fill="url(#paint8_linear_2_6614)" stroke="black" stroke-width="0.5" stroke-linecap="round" stroke-linejoin="round"/>
<path d="M85.207 13.0093L86.6329 19.4963L85.207 25.2673C85.207 25.2673 83.2609 20.7943 83.5389 18.2883C83.8287 16.4553 84.3911 14.676 85.207 13.0093Z" fill="url(#paint9_linear_2_6614)" stroke="#707070" stroke-width="0.5"/>
<path d="M85.207 13.0093L86.6329 19.4963L85.207 25.2673C85.207 25.2673 83.2609 20.7943 83.5389 18.2883C83.8287 16.4553 84.3911 14.676 85.207 13.0093Z" stroke="black" stroke-width="0.5" stroke-linecap="round" stroke-linejoin="round"/>
<path d="M8.59601 44.0214H32.159C32.159 44.0214 30.802 35.4904 22.907 38.2214C17.849 32.0734 11.927 37.6824 13.161 40.8534C8.47301 40.8274 8.59601 44.0234 8.59601 44.0234" fill="#FF8888"/>
<path d="M8.59601 44.0214H32.159C32.159 44.0214 30.802 35.4904 22.907 38.2214C17.849 32.0734 11.927 37.6824 13.161 40.8534C8.47301 40.8274 8.59601 44.0234 8.59601 44.0234" stroke="#707070" stroke-width="0.5"/>
<path d="M8.59602 44.0214H32.159C32.159 44.0214 30.802 35.4904 22.907 38.2214C17.849 32.0734 11.927 37.6824 13.161 40.8534C8.47202 40.8304 8.59602 44.0214 8.59602 44.0214Z" stroke="#1A1A1A" stroke-width="0.5" stroke-linecap="round" stroke-linejoin="round"/>
<path d="M100.481 46.2652C100.481 46.2652 95.874 44.2392 92.557 46.2652V59.2801C92.557 59.2801 99.314 57.6802 102.938 60.5082V48.1081C102.234 47.3538 101.402 46.7292 100.481 46.2652Z" fill="#FF8888" stroke="#707070" stroke-width="0.5"/>
<path d="M100.481 46.2652C100.481 46.2652 95.874 44.2392 92.557 46.2652V59.2801C92.557 59.2801 99.314 57.6802 102.938 60.5082V48.1081C102.234 47.3535 101.403 46.7295 100.481 46.2652Z" stroke="#1A1A1A" stroke-width="0.5" stroke-linecap="round" stroke-linejoin="round"/>
<path d="M94.708 43.0112C94.708 43.0112 101.158 41.9673 102.939 46.3883V59.2813C102.939 59.2813 98.578 56.2112 94.708 56.4572V43.0112Z" fill="white" stroke="#707070" stroke-width="0.5"/>
<path d="M94.708 43.0112C94.708 43.0112 101.158 41.9673 102.939 46.3883V59.2813C102.939 59.2813 98.578 56.2112 94.708 56.4572V43.0112Z" stroke="#1A1A1A" stroke-width="0.5" stroke-linecap="round" stroke-linejoin="round"/>
<path d="M105.395 46.2652C105.395 46.2652 110.002 44.2392 113.319 46.2652V59.2801C113.319 59.2801 106.562 57.6802 102.938 60.5082V48.1081C103.642 47.3539 104.474 46.7293 105.395 46.2652Z" fill="#FF8888" stroke="#707070" stroke-width="0.5"/>
<path d="M105.395 46.2652C105.395 46.2652 110.002 44.2392 113.319 46.2652V59.2801C113.319 59.2801 106.562 57.6802 102.938 60.5082V48.1081C103.642 47.3535 104.474 46.7296 105.395 46.2652Z" stroke="#1A1A1A" stroke-width="0.5" stroke-linecap="round" stroke-linejoin="round"/>
<path d="M111.169 43.0112C111.169 43.0112 104.719 41.9673 102.938 46.3883V59.2813C102.938 59.2813 107.299 56.2112 111.169 56.4572V43.0112Z" fill="white" stroke="#707070" stroke-width="0.5"/>
<path d="M111.169 43.0112C111.169 43.0112 104.719 41.9673 102.938 46.3883V59.2813C102.938 59.2813 107.299 56.2112 111.169 56.4572V43.0112Z" stroke="#1A1A1A" stroke-width="0.5" stroke-linecap="round" stroke-linejoin="round"/>
</g>
<defs>
<linearGradient id="paint0_linear_2_6614" x1="28.3827" y1="13.1587" x2="28.3827" y2="25.1153" gradientUnits="userSpaceOnUse">
<stop stop-color="#A8FED9"/>
<stop offset="1" stop-color="#00F1FF"/>
</linearGradient>
<linearGradient id="paint1_linear_2_6614" x1="33.0732" y1="72.623" x2="33.0732" y2="94.0801" gradientUnits="userSpaceOnUse">
<stop stop-color="#A8FED9"/>
<stop offset="1" stop-color="#00F1FF"/>
</linearGradient>
<linearGradient id="paint2_linear_2_6614" x1="78.3469" y1="72.623" x2="78.3469" y2="94.0801" gradientUnits="userSpaceOnUse">
<stop stop-color="#A8FED9"/>
<stop offset="1" stop-color="#00F1FF"/>
</linearGradient>
<linearGradient id="paint3_linear_2_6614" x1="53.2789" y1="45.3516" x2="53.2789" y2="51.0524" gradientUnits="userSpaceOnUse">
<stop stop-color="#A8FED9"/>
<stop offset="1" stop-color="#00F1FF"/>
</linearGradient>
<linearGradient id="paint4_linear_2_6614" x1="59.0997" y1="45.3472" x2="59.0997" y2="51.1481" gradientUnits="userSpaceOnUse">
<stop stop-color="#A8FED9"/>
<stop offset="1" stop-color="#00F1FF"/>
</linearGradient>
<linearGradient id="paint5_linear_2_6614" x1="116.069" y1="18.4634" x2="116.069" y2="35.6094" gradientUnits="userSpaceOnUse">
<stop stop-color="#A8FED9"/>
<stop offset="1" stop-color="#00F1FF"/>
</linearGradient>
<linearGradient id="paint6_linear_2_6614" x1="142.95" y1="43.1899" x2="142.95" y2="46.7783" gradientUnits="userSpaceOnUse">
<stop stop-color="#A8FED9"/>
<stop offset="1" stop-color="#00F1FF"/>
</linearGradient>
<linearGradient id="paint7_linear_2_6614" x1="89.7105" y1="12.3823" x2="89.7105" y2="25.2653" gradientUnits="userSpaceOnUse">
<stop stop-color="#A8FED9"/>
<stop offset="1" stop-color="#00F1FF"/>
</linearGradient>
<linearGradient id="paint8_linear_2_6614" x1="95.1571" y1="13.0093" x2="95.1571" y2="25.2673" gradientUnits="userSpaceOnUse">
<stop stop-color="#A8FED9"/>
<stop offset="1" stop-color="#00F1FF"/>
</linearGradient>
<linearGradient id="paint9_linear_2_6614" x1="85.0723" y1="13.0093" x2="85.0723" y2="25.2673" gradientUnits="userSpaceOnUse">
<stop stop-color="#A8FED9"/>
<stop offset="1" stop-color="#00F1FF"/>
</linearGradient>
</defs>
</svg>
