<svg width="106" height="55" viewBox="0 0 106 55" fill="none" xmlns="http://www.w3.org/2000/svg">
<path d="M27.419 18.154L31.036 41.034H22.97L21.964 31.963L21.88 30.897L21.792 29.847C21.704 28.972 21.646 28.286 21.632 27.776C21.515 28.461 21.384 29.162 21.238 29.847C21.092 30.532 20.903 31.218 20.596 32.224L17.971 40.975H13.08L10.455 32.224C10.1892 31.4465 9.97475 30.6525 9.813 29.847C9.613 28.947 9.478 28.247 9.419 27.776C9.331 28.768 9.273 29.482 9.259 29.891C9.245 30.3 9.159 31.029 9.069 31.962L8.08 41.034H0L3.909 18.154H12.397L14.03 23.813C14.0891 24.0808 14.1669 24.3441 14.263 24.601C14.8394 26.5091 15.2638 28.4598 15.532 30.435H15.68C15.8098 29.3952 15.9947 28.3631 16.234 27.343C16.434 26.395 16.774 25.17 17.24 23.653L18.946 18.096L27.419 18.154ZM74.162 26.905C73.8818 26.8522 73.6045 26.7855 73.331 26.705C71.041 26.238 69.904 25.67 69.904 25.013C69.9025 24.8517 69.9435 24.6928 70.0228 24.5524C70.1022 24.412 70.2171 24.2949 70.356 24.213C70.77 23.9996 71.2328 23.8989 71.698 23.921C72.5004 23.9397 73.294 24.0925 74.046 24.373C74.8811 24.7372 75.6691 25.2008 76.393 25.754L78.902 19.774C77.6917 19.089 76.3976 18.5642 75.052 18.213C73.7897 17.8583 72.4841 17.6816 71.173 17.688C68.6762 17.5525 66.2178 18.3474 64.273 19.919C63.4133 20.6616 62.7292 21.5858 62.2702 22.625C61.8113 23.6642 61.5888 24.7923 61.619 25.928C61.5562 27.3759 62.0346 28.7954 62.961 29.91C64.012 31.0395 65.3882 31.8143 66.899 32.127L68.11 32.375C69.729 32.725 70.546 33.221 70.546 33.833C70.5448 34.0073 70.5001 34.1785 70.4162 34.3313C70.3322 34.4841 70.2115 34.6135 70.065 34.708C69.6564 34.9369 69.1904 35.0431 68.723 35.014C67.852 35.01 66.99 34.8368 66.185 34.504C65.073 34.007 64.0129 33.4014 63.02 32.696L60.35 39.079C61.7746 39.8992 63.2924 40.5454 64.871 41.004C66.3271 41.4211 67.8334 41.6371 69.348 41.646C70.6889 41.6583 72.0231 41.4557 73.3 41.046C74.4721 40.6672 75.5543 40.0526 76.48 39.24C77.3866 38.485 78.1116 37.5357 78.6013 36.4625C79.091 35.3892 79.3329 34.2194 79.309 33.04C79.3397 31.5767 78.8193 30.1554 77.851 29.058C76.9157 27.9212 75.6087 27.1515 74.161 26.885L74.162 26.905ZM97.205 18.154V25.754H92.188V18.154H83.948V41.034H92.188V33.041H97.205V41.106H105.431V18.154H97.205ZM44.862 41.004H46.773C46.6821 40.9244 46.6205 40.8167 46.598 40.698C46.5768 40.592 46.5768 40.4829 46.598 40.377C46.7261 39.8227 46.7753 39.253 46.744 38.685C46.7267 38.5735 46.7458 38.4594 46.7984 38.3597C46.8509 38.2599 46.9343 38.1797 47.036 38.131C47.1032 38.0954 47.1576 38.0398 47.1917 37.9719C47.2257 37.9039 47.2377 37.8271 47.226 37.752C47.2115 37.5189 47.2115 37.2851 47.226 37.052C47.226 36.337 47.386 35.594 47.426 34.908V34.12C47.426 34.12 47.28 34.528 47.193 34.733C46.96 35.302 46.814 35.914 46.537 36.469C46.26 37.024 46.143 37.369 45.924 37.825C45.705 38.281 45.501 38.625 45.311 39.036C45.223 39.196 45.078 39.371 45.311 39.576C45.3277 39.6048 45.3365 39.6376 45.3365 39.671C45.3365 39.7043 45.3277 39.7371 45.311 39.766C45.0325 40.1198 44.8751 40.5538 44.862 41.004ZM50.492 18.121H41.392L33.18 41.004H43.724C43.7118 40.6803 43.7662 40.3577 43.884 40.056C44.076 39.585 44.2226 39.0968 44.322 38.598C44.356 38.211 44.4341 37.8292 44.555 37.46C44.5979 37.2708 44.6564 37.0855 44.73 36.906C44.7379 36.8237 44.766 36.7446 44.8119 36.6758C44.8578 36.6071 44.92 36.5508 44.993 36.512C45.063 36.4715 45.1194 36.411 45.1551 36.3384C45.1907 36.2657 45.2039 36.1841 45.193 36.104C45.1604 35.842 45.1948 35.576 45.293 35.331C45.4201 35.1198 45.4859 34.8774 45.483 34.631V33.464C45.5363 32.8847 45.6289 32.3097 45.76 31.743C45.8875 31.2192 45.9513 30.682 45.95 30.143C45.9642 29.9251 45.9219 29.7073 45.8273 29.5106C45.7327 29.3139 45.589 29.1449 45.41 29.02C45.25 28.903 45.162 28.82 45.191 28.626C45.22 28.432 45.191 28.526 45.191 28.466L45.118 28.597C45.0241 28.7296 44.9219 28.8562 44.812 28.976C44.222 29.6206 43.6868 30.3133 43.212 31.047C43.0248 31.4277 42.7731 31.7731 42.468 32.068C42.4456 32.1293 42.4456 32.1966 42.468 32.258C42.3545 32.5818 42.2904 32.921 42.278 33.264C42.278 33.264 42.278 33.395 42.178 33.41C42.078 33.425 42.078 33.41 42.078 33.279C42.0872 33.2555 42.0872 33.2294 42.078 33.206V33.221C42.0708 33.2791 42.0708 33.3378 42.078 33.396V33.496C42.078 33.525 42.078 33.496 42.178 33.496C42.178 33.496 42.178 33.569 42.078 33.569C42.0481 33.5823 42.0157 33.5892 41.983 33.5892C41.9503 33.5892 41.9179 33.5823 41.888 33.569C41.8608 33.5218 41.8364 33.473 41.815 33.423V33.583H41.494C41.4624 33.5645 41.4357 33.5388 41.4159 33.5081C41.3961 33.4773 41.3838 33.4423 41.38 33.406C41.3872 33.3479 41.3872 33.2891 41.38 33.231C41.388 33.1855 41.3841 33.1388 41.3687 33.0954C41.3533 33.0519 41.3268 33.0132 41.292 32.983C41.2713 32.9663 41.2547 32.9452 41.2432 32.9212C41.2318 32.8973 41.2258 32.871 41.2258 32.8445C41.2258 32.8179 41.2318 32.7917 41.2432 32.7677C41.2547 32.7437 41.2713 32.7226 41.292 32.706C41.3292 32.6649 41.3736 32.631 41.423 32.606C41.6589 32.4617 41.8613 32.2687 42.0165 32.0398C42.1717 31.8109 42.2762 31.5515 42.323 31.279C42.44 30.9 42.629 30.55 42.761 30.171C42.9194 29.6719 43.1611 29.2033 43.476 28.785C43.8776 28.2113 44.1558 27.5606 44.293 26.874C44.3022 26.8505 44.3022 26.8244 44.293 26.801C44.093 26.991 43.812 26.961 43.549 27.001C43.4345 27.0251 43.3155 27.0174 43.205 26.9788C43.0945 26.9402 42.9966 26.8722 42.922 26.782C42.6698 26.4861 42.4792 26.1427 42.3616 25.7721C42.244 25.4015 42.2016 25.0112 42.237 24.624C42.2364 24.479 42.2659 24.3354 42.3236 24.2024C42.3812 24.0694 42.4658 23.9497 42.572 23.851C42.7732 23.6935 42.9546 23.5122 43.112 23.311C43.229 23.151 43.258 23.211 43.302 23.311C43.346 23.411 43.419 23.311 43.448 23.311C43.477 23.311 43.681 23.092 43.594 23.384C43.594 23.384 43.594 23.472 43.667 23.472C43.944 23.472 44.221 23.705 44.498 23.472C44.5494 23.4518 44.6066 23.4518 44.658 23.472C44.8703 23.5211 45.073 23.6049 45.258 23.72C45.4624 23.8937 45.7008 24.0228 45.958 24.099C46.118 24.172 46.148 24.259 46.104 24.434C46.0821 24.6133 46.0821 24.7946 46.104 24.974C46.104 24.974 46.104 24.974 46.104 25.061C46.1118 25.0373 46.1118 25.0117 46.104 24.988C46.342 24.209 46.4505 23.3961 46.425 22.582C46.425 22.305 46.352 22.013 46.325 21.722C46.2956 21.3482 46.2956 20.9727 46.325 20.599C46.3469 20.3368 46.3469 20.0732 46.325 19.811C46.3261 19.7197 46.2942 19.6312 46.2352 19.5616C46.1763 19.4919 46.0942 19.4459 46.004 19.432C45.8134 19.3288 45.6369 19.2014 45.479 19.053C45.4658 19.0209 45.4658 18.985 45.479 18.953H45.902L45.742 18.778V18.69C45.742 18.602 45.842 18.617 45.873 18.69C45.904 18.763 46.092 18.821 46.136 18.602C46.1483 18.5874 46.1636 18.5758 46.1809 18.5677C46.1982 18.5597 46.217 18.5556 46.236 18.5556C46.255 18.5556 46.2738 18.5597 46.2911 18.5677C46.3084 18.5758 46.3237 18.5874 46.336 18.602C46.3674 18.6372 46.4059 18.6654 46.449 18.6847C46.4921 18.704 46.5388 18.714 46.586 18.714C46.6332 18.714 46.6799 18.704 46.723 18.6847C46.7661 18.6654 46.8046 18.6372 46.836 18.602C46.924 18.529 47.084 18.529 47.128 18.383V18.483C47.1008 18.5586 47.0673 18.6318 47.028 18.702C46.974 18.8078 46.9347 18.9205 46.911 19.037C46.8817 19.2744 46.8817 19.5145 46.911 19.752C46.9312 19.9932 46.9903 20.2296 47.086 20.452C47.2919 20.875 47.4296 21.3279 47.494 21.794V22.859C47.567 23.486 47.684 24.113 47.771 24.74V24.94H47.698L47.231 24.488V24.678C47.4123 24.9657 47.6279 25.2303 47.873 25.466C48.2423 25.9471 48.5692 26.4593 48.85 26.997C49.0785 27.462 49.2546 27.951 49.375 28.455C49.546 29.0968 49.6727 29.7497 49.754 30.409C49.754 30.657 49.854 30.89 49.871 31.138C49.9173 31.6733 49.8836 32.2126 49.771 32.738C49.625 33.338 49.479 33.949 49.304 34.532C49.129 35.115 48.881 35.815 48.648 36.457C48.415 37.099 48.196 37.657 47.963 38.265C47.8662 38.4715 47.7882 38.6864 47.73 38.907C47.6789 39.294 47.6496 39.6836 47.642 40.074C47.6359 40.3366 47.5494 40.5911 47.394 40.803C47.3477 40.8764 47.2884 40.9408 47.219 40.993H58.425L50.492 18.121ZM47.736 14.577L47.371 12.462L48.917 11.004L46.788 10.698L45.84 8.77296L44.892 10.698L42.763 11.004L44.294 12.462L43.944 14.577L45.844 13.571L47.736 14.577ZM39.963 13.119L39.803 12.186L40.488 11.515L39.54 11.384L39.132 10.524L38.709 11.384L37.761 11.515L38.446 12.186L38.286 13.119L39.132 12.681L39.963 13.119ZM52.097 3.87196L51.878 2.57196L52.811 1.67196L51.511 1.48196L50.929 0.313965L50.36 1.48096L49.06 1.67096L49.993 2.57096L49.774 3.87096L50.926 3.25796L52.097 3.87196ZM35.557 17.203L35.411 16.415L35.994 15.861L35.194 15.744L34.844 15.015L34.494 15.744L33.694 15.861L34.277 16.415L34.131 17.203L34.846 16.838L35.557 17.203ZM44.774 6.99396L44.584 5.88596L45.384 5.09796L44.305 4.93796L43.736 3.87296L43.236 4.87896L42.128 5.03896L42.928 5.82696L42.738 6.93496L43.73 6.40996L44.774 6.99396ZM36.344 9.15396L36.213 8.36596L36.782 7.81196L35.994 7.69496L35.556 6.97996L35.191 7.69496L34.403 7.81196L34.972 8.36596L34.841 9.15396L35.556 8.78896L36.344 9.15396ZM56.762 10.248L56.631 9.45996L57.2 8.90596L56.412 8.78896L56.062 8.05996L55.697 8.78896L54.909 8.90596L55.478 9.45996L55.347 10.248L56.062 9.86896L56.762 10.248Z" fill="url(#paint0_linear_2_703)"/>
<path d="M9.30507 53.2399V52.6859C9.14246 52.8848 8.93434 53.0416 8.69832 53.1431C8.46229 53.2446 8.2053 53.2877 7.94907 53.2689C7.70142 53.2731 7.45632 53.2182 7.23407 53.1089C7.04029 53.0167 6.87789 52.8696 6.76707 52.6859C6.65224 52.5021 6.59158 52.2896 6.59207 52.0729C6.58579 51.9128 6.61834 51.7537 6.68696 51.609C6.75557 51.4642 6.8582 51.3383 6.98607 51.2419C7.29946 51.018 7.68083 50.9099 8.06507 50.9359H9.29007V50.7459C9.29912 50.6272 9.28155 50.5079 9.23864 50.3968C9.19574 50.2858 9.12858 50.1857 9.04207 50.1039C8.82856 49.9436 8.56436 49.8659 8.29807 49.8849C7.86431 49.9003 7.4456 50.0478 7.09807 50.3079L6.80607 49.8269C7.05481 49.6694 7.31882 49.5374 7.59407 49.4329C7.86848 49.3511 8.15376 49.3116 8.44007 49.3159C8.84758 49.2873 9.25024 49.4182 9.56307 49.6809C9.69939 49.8064 9.80655 49.9603 9.87704 50.1316C9.94752 50.303 9.97962 50.4878 9.97107 50.6729V53.2399H9.30507ZM8.89707 52.4669C8.99993 52.3957 9.0877 52.3049 9.15532 52.1997C9.22295 52.0945 9.26908 51.977 9.29107 51.8539V51.4599H8.15207C7.9144 51.4408 7.67633 51.4916 7.46707 51.6059C7.3936 51.6515 7.33422 51.7165 7.29556 51.7939C7.25689 51.8712 7.24045 51.9577 7.24807 52.0439C7.24543 52.1354 7.2638 52.2264 7.30176 52.3098C7.33972 52.3932 7.39627 52.4667 7.46707 52.5249C7.64749 52.6471 7.8623 52.7085 8.08007 52.6999C8.34463 52.6912 8.60182 52.6106 8.82407 52.4669H8.89707Z" fill="url(#paint1_linear_2_703)"/>
<path d="M15.1389 49.7259C15.4056 50.0312 15.5417 50.4291 15.5179 50.8339V53.2399H14.8329V51.0099C14.8468 50.7281 14.7528 50.4517 14.5699 50.2369C14.3566 50.0513 14.079 49.9569 13.7969 49.9739C13.6414 49.9667 13.4861 49.9914 13.3406 50.0467C13.1951 50.1019 13.0624 50.1863 12.9509 50.2949C12.729 50.5278 12.5993 50.8334 12.5859 51.1549V53.2409H11.9009V49.3469H12.5859V50.1639C12.7085 49.9488 12.8772 49.7635 13.08 49.6214C13.2827 49.4793 13.5144 49.3839 13.7584 49.342C14.0024 49.3001 14.2527 49.3128 14.4912 49.3792C14.7297 49.4456 14.9516 49.564 15.1389 49.7259Z" fill="url(#paint2_linear_2_703)"/>
<path d="M22.766 49.5659C23.0614 49.7327 23.3079 49.974 23.481 50.2659C23.6482 50.5799 23.7335 50.9311 23.729 51.2869C23.7322 51.6422 23.6477 51.993 23.483 52.3079C23.3099 52.5997 23.0634 52.8411 22.768 53.0079C22.447 53.1706 22.0923 53.2553 21.7325 53.2553C21.3726 53.2553 21.0179 53.1706 20.697 53.0079C20.3985 52.8451 20.151 52.6028 19.982 52.3079C19.8194 51.9921 19.7346 51.642 19.7346 51.2869C19.7346 50.9317 19.8194 50.5816 19.982 50.2659C20.155 49.974 20.4015 49.7327 20.697 49.5659C21.0179 49.4031 21.3726 49.3184 21.7325 49.3184C22.0923 49.3184 22.447 49.4031 22.768 49.5659H22.766ZM21.06 50.0909C20.8548 50.2033 20.6912 50.3785 20.593 50.5909C20.478 50.8115 20.4179 51.0566 20.4179 51.3054C20.4179 51.5541 20.478 51.7992 20.593 52.0199C20.6968 52.2234 20.8595 52.391 21.06 52.5009C21.2649 52.6159 21.496 52.6763 21.731 52.6763C21.966 52.6763 22.197 52.6159 22.402 52.5009C22.6053 52.3861 22.7683 52.2115 22.869 52.0009C22.9839 51.775 23.0438 51.5252 23.0438 51.2719C23.0438 51.0185 22.9839 50.7687 22.869 50.5429C22.7707 50.3305 22.6071 50.1553 22.402 50.0429C22.197 49.9278 21.966 49.8674 21.731 49.8674C21.496 49.8674 21.2649 49.9278 21.06 50.0429V50.0909Z" fill="url(#paint3_linear_2_703)"/>
<path d="M29.0511 47.772V53.241H28.3661V52.472C28.2208 52.7201 28.0142 52.9267 27.7661 53.072C27.5008 53.2099 27.205 53.2786 26.9061 53.272C26.5643 53.2768 26.2272 53.1913 25.9291 53.024C25.6499 52.8493 25.4232 52.6022 25.2731 52.309C25.1192 51.9881 25.0393 51.6368 25.0393 51.281C25.0393 50.9251 25.1192 50.5738 25.2731 50.253C25.4245 49.9686 25.6515 49.7316 25.9291 49.568C26.2153 49.4197 26.5328 49.3423 26.8551 49.3423C27.1774 49.3423 27.4949 49.4197 27.7811 49.568C28.0299 49.7067 28.2325 49.9153 28.3641 50.168V47.772H29.0511ZM27.7241 52.512C27.9543 52.4045 28.1436 52.2256 28.2641 52.002C28.3791 51.7762 28.4391 51.5264 28.4391 51.273C28.4391 51.0196 28.3791 50.7698 28.2641 50.544C28.1603 50.3404 27.9975 50.1728 27.7971 50.063C27.5953 49.9389 27.363 49.8731 27.1261 49.873C26.8848 49.8736 26.6482 49.9392 26.4411 50.063C26.2395 50.1799 26.077 50.3539 25.9741 50.563C25.8592 50.7836 25.7992 51.0287 25.7992 51.2775C25.7992 51.5262 25.8592 51.7713 25.9741 51.992C26.0811 52.1983 26.2426 52.3712 26.4411 52.492C26.6494 52.6112 26.8861 52.6717 27.1261 52.667C27.3354 52.6649 27.5401 52.6117 27.7241 52.512Z" fill="url(#paint4_linear_2_703)"/>
<path d="M32.028 54.4671C31.8207 54.6176 31.5691 54.6947 31.313 54.6861C31.159 54.6927 31.0052 54.6679 30.861 54.6131C30.7169 54.5661 30.5831 54.4917 30.467 54.3941L30.759 53.8541C30.9114 53.9679 31.0941 54.034 31.284 54.0441C31.4329 54.038 31.5761 53.9856 31.6937 53.8942C31.8113 53.8028 31.8975 53.6769 31.94 53.5341L32.086 53.1991L30.486 49.3491H31.186L32.426 52.4701L33.593 49.3491H34.293L32.514 53.7241C32.4297 54.0137 32.2625 54.2724 32.033 54.4681L32.028 54.4671Z" fill="url(#paint5_linear_2_703)"/>
<path d="M37.248 49.974C37.0707 49.9082 36.8831 49.8743 36.694 49.874C36.5167 49.8681 36.3409 49.9084 36.184 49.991C36.1257 50.0279 36.0787 50.08 36.0478 50.1417C36.017 50.2034 36.0036 50.2723 36.009 50.341C36.0049 50.4145 36.0215 50.4876 36.0569 50.5521C36.0922 50.6166 36.1449 50.6699 36.209 50.706C36.4154 50.8071 36.6302 50.8901 36.851 50.954C37.0764 51.0111 37.2961 51.0891 37.507 51.187C37.6789 51.26 37.8295 51.3753 37.945 51.522C38.0673 51.7024 38.1286 51.9172 38.12 52.135C38.1302 52.2971 38.0979 52.4589 38.0263 52.6047C37.9548 52.7504 37.8464 52.875 37.712 52.966C37.4046 53.1661 37.0436 53.2679 36.677 53.258C36.3885 53.2605 36.102 53.211 35.831 53.112C35.5773 53.0307 35.3439 52.8964 35.146 52.718L35.409 52.218C35.5851 52.3715 35.7887 52.4902 36.009 52.568C36.2325 52.6536 36.4697 52.6979 36.709 52.699C36.8957 52.7033 37.0808 52.6632 37.249 52.582C37.3133 52.5389 37.3654 52.4801 37.4004 52.4111C37.4354 52.3421 37.4522 52.2653 37.449 52.188C37.4534 52.1084 37.4351 52.0291 37.3964 51.9594C37.3576 51.8897 37.2999 51.8324 37.23 51.794C37.0224 51.681 36.8022 51.5927 36.574 51.531C36.3556 51.4716 36.1412 51.3984 35.932 51.312C35.7824 51.2298 35.653 51.1154 35.553 50.977C35.3906 50.754 35.3226 50.476 35.3636 50.2031C35.4045 49.9303 35.5513 49.6845 35.772 49.519C36.0693 49.335 36.4146 49.2435 36.764 49.256C37 49.2569 37.2351 49.2865 37.464 49.344C37.6711 49.4066 37.8676 49.5 38.047 49.621L37.799 50.146C37.624 50.0639 37.4386 50.0061 37.248 49.974Z" fill="url(#paint6_linear_2_703)"/>
<path d="M41.391 49.9739C41.214 49.9069 41.0262 49.873 40.837 49.8739C40.6629 49.8683 40.4905 49.9087 40.337 49.9909C40.2762 50.03 40.2266 50.0844 40.1933 50.1485C40.1599 50.2127 40.144 50.2844 40.1469 50.3567C40.1498 50.4289 40.1716 50.4992 40.21 50.5604C40.2484 50.6217 40.3022 50.6718 40.366 50.7059C40.567 50.8075 40.7768 50.8905 40.993 50.9539C41.2239 51.0088 41.4487 51.0868 41.664 51.1869C41.8313 51.2674 41.9804 51.3814 42.102 51.5219C42.2242 51.7023 42.2855 51.9171 42.277 52.1349C42.2871 52.2969 42.2548 52.4588 42.1833 52.6046C42.1117 52.7503 42.0034 52.8748 41.869 52.9659C41.5617 53.1654 41.2011 53.2669 40.835 53.2569C40.5465 53.2593 40.2599 53.2099 39.989 53.1109C39.7338 53.033 39.4996 52.8983 39.304 52.7169L39.552 52.2169C39.7281 52.3703 39.9317 52.4891 40.152 52.5669C40.3762 52.6498 40.6129 52.6941 40.852 52.6979C41.039 52.7057 41.2249 52.6654 41.392 52.5809C41.4582 52.5387 41.5128 52.4805 41.5506 52.4116C41.5884 52.3427 41.6082 52.2654 41.6082 52.1869C41.6082 52.1083 41.5884 52.031 41.5506 51.9622C41.5128 51.8933 41.4582 51.8351 41.392 51.7929C41.1838 51.6811 40.9633 51.5942 40.735 51.5339C40.5159 51.4767 40.3013 51.4036 40.093 51.3149C39.9307 51.233 39.7868 51.119 39.67 50.9799C39.5233 50.7607 39.4658 50.4939 39.5091 50.2337C39.5524 49.9736 39.6932 49.7398 39.903 49.5799C40.1996 49.3942 40.5453 49.3026 40.895 49.3169C41.1261 49.3166 41.3564 49.3462 41.58 49.4049C41.7935 49.4645 41.9961 49.558 42.18 49.6819L41.932 50.2069C41.764 50.1031 41.5817 50.0246 41.391 49.9739Z" fill="url(#paint7_linear_2_703)"/>
<path d="M46.8161 49.8572C47.1497 50.2671 47.3164 50.7877 47.2831 51.3152V51.5342H44.2051C44.2388 51.8614 44.3953 52.1637 44.6431 52.3802C44.8864 52.5876 45.1985 52.6968 45.5181 52.6862C45.7378 52.6901 45.9556 52.6443 46.1551 52.5522C46.351 52.4704 46.5293 52.3515 46.6801 52.2022L47.0451 52.5962C46.8578 52.8049 46.6228 52.9651 46.3601 53.0632C46.0788 53.1827 45.7757 53.2423 45.4701 53.2382C45.1141 53.2446 44.7624 53.1592 44.4491 52.9902C44.1484 52.8356 43.9036 52.5909 43.7491 52.2902C43.58 51.9768 43.4946 51.6252 43.5011 51.2692C43.5009 50.9144 43.5881 50.5651 43.7551 50.2522C43.9131 49.9629 44.1509 49.7252 44.4401 49.5672C44.751 49.3903 45.1034 49.2996 45.4611 49.3042C45.7144 49.2869 45.9683 49.3278 46.2034 49.4238C46.4384 49.5198 46.6483 49.6684 46.8171 49.8582L46.8161 49.8572ZM46.6701 51.0242C46.6578 50.7139 46.5334 50.4187 46.3201 50.1932C46.0835 49.9842 45.7755 49.8746 45.4601 49.8872C45.1449 49.8761 44.8374 49.9855 44.6001 50.1932C44.3687 50.4122 44.2239 50.7072 44.1921 51.0242H46.6701Z" fill="url(#paint8_linear_2_703)"/>
<path d="M49.6889 54.4672C49.4806 54.6157 49.2297 54.6925 48.9739 54.6862C48.8199 54.6927 48.6661 54.6679 48.5219 54.6132C48.3778 54.5661 48.244 54.4918 48.1279 54.3942L48.4199 53.8542C48.5723 53.968 48.755 54.0341 48.9449 54.0442C49.0938 54.0381 49.237 53.9857 49.3546 53.8942C49.4722 53.8028 49.5583 53.6769 49.6009 53.5342L49.7469 53.1992L48.1469 49.3492H48.8619L50.1409 52.4672L51.3079 49.3472H52.0079L50.2279 53.7222C50.128 54.0194 49.94 54.2792 49.6889 54.4672Z" fill="url(#paint9_linear_2_703)"/>
<path d="M58.0899 52.9777C57.8245 53.1602 57.5119 53.2616 57.1899 53.2697C56.9112 53.2774 56.6401 53.1783 56.4319 52.9927C56.3313 52.8776 56.2549 52.7433 56.2073 52.5979C56.1597 52.4526 56.1419 52.2991 56.1549 52.1467V50.0027H55.5959V49.4777H56.1499V48.4277H56.8349V49.4777H58.0349V50.0027H56.8349V52.0027C56.8243 52.1668 56.8652 52.3301 56.9519 52.4697C56.9981 52.5145 57.053 52.5492 57.1133 52.5718C57.1735 52.5943 57.2377 52.6042 57.3019 52.6007C57.5176 52.5936 57.7281 52.5335 57.9149 52.4257L58.0899 52.9777Z" fill="url(#paint10_linear_2_703)"/>
<path d="M62.261 49.5647C62.5565 49.7315 62.803 49.9729 62.976 50.2647C63.1433 50.5788 63.2286 50.93 63.224 51.2857C63.2267 51.6413 63.1416 51.992 62.976 52.3067C62.803 52.5986 62.5565 52.8399 62.261 53.0067C61.9426 53.1757 61.5865 53.261 61.226 53.2547C60.8658 53.2591 60.5101 53.1739 60.191 53.0067C59.8937 52.8477 59.6501 52.6041 59.491 52.3067C59.3187 51.994 59.2283 51.6428 59.2283 51.2857C59.2283 50.9287 59.3187 50.5774 59.491 50.2647C59.6541 49.9704 59.8967 49.7278 60.191 49.5647C60.5101 49.3975 60.8658 49.3123 61.226 49.3167C61.5865 49.3104 61.9426 49.3958 62.261 49.5647ZM60.555 50.0897C60.3499 50.2022 60.1862 50.3774 60.088 50.5897C59.9824 50.8131 59.9276 51.0571 59.9276 51.3042C59.9276 51.5513 59.9824 51.7954 60.088 52.0187C60.1919 52.2223 60.3546 52.3899 60.555 52.4997C60.7584 52.6185 60.9905 52.6791 61.226 52.6747C61.466 52.6794 61.7027 52.6189 61.911 52.4997C62.1037 52.3848 62.2603 52.2182 62.363 52.0187C62.478 51.7981 62.538 51.553 62.538 51.3042C62.538 51.0555 62.478 50.8103 62.363 50.5897C62.2656 50.3817 62.1082 50.2076 61.911 50.0897C61.7027 49.9705 61.466 49.91 61.226 49.9147C60.9905 49.9104 60.7584 49.9709 60.555 50.0897Z" fill="url(#paint11_linear_2_703)"/>
<path d="M69.1741 49.9741C68.9971 49.9071 68.8093 49.8732 68.6201 49.8741C68.446 49.8685 68.2736 49.9088 68.1201 49.9911C68.0579 50.0247 68.0069 50.0757 67.9731 50.1379C67.9394 50.2 67.9245 50.2706 67.9301 50.3411C67.9291 50.414 67.947 50.4859 67.9821 50.5499C68.0171 50.6138 68.0681 50.6676 68.1301 50.7061C68.3376 50.8047 68.5522 50.8876 68.7721 50.9541C68.999 51.0063 69.2191 51.0845 69.4281 51.1871C69.6019 51.2635 69.7564 51.378 69.8801 51.5221C70.0023 51.7025 70.0637 51.9173 70.0551 52.1351C70.0622 52.2983 70.0269 52.4606 69.9528 52.6062C69.8787 52.7518 69.7682 52.8757 69.6321 52.9661C69.3302 53.1668 68.9734 53.2688 68.6111 53.2581C68.3225 53.2618 68.0357 53.2123 67.7651 53.1121C67.5084 53.0377 67.2734 52.9025 67.0801 52.7181L67.3281 52.2181C67.5042 52.3715 67.7078 52.4903 67.9281 52.5681C68.1523 52.651 68.389 52.6953 68.6281 52.6991C68.815 52.705 69.0004 52.6649 69.1681 52.5821C69.2345 52.5412 69.2883 52.4828 69.3236 52.4132C69.3589 52.3437 69.3743 52.2658 69.3681 52.1881C69.3712 52.1108 69.3545 52.0339 69.3195 51.9649C69.2845 51.896 69.2323 51.8371 69.1681 51.7941C68.9561 51.679 68.7308 51.5906 68.4971 51.5311C68.2835 51.4719 68.0741 51.3987 67.8701 51.3121C67.7079 51.2302 67.5639 51.1162 67.4471 50.9771C67.2847 50.754 67.2167 50.476 67.2576 50.2032C67.2986 49.9303 67.4453 49.6846 67.6661 49.5191C67.9684 49.3348 68.3182 49.2433 68.6721 49.2561C68.9032 49.2558 69.1335 49.2853 69.3571 49.3441C69.5696 49.4065 69.7717 49.4998 69.9571 49.6211L69.7091 50.1461C69.5387 50.0664 69.359 50.0086 69.1741 49.9741Z" fill="url(#paint12_linear_2_703)"/>
<path d="M75.1379 49.3472V53.2412H74.4529V52.4102C74.3274 52.6848 74.1198 52.9137 73.8586 53.0652C73.5974 53.2168 73.2957 53.2835 72.9949 53.2562C72.802 53.2682 72.6088 53.2393 72.4278 53.1714C72.2469 53.1035 72.0823 52.9981 71.9449 52.8622C71.8095 52.7126 71.7049 52.5377 71.6373 52.3475C71.5697 52.1574 71.5403 51.9557 71.5509 51.7542V49.3472H72.2509V51.5672C72.234 51.8493 72.3284 52.1269 72.5139 52.3402C72.6127 52.4344 72.7296 52.5075 72.8575 52.5552C72.9854 52.6028 73.1216 52.6239 73.2579 52.6172C73.4212 52.6171 73.5825 52.5818 73.7309 52.5139C73.8793 52.4459 74.0113 52.3467 74.1179 52.2232C74.3368 51.951 74.4507 51.6093 74.4389 51.2602V49.3472H75.1379Z" fill="url(#paint13_linear_2_703)"/>
<path d="M78.83 49.9301C78.5945 49.9257 78.3624 49.9863 78.159 50.1051C77.9565 50.2056 77.7925 50.3696 77.692 50.5721C77.5736 50.7915 77.5133 51.0377 77.517 51.2871C77.5129 51.5347 77.5677 51.7798 77.677 52.0021C77.7876 52.2026 77.9504 52.3694 78.1481 52.4849C78.3458 52.6004 78.5711 52.6602 78.8 52.6581C79.0334 52.6585 79.2651 52.6189 79.485 52.5411C79.6796 52.4631 79.8515 52.3376 79.985 52.1761L80.379 52.5701C80.199 52.7909 79.969 52.9658 79.708 53.0801C79.4121 53.2009 79.0947 53.2604 78.775 53.2551C78.424 53.2596 78.0777 53.1743 77.769 53.0071C77.4792 52.843 77.2418 52.6004 77.084 52.3071C76.915 51.9937 76.8296 51.6421 76.836 51.2861C76.8334 50.9305 76.9186 50.5798 77.084 50.2651C77.2454 49.9745 77.482 49.7327 77.769 49.5651C78.0777 49.3979 78.424 49.3125 78.775 49.3171C79.0777 49.3168 79.3783 49.3661 79.665 49.4631C79.9144 49.5568 80.1389 49.7066 80.321 49.9011L79.942 50.3821C79.7993 50.2322 79.6264 50.1143 79.4347 50.0364C79.243 49.9585 79.0368 49.9222 78.83 49.9301Z" fill="url(#paint14_linear_2_703)"/>
<path d="M83.5389 49.9301C83.299 49.9254 83.0622 49.9859 82.8539 50.1051C82.6544 50.2097 82.4915 50.3726 82.3869 50.5721C82.272 50.7927 82.212 51.0378 82.212 51.2866C82.212 51.5354 82.272 51.7805 82.3869 52.0011C82.4897 52.2005 82.6463 52.3672 82.8389 52.4821C83.0423 52.6009 83.2744 52.6615 83.5099 52.6571C83.7387 52.6577 83.9658 52.6181 84.1809 52.5401C84.3755 52.4621 84.5474 52.3366 84.6809 52.1751L85.0749 52.5691C84.8983 52.7934 84.6674 52.969 84.4039 53.0791C84.1124 53.1985 83.7999 53.258 83.4849 53.2541C83.1339 53.2587 82.7876 53.1733 82.4789 53.0061C82.1846 52.843 81.942 52.6005 81.7789 52.3061C81.6151 51.9913 81.5348 51.6398 81.5459 51.2851C81.538 50.9307 81.6181 50.5799 81.7789 50.2641C81.9463 49.973 82.1878 49.7315 82.4789 49.5641C82.7876 49.3969 83.1339 49.3115 83.4849 49.3161C83.7874 49.3183 84.0876 49.3676 84.3749 49.4621C84.6225 49.5593 84.8462 49.7087 85.0309 49.9001L84.6519 50.3811C84.5091 50.2312 84.3359 50.1134 84.144 50.0357C83.9521 49.9579 83.7458 49.9219 83.5389 49.9301Z" fill="url(#paint15_linear_2_703)"/>
<path d="M89.5189 49.8569C89.8463 50.2702 90.0123 50.7884 89.9859 51.3149C89.9954 51.3876 89.9954 51.4612 89.9859 51.5339H86.9229C86.9701 51.857 87.1243 52.1549 87.3609 52.3799C87.6109 52.586 87.927 52.6947 88.2509 52.6859C88.4699 52.686 88.6865 52.6403 88.8869 52.5519C89.0808 52.4664 89.2584 52.348 89.4119 52.2019L89.7769 52.5959C89.5865 52.8015 89.352 52.9611 89.0909 53.0629C88.8059 53.1817 88.4997 53.2413 88.1909 53.2379C87.8354 53.2406 87.4846 53.1554 87.1699 52.9899C86.877 52.8299 86.6385 52.5862 86.4849 52.2899C86.3159 51.9766 86.2304 51.6249 86.2369 51.2689C86.2355 50.9145 86.3214 50.5653 86.4869 50.2519C86.6449 49.9627 86.8827 49.7249 87.1719 49.5669C87.4765 49.3879 87.8247 49.2969 88.1779 49.3039C88.4288 49.2898 88.6797 49.3323 88.912 49.4282C89.1443 49.5241 89.352 49.6709 89.5199 49.8579L89.5189 49.8569ZM89.3589 51.0239C89.3595 50.869 89.3287 50.7155 89.2686 50.5727C89.2085 50.43 89.1201 50.3008 89.0089 50.1929C88.7783 49.9833 88.4742 49.8733 88.1629 49.8869C87.8478 49.8759 87.5402 49.9853 87.3029 50.1929C87.0671 50.4087 86.9214 50.7054 86.8949 51.0239H89.3589Z" fill="url(#paint16_linear_2_703)"/>
<path d="M93.282 49.9741C93.1046 49.9082 92.9171 49.8744 92.728 49.8741C92.5507 49.8681 92.3749 49.9084 92.218 49.9911C92.1598 50.0277 92.1128 50.0794 92.0818 50.1407C92.0508 50.202 92.037 50.2706 92.042 50.3391C92.0379 50.4125 92.0545 50.4856 92.0898 50.5501C92.1252 50.6146 92.1779 50.668 92.242 50.7041C92.4484 50.8052 92.6632 50.8881 92.884 50.9521C93.1094 51.0091 93.329 51.0871 93.54 51.1851C93.7119 51.258 93.8625 51.3733 93.978 51.5201C94.1002 51.7005 94.1615 51.9153 94.153 52.1331C94.1631 52.2951 94.1308 52.457 94.0593 52.6027C93.9877 52.7485 93.8794 52.873 93.745 52.9641C93.4375 53.1641 93.0766 53.2659 92.71 53.2561C92.4215 53.2585 92.1349 53.2091 91.864 53.1101C91.6103 53.0287 91.3768 52.8944 91.179 52.7161L91.442 52.2161C91.6181 52.3695 91.8217 52.4883 92.042 52.5661C92.2655 52.6516 92.5026 52.696 92.742 52.6971C92.9287 52.7013 93.1137 52.6612 93.282 52.5801C93.3462 52.537 93.3984 52.4782 93.4334 52.4092C93.4684 52.3402 93.4851 52.2634 93.482 52.1861C93.4863 52.1064 93.4681 52.0272 93.4293 51.9575C93.3906 51.8877 93.3329 51.8304 93.263 51.7921C93.0553 51.679 92.8352 51.5907 92.607 51.5291C92.3886 51.4696 92.1741 51.3965 91.965 51.3101C91.8049 51.2315 91.6652 51.1168 91.557 50.9751C91.3946 50.752 91.3265 50.474 91.3675 50.2012C91.4085 49.9283 91.5552 49.6826 91.776 49.5171C92.0733 49.3331 92.4185 49.2415 92.768 49.2541C93.004 49.255 93.239 49.2845 93.468 49.3421C93.6751 49.4046 93.8716 49.498 94.051 49.6191L93.803 50.1441C93.6373 50.0652 93.4622 50.0081 93.282 49.9741Z" fill="url(#paint17_linear_2_703)"/>
<path d="M97.395 49.9741C97.218 49.9071 97.0302 49.8732 96.841 49.8741C96.667 49.8685 96.4945 49.9088 96.341 49.9911C96.2788 50.0247 96.2278 50.0757 96.1941 50.1379C96.1603 50.2 96.1454 50.2706 96.151 50.3411C96.15 50.414 96.168 50.4859 96.203 50.5499C96.2381 50.6138 96.289 50.6676 96.351 50.7061C96.5585 50.8047 96.7731 50.8876 96.993 50.9541C97.2239 51.009 97.4487 51.087 97.664 51.1871C97.8314 51.2675 97.9805 51.3816 98.102 51.5221C98.2243 51.7025 98.2856 51.9173 98.277 52.1351C98.2841 52.2983 98.2488 52.4606 98.1747 52.6062C98.1006 52.7518 97.9901 52.8757 97.854 52.9661C97.5521 53.1668 97.1954 53.2688 96.833 53.2581C96.5444 53.2618 96.2576 53.2123 95.987 53.1121C95.7303 53.0377 95.4953 52.9025 95.302 52.7181L95.55 52.2181C95.7262 52.3715 95.9297 52.4903 96.15 52.5681C96.3742 52.651 96.6109 52.6953 96.85 52.6991C97.0369 52.705 97.2224 52.6648 97.39 52.5821C97.4563 52.5399 97.5109 52.4817 97.5487 52.4128C97.5865 52.3439 97.6063 52.2666 97.6063 52.1881C97.6063 52.1095 97.5865 52.0322 97.5487 51.9633C97.5109 51.8944 97.4563 51.8362 97.39 51.7941C97.1781 51.679 96.9527 51.5906 96.719 51.5311C96.5054 51.4719 96.296 51.3987 96.092 51.3121C95.9298 51.2302 95.7859 51.1162 95.669 50.9771C95.5066 50.754 95.4386 50.476 95.4796 50.2032C95.5206 49.9303 95.6673 49.6846 95.888 49.5191C96.1904 49.3348 96.5402 49.2433 96.894 49.2561C97.1251 49.2554 97.3554 49.2847 97.579 49.3431C97.7915 49.4055 97.9937 49.4988 98.179 49.6201L97.931 50.1451C97.7603 50.0657 97.5802 50.0082 97.395 49.9741Z" fill="url(#paint18_linear_2_703)"/>
<path d="M9.30507 53.2399V52.6859C9.14246 52.8848 8.93434 53.0416 8.69832 53.1431C8.46229 53.2446 8.2053 53.2877 7.94907 53.2689C7.70142 53.2731 7.45632 53.2182 7.23407 53.1089C7.04029 53.0167 6.87789 52.8696 6.76707 52.6859C6.65224 52.5021 6.59158 52.2896 6.59207 52.0729C6.58579 51.9128 6.61834 51.7537 6.68696 51.609C6.75557 51.4642 6.8582 51.3383 6.98607 51.2419C7.29946 51.018 7.68083 50.9099 8.06507 50.9359H9.29007V50.7459C9.29912 50.6272 9.28155 50.5079 9.23864 50.3968C9.19574 50.2858 9.12858 50.1857 9.04207 50.1039C8.82856 49.9436 8.56436 49.8659 8.29807 49.8849C7.86431 49.9003 7.4456 50.0478 7.09807 50.3079L6.80607 49.8269C7.05481 49.6694 7.31882 49.5374 7.59407 49.4329C7.86848 49.3511 8.15376 49.3116 8.44007 49.3159C8.84758 49.2873 9.25024 49.4182 9.56307 49.6809C9.69939 49.8064 9.80655 49.9603 9.87704 50.1316C9.94752 50.303 9.97962 50.4878 9.97107 50.6729V53.2399H9.30507ZM8.89707 52.4669C8.99993 52.3957 9.0877 52.3049 9.15532 52.1997C9.22295 52.0945 9.26908 51.977 9.29107 51.8539V51.4599H8.15207C7.9144 51.4408 7.67633 51.4916 7.46707 51.6059C7.3936 51.6515 7.33422 51.7165 7.29556 51.7939C7.25689 51.8712 7.24045 51.9577 7.24807 52.0439C7.24543 52.1354 7.2638 52.2264 7.30176 52.3098C7.33972 52.3932 7.39627 52.4667 7.46707 52.5249C7.64749 52.6471 7.8623 52.7085 8.08007 52.6999C8.34463 52.6912 8.60182 52.6106 8.82407 52.4669H8.89707Z" fill="url(#paint19_linear_2_703)"/>
<path d="M15.1389 49.7259C15.4056 50.0312 15.5417 50.4291 15.5179 50.8339V53.2399H14.8329V51.0099C14.8468 50.7281 14.7528 50.4517 14.5699 50.2369C14.3566 50.0513 14.079 49.9569 13.7969 49.9739C13.6414 49.9667 13.4861 49.9914 13.3406 50.0467C13.1951 50.1019 13.0624 50.1863 12.9509 50.2949C12.729 50.5278 12.5993 50.8334 12.5859 51.1549V53.2409H11.9009V49.3469H12.5859V50.1639C12.7085 49.9488 12.8772 49.7635 13.08 49.6214C13.2827 49.4793 13.5144 49.3839 13.7584 49.342C14.0024 49.3001 14.2527 49.3128 14.4912 49.3792C14.7297 49.4456 14.9516 49.564 15.1389 49.7259Z" fill="url(#paint20_linear_2_703)"/>
<path d="M22.766 49.5659C23.0614 49.7327 23.3079 49.974 23.481 50.2659C23.6482 50.5799 23.7335 50.9311 23.729 51.2869C23.7322 51.6422 23.6477 51.993 23.483 52.3079C23.3099 52.5997 23.0634 52.8411 22.768 53.0079C22.447 53.1706 22.0923 53.2553 21.7325 53.2553C21.3726 53.2553 21.0179 53.1706 20.697 53.0079C20.3985 52.8451 20.151 52.6028 19.982 52.3079C19.8194 51.9921 19.7346 51.642 19.7346 51.2869C19.7346 50.9317 19.8194 50.5816 19.982 50.2659C20.155 49.974 20.4015 49.7327 20.697 49.5659C21.0179 49.4031 21.3726 49.3184 21.7325 49.3184C22.0923 49.3184 22.447 49.4031 22.768 49.5659H22.766ZM21.06 50.0909C20.8548 50.2033 20.6912 50.3785 20.593 50.5909C20.478 50.8115 20.4179 51.0566 20.4179 51.3054C20.4179 51.5541 20.478 51.7992 20.593 52.0199C20.6968 52.2234 20.8595 52.391 21.06 52.5009C21.2649 52.6159 21.496 52.6763 21.731 52.6763C21.966 52.6763 22.197 52.6159 22.402 52.5009C22.6053 52.3861 22.7683 52.2115 22.869 52.0009C22.9839 51.775 23.0438 51.5252 23.0438 51.2719C23.0438 51.0185 22.9839 50.7687 22.869 50.5429C22.7707 50.3305 22.6071 50.1553 22.402 50.0429C22.197 49.9278 21.966 49.8674 21.731 49.8674C21.496 49.8674 21.2649 49.9278 21.06 50.0429V50.0909Z" fill="url(#paint21_linear_2_703)"/>
<path d="M29.0511 47.772V53.241H28.3661V52.472C28.2208 52.7201 28.0142 52.9267 27.7661 53.072C27.5008 53.2099 27.205 53.2786 26.9061 53.272C26.5643 53.2768 26.2272 53.1913 25.9291 53.024C25.6499 52.8493 25.4232 52.6022 25.2731 52.309C25.1192 51.9881 25.0393 51.6368 25.0393 51.281C25.0393 50.9251 25.1192 50.5738 25.2731 50.253C25.4245 49.9686 25.6515 49.7316 25.9291 49.568C26.2153 49.4197 26.5328 49.3423 26.8551 49.3423C27.1774 49.3423 27.4949 49.4197 27.7811 49.568C28.0299 49.7067 28.2325 49.9153 28.3641 50.168V47.772H29.0511ZM27.7241 52.512C27.9543 52.4045 28.1436 52.2256 28.2641 52.002C28.3791 51.7762 28.4391 51.5264 28.4391 51.273C28.4391 51.0196 28.3791 50.7698 28.2641 50.544C28.1603 50.3404 27.9975 50.1728 27.7971 50.063C27.5953 49.9389 27.363 49.8731 27.1261 49.873C26.8848 49.8736 26.6482 49.9392 26.4411 50.063C26.2395 50.1799 26.077 50.3539 25.9741 50.563C25.8592 50.7836 25.7992 51.0287 25.7992 51.2775C25.7992 51.5262 25.8592 51.7713 25.9741 51.992C26.0811 52.1983 26.2426 52.3712 26.4411 52.492C26.6494 52.6112 26.8861 52.6717 27.1261 52.667C27.3354 52.6649 27.5401 52.6117 27.7241 52.512Z" fill="url(#paint22_linear_2_703)"/>
<path d="M32.028 54.4671C31.8207 54.6176 31.5691 54.6947 31.313 54.6861C31.159 54.6927 31.0052 54.6679 30.861 54.6131C30.7169 54.5661 30.5831 54.4917 30.467 54.3941L30.759 53.8541C30.9114 53.9679 31.0941 54.034 31.284 54.0441C31.4329 54.038 31.5761 53.9856 31.6937 53.8942C31.8113 53.8028 31.8975 53.6769 31.94 53.5341L32.086 53.1991L30.486 49.3491H31.186L32.426 52.4701L33.593 49.3491H34.293L32.514 53.7241C32.4297 54.0137 32.2625 54.2724 32.033 54.4681L32.028 54.4671Z" fill="url(#paint23_linear_2_703)"/>
<path d="M37.248 49.974C37.0707 49.9082 36.8831 49.8743 36.694 49.874C36.5167 49.8681 36.3409 49.9084 36.184 49.991C36.1257 50.0279 36.0787 50.08 36.0478 50.1417C36.017 50.2034 36.0036 50.2723 36.009 50.341C36.0049 50.4145 36.0215 50.4876 36.0569 50.5521C36.0922 50.6166 36.1449 50.6699 36.209 50.706C36.4154 50.8071 36.6302 50.8901 36.851 50.954C37.0764 51.0111 37.2961 51.0891 37.507 51.187C37.6789 51.26 37.8295 51.3753 37.945 51.522C38.0673 51.7024 38.1286 51.9172 38.12 52.135C38.1302 52.2971 38.0979 52.4589 38.0263 52.6047C37.9548 52.7504 37.8464 52.875 37.712 52.966C37.4046 53.1661 37.0436 53.2679 36.677 53.258C36.3885 53.2605 36.102 53.211 35.831 53.112C35.5773 53.0307 35.3439 52.8964 35.146 52.718L35.409 52.218C35.5851 52.3715 35.7887 52.4902 36.009 52.568C36.2325 52.6536 36.4697 52.6979 36.709 52.699C36.8957 52.7033 37.0808 52.6632 37.249 52.582C37.3133 52.5389 37.3654 52.4801 37.4004 52.4111C37.4354 52.3421 37.4522 52.2653 37.449 52.188C37.4534 52.1084 37.4351 52.0291 37.3964 51.9594C37.3576 51.8897 37.2999 51.8324 37.23 51.794C37.0224 51.681 36.8022 51.5927 36.574 51.531C36.3556 51.4716 36.1412 51.3984 35.932 51.312C35.7824 51.2298 35.653 51.1154 35.553 50.977C35.3906 50.754 35.3226 50.476 35.3636 50.2031C35.4045 49.9303 35.5513 49.6845 35.772 49.519C36.0693 49.335 36.4146 49.2435 36.764 49.256C37 49.2569 37.2351 49.2865 37.464 49.344C37.6711 49.4066 37.8676 49.5 38.047 49.621L37.799 50.146C37.624 50.0639 37.4386 50.0061 37.248 49.974Z" fill="url(#paint24_linear_2_703)"/>
<path d="M41.391 49.9739C41.214 49.9069 41.0262 49.873 40.837 49.8739C40.6629 49.8683 40.4905 49.9087 40.337 49.9909C40.2762 50.03 40.2266 50.0844 40.1933 50.1485C40.1599 50.2127 40.144 50.2844 40.1469 50.3567C40.1498 50.4289 40.1716 50.4992 40.21 50.5604C40.2484 50.6217 40.3022 50.6718 40.366 50.7059C40.567 50.8075 40.7768 50.8905 40.993 50.9539C41.2239 51.0088 41.4487 51.0868 41.664 51.1869C41.8313 51.2674 41.9804 51.3814 42.102 51.5219C42.2242 51.7023 42.2855 51.9171 42.277 52.1349C42.2871 52.2969 42.2548 52.4588 42.1833 52.6046C42.1117 52.7503 42.0034 52.8748 41.869 52.9659C41.5617 53.1654 41.2011 53.2669 40.835 53.2569C40.5465 53.2593 40.2599 53.2099 39.989 53.1109C39.7338 53.033 39.4996 52.8983 39.304 52.7169L39.552 52.2169C39.7281 52.3703 39.9317 52.4891 40.152 52.5669C40.3762 52.6498 40.6129 52.6941 40.852 52.6979C41.039 52.7057 41.2249 52.6654 41.392 52.5809C41.4582 52.5387 41.5128 52.4805 41.5506 52.4116C41.5884 52.3427 41.6082 52.2654 41.6082 52.1869C41.6082 52.1083 41.5884 52.031 41.5506 51.9622C41.5128 51.8933 41.4582 51.8351 41.392 51.7929C41.1838 51.6811 40.9633 51.5942 40.735 51.5339C40.5159 51.4767 40.3013 51.4036 40.093 51.3149C39.9307 51.233 39.7868 51.119 39.67 50.9799C39.5233 50.7607 39.4658 50.4939 39.5091 50.2337C39.5524 49.9736 39.6932 49.7398 39.903 49.5799C40.1996 49.3942 40.5453 49.3026 40.895 49.3169C41.1261 49.3166 41.3564 49.3462 41.58 49.4049C41.7935 49.4645 41.9961 49.558 42.18 49.6819L41.932 50.2069C41.764 50.1031 41.5817 50.0246 41.391 49.9739Z" fill="url(#paint25_linear_2_703)"/>
<path d="M46.8161 49.8572C47.1497 50.2671 47.3164 50.7877 47.2831 51.3152V51.5342H44.2051C44.2388 51.8614 44.3953 52.1637 44.6431 52.3802C44.8864 52.5876 45.1985 52.6968 45.5181 52.6862C45.7378 52.6901 45.9556 52.6443 46.1551 52.5522C46.351 52.4704 46.5293 52.3515 46.6801 52.2022L47.0451 52.5962C46.8578 52.8049 46.6228 52.9651 46.3601 53.0632C46.0788 53.1827 45.7757 53.2423 45.4701 53.2382C45.1141 53.2446 44.7624 53.1592 44.4491 52.9902C44.1484 52.8356 43.9036 52.5909 43.7491 52.2902C43.58 51.9768 43.4946 51.6252 43.5011 51.2692C43.5009 50.9144 43.5881 50.5651 43.7551 50.2522C43.9131 49.9629 44.1509 49.7252 44.4401 49.5672C44.751 49.3903 45.1034 49.2996 45.4611 49.3042C45.7144 49.2869 45.9683 49.3278 46.2034 49.4238C46.4384 49.5198 46.6483 49.6684 46.8171 49.8582L46.8161 49.8572ZM46.6701 51.0242C46.6578 50.7139 46.5334 50.4187 46.3201 50.1932C46.0835 49.9842 45.7755 49.8746 45.4601 49.8872C45.1449 49.8761 44.8374 49.9855 44.6001 50.1932C44.3687 50.4122 44.2239 50.7072 44.1921 51.0242H46.6701Z" fill="url(#paint26_linear_2_703)"/>
<path d="M49.6889 54.4672C49.4806 54.6157 49.2297 54.6925 48.9739 54.6862C48.8199 54.6927 48.6661 54.6679 48.5219 54.6132C48.3778 54.5661 48.244 54.4918 48.1279 54.3942L48.4199 53.8542C48.5723 53.968 48.755 54.0341 48.9449 54.0442C49.0938 54.0381 49.237 53.9857 49.3546 53.8942C49.4722 53.8028 49.5583 53.6769 49.6009 53.5342L49.7469 53.1992L48.1469 49.3492H48.8619L50.1409 52.4672L51.3079 49.3472H52.0079L50.2279 53.7222C50.128 54.0194 49.94 54.2792 49.6889 54.4672Z" fill="url(#paint27_linear_2_703)"/>
<path d="M58.0899 52.9777C57.8245 53.1602 57.5119 53.2616 57.1899 53.2697C56.9112 53.2774 56.6401 53.1783 56.4319 52.9927C56.3313 52.8776 56.2549 52.7433 56.2073 52.5979C56.1597 52.4526 56.1419 52.2991 56.1549 52.1467V50.0027H55.5959V49.4777H56.1499V48.4277H56.8349V49.4777H58.0349V50.0027H56.8349V52.0027C56.8243 52.1668 56.8652 52.3301 56.9519 52.4697C56.9981 52.5145 57.053 52.5492 57.1133 52.5718C57.1735 52.5943 57.2377 52.6042 57.3019 52.6007C57.5176 52.5936 57.7281 52.5335 57.9149 52.4257L58.0899 52.9777Z" fill="url(#paint28_linear_2_703)"/>
<path d="M62.261 49.5647C62.5565 49.7315 62.803 49.9729 62.976 50.2647C63.1433 50.5788 63.2286 50.93 63.224 51.2857C63.2267 51.6413 63.1416 51.992 62.976 52.3067C62.803 52.5986 62.5565 52.8399 62.261 53.0067C61.9426 53.1757 61.5865 53.261 61.226 53.2547C60.8658 53.2591 60.5101 53.1739 60.191 53.0067C59.8937 52.8477 59.6501 52.6041 59.491 52.3067C59.3187 51.994 59.2283 51.6428 59.2283 51.2857C59.2283 50.9287 59.3187 50.5774 59.491 50.2647C59.6541 49.9704 59.8967 49.7278 60.191 49.5647C60.5101 49.3975 60.8658 49.3123 61.226 49.3167C61.5865 49.3104 61.9426 49.3958 62.261 49.5647ZM60.555 50.0897C60.3499 50.2022 60.1862 50.3774 60.088 50.5897C59.9824 50.8131 59.9276 51.0571 59.9276 51.3042C59.9276 51.5513 59.9824 51.7954 60.088 52.0187C60.1919 52.2223 60.3546 52.3899 60.555 52.4997C60.7584 52.6185 60.9905 52.6791 61.226 52.6747C61.466 52.6794 61.7027 52.6189 61.911 52.4997C62.1037 52.3848 62.2603 52.2182 62.363 52.0187C62.478 51.7981 62.538 51.553 62.538 51.3042C62.538 51.0555 62.478 50.8103 62.363 50.5897C62.2656 50.3817 62.1082 50.2076 61.911 50.0897C61.7027 49.9705 61.466 49.91 61.226 49.9147C60.9905 49.9104 60.7584 49.9709 60.555 50.0897Z" fill="url(#paint29_linear_2_703)"/>
<path d="M69.1741 49.9741C68.9971 49.9071 68.8093 49.8732 68.6201 49.8741C68.446 49.8685 68.2736 49.9088 68.1201 49.9911C68.0579 50.0247 68.0069 50.0757 67.9731 50.1379C67.9394 50.2 67.9245 50.2706 67.9301 50.3411C67.9291 50.414 67.947 50.4859 67.9821 50.5499C68.0171 50.6138 68.0681 50.6676 68.1301 50.7061C68.3376 50.8047 68.5522 50.8876 68.7721 50.9541C68.999 51.0063 69.2191 51.0845 69.4281 51.1871C69.6019 51.2635 69.7564 51.378 69.8801 51.5221C70.0023 51.7025 70.0637 51.9173 70.0551 52.1351C70.0622 52.2983 70.0269 52.4606 69.9528 52.6062C69.8787 52.7518 69.7682 52.8757 69.6321 52.9661C69.3302 53.1668 68.9734 53.2688 68.6111 53.2581C68.3225 53.2618 68.0357 53.2123 67.7651 53.1121C67.5084 53.0377 67.2734 52.9025 67.0801 52.7181L67.3281 52.2181C67.5042 52.3715 67.7078 52.4903 67.9281 52.5681C68.1523 52.651 68.389 52.6953 68.6281 52.6991C68.815 52.705 69.0004 52.6649 69.1681 52.5821C69.2345 52.5412 69.2883 52.4828 69.3236 52.4132C69.3589 52.3437 69.3743 52.2658 69.3681 52.1881C69.3712 52.1108 69.3545 52.0339 69.3195 51.9649C69.2845 51.896 69.2323 51.8371 69.1681 51.7941C68.9561 51.679 68.7308 51.5906 68.4971 51.5311C68.2835 51.4719 68.0741 51.3987 67.8701 51.3121C67.7079 51.2302 67.5639 51.1162 67.4471 50.9771C67.2847 50.754 67.2167 50.476 67.2576 50.2032C67.2986 49.9303 67.4453 49.6846 67.6661 49.5191C67.9684 49.3348 68.3182 49.2433 68.6721 49.2561C68.9032 49.2558 69.1335 49.2853 69.3571 49.3441C69.5696 49.4065 69.7717 49.4998 69.9571 49.6211L69.7091 50.1461C69.5387 50.0664 69.359 50.0086 69.1741 49.9741Z" fill="url(#paint30_linear_2_703)"/>
<path d="M75.1379 49.3472V53.2412H74.4529V52.4102C74.3274 52.6848 74.1198 52.9137 73.8586 53.0652C73.5974 53.2168 73.2957 53.2835 72.9949 53.2562C72.802 53.2682 72.6088 53.2393 72.4278 53.1714C72.2469 53.1035 72.0823 52.9981 71.9449 52.8622C71.8095 52.7126 71.7049 52.5377 71.6373 52.3475C71.5697 52.1574 71.5403 51.9557 71.5509 51.7542V49.3472H72.2509V51.5672C72.234 51.8493 72.3284 52.1269 72.5139 52.3402C72.6127 52.4344 72.7296 52.5075 72.8575 52.5552C72.9854 52.6028 73.1216 52.6239 73.2579 52.6172C73.4212 52.6171 73.5825 52.5818 73.7309 52.5139C73.8793 52.4459 74.0113 52.3467 74.1179 52.2232C74.3368 51.951 74.4507 51.6093 74.4389 51.2602V49.3472H75.1379Z" fill="url(#paint31_linear_2_703)"/>
<path d="M78.83 49.9301C78.5945 49.9257 78.3624 49.9863 78.159 50.1051C77.9565 50.2056 77.7925 50.3696 77.692 50.5721C77.5736 50.7915 77.5133 51.0377 77.517 51.2871C77.5129 51.5347 77.5677 51.7798 77.677 52.0021C77.7876 52.2026 77.9504 52.3694 78.1481 52.4849C78.3458 52.6004 78.5711 52.6602 78.8 52.6581C79.0334 52.6585 79.2651 52.6189 79.485 52.5411C79.6796 52.4631 79.8515 52.3376 79.985 52.1761L80.379 52.5701C80.199 52.7909 79.969 52.9658 79.708 53.0801C79.4121 53.2009 79.0947 53.2604 78.775 53.2551C78.424 53.2596 78.0777 53.1743 77.769 53.0071C77.4792 52.843 77.2418 52.6004 77.084 52.3071C76.915 51.9937 76.8296 51.6421 76.836 51.2861C76.8334 50.9305 76.9186 50.5798 77.084 50.2651C77.2454 49.9745 77.482 49.7327 77.769 49.5651C78.0777 49.3979 78.424 49.3125 78.775 49.3171C79.0777 49.3168 79.3783 49.3661 79.665 49.4631C79.9144 49.5568 80.1389 49.7066 80.321 49.9011L79.942 50.3821C79.7993 50.2322 79.6264 50.1143 79.4347 50.0364C79.243 49.9585 79.0368 49.9222 78.83 49.9301Z" fill="url(#paint32_linear_2_703)"/>
<path d="M83.5389 49.9301C83.299 49.9254 83.0622 49.9859 82.8539 50.1051C82.6544 50.2097 82.4915 50.3726 82.3869 50.5721C82.272 50.7927 82.212 51.0378 82.212 51.2866C82.212 51.5354 82.272 51.7805 82.3869 52.0011C82.4897 52.2005 82.6463 52.3672 82.8389 52.4821C83.0423 52.6009 83.2744 52.6615 83.5099 52.6571C83.7387 52.6577 83.9658 52.6181 84.1809 52.5401C84.3755 52.4621 84.5474 52.3366 84.6809 52.1751L85.0749 52.5691C84.8983 52.7934 84.6674 52.969 84.4039 53.0791C84.1124 53.1985 83.7999 53.258 83.4849 53.2541C83.1339 53.2587 82.7876 53.1733 82.4789 53.0061C82.1846 52.843 81.942 52.6005 81.7789 52.3061C81.6151 51.9913 81.5348 51.6398 81.5459 51.2851C81.538 50.9307 81.6181 50.5799 81.7789 50.2641C81.9463 49.973 82.1878 49.7315 82.4789 49.5641C82.7876 49.3969 83.1339 49.3115 83.4849 49.3161C83.7874 49.3183 84.0876 49.3676 84.3749 49.4621C84.6225 49.5593 84.8462 49.7087 85.0309 49.9001L84.6519 50.3811C84.5091 50.2312 84.3359 50.1134 84.144 50.0357C83.9521 49.9579 83.7458 49.9219 83.5389 49.9301Z" fill="url(#paint33_linear_2_703)"/>
<path d="M89.5189 49.8569C89.8463 50.2702 90.0123 50.7884 89.9859 51.3149C89.9954 51.3876 89.9954 51.4612 89.9859 51.5339H86.9229C86.9701 51.857 87.1243 52.1549 87.3609 52.3799C87.6109 52.586 87.927 52.6947 88.2509 52.6859C88.4699 52.686 88.6865 52.6403 88.8869 52.5519C89.0808 52.4664 89.2584 52.348 89.4119 52.2019L89.7769 52.5959C89.5865 52.8015 89.352 52.9611 89.0909 53.0629C88.8059 53.1817 88.4997 53.2413 88.1909 53.2379C87.8354 53.2406 87.4846 53.1554 87.1699 52.9899C86.877 52.8299 86.6385 52.5862 86.4849 52.2899C86.3159 51.9766 86.2304 51.6249 86.2369 51.2689C86.2355 50.9145 86.3214 50.5653 86.4869 50.2519C86.6449 49.9627 86.8827 49.7249 87.1719 49.5669C87.4765 49.3879 87.8247 49.2969 88.1779 49.3039C88.4288 49.2898 88.6797 49.3323 88.912 49.4282C89.1443 49.5241 89.352 49.6709 89.5199 49.8579L89.5189 49.8569ZM89.3589 51.0239C89.3595 50.869 89.3287 50.7155 89.2686 50.5727C89.2085 50.43 89.1201 50.3008 89.0089 50.1929C88.7783 49.9833 88.4742 49.8733 88.1629 49.8869C87.8478 49.8759 87.5402 49.9853 87.3029 50.1929C87.0671 50.4087 86.9214 50.7054 86.8949 51.0239H89.3589Z" fill="url(#paint34_linear_2_703)"/>
<path d="M93.282 49.9741C93.1046 49.9082 92.9171 49.8744 92.728 49.8741C92.5507 49.8681 92.3749 49.9084 92.218 49.9911C92.1598 50.0277 92.1128 50.0794 92.0818 50.1407C92.0508 50.202 92.037 50.2706 92.042 50.3391C92.0379 50.4125 92.0545 50.4856 92.0898 50.5501C92.1252 50.6146 92.1779 50.668 92.242 50.7041C92.4484 50.8052 92.6632 50.8881 92.884 50.9521C93.1094 51.0091 93.329 51.0871 93.54 51.1851C93.7119 51.258 93.8625 51.3733 93.978 51.5201C94.1002 51.7005 94.1615 51.9153 94.153 52.1331C94.1631 52.2951 94.1308 52.457 94.0593 52.6027C93.9877 52.7485 93.8794 52.873 93.745 52.9641C93.4375 53.1641 93.0766 53.2659 92.71 53.2561C92.4215 53.2585 92.1349 53.2091 91.864 53.1101C91.6103 53.0287 91.3768 52.8944 91.179 52.7161L91.442 52.2161C91.6181 52.3695 91.8217 52.4883 92.042 52.5661C92.2655 52.6516 92.5026 52.696 92.742 52.6971C92.9287 52.7013 93.1137 52.6612 93.282 52.5801C93.3462 52.537 93.3984 52.4782 93.4334 52.4092C93.4684 52.3402 93.4851 52.2634 93.482 52.1861C93.4863 52.1064 93.4681 52.0272 93.4293 51.9575C93.3906 51.8877 93.3329 51.8304 93.263 51.7921C93.0553 51.679 92.8352 51.5907 92.607 51.5291C92.3886 51.4696 92.1741 51.3965 91.965 51.3101C91.8049 51.2315 91.6652 51.1168 91.557 50.9751C91.3946 50.752 91.3265 50.474 91.3675 50.2012C91.4085 49.9283 91.5552 49.6826 91.776 49.5171C92.0733 49.3331 92.4185 49.2415 92.768 49.2541C93.004 49.255 93.239 49.2845 93.468 49.3421C93.6751 49.4046 93.8716 49.498 94.051 49.6191L93.803 50.1441C93.6373 50.0652 93.4622 50.0081 93.282 49.9741Z" fill="url(#paint35_linear_2_703)"/>
<path d="M97.395 49.9741C97.218 49.9071 97.0302 49.8732 96.841 49.8741C96.667 49.8685 96.4945 49.9088 96.341 49.9911C96.2788 50.0247 96.2278 50.0757 96.1941 50.1379C96.1603 50.2 96.1454 50.2706 96.151 50.3411C96.15 50.414 96.168 50.4859 96.203 50.5499C96.2381 50.6138 96.289 50.6676 96.351 50.7061C96.5585 50.8047 96.7731 50.8876 96.993 50.9541C97.2239 51.009 97.4487 51.087 97.664 51.1871C97.8314 51.2675 97.9805 51.3816 98.102 51.5221C98.2243 51.7025 98.2856 51.9173 98.277 52.1351C98.2841 52.2983 98.2488 52.4606 98.1747 52.6062C98.1006 52.7518 97.9901 52.8757 97.854 52.9661C97.5521 53.1668 97.1954 53.2688 96.833 53.2581C96.5444 53.2618 96.2576 53.2123 95.987 53.1121C95.7303 53.0377 95.4953 52.9025 95.302 52.7181L95.55 52.2181C95.7262 52.3715 95.9297 52.4903 96.15 52.5681C96.3742 52.651 96.6109 52.6953 96.85 52.6991C97.0369 52.705 97.2224 52.6648 97.39 52.5821C97.4563 52.5399 97.5109 52.4817 97.5487 52.4128C97.5865 52.3439 97.6063 52.2666 97.6063 52.1881C97.6063 52.1095 97.5865 52.0322 97.5487 51.9633C97.5109 51.8944 97.4563 51.8362 97.39 51.7941C97.1781 51.679 96.9527 51.5906 96.719 51.5311C96.5054 51.4719 96.296 51.3987 96.092 51.3121C95.9298 51.2302 95.7859 51.1162 95.669 50.9771C95.5066 50.754 95.4386 50.476 95.4796 50.2032C95.5206 49.9303 95.6673 49.6846 95.888 49.5191C96.1904 49.3348 96.5402 49.2433 96.894 49.2561C97.1251 49.2554 97.3554 49.2847 97.579 49.3431C97.7915 49.4055 97.9937 49.4988 98.179 49.6201L97.931 50.1451C97.7603 50.0657 97.5802 50.0082 97.395 49.9741Z" fill="url(#paint36_linear_2_703)"/>
<path d="M9.30507 53.2399V52.6859C9.14246 52.8848 8.93434 53.0416 8.69832 53.1431C8.46229 53.2446 8.2053 53.2877 7.94907 53.2689C7.70142 53.2731 7.45632 53.2182 7.23407 53.1089C7.04029 53.0167 6.87789 52.8696 6.76707 52.6859C6.65224 52.5021 6.59158 52.2896 6.59207 52.0729C6.58579 51.9128 6.61834 51.7537 6.68696 51.609C6.75557 51.4642 6.8582 51.3383 6.98607 51.2419C7.29946 51.018 7.68083 50.9099 8.06507 50.9359H9.29007V50.7459C9.29912 50.6272 9.28155 50.5079 9.23864 50.3968C9.19574 50.2858 9.12858 50.1857 9.04207 50.1039C8.82856 49.9436 8.56436 49.8659 8.29807 49.8849C7.86431 49.9003 7.4456 50.0478 7.09807 50.3079L6.80607 49.8269C7.05481 49.6694 7.31882 49.5374 7.59407 49.4329C7.86848 49.3511 8.15376 49.3116 8.44007 49.3159C8.84758 49.2873 9.25024 49.4182 9.56307 49.6809C9.69939 49.8064 9.80655 49.9603 9.87704 50.1316C9.94752 50.303 9.97962 50.4878 9.97107 50.6729V53.2399H9.30507ZM8.89707 52.4669C8.99993 52.3957 9.0877 52.3049 9.15532 52.1997C9.22295 52.0945 9.26908 51.977 9.29107 51.8539V51.4599H8.15207C7.9144 51.4408 7.67633 51.4916 7.46707 51.6059C7.3936 51.6515 7.33422 51.7165 7.29556 51.7939C7.25689 51.8712 7.24045 51.9577 7.24807 52.0439C7.24543 52.1354 7.2638 52.2264 7.30176 52.3098C7.33972 52.3932 7.39627 52.4667 7.46707 52.5249C7.64749 52.6471 7.8623 52.7085 8.08007 52.6999C8.34463 52.6912 8.60182 52.6106 8.82407 52.4669H8.89707Z" fill="url(#paint37_linear_2_703)"/>
<path d="M15.1389 49.7259C15.4056 50.0312 15.5417 50.4291 15.5179 50.8339V53.2399H14.8329V51.0099C14.8468 50.7281 14.7528 50.4517 14.5699 50.2369C14.3566 50.0513 14.079 49.9569 13.7969 49.9739C13.6414 49.9667 13.4861 49.9914 13.3406 50.0467C13.1951 50.1019 13.0624 50.1863 12.9509 50.2949C12.729 50.5278 12.5993 50.8334 12.5859 51.1549V53.2409H11.9009V49.3469H12.5859V50.1639C12.7085 49.9488 12.8772 49.7635 13.08 49.6214C13.2827 49.4793 13.5144 49.3839 13.7584 49.342C14.0024 49.3001 14.2527 49.3128 14.4912 49.3792C14.7297 49.4456 14.9516 49.564 15.1389 49.7259Z" fill="url(#paint38_linear_2_703)"/>
<path d="M22.766 49.5659C23.0614 49.7327 23.3079 49.974 23.481 50.2659C23.6482 50.5799 23.7335 50.9311 23.729 51.2869C23.7322 51.6422 23.6477 51.993 23.483 52.3079C23.3099 52.5997 23.0634 52.8411 22.768 53.0079C22.447 53.1706 22.0923 53.2553 21.7325 53.2553C21.3726 53.2553 21.0179 53.1706 20.697 53.0079C20.3985 52.8451 20.151 52.6028 19.982 52.3079C19.8194 51.9921 19.7346 51.642 19.7346 51.2869C19.7346 50.9317 19.8194 50.5816 19.982 50.2659C20.155 49.974 20.4015 49.7327 20.697 49.5659C21.0179 49.4031 21.3726 49.3184 21.7325 49.3184C22.0923 49.3184 22.447 49.4031 22.768 49.5659H22.766ZM21.06 50.0909C20.8548 50.2033 20.6912 50.3785 20.593 50.5909C20.478 50.8115 20.4179 51.0566 20.4179 51.3054C20.4179 51.5541 20.478 51.7992 20.593 52.0199C20.6968 52.2234 20.8595 52.391 21.06 52.5009C21.2649 52.6159 21.496 52.6763 21.731 52.6763C21.966 52.6763 22.197 52.6159 22.402 52.5009C22.6053 52.3861 22.7683 52.2115 22.869 52.0009C22.9839 51.775 23.0438 51.5252 23.0438 51.2719C23.0438 51.0185 22.9839 50.7687 22.869 50.5429C22.7707 50.3305 22.6071 50.1553 22.402 50.0429C22.197 49.9278 21.966 49.8674 21.731 49.8674C21.496 49.8674 21.2649 49.9278 21.06 50.0429V50.0909Z" fill="url(#paint39_linear_2_703)"/>
<path d="M29.0511 47.772V53.241H28.3661V52.472C28.2208 52.7201 28.0142 52.9267 27.7661 53.072C27.5008 53.2099 27.205 53.2786 26.9061 53.272C26.5643 53.2768 26.2272 53.1913 25.9291 53.024C25.6499 52.8493 25.4232 52.6022 25.2731 52.309C25.1192 51.9881 25.0393 51.6368 25.0393 51.281C25.0393 50.9251 25.1192 50.5738 25.2731 50.253C25.4245 49.9686 25.6515 49.7316 25.9291 49.568C26.2153 49.4197 26.5328 49.3423 26.8551 49.3423C27.1774 49.3423 27.4949 49.4197 27.7811 49.568C28.0299 49.7067 28.2325 49.9153 28.3641 50.168V47.772H29.0511ZM27.7241 52.512C27.9543 52.4045 28.1436 52.2256 28.2641 52.002C28.3791 51.7762 28.4391 51.5264 28.4391 51.273C28.4391 51.0196 28.3791 50.7698 28.2641 50.544C28.1603 50.3404 27.9975 50.1728 27.7971 50.063C27.5953 49.9389 27.363 49.8731 27.1261 49.873C26.8848 49.8736 26.6482 49.9392 26.4411 50.063C26.2395 50.1799 26.077 50.3539 25.9741 50.563C25.8592 50.7836 25.7992 51.0287 25.7992 51.2775C25.7992 51.5262 25.8592 51.7713 25.9741 51.992C26.0811 52.1983 26.2426 52.3712 26.4411 52.492C26.6494 52.6112 26.8861 52.6717 27.1261 52.667C27.3354 52.6649 27.5401 52.6117 27.7241 52.512Z" fill="url(#paint40_linear_2_703)"/>
<path d="M32.028 54.4671C31.8207 54.6176 31.5691 54.6947 31.313 54.6861C31.159 54.6927 31.0052 54.6679 30.861 54.6131C30.7169 54.5661 30.5831 54.4917 30.467 54.3941L30.759 53.8541C30.9114 53.9679 31.0941 54.034 31.284 54.0441C31.4329 54.038 31.5761 53.9856 31.6937 53.8942C31.8113 53.8028 31.8975 53.6769 31.94 53.5341L32.086 53.1991L30.486 49.3491H31.186L32.426 52.4701L33.593 49.3491H34.293L32.514 53.7241C32.4297 54.0137 32.2625 54.2724 32.033 54.4681L32.028 54.4671Z" fill="url(#paint41_linear_2_703)"/>
<path d="M37.248 49.974C37.0707 49.9082 36.8831 49.8743 36.694 49.874C36.5167 49.8681 36.3409 49.9084 36.184 49.991C36.1257 50.0279 36.0787 50.08 36.0478 50.1417C36.017 50.2034 36.0036 50.2723 36.009 50.341C36.0049 50.4145 36.0215 50.4876 36.0569 50.5521C36.0922 50.6166 36.1449 50.6699 36.209 50.706C36.4154 50.8071 36.6302 50.8901 36.851 50.954C37.0764 51.0111 37.2961 51.0891 37.507 51.187C37.6789 51.26 37.8295 51.3753 37.945 51.522C38.0673 51.7024 38.1286 51.9172 38.12 52.135C38.1302 52.2971 38.0979 52.4589 38.0263 52.6047C37.9548 52.7504 37.8464 52.875 37.712 52.966C37.4046 53.1661 37.0436 53.2679 36.677 53.258C36.3885 53.2605 36.102 53.211 35.831 53.112C35.5773 53.0307 35.3439 52.8964 35.146 52.718L35.409 52.218C35.5851 52.3715 35.7887 52.4902 36.009 52.568C36.2325 52.6536 36.4697 52.6979 36.709 52.699C36.8957 52.7033 37.0808 52.6632 37.249 52.582C37.3133 52.5389 37.3654 52.4801 37.4004 52.4111C37.4354 52.3421 37.4522 52.2653 37.449 52.188C37.4534 52.1084 37.4351 52.0291 37.3964 51.9594C37.3576 51.8897 37.2999 51.8324 37.23 51.794C37.0224 51.681 36.8022 51.5927 36.574 51.531C36.3556 51.4716 36.1412 51.3984 35.932 51.312C35.7824 51.2298 35.653 51.1154 35.553 50.977C35.3906 50.754 35.3226 50.476 35.3636 50.2031C35.4045 49.9303 35.5513 49.6845 35.772 49.519C36.0693 49.335 36.4146 49.2435 36.764 49.256C37 49.2569 37.2351 49.2865 37.464 49.344C37.6711 49.4066 37.8676 49.5 38.047 49.621L37.799 50.146C37.624 50.0639 37.4386 50.0061 37.248 49.974Z" fill="url(#paint42_linear_2_703)"/>
<path d="M41.391 49.9739C41.214 49.9069 41.0262 49.873 40.837 49.8739C40.6629 49.8683 40.4905 49.9087 40.337 49.9909C40.2762 50.03 40.2266 50.0844 40.1933 50.1485C40.1599 50.2127 40.144 50.2844 40.1469 50.3567C40.1498 50.4289 40.1716 50.4992 40.21 50.5604C40.2484 50.6217 40.3022 50.6718 40.366 50.7059C40.567 50.8075 40.7768 50.8905 40.993 50.9539C41.2239 51.0088 41.4487 51.0868 41.664 51.1869C41.8313 51.2674 41.9804 51.3814 42.102 51.5219C42.2242 51.7023 42.2855 51.9171 42.277 52.1349C42.2871 52.2969 42.2548 52.4588 42.1833 52.6046C42.1117 52.7503 42.0034 52.8748 41.869 52.9659C41.5617 53.1654 41.2011 53.2669 40.835 53.2569C40.5465 53.2593 40.2599 53.2099 39.989 53.1109C39.7338 53.033 39.4996 52.8983 39.304 52.7169L39.552 52.2169C39.7281 52.3703 39.9317 52.4891 40.152 52.5669C40.3762 52.6498 40.6129 52.6941 40.852 52.6979C41.039 52.7057 41.2249 52.6654 41.392 52.5809C41.4582 52.5387 41.5128 52.4805 41.5506 52.4116C41.5884 52.3427 41.6082 52.2654 41.6082 52.1869C41.6082 52.1083 41.5884 52.031 41.5506 51.9622C41.5128 51.8933 41.4582 51.8351 41.392 51.7929C41.1838 51.6811 40.9633 51.5942 40.735 51.5339C40.5159 51.4767 40.3013 51.4036 40.093 51.3149C39.9307 51.233 39.7868 51.119 39.67 50.9799C39.5233 50.7607 39.4658 50.4939 39.5091 50.2337C39.5524 49.9736 39.6932 49.7398 39.903 49.5799C40.1996 49.3942 40.5453 49.3026 40.895 49.3169C41.1261 49.3166 41.3564 49.3462 41.58 49.4049C41.7935 49.4645 41.9961 49.558 42.18 49.6819L41.932 50.2069C41.764 50.1031 41.5817 50.0246 41.391 49.9739Z" fill="url(#paint43_linear_2_703)"/>
<path d="M46.8161 49.8572C47.1497 50.2671 47.3164 50.7877 47.2831 51.3152V51.5342H44.2051C44.2388 51.8614 44.3953 52.1637 44.6431 52.3802C44.8864 52.5876 45.1985 52.6968 45.5181 52.6862C45.7378 52.6901 45.9556 52.6443 46.1551 52.5522C46.351 52.4704 46.5293 52.3515 46.6801 52.2022L47.0451 52.5962C46.8578 52.8049 46.6228 52.9651 46.3601 53.0632C46.0788 53.1827 45.7757 53.2423 45.4701 53.2382C45.1141 53.2446 44.7624 53.1592 44.4491 52.9902C44.1484 52.8356 43.9036 52.5909 43.7491 52.2902C43.58 51.9768 43.4946 51.6252 43.5011 51.2692C43.5009 50.9144 43.5881 50.5651 43.7551 50.2522C43.9131 49.9629 44.1509 49.7252 44.4401 49.5672C44.751 49.3903 45.1034 49.2996 45.4611 49.3042C45.7144 49.2869 45.9683 49.3278 46.2034 49.4238C46.4384 49.5198 46.6483 49.6684 46.8171 49.8582L46.8161 49.8572ZM46.6701 51.0242C46.6578 50.7139 46.5334 50.4187 46.3201 50.1932C46.0835 49.9842 45.7755 49.8746 45.4601 49.8872C45.1449 49.8761 44.8374 49.9855 44.6001 50.1932C44.3687 50.4122 44.2239 50.7072 44.1921 51.0242H46.6701Z" fill="url(#paint44_linear_2_703)"/>
<path d="M49.6889 54.4672C49.4806 54.6157 49.2297 54.6925 48.9739 54.6862C48.8199 54.6927 48.6661 54.6679 48.5219 54.6132C48.3778 54.5661 48.244 54.4918 48.1279 54.3942L48.4199 53.8542C48.5723 53.968 48.755 54.0341 48.9449 54.0442C49.0938 54.0381 49.237 53.9857 49.3546 53.8942C49.4722 53.8028 49.5583 53.6769 49.6009 53.5342L49.7469 53.1992L48.1469 49.3492H48.8619L50.1409 52.4672L51.3079 49.3472H52.0079L50.2279 53.7222C50.128 54.0194 49.94 54.2792 49.6889 54.4672Z" fill="url(#paint45_linear_2_703)"/>
<path d="M58.0899 52.9777C57.8245 53.1602 57.5119 53.2616 57.1899 53.2697C56.9112 53.2774 56.6401 53.1783 56.4319 52.9927C56.3313 52.8776 56.2549 52.7433 56.2073 52.5979C56.1597 52.4526 56.1419 52.2991 56.1549 52.1467V50.0027H55.5959V49.4777H56.1499V48.4277H56.8349V49.4777H58.0349V50.0027H56.8349V52.0027C56.8243 52.1668 56.8652 52.3301 56.9519 52.4697C56.9981 52.5145 57.053 52.5492 57.1133 52.5718C57.1735 52.5943 57.2377 52.6042 57.3019 52.6007C57.5176 52.5936 57.7281 52.5335 57.9149 52.4257L58.0899 52.9777Z" fill="url(#paint46_linear_2_703)"/>
<path d="M62.261 49.5647C62.5565 49.7315 62.803 49.9729 62.976 50.2647C63.1433 50.5788 63.2286 50.93 63.224 51.2857C63.2267 51.6413 63.1416 51.992 62.976 52.3067C62.803 52.5986 62.5565 52.8399 62.261 53.0067C61.9426 53.1757 61.5865 53.261 61.226 53.2547C60.8658 53.2591 60.5101 53.1739 60.191 53.0067C59.8937 52.8477 59.6501 52.6041 59.491 52.3067C59.3187 51.994 59.2283 51.6428 59.2283 51.2857C59.2283 50.9287 59.3187 50.5774 59.491 50.2647C59.6541 49.9704 59.8967 49.7278 60.191 49.5647C60.5101 49.3975 60.8658 49.3123 61.226 49.3167C61.5865 49.3104 61.9426 49.3958 62.261 49.5647ZM60.555 50.0897C60.3499 50.2022 60.1862 50.3774 60.088 50.5897C59.9824 50.8131 59.9276 51.0571 59.9276 51.3042C59.9276 51.5513 59.9824 51.7954 60.088 52.0187C60.1919 52.2223 60.3546 52.3899 60.555 52.4997C60.7584 52.6185 60.9905 52.6791 61.226 52.6747C61.466 52.6794 61.7027 52.6189 61.911 52.4997C62.1037 52.3848 62.2603 52.2182 62.363 52.0187C62.478 51.7981 62.538 51.553 62.538 51.3042C62.538 51.0555 62.478 50.8103 62.363 50.5897C62.2656 50.3817 62.1082 50.2076 61.911 50.0897C61.7027 49.9705 61.466 49.91 61.226 49.9147C60.9905 49.9104 60.7584 49.9709 60.555 50.0897Z" fill="url(#paint47_linear_2_703)"/>
<path d="M69.1741 49.9741C68.9971 49.9071 68.8093 49.8732 68.6201 49.8741C68.446 49.8685 68.2736 49.9088 68.1201 49.9911C68.0579 50.0247 68.0069 50.0757 67.9731 50.1379C67.9394 50.2 67.9245 50.2706 67.9301 50.3411C67.9291 50.414 67.947 50.4859 67.9821 50.5499C68.0171 50.6138 68.0681 50.6676 68.1301 50.7061C68.3376 50.8047 68.5522 50.8876 68.7721 50.9541C68.999 51.0063 69.2191 51.0845 69.4281 51.1871C69.6019 51.2635 69.7564 51.378 69.8801 51.5221C70.0023 51.7025 70.0637 51.9173 70.0551 52.1351C70.0622 52.2983 70.0269 52.4606 69.9528 52.6062C69.8787 52.7518 69.7682 52.8757 69.6321 52.9661C69.3302 53.1668 68.9734 53.2688 68.6111 53.2581C68.3225 53.2618 68.0357 53.2123 67.7651 53.1121C67.5084 53.0377 67.2734 52.9025 67.0801 52.7181L67.3281 52.2181C67.5042 52.3715 67.7078 52.4903 67.9281 52.5681C68.1523 52.651 68.389 52.6953 68.6281 52.6991C68.815 52.705 69.0004 52.6649 69.1681 52.5821C69.2345 52.5412 69.2883 52.4828 69.3236 52.4132C69.3589 52.3437 69.3743 52.2658 69.3681 52.1881C69.3712 52.1108 69.3545 52.0339 69.3195 51.9649C69.2845 51.896 69.2323 51.8371 69.1681 51.7941C68.9561 51.679 68.7308 51.5906 68.4971 51.5311C68.2835 51.4719 68.0741 51.3987 67.8701 51.3121C67.7079 51.2302 67.5639 51.1162 67.4471 50.9771C67.2847 50.754 67.2167 50.476 67.2576 50.2032C67.2986 49.9303 67.4453 49.6846 67.6661 49.5191C67.9684 49.3348 68.3182 49.2433 68.6721 49.2561C68.9032 49.2558 69.1335 49.2853 69.3571 49.3441C69.5696 49.4065 69.7717 49.4998 69.9571 49.6211L69.7091 50.1461C69.5387 50.0664 69.359 50.0086 69.1741 49.9741Z" fill="url(#paint48_linear_2_703)"/>
<path d="M75.1379 49.3472V53.2412H74.4529V52.4102C74.3274 52.6848 74.1198 52.9137 73.8586 53.0652C73.5974 53.2168 73.2957 53.2835 72.9949 53.2562C72.802 53.2682 72.6088 53.2393 72.4278 53.1714C72.2469 53.1035 72.0823 52.9981 71.9449 52.8622C71.8095 52.7126 71.7049 52.5377 71.6373 52.3475C71.5697 52.1574 71.5403 51.9557 71.5509 51.7542V49.3472H72.2509V51.5672C72.234 51.8493 72.3284 52.1269 72.5139 52.3402C72.6127 52.4344 72.7296 52.5075 72.8575 52.5552C72.9854 52.6028 73.1216 52.6239 73.2579 52.6172C73.4212 52.6171 73.5825 52.5818 73.7309 52.5139C73.8793 52.4459 74.0113 52.3467 74.1179 52.2232C74.3368 51.951 74.4507 51.6093 74.4389 51.2602V49.3472H75.1379Z" fill="url(#paint49_linear_2_703)"/>
<path d="M78.83 49.9301C78.5945 49.9257 78.3624 49.9863 78.159 50.1051C77.9565 50.2056 77.7925 50.3696 77.692 50.5721C77.5736 50.7915 77.5133 51.0377 77.517 51.2871C77.5129 51.5347 77.5677 51.7798 77.677 52.0021C77.7876 52.2026 77.9504 52.3694 78.1481 52.4849C78.3458 52.6004 78.5711 52.6602 78.8 52.6581C79.0334 52.6585 79.2651 52.6189 79.485 52.5411C79.6796 52.4631 79.8515 52.3376 79.985 52.1761L80.379 52.5701C80.199 52.7909 79.969 52.9658 79.708 53.0801C79.4121 53.2009 79.0947 53.2604 78.775 53.2551C78.424 53.2596 78.0777 53.1743 77.769 53.0071C77.4792 52.843 77.2418 52.6004 77.084 52.3071C76.915 51.9937 76.8296 51.6421 76.836 51.2861C76.8334 50.9305 76.9186 50.5798 77.084 50.2651C77.2454 49.9745 77.482 49.7327 77.769 49.5651C78.0777 49.3979 78.424 49.3125 78.775 49.3171C79.0777 49.3168 79.3783 49.3661 79.665 49.4631C79.9144 49.5568 80.1389 49.7066 80.321 49.9011L79.942 50.3821C79.7993 50.2322 79.6264 50.1143 79.4347 50.0364C79.243 49.9585 79.0368 49.9222 78.83 49.9301Z" fill="url(#paint50_linear_2_703)"/>
<path d="M83.5389 49.9301C83.299 49.9254 83.0622 49.9859 82.8539 50.1051C82.6544 50.2097 82.4915 50.3726 82.3869 50.5721C82.272 50.7927 82.212 51.0378 82.212 51.2866C82.212 51.5354 82.272 51.7805 82.3869 52.0011C82.4897 52.2005 82.6463 52.3672 82.8389 52.4821C83.0423 52.6009 83.2744 52.6615 83.5099 52.6571C83.7387 52.6577 83.9658 52.6181 84.1809 52.5401C84.3755 52.4621 84.5474 52.3366 84.6809 52.1751L85.0749 52.5691C84.8983 52.7934 84.6674 52.969 84.4039 53.0791C84.1124 53.1985 83.7999 53.258 83.4849 53.2541C83.1339 53.2587 82.7876 53.1733 82.4789 53.0061C82.1846 52.843 81.942 52.6005 81.7789 52.3061C81.6151 51.9913 81.5348 51.6398 81.5459 51.2851C81.538 50.9307 81.6181 50.5799 81.7789 50.2641C81.9463 49.973 82.1878 49.7315 82.4789 49.5641C82.7876 49.3969 83.1339 49.3115 83.4849 49.3161C83.7874 49.3183 84.0876 49.3676 84.3749 49.4621C84.6225 49.5593 84.8462 49.7087 85.0309 49.9001L84.6519 50.3811C84.5091 50.2312 84.3359 50.1134 84.144 50.0357C83.9521 49.9579 83.7458 49.9219 83.5389 49.9301Z" fill="url(#paint51_linear_2_703)"/>
<path d="M89.5189 49.8569C89.8463 50.2702 90.0123 50.7884 89.9859 51.3149C89.9954 51.3876 89.9954 51.4612 89.9859 51.5339H86.9229C86.9701 51.857 87.1243 52.1549 87.3609 52.3799C87.6109 52.586 87.927 52.6947 88.2509 52.6859C88.4699 52.686 88.6865 52.6403 88.8869 52.5519C89.0808 52.4664 89.2584 52.348 89.4119 52.2019L89.7769 52.5959C89.5865 52.8015 89.352 52.9611 89.0909 53.0629C88.8059 53.1817 88.4997 53.2413 88.1909 53.2379C87.8354 53.2406 87.4846 53.1554 87.1699 52.9899C86.877 52.8299 86.6385 52.5862 86.4849 52.2899C86.3159 51.9766 86.2304 51.6249 86.2369 51.2689C86.2355 50.9145 86.3214 50.5653 86.4869 50.2519C86.6449 49.9627 86.8827 49.7249 87.1719 49.5669C87.4765 49.3879 87.8247 49.2969 88.1779 49.3039C88.4288 49.2898 88.6797 49.3323 88.912 49.4282C89.1443 49.5241 89.352 49.6709 89.5199 49.8579L89.5189 49.8569ZM89.3589 51.0239C89.3595 50.869 89.3287 50.7155 89.2686 50.5727C89.2085 50.43 89.1201 50.3008 89.0089 50.1929C88.7783 49.9833 88.4742 49.8733 88.1629 49.8869C87.8478 49.8759 87.5402 49.9853 87.3029 50.1929C87.0671 50.4087 86.9214 50.7054 86.8949 51.0239H89.3589Z" fill="url(#paint52_linear_2_703)"/>
<path d="M93.282 49.9741C93.1046 49.9082 92.9171 49.8744 92.728 49.8741C92.5507 49.8681 92.3749 49.9084 92.218 49.9911C92.1598 50.0277 92.1128 50.0794 92.0818 50.1407C92.0508 50.202 92.037 50.2706 92.042 50.3391C92.0379 50.4125 92.0545 50.4856 92.0898 50.5501C92.1252 50.6146 92.1779 50.668 92.242 50.7041C92.4484 50.8052 92.6632 50.8881 92.884 50.9521C93.1094 51.0091 93.329 51.0871 93.54 51.1851C93.7119 51.258 93.8625 51.3733 93.978 51.5201C94.1002 51.7005 94.1615 51.9153 94.153 52.1331C94.1631 52.2951 94.1308 52.457 94.0593 52.6027C93.9877 52.7485 93.8794 52.873 93.745 52.9641C93.4375 53.1641 93.0766 53.2659 92.71 53.2561C92.4215 53.2585 92.1349 53.2091 91.864 53.1101C91.6103 53.0287 91.3768 52.8944 91.179 52.7161L91.442 52.2161C91.6181 52.3695 91.8217 52.4883 92.042 52.5661C92.2655 52.6516 92.5026 52.696 92.742 52.6971C92.9287 52.7013 93.1137 52.6612 93.282 52.5801C93.3462 52.537 93.3984 52.4782 93.4334 52.4092C93.4684 52.3402 93.4851 52.2634 93.482 52.1861C93.4863 52.1064 93.4681 52.0272 93.4293 51.9575C93.3906 51.8877 93.3329 51.8304 93.263 51.7921C93.0553 51.679 92.8352 51.5907 92.607 51.5291C92.3886 51.4696 92.1741 51.3965 91.965 51.3101C91.8049 51.2315 91.6652 51.1168 91.557 50.9751C91.3946 50.752 91.3265 50.474 91.3675 50.2012C91.4085 49.9283 91.5552 49.6826 91.776 49.5171C92.0733 49.3331 92.4185 49.2415 92.768 49.2541C93.004 49.255 93.239 49.2845 93.468 49.3421C93.6751 49.4046 93.8716 49.498 94.051 49.6191L93.803 50.1441C93.6373 50.0652 93.4622 50.0081 93.282 49.9741Z" fill="url(#paint53_linear_2_703)"/>
<path d="M97.395 49.9741C97.218 49.9071 97.0302 49.8732 96.841 49.8741C96.667 49.8685 96.4945 49.9088 96.341 49.9911C96.2788 50.0247 96.2278 50.0757 96.1941 50.1379C96.1603 50.2 96.1454 50.2706 96.151 50.3411C96.15 50.414 96.168 50.4859 96.203 50.5499C96.2381 50.6138 96.289 50.6676 96.351 50.7061C96.5585 50.8047 96.7731 50.8876 96.993 50.9541C97.2239 51.009 97.4487 51.087 97.664 51.1871C97.8314 51.2675 97.9805 51.3816 98.102 51.5221C98.2243 51.7025 98.2856 51.9173 98.277 52.1351C98.2841 52.2983 98.2488 52.4606 98.1747 52.6062C98.1006 52.7518 97.9901 52.8757 97.854 52.9661C97.5521 53.1668 97.1954 53.2688 96.833 53.2581C96.5444 53.2618 96.2576 53.2123 95.987 53.1121C95.7303 53.0377 95.4953 52.9025 95.302 52.7181L95.55 52.2181C95.7262 52.3715 95.9297 52.4903 96.15 52.5681C96.3742 52.651 96.6109 52.6953 96.85 52.6991C97.0369 52.705 97.2224 52.6648 97.39 52.5821C97.4563 52.5399 97.5109 52.4817 97.5487 52.4128C97.5865 52.3439 97.6063 52.2666 97.6063 52.1881C97.6063 52.1095 97.5865 52.0322 97.5487 51.9633C97.5109 51.8944 97.4563 51.8362 97.39 51.7941C97.1781 51.679 96.9527 51.5906 96.719 51.5311C96.5054 51.4719 96.296 51.3987 96.092 51.3121C95.9298 51.2302 95.7859 51.1162 95.669 50.9771C95.5066 50.754 95.4386 50.476 95.4796 50.2032C95.5206 49.9303 95.6673 49.6846 95.888 49.5191C96.1904 49.3348 96.5402 49.2433 96.894 49.2561C97.1251 49.2554 97.3554 49.2847 97.579 49.3431C97.7915 49.4055 97.9937 49.4988 98.179 49.6201L97.931 50.1451C97.7603 50.0657 97.5802 50.0082 97.395 49.9741Z" fill="url(#paint54_linear_2_703)"/>
<path d="M27.419 18.154L31.036 41.034H22.97L21.964 31.963L21.88 30.897L21.792 29.847C21.704 28.972 21.646 28.286 21.632 27.776C21.515 28.461 21.384 29.162 21.238 29.847C21.092 30.532 20.903 31.218 20.596 32.224L17.971 40.975H13.08L10.455 32.224C10.1892 31.4465 9.97475 30.6525 9.813 29.847C9.613 28.947 9.478 28.247 9.419 27.776C9.331 28.768 9.273 29.482 9.259 29.891C9.245 30.3 9.159 31.029 9.069 31.962L8.08 41.034H0L3.909 18.154H12.397L14.03 23.813C14.0891 24.0808 14.1669 24.3441 14.263 24.601C14.8394 26.5091 15.2638 28.4598 15.532 30.435H15.68C15.8098 29.3952 15.9947 28.3631 16.234 27.343C16.434 26.395 16.774 25.17 17.24 23.653L18.946 18.096L27.419 18.154ZM74.162 26.905C73.8818 26.8522 73.6045 26.7855 73.331 26.705C71.041 26.238 69.904 25.67 69.904 25.013C69.9025 24.8517 69.9435 24.6928 70.0228 24.5524C70.1022 24.412 70.2171 24.2949 70.356 24.213C70.77 23.9996 71.2328 23.8989 71.698 23.921C72.5004 23.9397 73.294 24.0925 74.046 24.373C74.8811 24.7372 75.6691 25.2008 76.393 25.754L78.902 19.774C77.6917 19.089 76.3976 18.5642 75.052 18.213C73.7897 17.8583 72.4841 17.6816 71.173 17.688C68.6762 17.5525 66.2178 18.3474 64.273 19.919C63.4133 20.6616 62.7292 21.5858 62.2702 22.625C61.8113 23.6642 61.5888 24.7923 61.619 25.928C61.5562 27.3759 62.0346 28.7954 62.961 29.91C64.012 31.0395 65.3882 31.8143 66.899 32.127L68.11 32.375C69.729 32.725 70.546 33.221 70.546 33.833C70.5448 34.0073 70.5001 34.1785 70.4162 34.3313C70.3322 34.4841 70.2115 34.6135 70.065 34.708C69.6564 34.9369 69.1904 35.0431 68.723 35.014C67.852 35.01 66.99 34.8368 66.185 34.504C65.073 34.007 64.0129 33.4014 63.02 32.696L60.35 39.079C61.7746 39.8992 63.2924 40.5454 64.871 41.004C66.3271 41.4211 67.8334 41.6371 69.348 41.646C70.6889 41.6583 72.0231 41.4557 73.3 41.046C74.4721 40.6672 75.5543 40.0526 76.48 39.24C77.3866 38.485 78.1116 37.5357 78.6013 36.4625C79.091 35.3892 79.3329 34.2194 79.309 33.04C79.3397 31.5767 78.8193 30.1554 77.851 29.058C76.9157 27.9212 75.6087 27.1515 74.161 26.885L74.162 26.905ZM97.205 18.154V25.754H92.188V18.154H83.948V41.034H92.188V33.041H97.205V41.106H105.431V18.154H97.205ZM44.862 41.004H46.773C46.6821 40.9244 46.6205 40.8167 46.598 40.698C46.5768 40.592 46.5768 40.4829 46.598 40.377C46.7261 39.8227 46.7753 39.253 46.744 38.685C46.7267 38.5735 46.7458 38.4594 46.7984 38.3597C46.8509 38.2599 46.9343 38.1797 47.036 38.131C47.1032 38.0954 47.1576 38.0398 47.1917 37.9719C47.2257 37.9039 47.2377 37.8271 47.226 37.752C47.2115 37.5189 47.2115 37.2851 47.226 37.052C47.226 36.337 47.386 35.594 47.426 34.908V34.12C47.426 34.12 47.28 34.528 47.193 34.733C46.96 35.302 46.814 35.914 46.537 36.469C46.26 37.024 46.143 37.369 45.924 37.825C45.705 38.281 45.501 38.625 45.311 39.036C45.223 39.196 45.078 39.371 45.311 39.576C45.3277 39.6048 45.3365 39.6376 45.3365 39.671C45.3365 39.7043 45.3277 39.7371 45.311 39.766C45.0325 40.1198 44.8751 40.5538 44.862 41.004ZM50.492 18.121H41.392L33.18 41.004H43.724C43.7118 40.6803 43.7662 40.3577 43.884 40.056C44.076 39.585 44.2226 39.0968 44.322 38.598C44.356 38.211 44.4341 37.8292 44.555 37.46C44.5979 37.2708 44.6564 37.0855 44.73 36.906C44.7379 36.8237 44.766 36.7446 44.8119 36.6758C44.8578 36.6071 44.92 36.5508 44.993 36.512C45.063 36.4715 45.1194 36.411 45.1551 36.3384C45.1907 36.2657 45.2039 36.1841 45.193 36.104C45.1604 35.842 45.1948 35.576 45.293 35.331C45.4201 35.1198 45.4859 34.8774 45.483 34.631V33.464C45.5363 32.8847 45.6289 32.3097 45.76 31.743C45.8875 31.2192 45.9513 30.682 45.95 30.143C45.9642 29.9251 45.9219 29.7073 45.8273 29.5106C45.7327 29.3139 45.589 29.1449 45.41 29.02C45.25 28.903 45.162 28.82 45.191 28.626C45.22 28.432 45.191 28.526 45.191 28.466L45.118 28.597C45.0241 28.7296 44.9219 28.8562 44.812 28.976C44.222 29.6206 43.6868 30.3133 43.212 31.047C43.0248 31.4277 42.7731 31.7731 42.468 32.068C42.4456 32.1293 42.4456 32.1966 42.468 32.258C42.3545 32.5818 42.2904 32.921 42.278 33.264C42.278 33.264 42.278 33.395 42.178 33.41C42.078 33.425 42.078 33.41 42.078 33.279C42.0872 33.2555 42.0872 33.2294 42.078 33.206V33.221C42.0708 33.2791 42.0708 33.3378 42.078 33.396V33.496C42.078 33.525 42.078 33.496 42.178 33.496C42.178 33.496 42.178 33.569 42.078 33.569C42.0481 33.5823 42.0157 33.5892 41.983 33.5892C41.9503 33.5892 41.9179 33.5823 41.888 33.569C41.8608 33.5218 41.8364 33.473 41.815 33.423V33.583H41.494C41.4624 33.5645 41.4357 33.5388 41.4159 33.5081C41.3961 33.4773 41.3838 33.4423 41.38 33.406C41.3872 33.3479 41.3872 33.2891 41.38 33.231C41.388 33.1855 41.3841 33.1388 41.3687 33.0954C41.3533 33.0519 41.3268 33.0132 41.292 32.983C41.2713 32.9663 41.2547 32.9452 41.2432 32.9212C41.2318 32.8973 41.2258 32.871 41.2258 32.8445C41.2258 32.8179 41.2318 32.7917 41.2432 32.7677C41.2547 32.7437 41.2713 32.7226 41.292 32.706C41.3292 32.6649 41.3736 32.631 41.423 32.606C41.6589 32.4617 41.8613 32.2687 42.0165 32.0398C42.1717 31.8109 42.2762 31.5515 42.323 31.279C42.44 30.9 42.629 30.55 42.761 30.171C42.9194 29.6719 43.1611 29.2033 43.476 28.785C43.8776 28.2113 44.1558 27.5606 44.293 26.874C44.3022 26.8505 44.3022 26.8244 44.293 26.801C44.093 26.991 43.812 26.961 43.549 27.001C43.4345 27.0251 43.3155 27.0174 43.205 26.9788C43.0945 26.9402 42.9966 26.8722 42.922 26.782C42.6698 26.4861 42.4792 26.1427 42.3616 25.7721C42.244 25.4015 42.2016 25.0112 42.237 24.624C42.2364 24.479 42.2659 24.3354 42.3236 24.2024C42.3812 24.0694 42.4658 23.9497 42.572 23.851C42.7732 23.6935 42.9546 23.5122 43.112 23.311C43.229 23.151 43.258 23.211 43.302 23.311C43.346 23.411 43.419 23.311 43.448 23.311C43.477 23.311 43.681 23.092 43.594 23.384C43.594 23.384 43.594 23.472 43.667 23.472C43.944 23.472 44.221 23.705 44.498 23.472C44.5494 23.4518 44.6066 23.4518 44.658 23.472C44.8703 23.5211 45.073 23.6049 45.258 23.72C45.4624 23.8937 45.7008 24.0228 45.958 24.099C46.118 24.172 46.148 24.259 46.104 24.434C46.0821 24.6133 46.0821 24.7946 46.104 24.974C46.104 24.974 46.104 24.974 46.104 25.061C46.1118 25.0373 46.1118 25.0117 46.104 24.988C46.342 24.209 46.4505 23.3961 46.425 22.582C46.425 22.305 46.352 22.013 46.325 21.722C46.2956 21.3482 46.2956 20.9727 46.325 20.599C46.3469 20.3368 46.3469 20.0732 46.325 19.811C46.3261 19.7197 46.2942 19.6312 46.2352 19.5616C46.1763 19.4919 46.0942 19.4459 46.004 19.432C45.8134 19.3288 45.6369 19.2014 45.479 19.053C45.4658 19.0209 45.4658 18.985 45.479 18.953H45.902L45.742 18.778V18.69C45.742 18.602 45.842 18.617 45.873 18.69C45.904 18.763 46.092 18.821 46.136 18.602C46.1483 18.5874 46.1636 18.5758 46.1809 18.5677C46.1982 18.5597 46.217 18.5556 46.236 18.5556C46.255 18.5556 46.2738 18.5597 46.2911 18.5677C46.3084 18.5758 46.3237 18.5874 46.336 18.602C46.3674 18.6372 46.4059 18.6654 46.449 18.6847C46.4921 18.704 46.5388 18.714 46.586 18.714C46.6332 18.714 46.6799 18.704 46.723 18.6847C46.7661 18.6654 46.8046 18.6372 46.836 18.602C46.924 18.529 47.084 18.529 47.128 18.383V18.483C47.1008 18.5586 47.0673 18.6318 47.028 18.702C46.974 18.8078 46.9347 18.9205 46.911 19.037C46.8817 19.2744 46.8817 19.5145 46.911 19.752C46.9312 19.9932 46.9903 20.2296 47.086 20.452C47.2919 20.875 47.4296 21.3279 47.494 21.794V22.859C47.567 23.486 47.684 24.113 47.771 24.74V24.94H47.698L47.231 24.488V24.678C47.4123 24.9657 47.6279 25.2303 47.873 25.466C48.2423 25.9471 48.5692 26.4593 48.85 26.997C49.0785 27.462 49.2546 27.951 49.375 28.455C49.546 29.0968 49.6727 29.7497 49.754 30.409C49.754 30.657 49.854 30.89 49.871 31.138C49.9173 31.6733 49.8836 32.2126 49.771 32.738C49.625 33.338 49.479 33.949 49.304 34.532C49.129 35.115 48.881 35.815 48.648 36.457C48.415 37.099 48.196 37.657 47.963 38.265C47.8662 38.4715 47.7882 38.6864 47.73 38.907C47.6789 39.294 47.6496 39.6836 47.642 40.074C47.6359 40.3366 47.5494 40.5911 47.394 40.803C47.3477 40.8764 47.2884 40.9408 47.219 40.993H58.425L50.492 18.121ZM47.736 14.577L47.371 12.462L48.917 11.004L46.788 10.698L45.84 8.77296L44.892 10.698L42.763 11.004L44.294 12.462L43.944 14.577L45.844 13.571L47.736 14.577ZM39.963 13.119L39.803 12.186L40.488 11.515L39.54 11.384L39.132 10.524L38.709 11.384L37.761 11.515L38.446 12.186L38.286 13.119L39.132 12.681L39.963 13.119ZM52.097 3.87196L51.878 2.57196L52.811 1.67196L51.511 1.48196L50.929 0.313965L50.36 1.48096L49.06 1.67096L49.993 2.57096L49.774 3.87096L50.926 3.25796L52.097 3.87196ZM35.557 17.203L35.411 16.415L35.994 15.861L35.194 15.744L34.844 15.015L34.494 15.744L33.694 15.861L34.277 16.415L34.131 17.203L34.846 16.838L35.557 17.203ZM44.774 6.99396L44.584 5.88596L45.384 5.09796L44.305 4.93796L43.736 3.87296L43.236 4.87896L42.128 5.03896L42.928 5.82696L42.738 6.93496L43.73 6.40996L44.774 6.99396ZM36.344 9.15396L36.213 8.36596L36.782 7.81196L35.994 7.69496L35.556 6.97996L35.191 7.69496L34.403 7.81196L34.972 8.36596L34.841 9.15396L35.556 8.78896L36.344 9.15396ZM56.762 10.248L56.631 9.45996L57.2 8.90596L56.412 8.78896L56.062 8.05996L55.697 8.78896L54.909 8.90596L55.478 9.45996L55.347 10.248L56.062 9.86896L56.762 10.248Z" fill="url(#paint55_linear_2_703)"/>
<defs>
<linearGradient id="paint0_linear_2_703" x1="26.1469" y1="60.8248" x2="36.2689" y2="3.30981" gradientUnits="userSpaceOnUse">
<stop stop-color="#FF4282"/>
<stop offset="0.9" stop-color="#7542FD"/>
</linearGradient>
<linearGradient id="paint1_linear_2_703" x1="26.124" y1="60.839" x2="88.5791" y2="20.9983" gradientUnits="userSpaceOnUse">
<stop stop-color="#FF4282"/>
<stop offset="0.9" stop-color="#7542FD"/>
</linearGradient>
<linearGradient id="paint2_linear_2_703" x1="26.1515" y1="60.8279" x2="86.1145" y2="16.2706" gradientUnits="userSpaceOnUse">
<stop stop-color="#FF4282"/>
<stop offset="0.9" stop-color="#7542FD"/>
</linearGradient>
<linearGradient id="paint3_linear_2_703" x1="26.1498" y1="60.838" x2="81.8658" y2="10.6815" gradientUnits="userSpaceOnUse">
<stop stop-color="#FF4282"/>
<stop offset="0.9" stop-color="#7542FD"/>
</linearGradient>
<linearGradient id="paint4_linear_2_703" x1="26.1466" y1="60.8465" x2="91.449" y2="30.4724" gradientUnits="userSpaceOnUse">
<stop stop-color="#FF4282"/>
<stop offset="0.9" stop-color="#7542FD"/>
</linearGradient>
<linearGradient id="paint5_linear_2_703" x1="26.1437" y1="60.8419" x2="91.6332" y2="31.4712" gradientUnits="userSpaceOnUse">
<stop stop-color="#FF4282"/>
<stop offset="0.9" stop-color="#7542FD"/>
</linearGradient>
<linearGradient id="paint6_linear_2_703" x1="26.15" y1="60.8539" x2="91.2569" y2="29.3528" gradientUnits="userSpaceOnUse">
<stop stop-color="#FF4282"/>
<stop offset="0.9" stop-color="#7542FD"/>
</linearGradient>
<linearGradient id="paint7_linear_2_703" x1="26.1582" y1="60.8461" x2="91.0619" y2="28.4928" gradientUnits="userSpaceOnUse">
<stop stop-color="#FF4282"/>
<stop offset="0.9" stop-color="#7542FD"/>
</linearGradient>
<linearGradient id="paint8_linear_2_703" x1="26.1243" y1="60.8274" x2="84.4696" y2="13.7821" gradientUnits="userSpaceOnUse">
<stop stop-color="#FF4282"/>
<stop offset="0.9" stop-color="#7542FD"/>
</linearGradient>
<linearGradient id="paint9_linear_2_703" x1="26.1477" y1="60.8442" x2="91.4778" y2="30.6874" gradientUnits="userSpaceOnUse">
<stop stop-color="#FF4282"/>
<stop offset="0.9" stop-color="#7542FD"/>
</linearGradient>
<linearGradient id="paint10_linear_2_703" x1="26.1493" y1="60.8388" x2="90.5856" y2="45.8969" gradientUnits="userSpaceOnUse">
<stop stop-color="#FF4282"/>
<stop offset="0.9" stop-color="#7542FD"/>
</linearGradient>
<linearGradient id="paint11_linear_2_703" x1="26.1539" y1="60.8409" x2="81.8854" y2="10.6827" gradientUnits="userSpaceOnUse">
<stop stop-color="#FF4282"/>
<stop offset="0.9" stop-color="#7542FD"/>
</linearGradient>
<linearGradient id="paint12_linear_2_703" x1="26.1437" y1="60.8543" x2="91.2684" y2="29.3551" gradientUnits="userSpaceOnUse">
<stop stop-color="#FF4282"/>
<stop offset="0.9" stop-color="#7542FD"/>
</linearGradient>
<linearGradient id="paint13_linear_2_703" x1="26.1609" y1="60.8416" x2="86.3613" y2="16.5945" gradientUnits="userSpaceOnUse">
<stop stop-color="#FF4282"/>
<stop offset="0.9" stop-color="#7542FD"/>
</linearGradient>
<linearGradient id="paint14_linear_2_703" x1="26.1695" y1="60.841" x2="87.0476" y2="17.7512" gradientUnits="userSpaceOnUse">
<stop stop-color="#FF4282"/>
<stop offset="0.9" stop-color="#7542FD"/>
</linearGradient>
<linearGradient id="paint15_linear_2_703" x1="26.1591" y1="60.8395" x2="87.1758" y2="17.9785" gradientUnits="userSpaceOnUse">
<stop stop-color="#FF4282"/>
<stop offset="0.9" stop-color="#7542FD"/>
</linearGradient>
<linearGradient id="paint16_linear_2_703" x1="26.137" y1="60.8282" x2="84.7538" y2="14.2281" gradientUnits="userSpaceOnUse">
<stop stop-color="#FF4282"/>
<stop offset="0.9" stop-color="#7542FD"/>
</linearGradient>
<linearGradient id="paint17_linear_2_703" x1="26.1748" y1="60.8519" x2="91.2789" y2="29.3504" gradientUnits="userSpaceOnUse">
<stop stop-color="#FF4282"/>
<stop offset="0.9" stop-color="#7542FD"/>
</linearGradient>
<linearGradient id="paint18_linear_2_703" x1="26.1481" y1="60.8543" x2="91.2729" y2="29.3551" gradientUnits="userSpaceOnUse">
<stop stop-color="#FF4282"/>
<stop offset="0.9" stop-color="#7542FD"/>
</linearGradient>
<linearGradient id="paint19_linear_2_703" x1="26.124" y1="60.839" x2="88.5791" y2="20.9983" gradientUnits="userSpaceOnUse">
<stop stop-color="#FF4282"/>
<stop offset="0.9" stop-color="#7542FD"/>
</linearGradient>
<linearGradient id="paint20_linear_2_703" x1="26.1515" y1="60.8279" x2="86.1145" y2="16.2706" gradientUnits="userSpaceOnUse">
<stop stop-color="#FF4282"/>
<stop offset="0.9" stop-color="#7542FD"/>
</linearGradient>
<linearGradient id="paint21_linear_2_703" x1="26.1498" y1="60.838" x2="81.8658" y2="10.6815" gradientUnits="userSpaceOnUse">
<stop stop-color="#FF4282"/>
<stop offset="0.9" stop-color="#7542FD"/>
</linearGradient>
<linearGradient id="paint22_linear_2_703" x1="26.1466" y1="60.8465" x2="91.449" y2="30.4724" gradientUnits="userSpaceOnUse">
<stop stop-color="#FF4282"/>
<stop offset="0.9" stop-color="#7542FD"/>
</linearGradient>
<linearGradient id="paint23_linear_2_703" x1="26.1437" y1="60.8419" x2="91.6332" y2="31.4712" gradientUnits="userSpaceOnUse">
<stop stop-color="#FF4282"/>
<stop offset="0.9" stop-color="#7542FD"/>
</linearGradient>
<linearGradient id="paint24_linear_2_703" x1="26.15" y1="60.8539" x2="91.2569" y2="29.3528" gradientUnits="userSpaceOnUse">
<stop stop-color="#FF4282"/>
<stop offset="0.9" stop-color="#7542FD"/>
</linearGradient>
<linearGradient id="paint25_linear_2_703" x1="26.1582" y1="60.8461" x2="91.0619" y2="28.4928" gradientUnits="userSpaceOnUse">
<stop stop-color="#FF4282"/>
<stop offset="0.9" stop-color="#7542FD"/>
</linearGradient>
<linearGradient id="paint26_linear_2_703" x1="26.1243" y1="60.8274" x2="84.4696" y2="13.7821" gradientUnits="userSpaceOnUse">
<stop stop-color="#FF4282"/>
<stop offset="0.9" stop-color="#7542FD"/>
</linearGradient>
<linearGradient id="paint27_linear_2_703" x1="26.1477" y1="60.8442" x2="91.4778" y2="30.6874" gradientUnits="userSpaceOnUse">
<stop stop-color="#FF4282"/>
<stop offset="0.9" stop-color="#7542FD"/>
</linearGradient>
<linearGradient id="paint28_linear_2_703" x1="26.1493" y1="60.8388" x2="90.5856" y2="45.8969" gradientUnits="userSpaceOnUse">
<stop stop-color="#FF4282"/>
<stop offset="0.9" stop-color="#7542FD"/>
</linearGradient>
<linearGradient id="paint29_linear_2_703" x1="26.1539" y1="60.8409" x2="81.8854" y2="10.6827" gradientUnits="userSpaceOnUse">
<stop stop-color="#FF4282"/>
<stop offset="0.9" stop-color="#7542FD"/>
</linearGradient>
<linearGradient id="paint30_linear_2_703" x1="26.1437" y1="60.8543" x2="91.2684" y2="29.3551" gradientUnits="userSpaceOnUse">
<stop stop-color="#FF4282"/>
<stop offset="0.9" stop-color="#7542FD"/>
</linearGradient>
<linearGradient id="paint31_linear_2_703" x1="26.1609" y1="60.8416" x2="86.3613" y2="16.5945" gradientUnits="userSpaceOnUse">
<stop stop-color="#FF4282"/>
<stop offset="0.9" stop-color="#7542FD"/>
</linearGradient>
<linearGradient id="paint32_linear_2_703" x1="26.1695" y1="60.841" x2="87.0476" y2="17.7512" gradientUnits="userSpaceOnUse">
<stop stop-color="#FF4282"/>
<stop offset="0.9" stop-color="#7542FD"/>
</linearGradient>
<linearGradient id="paint33_linear_2_703" x1="26.1591" y1="60.8395" x2="87.1758" y2="17.9785" gradientUnits="userSpaceOnUse">
<stop stop-color="#FF4282"/>
<stop offset="0.9" stop-color="#7542FD"/>
</linearGradient>
<linearGradient id="paint34_linear_2_703" x1="26.137" y1="60.8282" x2="84.7538" y2="14.2281" gradientUnits="userSpaceOnUse">
<stop stop-color="#FF4282"/>
<stop offset="0.9" stop-color="#7542FD"/>
</linearGradient>
<linearGradient id="paint35_linear_2_703" x1="26.1748" y1="60.8519" x2="91.2789" y2="29.3504" gradientUnits="userSpaceOnUse">
<stop stop-color="#FF4282"/>
<stop offset="0.9" stop-color="#7542FD"/>
</linearGradient>
<linearGradient id="paint36_linear_2_703" x1="26.1481" y1="60.8543" x2="91.2729" y2="29.3551" gradientUnits="userSpaceOnUse">
<stop stop-color="#FF4282"/>
<stop offset="0.9" stop-color="#7542FD"/>
</linearGradient>
<linearGradient id="paint37_linear_2_703" x1="26.124" y1="60.839" x2="88.5791" y2="20.9983" gradientUnits="userSpaceOnUse">
<stop stop-color="#FF4282"/>
<stop offset="0.9" stop-color="#7542FD"/>
</linearGradient>
<linearGradient id="paint38_linear_2_703" x1="26.1515" y1="60.8279" x2="86.1145" y2="16.2706" gradientUnits="userSpaceOnUse">
<stop stop-color="#FF4282"/>
<stop offset="0.9" stop-color="#7542FD"/>
</linearGradient>
<linearGradient id="paint39_linear_2_703" x1="26.1498" y1="60.838" x2="81.8658" y2="10.6815" gradientUnits="userSpaceOnUse">
<stop stop-color="#FF4282"/>
<stop offset="0.9" stop-color="#7542FD"/>
</linearGradient>
<linearGradient id="paint40_linear_2_703" x1="26.1466" y1="60.8465" x2="91.449" y2="30.4724" gradientUnits="userSpaceOnUse">
<stop stop-color="#FF4282"/>
<stop offset="0.9" stop-color="#7542FD"/>
</linearGradient>
<linearGradient id="paint41_linear_2_703" x1="26.1437" y1="60.8419" x2="91.6332" y2="31.4712" gradientUnits="userSpaceOnUse">
<stop stop-color="#FF4282"/>
<stop offset="0.9" stop-color="#7542FD"/>
</linearGradient>
<linearGradient id="paint42_linear_2_703" x1="26.15" y1="60.8539" x2="91.2569" y2="29.3528" gradientUnits="userSpaceOnUse">
<stop stop-color="#FF4282"/>
<stop offset="0.9" stop-color="#7542FD"/>
</linearGradient>
<linearGradient id="paint43_linear_2_703" x1="26.1582" y1="60.8461" x2="91.0619" y2="28.4928" gradientUnits="userSpaceOnUse">
<stop stop-color="#FF4282"/>
<stop offset="0.9" stop-color="#7542FD"/>
</linearGradient>
<linearGradient id="paint44_linear_2_703" x1="26.1243" y1="60.8274" x2="84.4696" y2="13.7821" gradientUnits="userSpaceOnUse">
<stop stop-color="#FF4282"/>
<stop offset="0.9" stop-color="#7542FD"/>
</linearGradient>
<linearGradient id="paint45_linear_2_703" x1="26.1477" y1="60.8442" x2="91.4778" y2="30.6874" gradientUnits="userSpaceOnUse">
<stop stop-color="#FF4282"/>
<stop offset="0.9" stop-color="#7542FD"/>
</linearGradient>
<linearGradient id="paint46_linear_2_703" x1="26.1493" y1="60.8388" x2="90.5856" y2="45.8969" gradientUnits="userSpaceOnUse">
<stop stop-color="#FF4282"/>
<stop offset="0.9" stop-color="#7542FD"/>
</linearGradient>
<linearGradient id="paint47_linear_2_703" x1="26.1539" y1="60.8409" x2="81.8854" y2="10.6827" gradientUnits="userSpaceOnUse">
<stop stop-color="#FF4282"/>
<stop offset="0.9" stop-color="#7542FD"/>
</linearGradient>
<linearGradient id="paint48_linear_2_703" x1="26.1437" y1="60.8543" x2="91.2684" y2="29.3551" gradientUnits="userSpaceOnUse">
<stop stop-color="#FF4282"/>
<stop offset="0.9" stop-color="#7542FD"/>
</linearGradient>
<linearGradient id="paint49_linear_2_703" x1="26.1609" y1="60.8416" x2="86.3613" y2="16.5945" gradientUnits="userSpaceOnUse">
<stop stop-color="#FF4282"/>
<stop offset="0.9" stop-color="#7542FD"/>
</linearGradient>
<linearGradient id="paint50_linear_2_703" x1="26.1695" y1="60.841" x2="87.0476" y2="17.7512" gradientUnits="userSpaceOnUse">
<stop stop-color="#FF4282"/>
<stop offset="0.9" stop-color="#7542FD"/>
</linearGradient>
<linearGradient id="paint51_linear_2_703" x1="26.1591" y1="60.8395" x2="87.1758" y2="17.9785" gradientUnits="userSpaceOnUse">
<stop stop-color="#FF4282"/>
<stop offset="0.9" stop-color="#7542FD"/>
</linearGradient>
<linearGradient id="paint52_linear_2_703" x1="26.137" y1="60.8282" x2="84.7538" y2="14.2281" gradientUnits="userSpaceOnUse">
<stop stop-color="#FF4282"/>
<stop offset="0.9" stop-color="#7542FD"/>
</linearGradient>
<linearGradient id="paint53_linear_2_703" x1="26.1748" y1="60.8519" x2="91.2789" y2="29.3504" gradientUnits="userSpaceOnUse">
<stop stop-color="#FF4282"/>
<stop offset="0.9" stop-color="#7542FD"/>
</linearGradient>
<linearGradient id="paint54_linear_2_703" x1="26.1481" y1="60.8543" x2="91.2729" y2="29.3551" gradientUnits="userSpaceOnUse">
<stop stop-color="#FF4282"/>
<stop offset="0.9" stop-color="#7542FD"/>
</linearGradient>
<linearGradient id="paint55_linear_2_703" x1="26.4632" y1="54.2116" x2="36.0579" y2="-0.277" gradientUnits="userSpaceOnUse">
<stop stop-color="#FF4282"/>
<stop offset="0.9" stop-color="#7542FD"/>
</linearGradient>
</defs>
</svg>
