<svg width="206" height="119" viewBox="0 0 206 119" fill="none" xmlns="http://www.w3.org/2000/svg">
<path d="M38.709 73.6021C38.709 73.6021 38.922 73.647 39.326 73.722" stroke="#1A1A1A" stroke-width="0.5" stroke-linecap="round" stroke-linejoin="round"/>
<path d="M40.562 73.9329C50.385 75.5109 96.496 80.6229 109.673 40.2329" stroke="#1A1A1A" stroke-width="0.5" stroke-linecap="round" stroke-linejoin="round" stroke-dasharray="11.94 11.94"/>
<path d="M109.86 39.6381C109.923 39.4381 109.984 39.2381 110.044 39.0381" stroke="#1A1A1A" stroke-width="0.5" stroke-linecap="round" stroke-linejoin="round"/>
<path d="M167.653 118.263C167.653 118.263 156.232 102.999 132.368 102.999C108.504 102.999 103.943 118.263 103.943 118.263H167.653Z" fill="url(#paint0_linear_2_4744)" stroke="#707070" stroke-width="0.5"/>
<path d="M167.653 118.263C167.653 118.263 156.232 102.999 132.368 102.999C108.504 102.999 103.943 118.263 103.943 118.263H167.653Z" stroke="black" stroke-width="0.5" stroke-linecap="round" stroke-linejoin="round"/>
<path d="M130.47 52.9902L136.438 60.0522V118.495H130.47V52.9902Z" fill="#FF8888" stroke="#707070" stroke-width="0.5"/>
<path d="M130.47 52.9902L136.438 60.0522V118.495H130.47V52.9902Z" stroke="#1A1A1A" stroke-width="0.5" stroke-linecap="round" stroke-linejoin="round"/>
<path d="M83.8279 118.263C83.8279 118.263 68.6909 101.858 46.4869 103.063C24.2829 104.268 18.387 118.263 18.387 118.263H83.8279Z" fill="url(#paint1_linear_2_4744)" stroke="#707070" stroke-width="0.5"/>
<path d="M83.8279 118.263C83.8279 118.263 68.6909 101.858 46.4869 103.063C24.2829 104.268 18.387 118.263 18.387 118.263H83.8279Z" stroke="black" stroke-width="0.5" stroke-linecap="round" stroke-linejoin="round"/>
<path d="M130.471 118.303V52.9902H114.939V65.9012H100.239V78.8123H85.5389V91.7233H70.839V104.634H56.1389V118.497H130.485L130.471 118.303Z" fill="white" stroke="#707070" stroke-width="0.5"/>
<path d="M130.471 118.303V52.9902H114.939V65.9012H100.239V78.8123H85.5389V91.7233H70.839V104.634H56.1389V118.497H130.485L130.471 118.303Z" stroke="#1A1A1A" stroke-width="0.5" stroke-linecap="round" stroke-linejoin="round"/>
<path d="M186.948 108.152C186.948 108.152 190.979 106.985 193.656 111.328C186.515 112.903 186.948 108.152 186.948 108.152Z" fill="url(#paint2_linear_2_4744)" stroke="#707070" stroke-width="0.5"/>
<path d="M186.948 108.152C186.948 108.152 190.979 106.985 193.656 111.328C186.515 112.903 186.948 108.152 186.948 108.152Z" stroke="black" stroke-width="0.5" stroke-linecap="round" stroke-linejoin="round"/>
<path d="M192.519 107.34C192.519 107.34 192.819 102.768 202.105 103.062C199.651 111.04 192.519 107.34 192.519 107.34Z" fill="url(#paint3_linear_2_4744)" stroke="#707070" stroke-width="0.5"/>
<path d="M192.519 107.34C192.519 107.34 192.819 102.768 202.105 103.062C199.651 111.04 192.519 107.34 192.519 107.34Z" stroke="black" stroke-width="0.5" stroke-linecap="round" stroke-linejoin="round"/>
<path d="M188.895 100.788C191.359 100.294 193.917 100.662 196.142 101.83C191.519 104.789 188.895 100.788 188.895 100.788Z" fill="url(#paint4_linear_2_4744)" stroke="#707070" stroke-width="0.5"/>
<path d="M188.895 100.788C191.359 100.294 193.917 100.662 196.142 101.83C191.519 104.789 188.895 100.788 188.895 100.788Z" stroke="black" stroke-width="0.5" stroke-linecap="round" stroke-linejoin="round"/>
<path d="M192.569 97.4233C192.569 97.4233 191.569 93.4993 187.569 93.2983C186.896 96.8663 192.569 97.4233 192.569 97.4233Z" fill="url(#paint5_linear_2_4744)" stroke="#707070" stroke-width="0.5"/>
<path d="M192.569 97.4233C192.569 97.4233 191.569 93.4993 187.569 93.2983C186.896 96.8663 192.569 97.4233 192.569 97.4233Z" stroke="black" stroke-width="0.5" stroke-linecap="round" stroke-linejoin="round"/>
<path d="M193.655 96.1462C193.655 96.1462 198.014 93.5222 201.239 98.2732C199.921 98.8311 198.453 98.9245 197.074 98.538C195.696 98.1516 194.491 97.3082 193.655 96.1462Z" fill="url(#paint6_linear_2_4744)" stroke="#707070" stroke-width="0.5"/>
<path d="M193.655 96.1462C193.655 96.1462 198.014 93.5222 201.239 98.2732C199.921 98.8311 198.453 98.9245 197.074 98.538C195.696 98.1516 194.491 97.3082 193.655 96.1462Z" stroke="black" stroke-width="0.5" stroke-linecap="round" stroke-linejoin="round"/>
<path d="M196.142 92.277C197.194 91.2395 198.55 90.565 200.012 90.3518C201.474 90.1387 202.966 90.3981 204.271 91.0921C201.288 94.6711 197.493 92.985 196.142 92.277Z" fill="url(#paint7_linear_2_4744)" stroke="#707070" stroke-width="0.5"/>
<path d="M196.142 92.277C197.194 91.2395 198.55 90.565 200.012 90.3518C201.474 90.1387 202.966 90.3981 204.271 91.0921C201.288 94.6711 197.493 92.985 196.142 92.277Z" stroke="black" stroke-width="0.5" stroke-linecap="round" stroke-linejoin="round"/>
<path d="M192.898 88.5621C192.898 88.5621 192.834 94.345 184.892 91.481C186.563 88.419 192.898 88.5621 192.898 88.5621Z" fill="url(#paint8_linear_2_4744)" stroke="#707070" stroke-width="0.5"/>
<path d="M192.898 88.5621C192.898 88.5621 192.834 94.345 184.892 91.481C186.562 88.419 192.898 88.5621 192.898 88.5621Z" stroke="black" stroke-width="0.5" stroke-linecap="round" stroke-linejoin="round"/>
<path d="M184.89 91.4802C184.89 91.4802 185.89 85.7192 178.574 84.5532C179.055 89.2302 184.89 91.4802 184.89 91.4802Z" fill="url(#paint9_linear_2_4744)" stroke="#707070" stroke-width="0.5"/>
<path d="M184.89 91.4802C184.89 91.4802 185.89 85.7192 178.574 84.5532C179.055 89.2302 184.89 91.4802 184.89 91.4802Z" stroke="black" stroke-width="0.5" stroke-linecap="round" stroke-linejoin="round"/>
<path d="M194.118 80.8779C194.118 80.8779 193.843 86.7378 186.689 85.7408C188.151 82.2138 194.118 80.8779 194.118 80.8779Z" fill="url(#paint10_linear_2_4744)" stroke="#707070" stroke-width="0.5"/>
<path d="M194.118 80.8779C194.118 80.8779 193.843 86.7378 186.689 85.7408C188.151 82.2138 194.118 80.8779 194.118 80.8779Z" stroke="black" stroke-width="0.5" stroke-linecap="round" stroke-linejoin="round"/>
<path d="M186.689 85.7422C186.689 85.7422 186.948 79.1132 181.989 76.6792C179.824 84.0792 186.689 85.7422 186.689 85.7422Z" fill="url(#paint11_linear_2_4744)" stroke="#707070" stroke-width="0.5"/>
<path d="M186.689 85.7422C186.689 85.7422 186.948 79.1132 181.989 76.6792C179.824 84.0792 186.689 85.7422 186.689 85.7422Z" stroke="black" stroke-width="0.5" stroke-linecap="round" stroke-linejoin="round"/>
<path d="M197.789 87.887C197.789 87.887 203.211 84.797 199.074 77.687C194.453 84.462 197.789 87.887 197.789 87.887Z" fill="url(#paint12_linear_2_4744)" stroke="#707070" stroke-width="0.5"/>
<path d="M197.789 87.887C197.789 87.887 203.211 84.797 199.074 77.687C194.453 84.462 197.789 87.887 197.789 87.887Z" stroke="black" stroke-width="0.5" stroke-linecap="round" stroke-linejoin="round"/>
<path d="M188.001 80.5463C188.001 80.5463 196.814 74.1462 190.801 66.6562C184.737 74.4352 188.001 80.5463 188.001 80.5463Z" fill="url(#paint13_linear_2_4744)" stroke="#707070" stroke-width="0.5"/>
<path d="M188.001 80.5463C188.001 80.5463 196.814 74.1462 190.801 66.6562C184.737 74.4352 188.001 80.5463 188.001 80.5463Z" stroke="black" stroke-width="0.5" stroke-linecap="round" stroke-linejoin="round"/>
<path d="M177.083 106.748C177.083 106.748 197.389 101.514 198.449 83.6079" stroke="#1A1A1A" stroke-width="0.5" stroke-linecap="round" stroke-linejoin="round"/>
<path d="M189.21 74.5791C189.21 74.5791 185.359 97.852 178.046 103.062" stroke="#1A1A1A" stroke-width="0.5" stroke-linecap="round" stroke-linejoin="round"/>
<path d="M200.18 104.552C199.989 105.026 190.942 109.504 179.297 107.743" stroke="#1A1A1A" stroke-width="0.5" stroke-linecap="round" stroke-linejoin="round"/>
<path d="M58.238 41.0759C58.238 41.0759 45.0291 46.8129 38.0961 45.8539C31.1631 44.8949 27.9551 41.7129 27.9551 41.7129L28.6761 36.3608C28.6761 36.3608 36.296 41.5219 43.353 40.8849C47.5238 40.5231 51.6371 39.6688 55.6071 38.3398C56.2432 38.5322 56.8193 38.8848 57.2798 39.364C57.7404 39.8431 58.071 40.4326 58.238 41.0759Z" fill="url(#paint14_linear_2_4744)" stroke="#707070" stroke-width="0.5"/>
<path d="M58.238 41.0759C58.238 41.0759 45.0291 46.8129 38.0961 45.8539C31.1631 44.8949 27.9551 41.7129 27.9551 41.7129L28.6761 36.3608C28.6761 36.3608 36.296 41.5219 43.353 40.8849C47.5238 40.5231 51.6371 39.6688 55.6071 38.3398C56.2434 38.532 56.8196 38.8846 57.2804 39.3638C57.7411 39.8429 58.0709 40.4325 58.238 41.0759Z" stroke="black" stroke-width="0.5" stroke-linecap="round" stroke-linejoin="round"/>
<path d="M27.6241 117.14C27.5625 117.46 27.4752 117.775 27.3631 118.081L16.3721 113.212L16.7241 112.273L27.6241 117.14Z" fill="#FF8888" stroke="#707070" stroke-width="0.5"/>
<path d="M27.6241 117.14C27.5625 117.46 27.4752 117.775 27.3631 118.081L16.3721 113.212L16.7241 112.273L27.6241 117.14Z" stroke="#1A1A1A" stroke-width="0.5" stroke-linecap="round" stroke-linejoin="round"/>
<path d="M18.3191 108.019L19.0341 106.114L22.2811 107.475L21.9131 108.845C20.6634 108.89 19.4239 108.605 18.3191 108.019Z" fill="#FF8888" stroke="#707070" stroke-width="0.5"/>
<path d="M18.3191 108.019L19.0341 106.114L22.2811 107.475L21.9131 108.845C20.6634 108.89 19.4239 108.605 18.3191 108.019Z" stroke="#1A1A1A" stroke-width="0.5" stroke-linecap="round" stroke-linejoin="round"/>
<path d="M18.319 108.019C19.4236 108.605 20.6632 108.89 21.913 108.845L21.776 109.358C21.776 109.358 21.676 109.445 25.376 111.588C26.309 112.138 27.0346 112.98 27.4403 113.984C27.846 114.988 27.9092 116.098 27.62 117.141L16.72 112.272L18.319 108.019Z" fill="white" stroke="#707070" stroke-width="0.5"/>
<path d="M18.319 108.019C19.4236 108.605 20.6632 108.89 21.913 108.845L21.776 109.358C21.776 109.358 21.676 109.445 25.376 111.588C26.309 112.138 27.0346 112.98 27.4403 113.984C27.846 114.988 27.9092 116.098 27.62 117.141L16.72 112.272L18.319 108.019Z" stroke="#1A1A1A" stroke-width="0.5" stroke-linecap="round" stroke-linejoin="round"/>
<path d="M35.88 112.247L35.801 110.455H39.326L39.538 111.949C38.325 112.115 37.1039 112.215 35.88 112.249" fill="#FF8888"/>
<path d="M35.88 112.247L35.801 110.455H39.326L39.538 111.949C38.325 112.115 37.1039 112.215 35.88 112.249" stroke="#707070" stroke-width="0.5"/>
<path d="M35.88 112.247L35.801 110.455H39.326L39.538 111.949C38.3249 112.114 37.1038 112.214 35.88 112.247Z" stroke="#1A1A1A" stroke-width="0.5" stroke-linecap="round" stroke-linejoin="round"/>
<path d="M39.538 111.95L39.6 112.386C39.6 112.386 39.5391 112.506 43.7941 113.049C44.8796 113.198 45.8856 113.701 46.6558 114.481C47.4261 115.26 47.9176 116.272 48.054 117.359L36.0831 116.846L35.8831 112.246C37.1069 112.212 38.328 112.112 39.541 111.946" fill="white"/>
<path d="M39.538 111.95L39.6 112.386C39.6 112.386 39.5391 112.506 43.7941 113.049C44.8796 113.198 45.8856 113.701 46.6558 114.481C47.4261 115.26 47.9176 116.272 48.054 117.359L36.0831 116.846L35.8831 112.246C37.1069 112.212 38.328 112.112 39.541 111.946" stroke="#707070" stroke-width="0.5"/>
<path d="M39.538 111.95L39.6 112.386C39.6 112.386 39.5391 112.506 43.7941 113.049C44.8796 113.198 45.8856 113.702 46.6558 114.481C47.4261 115.26 47.9176 116.272 48.054 117.359L36.0831 116.846L35.8831 112.246C37.1059 112.214 38.326 112.115 39.538 111.95Z" stroke="#1A1A1A" stroke-width="0.5" stroke-linecap="round" stroke-linejoin="round"/>
<path d="M48.189 117.358C48.2509 117.656 48.2901 117.959 48.306 118.263L36.271 118.022L36.219 116.845L48.189 117.358Z" fill="#FF8888" stroke="#707070" stroke-width="0.5"/>
<path d="M48.189 117.358C48.2509 117.656 48.2901 117.959 48.306 118.263L36.271 118.022L36.219 116.845L48.189 117.358Z" stroke="#1A1A1A" stroke-width="0.5" stroke-linecap="round" stroke-linejoin="round"/>
<path d="M31.596 71.5012C31.596 80.9012 23.086 108.235 23.086 108.235L18.386 106.868C18.386 106.868 21.466 82.3523 20.169 72.4683C19.3523 66.7612 19.7961 60.9444 21.469 55.4272L33.894 55.9093" fill="white"/>
<path d="M31.596 71.5012C31.596 80.9012 23.086 108.235 23.086 108.235L18.386 106.868C18.386 106.868 21.466 82.3523 20.169 72.4683C19.3523 66.7612 19.7961 60.9444 21.469 55.4272L33.894 55.9093" stroke="#707070" stroke-width="0.5"/>
<path d="M31.596 71.5012C31.596 80.9012 23.086 108.235 23.086 108.235L18.386 106.868C18.386 106.868 21.466 82.3523 20.169 72.4683C19.3523 66.7612 19.7961 60.9444 21.469 55.4272L33.894 55.9093" stroke="#1A1A1A" stroke-width="0.5" stroke-linecap="round" stroke-linejoin="round"/>
<path d="M25.068 61.2491C25.068 61.2491 24.935 66.8493 30.056 77.2083C34.464 86.1253 34.95 111.12 34.95 111.12H40.542C40.542 111.12 41.9689 60.4892 38.7269 55.9072" fill="white"/>
<path d="M25.068 61.2491C25.068 61.2491 24.935 66.8493 30.056 77.2083C34.464 86.1253 34.95 111.12 34.95 111.12H40.542C40.542 111.12 41.9689 60.4892 38.7269 55.9072" stroke="#707070" stroke-width="0.5"/>
<path d="M25.068 61.2491C25.068 61.2491 24.935 66.8493 30.056 77.2083C34.464 86.1253 34.95 111.12 34.95 111.12H40.542C40.542 111.12 41.9689 60.4892 38.7269 55.9072" stroke="#1A1A1A" stroke-width="0.5" stroke-linecap="round" stroke-linejoin="round"/>
<path d="M39.837 56.3799L39.594 58.7179C39.594 58.7179 21.962 61.4328 20.302 59.1178L21.08 56.7339L39.837 56.3799Z" fill="#FF8888" stroke="#707070" stroke-width="0.5"/>
<path d="M39.837 56.3799L39.594 58.7179C39.594 58.7179 21.962 61.4328 20.302 59.1178L21.08 56.7339L39.837 56.3799Z" stroke="#1A1A1A" stroke-width="0.5" stroke-linecap="round" stroke-linejoin="round"/>
<path d="M145.945 37.959H98.8521V42.095H145.945V37.959Z" fill="#FF8888" stroke="#707070" stroke-width="0.5"/>
<path d="M145.945 37.959H98.8521V42.095H145.945V37.959Z" stroke="#1A1A1A" stroke-width="0.5" stroke-linecap="round" stroke-linejoin="round"/>
<path d="M96.6379 15.9421C97.7693 17.6184 98.5227 19.5207 98.8459 21.5171L120.596 31.3091L146.296 19.1091C146.571 17.7733 146.99 16.471 147.545 15.2251L96.6379 15.9421Z" fill="#FF8888" stroke="#707070" stroke-width="0.5"/>
<path d="M96.6379 15.9421C97.7693 17.6184 98.5227 19.5207 98.8459 21.5171L120.596 31.3091L146.296 19.1091C146.571 17.7733 146.99 16.471 147.545 15.2251L96.6379 15.9421Z" stroke="#1A1A1A" stroke-width="0.5" stroke-linecap="round" stroke-linejoin="round"/>
<path d="M147.549 39.0413C145.716 31.1363 145.182 24.3863 146.3 19.1113L120.6 31.3113L98.8501 21.5193C99.7221 26.4263 98.6631 32.4553 96.6421 39.0433L147.549 39.0413Z" fill="white" stroke="#707070" stroke-width="0.5"/>
<path d="M147.549 39.0413C145.716 31.1363 145.182 24.3863 146.3 19.1113L120.6 31.3113L98.8501 21.5193C99.7221 26.4263 98.6631 32.4553 96.6421 39.0433L147.549 39.0413Z" stroke="#1A1A1A" stroke-width="0.5" stroke-linecap="round" stroke-linejoin="round"/>
<path d="M204.943 118.263H1.06299" stroke="#1A1A1A" stroke-width="0.5" stroke-linecap="round" stroke-linejoin="round"/>
<path d="M158.329 12.8879L120.599 28.6369V1.81592L158.329 12.8879Z" fill="white" stroke="#707070" stroke-width="0.5"/>
<path d="M158.329 12.8879L120.599 28.6369V1.81592L158.329 12.8879Z" stroke="#1A1A1A" stroke-width="0.5" stroke-linecap="round" stroke-linejoin="round"/>
<path d="M82.8711 12.8879L120.602 28.6369V1.81592L82.8711 12.8879Z" fill="white" stroke="#707070" stroke-width="0.5"/>
<path d="M82.8711 12.8879L120.602 28.6369V1.81592L82.8711 12.8879Z" stroke="#1A1A1A" stroke-width="0.5" stroke-linecap="round" stroke-linejoin="round"/>
<path d="M120.597 11.2659C120.597 11.2659 93.7839 15.4489 92.5649 16.9369C91.3459 18.4249 90.672 36.3199 90.672 36.3199H88.748C88.748 36.3199 89.5969 18.0819 91.1479 16.3439C92.6989 14.6059 120.6 10.0249 120.6 10.0249C120.6 10.0249 121.968 11.0489 120.6 11.2659" fill="#FF8888"/>
<path d="M120.597 11.2659C120.597 11.2659 93.7839 15.4489 92.5649 16.9369C91.3459 18.4249 90.672 36.3199 90.672 36.3199H88.748C88.748 36.3199 89.5969 18.0819 91.1479 16.3439C92.6989 14.6059 120.6 10.0249 120.6 10.0249C120.6 10.0249 121.968 11.0489 120.6 11.2659" stroke="#707070" stroke-width="0.5"/>
<path d="M120.597 11.2659C120.597 11.2659 93.7839 15.4489 92.5649 16.9369C91.3459 18.4249 90.672 36.3199 90.672 36.3199H88.748C88.748 36.3199 89.5969 18.0819 91.1479 16.3439C92.6989 14.6059 120.6 10.0249 120.6 10.0249C120.6 10.0249 121.965 11.0489 120.597 11.2659Z" stroke="#1A1A1A" stroke-width="0.5" stroke-linecap="round" stroke-linejoin="round"/>
<path d="M62.363 29.8763L65.6631 24.1152L66.1101 29.6072L69.3031 27.8392C69.3031 27.8392 64.8501 34.5493 64.3151 34.7733C63.7801 34.9973 62.3661 29.8733 62.3661 29.8733" fill="#FF8888"/>
<path d="M62.363 29.8763L65.6631 24.1152L66.1101 29.6072L69.3031 27.8392C69.3031 27.8392 64.8501 34.5493 64.3151 34.7733C63.7801 34.9973 62.3661 29.8733 62.3661 29.8733" stroke="#707070" stroke-width="0.5"/>
<path d="M62.363 29.8763L65.6631 24.1152L66.1101 29.6072L69.3031 27.8392C69.3031 27.8392 64.8501 34.5493 64.3151 34.7733C63.7801 34.9973 62.363 29.8763 62.363 29.8763Z" stroke="#1A1A1A" stroke-width="0.5" stroke-linecap="round" stroke-linejoin="round"/>
<path d="M81.402 61.0921C68.1605 42.2722 56.8434 22.1696 47.621 1.08709C41.028 0.443093 36.2761 2.62709 34.0081 8.62409C48.5367 26.6007 59.9535 46.8826 67.785 68.6291C74.227 69.4981 78.5851 66.6671 81.3981 61.0921" fill="white"/>
<path d="M81.402 61.0921C68.1605 42.2722 56.8434 22.1696 47.621 1.08709C41.028 0.443093 36.2761 2.62709 34.0081 8.62409C48.5367 26.6007 59.9535 46.8826 67.785 68.6291C74.227 69.4981 78.5851 66.6671 81.3981 61.0921" stroke="#707070" stroke-width="0.5"/>
<path d="M81.402 61.0921C68.1605 42.2722 56.8434 22.1696 47.621 1.08709C41.028 0.443093 36.2761 2.62709 34.0081 8.62409C48.5367 26.6007 59.9535 46.8826 67.785 68.6291C74.231 69.4991 78.589 66.6681 81.402 61.0921Z" stroke="#1A1A1A" stroke-width="0.5" stroke-linecap="round" stroke-linejoin="round"/>
<path d="M50.3289 33.696C50.3289 33.696 61.547 30.91 62.364 28.708C66.5 36.839 66.2319 36.623 66.2319 36.623C66.2319 36.623 57.212 44.095 55.325 41.788C53.8452 38.9793 52.1746 36.2753 50.325 33.695" fill="white"/>
<path d="M50.3289 33.696C50.3289 33.696 61.547 30.91 62.364 28.708C66.5 36.839 66.2319 36.623 66.2319 36.623C66.2319 36.623 57.212 44.095 55.325 41.788C53.8452 38.9793 52.1746 36.2753 50.325 33.695" stroke="#707070" stroke-width="0.5"/>
<path d="M50.3291 33.696C50.3291 33.696 61.5471 30.91 62.3641 28.708C66.5001 36.839 66.2321 36.623 66.2321 36.623C66.2321 36.623 57.2121 44.095 55.3251 41.788C53.8466 38.9797 52.1773 36.276 50.3291 33.696Z" stroke="#1A1A1A" stroke-width="0.5" stroke-linecap="round" stroke-linejoin="round"/>
<path d="M37.511 5.53898C37.511 5.53898 34.8111 7.69098 35.6111 8.72298C36.4111 9.75498 48.665 5.08398 47.188 2.78698C45.711 0.489983 39.8401 2.99298 39.8401 2.99298" stroke="#1A1A1A" stroke-width="0.5" stroke-linecap="round" stroke-linejoin="round"/>
<path d="M90.2339 34.6018C90.964 36.3154 91.3249 38.1635 91.293 40.0259L87.636 40.0419C87.636 40.0419 88.3579 35.8419 89.1759 34.6009C89.9939 33.3599 90.235 34.6009 90.235 34.6009" fill="#FF8888"/>
<path d="M90.2339 34.6018C90.964 36.3154 91.3249 38.1635 91.293 40.0259L87.636 40.0419C87.636 40.0419 88.3579 35.8419 89.1759 34.6009C89.9939 33.3599 90.235 34.6009 90.235 34.6009" stroke="#707070" stroke-width="0.5"/>
<path d="M90.2339 34.6021C90.964 36.3156 91.3249 38.1638 91.293 40.0261L87.636 40.0421C87.636 40.0421 88.3579 35.8421 89.1759 34.6011C89.9939 33.3601 90.2339 34.6021 90.2339 34.6021Z" stroke="#1A1A1A" stroke-width="0.5" stroke-linecap="round" stroke-linejoin="round"/>
<path d="M31.14 32.2461L30.897 27.9051C30.897 27.9051 33.653 26.5791 32.356 24.9311C31.059 23.2831 25.872 19.8311 25.872 19.8311C25.872 19.8311 22.225 22.6841 22.672 25.0161C23.119 27.3481 26.4 27.9901 26.522 29.1161C26.644 30.2421 26.322 35.506 26.322 35.506L31.14 32.2461Z" fill="white" stroke="#707070" stroke-width="0.5"/>
<path d="M31.14 32.2461L30.897 27.9051C30.897 27.9051 33.653 26.5791 32.356 24.9311C31.059 23.2831 25.872 19.8311 25.872 19.8311C25.872 19.8311 22.225 22.6841 22.672 25.0161C23.119 27.3481 26.4 27.9901 26.522 29.1161C26.644 30.2421 26.322 35.506 26.322 35.506L31.14 32.2461Z" stroke="#1A1A1A" stroke-width="0.5" stroke-linecap="round" stroke-linejoin="round"/>
<path d="M39.7611 56.794C39.7611 56.794 22.117 60.841 20.706 58.245C19.359 47.886 21.5901 37.123 24.4111 34.634C26.7643 32.7479 29.3069 31.1111 31.9981 29.75C31.9981 29.75 41.2371 50.303 39.7611 56.794Z" fill="url(#paint15_linear_2_4744)" stroke="#707070" stroke-width="0.5"/>
<path d="M39.7611 56.794C39.7611 56.794 22.117 60.841 20.706 58.245C19.359 47.886 21.5901 37.123 24.4111 34.634C26.7643 32.7479 29.3069 31.1111 31.9981 29.75C31.9981 29.75 41.2371 50.303 39.7611 56.794Z" stroke="black" stroke-width="0.5" stroke-linecap="round" stroke-linejoin="round"/>
<path d="M51.3569 17.1672C51.3569 17.1672 54.1719 13.8262 55.0139 13.7552C55.8559 13.6842 57.7569 18.2412 56.8419 18.6232C55.9159 18.8386 54.9528 18.8386 54.0269 18.6232C53.4315 18.6604 52.8539 18.8405 52.3429 19.1482C52.3429 19.1482 51.2839 18.0482 51.3569 17.1672Z" fill="white" stroke="#707070" stroke-width="0.5"/>
<path d="M51.357 17.1672C51.357 17.1672 54.172 13.8262 55.014 13.7552C55.856 13.6842 57.757 18.2412 56.842 18.6232C55.916 18.8386 54.953 18.8386 54.027 18.6232C53.4317 18.6604 52.8541 18.8405 52.3431 19.1482C52.3431 19.1482 51.285 18.0502 51.357 17.1672Z" stroke="#1A1A1A" stroke-width="0.5" stroke-linecap="round" stroke-linejoin="round"/>
<path d="M31.9991 29.7499L30.9621 29.043L26.5101 31.658L25.0691 34.8809C25.0691 34.8809 32.0721 31.1499 31.9991 29.7499Z" stroke="#1A1A1A" stroke-width="0.5" stroke-linecap="round" stroke-linejoin="round"/>
<path d="M33.1679 37.6882C36.3919 37.5882 49.2879 23.5142 53.0889 19.1232C53.0889 19.1232 52.2999 15.8472 51.3389 16.7842C46.6889 21.3182 32.9269 27.0242 24.3279 34.7082" fill="url(#paint16_linear_2_4744)"/>
<path d="M33.1679 37.6882C36.3919 37.5882 49.2879 23.5142 53.0889 19.1232C53.0889 19.1232 52.2999 15.8472 51.3389 16.7842C46.6889 21.3182 32.9269 27.0242 24.3279 34.7082" stroke="#707070" stroke-width="0.5"/>
<path d="M33.1679 37.6882C36.3919 37.5882 49.2879 23.5142 53.0889 19.1232C53.0889 19.1232 52.2999 15.8472 51.3389 16.7842C46.6889 21.3182 32.2389 27.6152 23.6389 35.2992" fill="url(#paint17_linear_2_4744)"/>
<path d="M33.1679 37.6882C36.3919 37.5882 49.2879 23.5142 53.0889 19.1232C53.0889 19.1232 52.2999 15.8472 51.3389 16.7842C46.6889 21.3182 32.2389 27.6152 23.6389 35.2992" stroke="black" stroke-width="0.5" stroke-linecap="round" stroke-linejoin="round"/>
<path d="M28.068 18.8359C28.068 18.8359 25.494 22.7969 26.649 24.2999C27.804 25.8029 28.449 26.0419 28.449 26.0419L27.398 26.8288L26.163 25.3288C26.163 25.3288 25.463 27.6198 26.524 28.1208C27.585 28.6218 26.5 33.4419 23.372 31.6529C21.135 32.3929 18.296 30.7458 19.956 28.5268C17.887 28.3838 17.718 25.5198 20.726 24.4268C18.681 22.3028 20.293 20.7999 22.506 21.4439C21.159 18.3899 23.522 17.8549 24.695 18.8439C25.295 17.1499 28.472 16.8159 28.063 18.8439" fill="#FF8888"/>
<path d="M28.068 18.8359C28.068 18.8359 25.494 22.7969 26.649 24.2999C27.804 25.8029 28.449 26.0419 28.449 26.0419L27.398 26.8288L26.163 25.3288C26.163 25.3288 25.463 27.6198 26.524 28.1208C27.585 28.6218 26.5 33.4419 23.372 31.6529C21.135 32.3929 18.296 30.7458 19.956 28.5268C17.887 28.3838 17.718 25.5198 20.726 24.4268C18.681 22.3028 20.293 20.7999 22.506 21.4439C21.159 18.3899 23.522 17.8549 24.695 18.8439C25.295 17.1499 28.472 16.8159 28.063 18.8439" stroke="#707070" stroke-width="0.5"/>
<path d="M28.068 18.8359C28.068 18.8359 25.494 22.7969 26.649 24.2999C27.804 25.8029 28.449 26.0419 28.449 26.0419L27.398 26.8289L26.163 25.3289C26.163 25.3289 25.463 27.6199 26.524 28.1209C27.585 28.6219 26.5 33.4419 23.372 31.6529C21.135 32.3929 18.296 30.7459 19.956 28.5269C17.887 28.3839 17.718 25.5199 20.726 24.4269C18.681 22.3029 20.293 20.7999 22.506 21.4439C21.159 18.3899 23.522 17.8549 24.695 18.8439C25.301 17.1429 28.477 16.8089 28.068 18.8359Z" stroke="#1A1A1A" stroke-width="0.5" stroke-linecap="round" stroke-linejoin="round"/>
<path d="M37.345 62.0278C37.345 62.0278 34.914 65.0829 34.012 65.3689" stroke="#1A1A1A" stroke-width="0.5" stroke-linecap="round" stroke-linejoin="round"/>
<path d="M182.782 110.266L181.182 113.748C181.182 113.748 155.233 109.749 148.417 117.974L147.565 114.774C147.565 114.774 146.945 110.752 152.445 108.447C157.945 106.142 182.782 110.266 182.782 110.266Z" fill="#FF8888" stroke="#707070" stroke-width="0.5"/>
<path d="M182.782 110.266L181.182 113.748C181.182 113.748 155.233 109.749 148.417 117.974L147.565 114.774C147.565 114.774 146.945 110.752 152.445 108.447C157.945 106.142 182.782 110.266 182.782 110.266Z" stroke="#1A1A1A" stroke-width="0.5" stroke-linecap="round" stroke-linejoin="round"/>
<path d="M111.106 113.745L112.243 116.818C112.243 116.818 135.743 108.571 148.416 117.97L147.002 112.501C147.002 112.501 134.137 102.375 111.102 113.745" fill="#FF8888"/>
<path d="M111.106 113.745L112.243 116.818C112.243 116.818 135.743 108.571 148.416 117.97L147.002 112.501C147.002 112.501 134.137 102.375 111.102 113.745" stroke="#707070" stroke-width="0.5"/>
<path d="M111.106 113.745L112.243 116.818C112.243 116.818 135.743 108.571 148.416 117.97L147.002 112.501C147.002 112.501 134.138 102.375 111.106 113.745Z" stroke="#1A1A1A" stroke-width="0.5" stroke-linecap="round" stroke-linejoin="round"/>
<path d="M172.765 73.0793C172.765 73.0793 143.744 66.0113 138.787 77.9963C146.636 113.335 147.565 114.769 147.565 114.769C147.565 114.769 150.044 111.184 159.131 109.34C168.218 107.496 182.782 110.262 182.782 110.262L172.765 73.0793Z" fill="white" stroke="#707070" stroke-width="0.5"/>
<path d="M172.765 73.0793C172.765 73.0793 143.744 66.0113 138.787 77.9963C146.636 113.335 147.565 114.769 147.565 114.769C147.565 114.769 150.044 111.184 159.131 109.34C168.218 107.496 182.782 110.262 182.782 110.262L172.765 73.0793Z" stroke="#1A1A1A" stroke-width="0.5" stroke-linecap="round" stroke-linejoin="round"/>
<path d="M102.534 76.8692C102.534 76.8692 133.519 69.8011 138.785 77.9951C142.376 93.9241 147.565 114.769 147.565 114.769C147.565 114.769 143.743 109.544 134.551 109.954C125.359 110.364 111.107 113.745 111.107 113.745L102.534 76.8692Z" fill="white" stroke="#707070" stroke-width="0.5"/>
<path d="M102.534 76.8692C102.534 76.8692 133.519 69.8011 138.785 77.9951C142.376 93.9241 147.565 114.769 147.565 114.769C147.565 114.769 143.743 109.544 134.551 109.954C125.359 110.364 111.107 113.745 111.107 113.745L102.534 76.8692Z" stroke="#1A1A1A" stroke-width="0.5" stroke-linecap="round" stroke-linejoin="round"/>
<path d="M147.564 108.346C147.462 107.882 147.201 107.469 146.826 107.178C146.451 106.886 145.985 106.736 145.51 106.753C145.038 106.805 144.6 107.022 144.274 107.367C143.948 107.711 143.754 108.161 143.729 108.634" stroke="#1A1A1A" stroke-width="0.5" stroke-linecap="round" stroke-linejoin="round"/>
<path d="M146.651 103.723C146.55 103.259 146.289 102.845 145.914 102.554C145.539 102.263 145.074 102.112 144.599 102.129C144.127 102.181 143.689 102.398 143.362 102.743C143.036 103.088 142.843 103.538 142.818 104.012" stroke="#1A1A1A" stroke-width="0.5" stroke-linecap="round" stroke-linejoin="round"/>
<path d="M145.741 99.09C145.64 98.6254 145.379 98.211 145.004 97.9194C144.628 97.6279 144.162 97.4776 143.687 97.495C143.215 97.5463 142.776 97.7639 142.45 98.1089C142.124 98.4539 141.931 98.9037 141.906 99.3779" stroke="#1A1A1A" stroke-width="0.5" stroke-linecap="round" stroke-linejoin="round"/>
<path d="M144.495 94.4879C144.394 94.0237 144.133 93.6098 143.758 93.3185C143.383 93.0271 142.918 92.8767 142.443 92.8939C141.971 92.9452 141.533 93.1628 141.206 93.5075C140.88 93.8523 140.687 94.302 140.662 94.776" stroke="#1A1A1A" stroke-width="0.5" stroke-linecap="round" stroke-linejoin="round"/>
<path d="M143.244 89.8443C143.143 89.3801 142.882 88.966 142.507 88.6747C142.132 88.3833 141.666 88.2332 141.191 88.2504C140.719 88.3017 140.281 88.5191 139.955 88.8639C139.628 89.2087 139.435 89.6583 139.41 90.1323" stroke="#1A1A1A" stroke-width="0.5" stroke-linecap="round" stroke-linejoin="round"/>
<path d="M142.319 85.2081C142.218 84.7439 141.957 84.3299 141.582 84.0386C141.207 83.7472 140.741 83.5969 140.266 83.6141C139.794 83.6652 139.356 83.8826 139.029 84.2274C138.703 84.5722 138.509 85.0219 138.484 85.4961" stroke="#1A1A1A" stroke-width="0.5" stroke-linecap="round" stroke-linejoin="round"/>
<path d="M141.198 80.5709C141.097 80.1067 140.837 79.6927 140.461 79.4013C140.086 79.11 139.621 78.9598 139.146 78.9769C138.674 79.0282 138.235 79.2458 137.909 79.5908C137.583 79.9358 137.39 80.3856 137.365 80.8598" stroke="#1A1A1A" stroke-width="0.5" stroke-linecap="round" stroke-linejoin="round"/>
<path d="M129.762 79.9161C129.762 79.9161 118.026 77.8561 107.439 81.4161" stroke="#1A1A1A" stroke-width="0.5" stroke-linecap="round" stroke-linejoin="round"/>
<path d="M132.368 86.7414C132.368 86.7414 120.631 84.6824 110.045 88.2414" stroke="#1A1A1A" stroke-width="0.5" stroke-linecap="round" stroke-linejoin="round"/>
<path d="M133.257 93.376C133.257 93.376 121.519 91.316 110.933 94.876" stroke="#1A1A1A" stroke-width="0.5" stroke-linecap="round" stroke-linejoin="round"/>
<path d="M135.104 98.965C135.104 98.965 123.366 96.906 112.781 100.465" stroke="#1A1A1A" stroke-width="0.5" stroke-linecap="round" stroke-linejoin="round"/>
<path d="M136.438 105.538C136.438 105.538 124.702 103.478 114.115 107.038" stroke="#1A1A1A" stroke-width="0.5" stroke-linecap="round" stroke-linejoin="round"/>
<path d="M169.576 76.6783L171.791 85.4954C167.447 84.4954 163.522 84.2394 160.434 85.4954L158.221 75.8193C162.011 75.0192 165.95 75.3172 169.576 76.6783Z" fill="url(#paint18_linear_2_4744)" stroke="#707070" stroke-width="0.5"/>
<path d="M169.576 76.6783L171.791 85.4954C167.447 84.4954 163.522 84.2394 160.434 85.4954L158.221 75.8193C162.011 75.0192 165.95 75.3172 169.576 76.6783Z" stroke="black" stroke-width="0.5" stroke-linecap="round" stroke-linejoin="round"/>
<path d="M153.746 76.1541C153.746 76.1541 147.686 75.9752 144.628 79.2142" stroke="#1A1A1A" stroke-width="0.5" stroke-linecap="round" stroke-linejoin="round"/>
<path d="M154.857 80.5481C154.857 80.5481 148.796 80.37 145.739 83.609" stroke="#1A1A1A" stroke-width="0.5" stroke-linecap="round" stroke-linejoin="round"/>
<path d="M172.704 89.5731C172.704 89.5731 156.463 87.1791 148.416 92.4731" stroke="#1A1A1A" stroke-width="0.5" stroke-linecap="round" stroke-linejoin="round"/>
<path d="M173.474 95.6113C173.474 95.6113 157.234 93.2172 149.186 98.5112" stroke="#1A1A1A" stroke-width="0.5" stroke-linecap="round" stroke-linejoin="round"/>
<path d="M174.245 101.65C174.245 101.65 158.003 99.2562 149.956 104.55" stroke="#1A1A1A" stroke-width="0.5" stroke-linecap="round" stroke-linejoin="round"/>
<path d="M23.1159 109.606C23.1159 109.606 21.2529 111.163 21.9979 111.606C22.7429 112.049 23.6769 109.754 24.0869 109.939C24.4969 110.124 23.8629 111.884 24.0869 111.95C24.3109 112.016 25.8799 110.779 25.8799 110.779" stroke="#1A1A1A" stroke-width="0.5" stroke-linecap="round" stroke-linejoin="round"/>
<path d="M41.6031 111.95C41.6031 111.95 40.332 114.127 40.855 114.275C41.378 114.423 42.387 112.075 42.872 112.249C43.357 112.423 42.797 114.104 43.208 114.282C43.619 114.46 44.03 112.534 44.408 112.756C44.786 112.978 44.744 114.295 44.744 114.295" stroke="#1A1A1A" stroke-width="0.5" stroke-linecap="round" stroke-linejoin="round"/>
<defs>
<linearGradient id="paint0_linear_2_4744" x1="135.798" y1="102.999" x2="135.798" y2="118.263" gradientUnits="userSpaceOnUse">
<stop stop-color="#A8FED9"/>
<stop offset="1" stop-color="#00F1FF"/>
</linearGradient>
<linearGradient id="paint1_linear_2_4744" x1="51.1075" y1="103" x2="51.1075" y2="118.263" gradientUnits="userSpaceOnUse">
<stop stop-color="#A8FED9"/>
<stop offset="1" stop-color="#00F1FF"/>
</linearGradient>
<linearGradient id="paint2_linear_2_4744" x1="190.299" y1="108.01" x2="190.299" y2="111.648" gradientUnits="userSpaceOnUse">
<stop stop-color="#A8FED9"/>
<stop offset="1" stop-color="#00F1FF"/>
</linearGradient>
<linearGradient id="paint3_linear_2_4744" x1="197.312" y1="103.049" x2="197.312" y2="108.197" gradientUnits="userSpaceOnUse">
<stop stop-color="#A8FED9"/>
<stop offset="1" stop-color="#00F1FF"/>
</linearGradient>
<linearGradient id="paint4_linear_2_4744" x1="192.519" y1="100.574" x2="192.519" y2="102.921" gradientUnits="userSpaceOnUse">
<stop stop-color="#A8FED9"/>
<stop offset="1" stop-color="#00F1FF"/>
</linearGradient>
<linearGradient id="paint5_linear_2_4744" x1="190.041" y1="93.2983" x2="190.041" y2="97.4233" gradientUnits="userSpaceOnUse">
<stop stop-color="#A8FED9"/>
<stop offset="1" stop-color="#00F1FF"/>
</linearGradient>
<linearGradient id="paint6_linear_2_4744" x1="197.447" y1="95.4233" x2="197.447" y2="98.7725" gradientUnits="userSpaceOnUse">
<stop stop-color="#A8FED9"/>
<stop offset="1" stop-color="#00F1FF"/>
</linearGradient>
<linearGradient id="paint7_linear_2_4744" x1="200.207" y1="90.2793" x2="200.207" y2="93.2975" gradientUnits="userSpaceOnUse">
<stop stop-color="#A8FED9"/>
<stop offset="1" stop-color="#00F1FF"/>
</linearGradient>
<linearGradient id="paint8_linear_2_4744" x1="188.895" y1="88.561" x2="188.895" y2="92.2773" gradientUnits="userSpaceOnUse">
<stop stop-color="#A8FED9"/>
<stop offset="1" stop-color="#00F1FF"/>
</linearGradient>
<linearGradient id="paint9_linear_2_4744" x1="181.755" y1="84.5532" x2="181.755" y2="91.4802" gradientUnits="userSpaceOnUse">
<stop stop-color="#A8FED9"/>
<stop offset="1" stop-color="#00F1FF"/>
</linearGradient>
<linearGradient id="paint10_linear_2_4744" x1="190.403" y1="80.8779" x2="190.403" y2="85.855" gradientUnits="userSpaceOnUse">
<stop stop-color="#A8FED9"/>
<stop offset="1" stop-color="#00F1FF"/>
</linearGradient>
<linearGradient id="paint11_linear_2_4744" x1="184.129" y1="76.6792" x2="184.129" y2="85.7422" gradientUnits="userSpaceOnUse">
<stop stop-color="#A8FED9"/>
<stop offset="1" stop-color="#00F1FF"/>
</linearGradient>
<linearGradient id="paint12_linear_2_4744" x1="198.627" y1="77.687" x2="198.627" y2="87.887" gradientUnits="userSpaceOnUse">
<stop stop-color="#A8FED9"/>
<stop offset="1" stop-color="#00F1FF"/>
</linearGradient>
<linearGradient id="paint13_linear_2_4744" x1="190.012" y1="66.6562" x2="190.012" y2="80.5463" gradientUnits="userSpaceOnUse">
<stop stop-color="#A8FED9"/>
<stop offset="1" stop-color="#00F1FF"/>
</linearGradient>
<linearGradient id="paint14_linear_2_4744" x1="43.0966" y1="36.3608" x2="43.0966" y2="45.962" gradientUnits="userSpaceOnUse">
<stop stop-color="#A8FED9"/>
<stop offset="1" stop-color="#00F1FF"/>
</linearGradient>
<linearGradient id="paint15_linear_2_4744" x1="30.1119" y1="29.75" x2="30.1119" y2="59.1141" gradientUnits="userSpaceOnUse">
<stop stop-color="#A8FED9"/>
<stop offset="1" stop-color="#00F1FF"/>
</linearGradient>
<linearGradient id="paint16_linear_2_4744" x1="38.7084" y1="16.6157" x2="38.7084" y2="37.6882" gradientUnits="userSpaceOnUse">
<stop stop-color="#A8FED9"/>
<stop offset="1" stop-color="#00F1FF"/>
</linearGradient>
<linearGradient id="paint17_linear_2_4744" x1="38.3639" y1="16.6157" x2="38.3639" y2="37.6882" gradientUnits="userSpaceOnUse">
<stop stop-color="#A8FED9"/>
<stop offset="1" stop-color="#00F1FF"/>
</linearGradient>
<linearGradient id="paint18_linear_2_4744" x1="165.006" y1="75.3804" x2="165.006" y2="85.4954" gradientUnits="userSpaceOnUse">
<stop stop-color="#A8FED9"/>
<stop offset="1" stop-color="#00F1FF"/>
</linearGradient>
</defs>
</svg>
