<svg width="159" height="103" viewBox="0 0 159 103" fill="none" xmlns="http://www.w3.org/2000/svg">
<mask id="mask0_2_6490" style="mask-type:luminance" maskUnits="userSpaceOnUse" x="0" y="0" width="159" height="103">
<path d="M159 0.614258H0.584961V102.745H159V0.614258Z" fill="white"/>
</mask>
<g mask="url(#mask0_2_6490)">
<path d="M28.983 21.7725C28.983 21.7725 29.1141 21.9054 29.3651 22.1384" stroke="#1A1A1A" stroke-width="0.5" stroke-linecap="round" stroke-linejoin="round"/>
<path d="M30.157 22.8356C33.907 26.0226 46.157 34.7545 59.428 26.0765C75.385 15.6415 86.159 9.92353 104.065 18.5355C115.181 24.5065 106.906 7.20155 104.065 16.7026C101.333 25.8396 120.32 31.9026 125.947 25.2026" stroke="#1A1A1A" stroke-width="0.5" stroke-linecap="round" stroke-linejoin="round" stroke-dasharray="11.94 11.94"/>
<path d="M126.269 24.7873C126.37 24.644 126.466 24.4956 126.555 24.3423" stroke="#1A1A1A" stroke-width="0.5" stroke-linecap="round" stroke-linejoin="round"/>
<path d="M145.872 88.4485C145.872 88.4485 153.407 90.6326 155.732 84.1006C151.332 81.7186 143.769 88.4485 143.769 88.4485H145.872Z" fill="#1C0311" stroke="#707070" stroke-width="0.5"/>
<path d="M145.872 88.4485C145.872 88.4485 153.407 90.6326 155.732 84.1006C151.332 81.7186 143.769 88.4485 143.769 88.4485H145.872Z" stroke="#1A1A1A" stroke-width="0.5" stroke-linecap="round" stroke-linejoin="round"/>
<path d="M139.324 88.7285C139.324 88.7285 137.511 76.0605 143.117 71.5645C147.517 73.9055 145.328 80.7435 145.328 80.7435L142.028 89.3254L139.324 88.7285Z" fill="#1C0311" stroke="#707070" stroke-width="0.5"/>
<path d="M139.324 88.7285C139.324 88.7285 137.511 76.0605 143.117 71.5645C147.517 73.9055 145.328 80.7435 145.328 80.7435L142.028 89.3254L139.324 88.7285Z" stroke="#1A1A1A" stroke-width="0.5" stroke-linecap="round" stroke-linejoin="round"/>
<path d="M141.579 89.0394C141.579 89.0394 142.236 68.1065 158.96 71.0055C157.451 86.1055 141.579 89.0394 141.579 89.0394Z" fill="url(#paint0_linear_2_6490)" stroke="#707070" stroke-width="0.5"/>
<path d="M141.579 89.0394C141.579 89.0394 142.236 68.1065 158.96 71.0055C157.451 86.1015 141.579 89.0394 141.579 89.0394Z" stroke="black" stroke-width="0.5" stroke-linecap="round" stroke-linejoin="round"/>
<path d="M157.534 72.0605C157.534 72.0605 146.176 80.0246 143.116 88.4486" stroke="#1A1A1A" stroke-width="0.5" stroke-linecap="round" stroke-linejoin="round"/>
<path d="M148.992 91.2755C150.431 89.6125 147.874 87.5035 147.874 87.5035H82.025C81.4265 87.4492 80.8245 87.4431 80.225 87.4847H0.625C0.657228 88.7828 1.0371 90.0482 1.725 91.1495C4.35 95.6615 13.225 102.12 43.179 96.8766C55.758 107.236 84.57 101.912 88.436 95.3565C109.536 102.706 143.769 97.3105 148.992 91.2755Z" fill="white" stroke="#707070" stroke-width="0.5"/>
<path d="M148.992 91.2755C150.431 89.6125 147.874 87.5035 147.874 87.5035H82.025C81.4265 87.4492 80.8245 87.4431 80.225 87.4847H0.625C0.657228 88.7828 1.0371 90.0482 1.725 91.1495C4.35 95.6615 13.225 102.12 43.179 96.8766C55.758 107.236 84.57 101.912 88.436 95.3565C109.536 102.706 143.769 97.3105 148.992 91.2755Z" stroke="#1A1A1A" stroke-width="0.5" stroke-linecap="round" stroke-linejoin="round"/>
<path d="M132.63 55.2094L131.492 58.6094H123.669L122.355 55.7094L126.924 52.8613L132.63 55.2094Z" fill="#FF8888" stroke="#707070" stroke-width="0.5"/>
<path d="M132.63 55.2094L131.492 58.6094H123.669L122.355 55.7094L126.924 52.8613L132.63 55.2094Z" stroke="#1A1A1A" stroke-width="0.5" stroke-linecap="round" stroke-linejoin="round"/>
<path d="M140.629 65.0024V81.9354H129.18V70.7794L123.671 58.6115H131.494L132.632 55.2114L134.617 56.0284C136.397 56.7595 137.919 58.0033 138.99 59.6016C140.06 61.1999 140.632 63.0806 140.631 65.0045" fill="white"/>
<path d="M140.629 65.0024V81.9354H129.18V70.7794L123.671 58.6115H131.494L132.632 55.2114L134.617 56.0284C136.397 56.7595 137.919 58.0033 138.99 59.6016C140.06 61.1999 140.632 63.0806 140.631 65.0045" stroke="#707070" stroke-width="0.5"/>
<path d="M140.629 65.0024V81.9354H129.18V70.7794L123.671 58.6115H131.494L132.632 55.2114L134.617 56.0284C136.396 56.7597 137.917 58.0033 138.988 59.6012C140.058 61.1991 140.63 63.0791 140.629 65.0024Z" stroke="#1A1A1A" stroke-width="0.5" stroke-linecap="round" stroke-linejoin="round"/>
<path d="M130.365 51.7354H105.268V57.2534H130.365V51.7354Z" fill="#FF8888" stroke="#707070" stroke-width="0.5"/>
<path d="M130.365 51.7354H105.268V57.2534H130.365V51.7354Z" stroke="#1A1A1A" stroke-width="0.5" stroke-linecap="round" stroke-linejoin="round"/>
<path d="M141.578 83.1743V86.8003H106.692V83.1743C106.692 82.7042 106.879 82.2533 107.212 81.9209C107.544 81.5885 107.995 81.4016 108.465 81.4014H139.809C140.279 81.4014 140.73 81.5882 141.063 81.9207C141.395 82.2532 141.582 82.7041 141.582 83.1743" fill="white"/>
<path d="M141.578 83.1743V86.8003H106.692V83.1743C106.692 82.7042 106.879 82.2533 107.212 81.9209C107.544 81.5885 107.995 81.4016 108.465 81.4014H139.809C140.279 81.4014 140.73 81.5882 141.063 81.9207C141.395 82.2532 141.582 82.7041 141.582 83.1743" stroke="#707070" stroke-width="0.5"/>
<path d="M141.578 83.1743V86.8003H106.692V83.1743C106.692 82.7042 106.879 82.2533 107.212 81.9209C107.544 81.5885 107.995 81.4016 108.465 81.4014H139.809C140.279 81.4024 140.728 81.5897 141.06 81.9221C141.392 82.2545 141.578 82.7048 141.578 83.1743Z" stroke="#1A1A1A" stroke-width="0.5" stroke-linecap="round" stroke-linejoin="round"/>
<path d="M100.018 31.3277L98.548 33.2524L104.619 37.8875L106.088 35.9628L100.018 31.3277Z" fill="#1C0311" stroke="#707070" stroke-width="0.500118"/>
<path d="M100.018 31.3277L98.548 33.2524L104.619 37.8875L106.088 35.9628L100.018 31.3277Z" stroke="#1A1A1A" stroke-width="0.500118" stroke-linecap="round" stroke-linejoin="round"/>
<path d="M105.828 34.3475L102.985 38.0674L105.201 39.761L108.044 36.0411L105.828 34.3475Z" fill="#1C0311" stroke="#707070" stroke-width="0.5"/>
<path d="M105.828 34.3475L102.985 38.0674L105.201 39.761L108.044 36.0411L105.828 34.3475Z" stroke="#1A1A1A" stroke-width="0.5" stroke-linecap="round" stroke-linejoin="round"/>
<path d="M109.251 34.455L103.993 41.3413L110.573 46.3654L115.831 39.4792L109.251 34.455Z" fill="white" stroke="#707070" stroke-width="0.500118"/>
<path d="M109.251 34.455L103.993 41.3413L110.573 46.3654L115.831 39.4792L109.251 34.455Z" stroke="#1A1A1A" stroke-width="0.500118" stroke-linecap="round" stroke-linejoin="round"/>
<path d="M129.712 51.7355V42.9845L114.101 38.1655L108.353 44.6755V51.7365L129.712 51.7355Z" fill="white" stroke="#707070" stroke-width="0.5"/>
<path d="M129.712 51.7355V42.9845L114.101 38.1655L108.353 44.6755V51.7365L129.712 51.7355Z" stroke="#1A1A1A" stroke-width="0.5" stroke-linecap="round" stroke-linejoin="round"/>
<path d="M114.405 86.8003H107.641V88.2833H114.405V86.8003Z" fill="#1C0311" stroke="#707070" stroke-width="0.5"/>
<path d="M114.405 86.8003H107.641V88.2833H114.405V86.8003Z" stroke="#1A1A1A" stroke-width="0.5" stroke-linecap="round" stroke-linejoin="round"/>
<path d="M140.037 86.8003H133.273V88.2833H140.037V86.8003Z" fill="#1C0311" stroke="#707070" stroke-width="0.5"/>
<path d="M140.037 86.8003H133.273V88.2833H140.037V86.8003Z" stroke="#1A1A1A" stroke-width="0.5" stroke-linecap="round" stroke-linejoin="round"/>
<path d="M113.535 60.6763H111.003V64.6913H113.535V60.6763Z" fill="#1C0311" stroke="#707070" stroke-width="0.5"/>
<path d="M113.535 60.6763H111.003V64.6913H113.535V60.6763Z" stroke="#1A1A1A" stroke-width="0.5" stroke-linecap="round" stroke-linejoin="round"/>
<path d="M112.974 67.0643H111.569L111.382 64.2163H113.162L112.974 67.0643Z" fill="#1C0311" stroke="#707070" stroke-width="0.5"/>
<path d="M112.974 67.0643H111.569L111.382 64.2163H113.162L112.974 67.0643Z" stroke="#1A1A1A" stroke-width="0.5" stroke-linecap="round" stroke-linejoin="round"/>
<path d="M115.962 59.7659L113.581 60.6245L114.943 64.4014L117.324 63.5428L115.962 59.7659Z" fill="#1C0311" stroke="#707070" stroke-width="0.5"/>
<path d="M115.962 59.7659L113.581 60.6245L114.943 64.4014L117.324 63.5428L115.962 59.7659Z" stroke="#1A1A1A" stroke-width="0.5" stroke-linecap="round" stroke-linejoin="round"/>
<path d="M117.599 65.9666L116.277 66.4435L115.135 63.8285L116.81 63.2285L117.599 65.9666Z" fill="#1C0311" stroke="#707070" stroke-width="0.5"/>
<path d="M117.599 65.9666L116.277 66.4435L115.135 63.8285L116.81 63.2285L117.599 65.9666Z" stroke="#1A1A1A" stroke-width="0.5" stroke-linecap="round" stroke-linejoin="round"/>
<path d="M118.749 58.7449L116.368 59.6035L117.73 63.3804L120.111 62.5218L118.749 58.7449Z" fill="#1C0311" stroke="#707070" stroke-width="0.5"/>
<path d="M118.749 58.7449L116.368 59.6035L117.73 63.3804L120.111 62.5218L118.749 58.7449Z" stroke="#1A1A1A" stroke-width="0.5" stroke-linecap="round" stroke-linejoin="round"/>
<path d="M120.387 64.9456L119.065 65.4225L117.922 62.8075L119.597 62.2075L120.387 64.9456Z" fill="#1C0311" stroke="#707070" stroke-width="0.5"/>
<path d="M120.387 64.9456L119.065 65.4225L117.922 62.8075L119.597 62.2075L120.387 64.9456Z" stroke="#1A1A1A" stroke-width="0.5" stroke-linecap="round" stroke-linejoin="round"/>
<path d="M109.6 57.2563V62.5223L119.034 59.8893V57.2563H109.6Z" fill="#FF700F" stroke="#707070" stroke-width="0.5"/>
<path d="M109.6 57.2563V62.5223L119.034 59.8893V57.2563H109.6Z" fill="url(#paint1_linear_2_6490)" stroke="black" stroke-width="0.5" stroke-linecap="round" stroke-linejoin="round"/>
<path d="M108.108 49.7914C108.108 49.7914 118.577 47.9564 118.86 43.5564C119.171 38.7184 112.227 42.4244 112.227 42.4244C112.849 41.901 113.411 41.3107 113.903 40.6644C114.385 39.7644 113.253 38.3804 111.358 39.9934C110.619 40.6224 103.48 47.0764 103.48 47.0764L108.108 49.7914Z" fill="white" stroke="#707070" stroke-width="0.5"/>
<path d="M108.108 49.7914C108.108 49.7914 118.577 47.9564 118.86 43.5564C119.171 38.7184 112.227 42.4244 112.227 42.4244C112.849 41.901 113.411 41.3107 113.903 40.6644C114.385 39.7644 113.253 38.3804 111.358 39.9934C110.619 40.6224 103.48 47.0764 103.48 47.0764L108.108 49.7914Z" stroke="#1A1A1A" stroke-width="0.5" stroke-linecap="round" stroke-linejoin="round"/>
<path d="M83.998 42.4247L88.3361 37.2697C88.3361 37.2697 90.788 38.7787 92.423 38.2447C94.058 37.7107 94.3091 33.8747 94.3091 33.8747H96.0691C95.2006 32.5366 94.8851 30.9137 95.1891 29.3477C95.5031 25.1987 87.2041 24.5067 85.7581 28.2157C84.3121 31.9247 76.328 40.6007 76.328 40.6007L83.998 42.4247Z" fill="white" stroke="#707070" stroke-width="0.5"/>
<path d="M83.998 42.4247L88.3361 37.2697C88.3361 37.2697 90.788 38.7787 92.423 38.2447C94.058 37.7107 94.3091 33.8747 94.3091 33.8747H96.0691C95.2006 32.5366 94.8851 30.9137 95.1891 29.3477C95.5031 25.1987 87.2041 24.5067 85.7581 28.2157C84.3121 31.9247 76.328 40.6007 76.328 40.6007L83.998 42.4247Z" stroke="#1A1A1A" stroke-width="0.5" stroke-linecap="round" stroke-linejoin="round"/>
<path d="M39.486 74.2344C36.813 77.5494 36.378 82.3154 36.594 87.5024H76.789L74.358 81.7444L39.486 74.2344Z" fill="#FF8888" stroke="#707070" stroke-width="0.5"/>
<path d="M39.486 74.2344C36.813 77.5494 36.378 82.3154 36.594 87.5024H76.789L74.358 81.7444L39.486 74.2344Z" stroke="#1A1A1A" stroke-width="0.5" stroke-linecap="round" stroke-linejoin="round"/>
<path d="M86.199 58.6124C86.199 58.6124 91.291 40.0984 76.199 38.3374C49.542 36.0744 37.974 75.3054 37.974 75.3054C37.974 75.3054 63.874 82.2214 73.433 81.7184C82.992 81.2154 86.196 58.6124 86.196 58.6124" fill="url(#paint2_linear_2_6490)"/>
<path d="M86.199 58.6124C86.199 58.6124 91.291 40.0984 76.199 38.3374C49.542 36.0744 37.974 75.3054 37.974 75.3054C37.974 75.3054 63.874 82.2214 73.433 81.7184C82.992 81.2154 86.196 58.6124 86.196 58.6124" stroke="#707070" stroke-width="0.5"/>
<path d="M86.199 58.6124C86.199 58.6124 91.291 40.0984 76.199 38.3374C49.542 36.0744 37.974 75.3054 37.974 75.3054C37.974 75.3054 63.874 82.2214 73.433 81.7184C82.992 81.2154 86.199 58.6124 86.199 58.6124Z" stroke="black" stroke-width="0.5" stroke-linecap="round" stroke-linejoin="round"/>
<path d="M68.8779 64.2256C68.8779 64.2256 68.316 72.4536 80.658 76.0896C83.411 71.0306 81.986 67.7616 81.986 67.7616L68.8779 64.2256Z" fill="#1C0311" stroke="#707070" stroke-width="0.5"/>
<path d="M68.8779 64.2256C68.8779 64.2256 68.316 72.4536 80.658 76.0896C83.411 71.0306 81.986 67.7616 81.986 67.7616L68.8779 64.2256Z" stroke="#1A1A1A" stroke-width="0.5" stroke-linecap="round" stroke-linejoin="round"/>
<path d="M25.383 74.9352C26.291 69.2542 27.105 63.4742 27.121 61.6992H11.249C11.189 64.2332 13.037 75.9652 14.311 82.8612C17.5061 82.0168 20.4352 80.3768 22.825 78.0942C23.8041 77.1507 24.6626 76.0896 25.381 74.9352" fill="white"/>
<path d="M25.383 74.9352C26.291 69.2542 27.105 63.4742 27.121 61.6992H11.249C11.189 64.2332 13.037 75.9652 14.311 82.8612C17.5061 82.0168 20.4352 80.3768 22.825 78.0942C23.8041 77.1507 24.6626 76.0896 25.381 74.9352" stroke="#707070" stroke-width="0.5"/>
<path d="M25.383 74.9352C26.291 69.2542 27.105 63.4742 27.121 61.6992H11.249C11.189 64.2332 13.037 75.9652 14.311 82.8612C17.5061 82.0168 20.4352 80.3768 22.825 78.0942C23.8048 77.1508 24.6639 76.0897 25.383 74.9352Z" stroke="#1A1A1A" stroke-width="0.5" stroke-linecap="round" stroke-linejoin="round"/>
<path d="M22.827 78.0945C20.4372 80.3771 17.5081 82.0172 14.313 82.8616C14.713 85.0426 15.061 86.7405 15.271 87.5105H23.102C23.502 86.0305 24.49 80.5315 25.384 74.9355C24.6656 76.0899 23.807 77.1509 22.828 78.0945" fill="#FF8888"/>
<path d="M22.827 78.0945C20.4372 80.3771 17.5081 82.0172 14.313 82.8616C14.713 85.0426 15.061 86.7405 15.271 87.5105H23.102C23.502 86.0305 24.49 80.5315 25.384 74.9355C24.6656 76.0899 23.807 77.1509 22.828 78.0945" stroke="#707070" stroke-width="0.5"/>
<path d="M22.827 78.0945C20.4372 80.3771 17.5081 82.0172 14.313 82.8616C14.713 85.0426 15.061 86.7405 15.271 87.5105H23.102C23.502 86.0305 24.49 80.5315 25.384 74.9355C24.6653 76.09 23.8064 77.151 22.827 78.0945Z" stroke="#1A1A1A" stroke-width="0.5" stroke-linecap="round" stroke-linejoin="round"/>
<path d="M14.666 60.6132C14.666 60.6132 10.514 44.0512 18.91 42.4362C20.017 42.4362 27.86 39.9912 24.446 60.9362C22.001 60.3822 14.666 60.6132 14.666 60.6132Z" fill="url(#paint3_linear_2_6490)" stroke="#707070" stroke-width="0.5"/>
<path d="M14.666 60.6132C14.666 60.6132 10.514 44.0512 18.91 42.4362C20.017 42.4362 27.86 39.9912 24.446 60.9362C22.001 60.3822 14.666 60.6132 14.666 60.6132Z" stroke="black" stroke-width="0.5" stroke-linecap="round" stroke-linejoin="round"/>
<path d="M17.96 40.3164L19.644 42.3494" stroke="#1A1A1A" stroke-width="0.5" stroke-linecap="round" stroke-linejoin="round"/>
<path d="M19.989 39.7622C19.989 39.8772 19.897 42.3482 19.897 42.3482" stroke="#1A1A1A" stroke-width="0.5" stroke-linecap="round" stroke-linejoin="round"/>
<path d="M21.489 40.0166L20.266 42.3496" stroke="#1A1A1A" stroke-width="0.5" stroke-linecap="round" stroke-linejoin="round"/>
<path d="M22.8961 40.5703L20.8781 42.2773" stroke="#1A1A1A" stroke-width="0.5" stroke-linecap="round" stroke-linejoin="round"/>
<path d="M16.576 41.3325L19.183 42.2765" stroke="#1A1A1A" stroke-width="0.5" stroke-linecap="round" stroke-linejoin="round"/>
<path d="M17.1301 46.5674C17.1301 46.5674 15.561 51.5624 16.576 60.5754" stroke="#1A1A1A" stroke-width="0.5" stroke-linecap="round" stroke-linejoin="round"/>
<path d="M22.204 46.2915C22.204 46.2915 24.015 54.5316 21.887 60.6536" stroke="#1A1A1A" stroke-width="0.5" stroke-linecap="round" stroke-linejoin="round"/>
<path d="M19.643 48.6436C19.643 48.6436 19.251 59.3286 19.643 60.6526" stroke="#1A1A1A" stroke-width="0.5" stroke-linecap="round" stroke-linejoin="round"/>
<path d="M27.874 62.0466H10.492C10.4526 62.0466 10.4136 62.0389 10.3772 62.0238C10.3408 62.0087 10.3077 61.9866 10.2799 61.9587C10.252 61.9309 10.2299 61.8978 10.2149 61.8615C10.1998 61.8251 10.192 61.786 10.192 61.7466V60.4166C10.192 60.3772 10.1998 60.3383 10.2149 60.3019C10.2299 60.2655 10.252 60.2323 10.2799 60.2045C10.3077 60.1766 10.3408 60.1546 10.3772 60.1395C10.4136 60.1244 10.4526 60.1167 10.492 60.1167H27.876C27.9556 60.1167 28.0319 60.1482 28.0881 60.2045C28.1444 60.2607 28.176 60.3371 28.176 60.4166V61.7466C28.176 61.8261 28.1444 61.9025 28.0881 61.9587C28.0319 62.015 27.9556 62.0466 27.876 62.0466" fill="#1C0311"/>
<path d="M27.874 62.0466H10.492C10.4526 62.0466 10.4136 62.0389 10.3772 62.0238C10.3408 62.0087 10.3077 61.9866 10.2799 61.9587C10.252 61.9309 10.2299 61.8978 10.2149 61.8615C10.1998 61.8251 10.192 61.786 10.192 61.7466V60.4166C10.192 60.3772 10.1998 60.3383 10.2149 60.3019C10.2299 60.2655 10.252 60.2323 10.2799 60.2045C10.3077 60.1766 10.3408 60.1546 10.3772 60.1395C10.4136 60.1244 10.4526 60.1167 10.492 60.1167H27.876C27.9556 60.1167 28.0319 60.1482 28.0881 60.2045C28.1444 60.2607 28.176 60.3371 28.176 60.4166V61.7466C28.176 61.8261 28.1444 61.9025 28.0881 61.9587C28.0319 62.015 27.9556 62.0466 27.876 62.0466" stroke="#707070" stroke-width="0.5"/>
<path d="M27.209 60.1074H11.155C10.6199 60.1074 10.186 60.5413 10.186 61.0764C10.186 61.6116 10.6199 62.0454 11.155 62.0454H27.209C27.7442 62.0454 28.178 61.6116 28.178 61.0764C28.178 60.5413 27.7442 60.1074 27.209 60.1074Z" stroke="#1A1A1A" stroke-width="0.5" stroke-linecap="round" stroke-linejoin="round"/>
<path d="M84.458 62.6826C84.458 62.6826 86.366 59.5346 86.199 56.6636C89.516 51.9186 97.0811 48.6236 102.545 46.1016L109.618 50.2506C109.618 50.2506 97.9181 73.3586 82.9301 73.3506C66.4301 73.3506 68.407 62.5996 68.407 62.5996" fill="url(#paint4_linear_2_6490)"/>
<path d="M84.458 62.6826C84.458 62.6826 86.366 59.5346 86.199 56.6636C89.516 51.9186 97.0811 48.6236 102.545 46.1016L109.618 50.2506C109.618 50.2506 97.9181 73.3586 82.9301 73.3506C66.4301 73.3506 68.407 62.5996 68.407 62.5996" stroke="#707070" stroke-width="0.5"/>
<path d="M84.458 62.6826C84.458 62.6826 86.366 59.5346 86.199 56.6636C89.516 51.9186 97.0811 48.6236 102.545 46.1016L109.618 50.2506C109.618 50.2506 97.9181 73.3586 82.9301 73.3506C66.4301 73.3506 68.407 62.5996 68.407 62.5996" stroke="black" stroke-width="0.5" stroke-linecap="round" stroke-linejoin="round"/>
<path d="M61.032 41.8557C61.032 41.8557 81.547 18.6637 89.783 21.3037C98.019 23.9437 96.0699 29.9797 96.0699 29.9797H90.286L79.2939 41.3097C73.3505 43.0295 67.0675 43.2174 61.032 41.8557Z" fill="#FF8888" stroke="#707070" stroke-width="0.5"/>
<path d="M61.032 41.8557C61.032 41.8557 81.547 18.6637 89.783 21.3037C98.019 23.9437 96.0699 29.9797 96.0699 29.9797H90.286L79.2939 41.3097C73.3502 43.0297 67.0679 43.2176 61.032 41.8557Z" stroke="#1A1A1A" stroke-width="0.5" stroke-linecap="round" stroke-linejoin="round"/>
<path d="M86.765 36.0435L88.337 37.2695L87.2569 38.5535C87.0069 38.1913 86.8343 37.7815 86.7499 37.3497C86.6654 36.9178 86.6698 36.4731 86.765 36.0435Z" fill="#1C0311" stroke="#707070" stroke-width="0.5"/>
<path d="M86.765 36.0435L88.337 37.2695L87.2569 38.5535C87.0067 38.1914 86.834 37.7816 86.7494 37.3497C86.6647 36.9179 86.67 36.4732 86.765 36.0435Z" stroke="#1A1A1A" stroke-width="0.5" stroke-linecap="round" stroke-linejoin="round"/>
<path d="M141.027 23.1882C139.533 20.5882 136.475 19.5512 134.197 20.8622C131.919 22.1732 128.86 21.1322 127.367 18.5362C125.874 15.9402 126.51 12.7732 128.788 11.4622C131.066 10.1512 131.703 6.98418 130.21 4.38818" stroke="#1A1A1A" stroke-width="0.5" stroke-linecap="round" stroke-linejoin="round"/>
<path d="M121.958 9.13525C123.452 11.7353 126.51 12.7723 128.788 11.4613C131.066 10.1503 134.125 11.1912 135.618 13.7872C137.111 16.3832 136.475 19.5503 134.196 20.8613C131.917 22.1723 131.281 25.3393 132.774 27.9353" stroke="#1A1A1A" stroke-width="0.5" stroke-linecap="round" stroke-linejoin="round"/>
<path d="M122.348 9.43765L130.253 4.88965" stroke="#1A1A1A" stroke-width="0.5" stroke-linecap="round" stroke-linejoin="round"/>
<path d="M127.529 18.4425L135.434 13.8945" stroke="#1A1A1A" stroke-width="0.5" stroke-linecap="round" stroke-linejoin="round"/>
<path d="M123.404 10.5646L130.695 6.36963" stroke="#1A1A1A" stroke-width="0.5" stroke-linecap="round" stroke-linejoin="round"/>
<path d="M124.714 11.5456L130.886 7.99463" stroke="#1A1A1A" stroke-width="0.5" stroke-linecap="round" stroke-linejoin="round"/>
<path d="M126.738 16.7034L134.326 12.3374" stroke="#1A1A1A" stroke-width="0.5" stroke-linecap="round" stroke-linejoin="round"/>
<path d="M126.555 14.7444L132.727 11.1934" stroke="#1A1A1A" stroke-width="0.5" stroke-linecap="round" stroke-linejoin="round"/>
<path d="M132.71 27.4474L140.615 22.8994" stroke="#1A1A1A" stroke-width="0.5" stroke-linecap="round" stroke-linejoin="round"/>
<path d="M132.267 25.9675L139.558 21.7725" stroke="#1A1A1A" stroke-width="0.5" stroke-linecap="round" stroke-linejoin="round"/>
<path d="M132.077 24.3425L138.249 20.7915" stroke="#1A1A1A" stroke-width="0.5" stroke-linecap="round" stroke-linejoin="round"/>
<path d="M128.635 19.9993L136.223 15.6333" stroke="#1A1A1A" stroke-width="0.5" stroke-linecap="round" stroke-linejoin="round"/>
<path d="M130.236 21.1433L136.408 17.5923" stroke="#1A1A1A" stroke-width="0.5" stroke-linecap="round" stroke-linejoin="round"/>
<path d="M71.5161 25.0722L67.709 16.1582C68.406 15.5269 68.9697 14.7626 69.3671 13.9103C69.7645 13.058 69.9875 12.1349 70.0231 11.1952C70.0231 5.3732 61.2161 0.658203 50.3541 0.658203C39.4921 0.658203 30.6851 5.3772 30.6851 11.1972C30.6851 17.0172 39.4911 21.7362 50.3541 21.7362C53.9765 21.7647 57.5789 21.1954 61.0161 20.0512L71.5161 25.0722Z" fill="white" stroke="#707070" stroke-width="0.5"/>
<path d="M71.5161 25.0722L67.709 16.1582C68.406 15.5269 68.9697 14.7626 69.3671 13.9103C69.7645 13.058 69.9875 12.1349 70.0231 11.1952C70.0231 5.3732 61.2161 0.658203 50.3541 0.658203C39.4921 0.658203 30.6851 5.3772 30.6851 11.1972C30.6851 17.0172 39.4911 21.7362 50.3541 21.7362C53.9765 21.7647 57.5789 21.1954 61.0161 20.0512L71.5161 25.0722Z" stroke="#1A1A1A" stroke-width="0.5" stroke-linecap="round" stroke-linejoin="round"/>
<path d="M58.944 10.9292C58.944 12.6145 58.4443 14.2619 57.508 15.6632C56.5717 17.0645 55.2409 18.1566 53.6839 18.8016C52.1269 19.4465 50.4136 19.6153 48.7607 19.2865C47.1078 18.9577 45.5894 18.1461 44.3977 16.9545C43.2061 15.7628 42.3946 14.2445 42.0658 12.5916C41.7371 10.9387 41.9058 9.22537 42.5507 7.66836C43.1956 6.11135 44.2877 4.78055 45.689 3.84425C47.0903 2.90795 48.7377 2.4082 50.423 2.4082C52.6829 2.4082 54.8503 3.30595 56.4483 4.90395C58.0463 6.50194 58.944 8.66929 58.944 10.9292Z" fill="white" stroke="#707070" stroke-width="0.5"/>
<path d="M56.4488 16.9545C59.7765 13.6268 59.7765 8.2316 56.4488 4.90394C53.1212 1.57629 47.726 1.57629 44.3983 4.90394C41.0706 8.2316 41.0706 13.6268 44.3983 16.9545C47.726 20.2821 53.1212 20.2821 56.4488 16.9545Z" stroke="#1A1A1A" stroke-width="0.5" stroke-linecap="round" stroke-linejoin="round"/>
<path d="M57.8081 10.9294C57.8081 12.3898 57.3751 13.8174 56.5638 15.0316C55.7524 16.2459 54.5992 17.1923 53.25 17.7512C51.9008 18.3102 50.4163 18.4564 48.9839 18.1716C47.5516 17.8868 46.2359 17.1836 45.2032 16.151C44.1704 15.1185 43.4671 13.8029 43.182 12.3706C42.897 10.9383 43.0431 9.45364 43.6018 8.10437C44.1606 6.7551 45.1069 5.60181 46.3211 4.79032C47.5352 3.97884 48.9628 3.54561 50.4231 3.54541C51.3929 3.54528 52.3532 3.73617 53.2492 4.10719C54.1452 4.47821 54.9593 5.0221 55.6451 5.70778C56.3308 6.39346 56.8747 7.20751 57.2459 8.10345C57.617 8.99938 57.8081 9.95965 57.8081 10.9294Z" fill="url(#paint5_linear_2_6490)" stroke="#707070" stroke-width="0.5"/>
<path d="M55.6438 16.1505C58.5274 13.2668 58.5274 8.59155 55.6438 5.70792C52.7602 2.82429 48.0849 2.82429 45.2013 5.70792C42.3176 8.59155 42.3176 13.2668 45.2013 16.1505C48.0849 19.0341 52.7602 19.0341 55.6438 16.1505Z" stroke="black" stroke-width="0.5" stroke-linecap="round" stroke-linejoin="round"/>
<path d="M47.05 8.91021C47.05 8.91021 44.0059 10.3102 45.5669 12.2922C47.1279 14.2742 48.975 13.5672 49.053 12.1362C49.131 10.7052 49.953 11.1172 49.261 9.8202C48.35 8.1032 47.049 8.90921 47.049 8.90921" fill="#FF8888"/>
<path d="M47.05 8.91021C47.05 8.91021 44.0059 10.3102 45.5669 12.2922C47.1279 14.2742 48.975 13.5672 49.053 12.1362C49.131 10.7052 49.953 11.1172 49.261 9.8202C48.35 8.1032 47.049 8.90921 47.049 8.90921" stroke="#707070" stroke-width="0.5"/>
<path d="M47.05 8.91066C47.05 8.91066 44.0059 10.3107 45.5669 12.2927C47.1279 14.2747 48.975 13.5677 49.053 12.1367C49.131 10.7057 49.953 11.1177 49.261 9.82065C48.351 8.10365 47.05 8.91066 47.05 8.91066Z" stroke="#1A1A1A" stroke-width="0.5" stroke-linecap="round" stroke-linejoin="round"/>
<path d="M53.047 8.58343C53.047 8.58343 49.362 9.89243 50.447 11.8254C51.532 13.7584 54.5349 13.7584 54.9179 12.5104C55.3009 11.2624 55.462 7.83843 53.045 8.58343" fill="#FF8888"/>
<path d="M53.047 8.58343C53.047 8.58343 49.362 9.89243 50.447 11.8254C51.532 13.7584 54.5349 13.7584 54.9179 12.5104C55.3009 11.2624 55.462 7.83843 53.045 8.58343" stroke="#707070" stroke-width="0.5"/>
<path d="M53.047 8.58344C53.047 8.58344 49.362 9.89245 50.447 11.8254C51.532 13.7584 54.5349 13.7584 54.9179 12.5104C55.3009 11.2624 55.464 7.84044 53.047 8.58344Z" stroke="#1A1A1A" stroke-width="0.5" stroke-linecap="round" stroke-linejoin="round"/>
<path d="M109.537 74.2344H120.737L117.537 76.0894H112.788L109.537 74.2344Z" fill="#1C0311" stroke="#707070" stroke-width="0.5"/>
<path d="M109.537 74.2344H120.737L117.537 76.0894H112.788L109.537 74.2344Z" fill="#FF8888" stroke="#1A1A1A" stroke-width="0.5" stroke-linecap="round" stroke-linejoin="round"/>
<path d="M116.461 76.0894H113.987V81.4014H116.461V76.0894Z" fill="#1C0311" stroke="#707070" stroke-width="0.5"/>
<path d="M116.461 76.0894H113.987V81.4014H116.461V76.0894Z" fill="#FF8888" stroke="#1A1A1A" stroke-width="0.5" stroke-linecap="round" stroke-linejoin="round"/>
<path d="M30.307 21.0913C30.307 20.461 30.1201 19.8448 29.7699 19.3207C29.4197 18.7966 28.9219 18.3881 28.3396 18.1469C27.7572 17.9057 27.1164 17.8426 26.4982 17.9655C25.88 18.0885 25.3121 18.392 24.8664 18.8378C24.4207 19.2835 24.1172 19.8513 23.9942 20.4695C23.8713 21.0877 23.9343 21.7286 24.1756 22.3109C24.4168 22.8932 24.8253 23.391 25.3494 23.7412C25.8735 24.0914 26.4896 24.2783 27.12 24.2783C27.9652 24.2783 28.7758 23.9425 29.3735 23.3448C29.9712 22.7472 30.307 21.9365 30.307 21.0913Z" fill="#FF8888" stroke="#707070" stroke-width="0.5"/>
<path d="M27.7853 24.2068C29.5069 23.8407 30.6057 22.1482 30.2396 20.4266C29.8734 18.7049 28.1809 17.6061 26.4593 17.9723C24.7377 18.3384 23.6389 20.0309 24.005 21.7525C24.3712 23.4742 26.0637 24.573 27.7853 24.2068Z" stroke="#1A1A1A" stroke-width="0.499937" stroke-linecap="round" stroke-linejoin="round"/>
<path d="M136.925 68.5725C136.925 68.9532 136.812 69.3254 136.601 69.642C136.389 69.9585 136.089 70.2053 135.737 70.351C135.385 70.4967 134.998 70.5347 134.624 70.4604C134.251 70.3862 133.908 70.2029 133.639 69.9337C133.37 69.6645 133.186 69.3214 133.112 68.948C133.038 68.5746 133.076 68.1876 133.222 67.8358C133.367 67.4841 133.614 67.1834 133.931 66.9719C134.247 66.7604 134.619 66.6475 135 66.6475C135.511 66.6475 136 66.8503 136.361 67.2113C136.722 67.5723 136.925 68.062 136.925 68.5725Z" fill="#1C0311" stroke="#707070" stroke-width="0.5"/>
<path d="M136.902 68.8811C137.072 67.8317 136.359 66.8429 135.31 66.6726C134.26 66.5023 133.272 67.215 133.101 68.2644C132.931 69.3138 133.644 70.3026 134.693 70.4729C135.743 70.6432 136.731 69.9305 136.902 68.8811Z" stroke="#1A1A1A" stroke-width="0.5" stroke-linecap="round" stroke-linejoin="round"/>
<path d="M118.011 72.6025H112.573V74.1115H118.011V72.6025Z" fill="#FF700F" stroke="#707070" stroke-width="0.5"/>
<path d="M118.011 72.6025H112.573V74.1115H118.011V72.6025Z" fill="url(#paint6_linear_2_6490)" stroke="black" stroke-width="0.5" stroke-linecap="round" stroke-linejoin="round"/>
<path d="M40.7381 9.32648C40.7381 9.4938 40.6884 9.65737 40.5955 9.79649C40.5025 9.93562 40.3704 10.044 40.2158 10.1081C40.0612 10.1721 39.8911 10.1889 39.727 10.1562C39.5629 10.1236 39.4122 10.043 39.2938 9.92468C39.1755 9.80637 39.0949 9.65562 39.0623 9.49152C39.0296 9.32741 39.0464 9.1573 39.1104 9.00272C39.1745 8.84813 39.2829 8.71601 39.422 8.62305C39.5611 8.53009 39.7247 8.48047 39.892 8.48047C40.1164 8.48047 40.3316 8.5696 40.4903 8.72826C40.6489 8.88691 40.7381 9.1021 40.7381 9.32648Z" fill="#1C0311" stroke="#707070" stroke-width="0.5"/>
<path d="M40.7381 9.32648C40.7381 9.4938 40.6884 9.65737 40.5955 9.79649C40.5025 9.93562 40.3704 10.044 40.2158 10.1081C40.0612 10.1721 39.8911 10.1889 39.727 10.1562C39.5629 10.1236 39.4122 10.043 39.2938 9.92468C39.1755 9.80637 39.0949 9.65562 39.0623 9.49152C39.0296 9.32741 39.0464 9.1573 39.1104 9.00272C39.1745 8.84813 39.2829 8.71601 39.422 8.62305C39.5611 8.53009 39.7247 8.48047 39.892 8.48047C40.1164 8.48047 40.3316 8.5696 40.4903 8.72826C40.6489 8.88691 40.7381 9.1021 40.7381 9.32648Z" stroke="#1A1A1A" stroke-width="0.5" stroke-linecap="round" stroke-linejoin="round"/>
<path d="M57.162 15.4892C57.162 15.633 57.1194 15.7735 57.0395 15.8931C56.9596 16.0127 56.846 16.1058 56.7132 16.1609C56.5803 16.2159 56.4342 16.2303 56.2931 16.2022C56.1521 16.1742 56.0226 16.1049 55.9209 16.0033C55.8193 15.9016 55.75 15.7721 55.722 15.631C55.6939 15.49 55.7083 15.3438 55.7634 15.211C55.8184 15.0782 55.9115 14.9646 56.0311 14.8847C56.1506 14.8049 56.2912 14.7622 56.435 14.7622C56.6278 14.7622 56.8127 14.8388 56.949 14.9752C57.0854 15.1115 57.162 15.2964 57.162 15.4892Z" fill="#1C0311" stroke="#707070" stroke-width="0.5"/>
<path d="M57.162 15.4892C57.162 15.633 57.1194 15.7735 57.0395 15.8931C56.9596 16.0127 56.846 16.1058 56.7132 16.1609C56.5803 16.2159 56.4342 16.2303 56.2931 16.2022C56.1521 16.1742 56.0226 16.1049 55.9209 16.0033C55.8193 15.9016 55.75 15.7721 55.722 15.631C55.6939 15.49 55.7083 15.3438 55.7634 15.211C55.8184 15.0782 55.9115 14.9646 56.0311 14.8847C56.1506 14.8049 56.2912 14.7622 56.435 14.7622C56.6278 14.7622 56.8127 14.8388 56.949 14.9752C57.0854 15.1115 57.162 15.2964 57.162 15.4892Z" stroke="#1A1A1A" stroke-width="0.5" stroke-linecap="round" stroke-linejoin="round"/>
<path d="M56.298 4.37833C56.298 4.65364 56.2163 4.92277 56.0634 5.15168C55.9104 5.38059 55.6931 5.55901 55.4387 5.66437C55.1844 5.76972 54.9044 5.79729 54.6344 5.74358C54.3644 5.68987 54.1164 5.5573 53.9218 5.36262C53.7271 5.16795 53.5945 4.91992 53.5408 4.64989C53.4871 4.37987 53.5146 4.09999 53.62 3.84563C53.7254 3.59128 53.9038 3.37388 54.1327 3.22092C54.3616 3.06797 54.6307 2.98633 54.906 2.98633C55.2752 2.98633 55.6292 3.13298 55.8903 3.39404C56.1513 3.65509 56.298 4.00915 56.298 4.37833Z" fill="#1C0311" stroke="#707070" stroke-width="0.5"/>
<path d="M56.298 4.37833C56.298 4.65364 56.2163 4.92277 56.0634 5.15168C55.9104 5.38059 55.6931 5.55901 55.4387 5.66437C55.1844 5.76972 54.9044 5.79729 54.6344 5.74358C54.3644 5.68987 54.1164 5.5573 53.9218 5.36262C53.7271 5.16795 53.5945 4.91992 53.5408 4.64989C53.4871 4.37987 53.5146 4.09999 53.62 3.84563C53.7254 3.59128 53.9038 3.37388 54.1327 3.22092C54.3616 3.06797 54.6307 2.98633 54.906 2.98633C55.2752 2.98633 55.6292 3.13298 55.8903 3.39404C56.1513 3.65509 56.298 4.00915 56.298 4.37833Z" stroke="#1A1A1A" stroke-width="0.5" stroke-linecap="round" stroke-linejoin="round"/>
</g>
<defs>
<linearGradient id="paint0_linear_2_6490" x1="150.27" y1="70.73" x2="150.27" y2="89.0394" gradientUnits="userSpaceOnUse">
<stop stop-color="#A8FED9"/>
<stop offset="1" stop-color="#00F1FF"/>
</linearGradient>
<linearGradient id="paint1_linear_2_6490" x1="114.317" y1="57.2563" x2="114.317" y2="62.5223" gradientUnits="userSpaceOnUse">
<stop stop-color="#A8FED9"/>
<stop offset="1" stop-color="#00F1FF"/>
</linearGradient>
<linearGradient id="paint2_linear_2_6490" x1="62.4998" y1="38.2432" x2="62.4998" y2="81.7446" gradientUnits="userSpaceOnUse">
<stop stop-color="#A8FED9"/>
<stop offset="1" stop-color="#00F1FF"/>
</linearGradient>
<linearGradient id="paint3_linear_2_6490" x1="19.47" y1="42.3486" x2="19.47" y2="60.9362" gradientUnits="userSpaceOnUse">
<stop stop-color="#A8FED9"/>
<stop offset="1" stop-color="#00F1FF"/>
</linearGradient>
<linearGradient id="paint4_linear_2_6490" x1="88.9756" y1="46.1016" x2="88.9756" y2="73.3506" gradientUnits="userSpaceOnUse">
<stop stop-color="#A8FED9"/>
<stop offset="1" stop-color="#00F1FF"/>
</linearGradient>
<linearGradient id="paint5_linear_2_6490" x1="50.4241" y1="3.54541" x2="50.4241" y2="18.3134" gradientUnits="userSpaceOnUse">
<stop stop-color="#A8FED9"/>
<stop offset="1" stop-color="#00F1FF"/>
</linearGradient>
<linearGradient id="paint6_linear_2_6490" x1="115.292" y1="72.6025" x2="115.292" y2="74.1115" gradientUnits="userSpaceOnUse">
<stop stop-color="#A8FED9"/>
<stop offset="1" stop-color="#00F1FF"/>
</linearGradient>
</defs>
</svg>
