<svg xmlns="http://www.w3.org/2000/svg" xmlns:android="http://schemas.android.com/apk/res/android" xmlns:aapt="http://schemas.android.com/aapt" width="165.054dp" height="85.651dp" viewportWidth="165.054" viewportHeight="85.651">
	<path d="M79.561,43.019m-42,0a42,42 0,1 1,84 0a42,42 0,1 1,-84 0" stroke-width="0.5" fill="#f88" stroke="#00000000"/>
	<path d="M79.561,43.019m-41.75,0a41.75,41.75 0,1 1,83.5 0a41.75,41.75 0,1 1,-83.5 0" stroke-width="0.5" fill="#00000000" stroke="#000"/>
	<path d="M79.561,43.019m-37,0a37,37 0,1 1,74 0a37,37 0,1 1,-74 0" stroke-width="0.5" fill="#fff" stroke="#00000000"/>
	<path d="M79.561,43.019m-36.75,0a36.75,36.75 0,1 1,73.5 0a36.75,36.75 0,1 1,-73.5 0" stroke-width="0.5" fill="#00000000" stroke="#000"/>
	<path d="M83.717,44.878l12.059,9.141 -13.16,-7.269Z" stroke-width="0.1" stroke="#000">
		<aapt:attr name="fill">
			<gradient startY="46.07547" endY="52.007977" startX="82.616" endX="93.65724" type="linear">
				<item offset="0" color="#FF3BECE7"/>
				<item offset="0.26" color="#FF6FF3D3"/>
				<item offset="1" color="#FFBBFDB6"/>
			</gradient>
		</aapt:attr>
	</path>
	<path d="M78.153,38.753l1.245,-21.347 1.349,21.347Z" stroke-width="0.1" stroke="#000">
		<aapt:attr name="fill">
			<gradient startY="39.94843" startX="79.45" endY="23.767405" endX="79.45" type="linear">
				<item offset="0" color="#FF3BECE7"/>
				<item offset="0.445" color="#FFA3FABF"/>
				<item offset="1" color="#FFBBFDB6"/>
			</gradient>
		</aapt:attr>
	</path>
	<path d="M79.561,43.019m-5,0a5,5 0,1 1,10 0a5,5 0,1 1,-10 0" stroke-width="2" fill="#f88" stroke="#00000000"/>
	<path d="M79.561,43.019m-4,0a4,4 0,1 1,8 0a4,4 0,1 1,-8 0" stroke-width="2" fill="#00000000" stroke="#000"/>
	<path d="M91.681,66.504 L95.702,71.718" stroke-width="1" fill="#00000000" stroke="#46eee3" strokeLineCap="round"/>
	<path d="M165.054,84.652L0.004,84.652" stroke-width="2" fill="#00000000" stroke="#000"/>
	<path d="M30.177,13.024v2.124s0.143,2.525 -1.349,2.659 -4.366,-0.379 -4.466,-1.535a3.046,3.046 0,0 1,0.493 -1.8c0,-0.225 0.468,-3.526 0.468,-3.526Z" stroke-width="0.4" fill="#fff" stroke="#000"/>
	<path d="M19.576,38.275l-3.56,41.332 6.723,-0.328 5.938,-26.671 0.36,27 7.523,-0.328s0.952,-23.065 0.56,-26.671 -1.044,-14.773 -1.044,-14.773Z" stroke-width="0.4" fill="#f88" stroke="#000"/>
	<path d="M19.622,17.364s-6.2,8.181 -6.559,14.215 -0.577,12.2 -0.577,12.2h4.8s1.593,-12.225 3.323,-16.345 2.426,-4.723 1.845,-7.058A4.431,4.431 0,0 0,19.622 17.364Z" stroke-width="0.4" stroke="#000">
		<aapt:attr name="fill">
			<gradient startY="15.013065" startX="21.705826" endY="38.81298" endX="24.891624" type="linear">
				<item offset="0" color="#FFD0FFAE"/>
				<item offset="1" color="#FF34EBE9"/>
			</gradient>
		</aapt:attr>
	</path>
	<path d="M31.963,15.673a13.753,13.753 0,0 0,6.726 0.964,6.673 6.673,0 0,0 4.978,-4.06c0.5,-1.08 1.85,-6.173 1.85,-6.173l4.36,1.485s-2.081,8.072 -5.438,11.844 -9.3,3.243 -9.3,3.243l-0.569,0.258Z" stroke-width="0.4" stroke="#000">
	</path>
	<path d="M24.806,14.626c0.169,0.3 1.021,2.912 2.913,2.617a3.668,3.668 0,0 0,2.613 -2.234s4.462,0.973 4.509,4.436 -0.046,10.607 0.491,12.917 1.769,5.863 1.769,5.863l-18.08,1.415s-0.078,-7.124 0.531,-8.991 1.4,-11.356 0.759,-12.513 -0.354,-0.547 -0.354,-0.547S24.639,14.328 24.806,14.626Z" stroke-width="0.4" stroke="#000">
	</path>
	<path d="M23.227,8.517s-0.714,-2.984 0.655,-3.024 3.734,-2.495 4.667,-2.512 2.684,0.067 3.051,1.591a6.039,6.039 0,0 1,-0.218 3.1l-2.833,0.1h-3.193v2.206l-1.906,-1.025Z" stroke-width="0.4" fill="#f88" stroke="#000"/>
	<path d="M31.573,11.176c0.007,0.3 -0.334,2.483 -2.229,2.331a5.648,5.648 0,0 1,-3.447 -1.289c-0.694,-0.545 -0.858,-1.6 -1.394,-1.642s-1.95,-0.846 -1.656,-1.6 0.867,-0.5 1.5,0a5.483,5.483 0,0 0,0.777 0.569l0.086,-2.309a10.458,10.458 0,0 0,3.458 0.344c1.083,-0.262 2.413,-1.413 2.512,-0.907S31.566,10.88 31.573,11.176Z" stroke-width="0.4" fill="#fff" stroke="#000"/>
	<path d="M12.887,43.552s0.2,2.23 -1.2,2.758 -2.285,1.506 -1.688,1.82 3.327,0.639 4.356,-0.088 1.354,-2.2 1.846,-1.047 1.139,1.621 1.139,1.047a17.656,17.656 0,0 0,-0.731 -2.334c-0.071,-0.427 -0.09,-2.259 -0.09,-2.259Z" stroke-width="0.4" fill="#fff" stroke="#000"/>
	<path d="M16.92,79.146s-1.041,2.247 0.556,2.452 3.913,0.052 4.189,-0.841a3.779,3.779 0,0 0,0.134 -2.49C21.549,76.879 16.92,79.146 16.92,79.146Z" stroke-width="0.4" fill="#fff" stroke="#000"/>
	<path d="M21.537,80.991s8.37,3.168 6.383,3.287 -11.7,0.685 -12.086,0.142a3.12,3.12 0,0 1,0.66 -3.429C17.6,80.077 21.537,80.991 21.537,80.991Z" stroke-width="0.4" fill="#fff" stroke="#000"/>
	<path d="M29.811,79.104v2.046a5.768,5.768 0,0 0,3.979 0.348c2.09,-0.638 0.91,-2.6 0.91,-2.6Z" stroke-width="0.4" fill="#fff" stroke="#000"/>
	<path d="M29.811,81.087s-1.29,1.071 -1.071,2.18 0.327,1.108 1.979,1.108h9.882s0.912,-0.2 -0.114,-0.775 -6.386,-2.819 -6.386,-2.819Z" stroke-width="0.4" fill="#fff" stroke="#000"/>
	<path d="M45.81,6.954a7.258,7.258 0,0 0,0.712 -2.968,1.858 1.858,0 0,1 1.532,-1.857c0.263,-0.1 0.769,0.354 2.381,-1.331s0.56,0.727 0.56,0.727l-1.241,2.115s1.585,0.668 0.682,1.351a6.825,6.825 0,0 0,-1.586 2.391Z" stroke-width="0.4" fill="#fff" stroke="#000"/>
	<path d="M100.408,49.386l-12.7,34.236h52.746l10.162,-34.236Z" stroke-width="0.5" stroke="#000">
		<aapt:attr name="fill">
			<gradient startY="49.386" startX="119.162" endY="83.622" endX="119.162" type="linear">
				<item offset="0" color="#FFBBFDB6"/>
				<item offset="1" color="#FF3BECE7"/>
			</gradient>
		</aapt:attr>
	</path>
	<path d="M148.073,58.702L96.661,58.702l3.508,-9.194h50.689Z" stroke-width="0.5" fill="#f88" stroke="#000"/>
	<path d="M161.017,83.619h-21.292l11.354,-33.908v-0.424h0Z" stroke-width="0.5" fill="#ec5f5f" stroke="#000"/>
	<path d="M150.994,49.206l-7.276,34.537h17.3Z" stroke-width="0.5" fill="#f88" stroke="#000"/>
	<path d="M145.532,60.032h-47.665L89.883,83.019h48.148Z" stroke-width="0.5" fill="#fff" stroke="#000"/>
	<path d="M138.083,53.224a2,1.5 122.005,1 0,2.544 1.59a2,1.5 122.005,1 0,-2.544 -1.59z" stroke-width="1.000002" fill="#fff" stroke="#00000000"/>
	<path d="M138.507,53.489a1.5,1 122.005,1 0,1.696 1.06a1.5,1 122.005,1 0,-1.696 -1.06z" stroke-width="1.000002" fill="#00000000" stroke="#000"/>
	<path d="M127.083,53.224a2,1.5 122.005,1 0,2.544 1.59a2,1.5 122.005,1 0,-2.544 -1.59z" stroke-width="1.000002" fill="#fff" stroke="#00000000"/>
	<path d="M127.507,53.489a1.5,1 122.005,1 0,1.696 1.06a1.5,1 122.005,1 0,-1.696 -1.06z" stroke-width="1.000002" fill="#00000000" stroke="#000"/>
	<path d="M115.083,53.224a2,1.5 122.005,1 0,2.544 1.59a2,1.5 122.005,1 0,-2.544 -1.59z" stroke-width="1.000002" fill="#fff" stroke="#00000000"/>
	<path d="M115.507,53.489a1.5,1 122.005,1 0,1.696 1.06a1.5,1 122.005,1 0,-1.696 -1.06z" stroke-width="1.000002" fill="#00000000" stroke="#000"/>
	<path d="M79.694,79.139 L79.506,72.558" stroke-width="0.999861" fill="#00000000" stroke="#000" strokeLineCap="round"/>
	<path d="M103.083,53.224a2,1.5 122.005,1 0,2.544 1.59a2,1.5 122.005,1 0,-2.544 -1.59z" stroke-width="1.000002" fill="#fff" stroke="#00000000"/>
	<path d="M103.507,53.489a1.5,1 122.005,1 0,1.696 1.06a1.5,1 122.005,1 0,-1.696 -1.06z" stroke-width="1.000002" fill="#00000000" stroke="#000"/>
	<path d="M86.074,78.519L52.061,78.519L52.061,75.364L86.074,75.364L86.074,78.519Z" fill="#fff" stroke="#00000000"/>
	<path d="M52.561,75.864L52.561,78.019L85.574,78.019L85.574,75.864L52.561,75.864M51.561,74.864L86.574,74.864L86.574,79.019L51.561,79.019L51.561,74.864Z" fill="#000" stroke="#00000000"/>
	<path d="M82.061,82.842L48.061,82.842L48.061,80.003L82.061,80.003L82.061,82.842Z" fill="#fff" stroke="#00000000"/>
	<path d="M48.561,80.503L48.561,82.342L81.561,82.342L81.561,80.503L48.561,80.503M47.561,79.503L82.561,79.503L82.561,83.342L47.561,83.342L47.561,79.503Z" fill="#000" stroke="#00000000"/>
	<path d="M139.892,54.019s-1.141,-3.718 -0.88,-5.8 1.238,-4.431 2.9,-3.975c0.781,0.214 1.281,1.494 1.662,3.093a19.5,19.5 0,0 1,0.391 2.642h2.411s-0.651,-6.093 -3.682,-7.4 -4.822,2.053 -5.083,4.2 -0.717,5.383 0.619,7.237S139.892,54.019 139.892,54.019Z" stroke-width="0.5" stroke="#000">
	</path>
	<path d="M128.898,54.019a20.512,20.512 0,0 1,-0.8 -5.8c0.238,-2.085 1.132,-4.431 2.652,-3.975 0.714,0.214 1.172,1.494 1.52,3.093a21.215,21.215 0,0 1,0.358 2.642h2.205s-0.6,-6.093 -3.367,-7.4 -4.411,2.053 -4.649,4.2 -0.656,5.383 0.566,7.237S128.898,54.019 128.898,54.019Z" stroke-width="0.5" stroke="#000">
	</path>
	<path d="M116.898,54.019a20.512,20.512 0,0 1,-0.8 -5.8c0.238,-2.085 1.132,-4.431 2.652,-3.975 0.714,0.214 1.172,1.494 1.52,3.093a21.215,21.215 0,0 1,0.358 2.642h2.205s-0.6,-6.093 -3.367,-7.4 -4.411,2.053 -4.649,4.2 -0.656,5.383 0.566,7.237S116.898,54.019 116.898,54.019Z" stroke-width="0.5" stroke="#000">
	</path>
	<path d="M86.574,75.533h-34.195v2.753h34.195v1.542h-35.241v-5.672h35.241Z" stroke-width="0.1" stroke="#000">
		<aapt:attr name="fill">
			<gradient startY="74.156" startX="68.9535" endY="79.827995" endX="68.9535" type="linear">
				<item offset="0" color="#FFBBFDB6"/>
				<item offset="1" color="#FF3BECE7"/>
			</gradient>
		</aapt:attr>
	</path>
	<path d="M82.528,80.277h-34.195v2.276h34.195v1.274h-35.241v-4.689h35.241Z" stroke-width="0.1" stroke="#000">
		<aapt:attr name="fill">
			<gradient startY="79.138" startX="64.9075" endY="83.827" endX="64.9075" type="linear">
				<item offset="0" color="#FFBBFDB6"/>
				<item offset="1" color="#FF3BECE7"/>
			</gradient>
		</aapt:attr>
	</path>
	<path d="M55.85,56.319l-5.562,3.524" stroke-width="1" fill="#00000000" stroke="#000" strokeLineCap="round"/>
	<path d="M55.85,28.841l-5.562,-3.524" stroke-width="1" fill="#00000000" stroke="#000" strokeLineCap="round"/>
	<path d="M66.918,18.838 L62.897,13.624" stroke-width="1" fill="#00000000" stroke="#46eee3" strokeLineCap="round"/>
	<path d="M66.917,66.505 L62.896,71.718" stroke-width="1" fill="#00000000" stroke="#46eee3" strokeLineCap="round"/>
	<path d="M79.694,14.915 L79.506,8.334" stroke-width="0.999861" fill="#00000000" stroke="#000" strokeLineCap="round"/>
	<path d="M51.36,43.113 L44.778,42.924" stroke-width="1" fill="#00000000" stroke="#46eee3" strokeLineCap="round"/>
	<path d="M102.749,28.841l5.562,-3.524" stroke-width="1" fill="#00000000" stroke="#000" strokeLineCap="round"/>
	<path d="M91.681,18.838 L95.702,13.625" stroke-width="1" fill="#00000000" stroke="#46eee3" strokeLineCap="round"/>
	<path d="M10.253,68.087a3.187,3.187 0,1 0,-3.187 3.187,3.187 3.187,0 0,0 3.187,-3.187" stroke-width="0.5" fill="#f88" stroke="#000"/>
	<path d="M161.253,34.002a3.187,3.187 0,1 0,-3.187 3.187,3.187 3.187,0 0,0 3.187,-3.187" stroke-width="0.5" fill="#f88" stroke="#000"/>
	<path d="M137.32,6.146a1.742,1.742 0,1 0,-1.742 1.742,1.742 1.742,0 0,0 1.742,-1.742" stroke-width="0.5" fill="#f88" stroke="#000"/>
	<path d="M13.738,15.146a1.742,1.742 0,1 0,-1.742 1.742,1.742 1.742,0 0,0 1.742,-1.742" stroke-width="0.5" fill="#f88" stroke="#000"/>
	<path d="M3.237,31.158a0.634,0.634 0,0 1,1.126 0l0.845,1.63a0.627,0.627 0,0 0,0.222 0.243l1.341,0.858a0.634,0.634 0,0 1,0 1.069l-1.285,0.821a0.634,0.634 0,0 0,-0.267 0.356l-0.81,2.767a0.635,0.635 0,0 1,-1.218 0l-0.809,-2.767a0.642,0.642 0,0 0,-0.267 -0.356l-1.285,-0.821a0.635,0.635 0,0 1,0 -1.069l1.341,-0.858a0.625,0.625 0,0 0,0.222 -0.243Z" stroke-width="0.4" fill="#51f7ed" stroke="#000"/>
	<path d="M133.432,28.127a0.454,0.454 0,0 1,0.807 0l0.605,1.168a0.448,0.448 0,0 0,0.159 0.174l0.961,0.614a0.455,0.455 0,0 1,0 0.766l-0.921,0.588a0.455,0.455 0,0 0,-0.191 0.255l-0.58,1.982a0.455,0.455 0,0 1,-0.873 0l-0.579,-1.982a0.459,0.459 0,0 0,-0.191 -0.255l-0.921,-0.588a0.455,0.455 0,0 1,0 -0.766l0.961,-0.614a0.448,0.448 0,0 0,0.159 -0.174Z" stroke-width="0.4" fill="#51f7ed" stroke="#000"/>
	<path d="M108.238,43.114 L114.82,42.925" stroke-width="1" fill="#00000000" stroke="#46eee3" strokeLineCap="round"/>
	<path d="M104.898,54.019a20.512,20.512 0,0 1,-0.8 -5.8c0.238,-2.085 1.132,-4.431 2.652,-3.975 0.714,0.214 1.172,1.494 1.52,3.093a21.215,21.215 0,0 1,0.358 2.642h2.205s-0.6,-6.093 -3.367,-7.4 -4.411,2.053 -4.649,4.2 -0.656,5.383 0.566,7.237S104.898,54.019 104.898,54.019Z" stroke-width="0.5" stroke="#000">
	</path>
</svg>
