<svg width="271" height="205" viewBox="0 0 271 205" fill="none" xmlns="http://www.w3.org/2000/svg">
<path d="M500.436 -0.0809346C480.459 26.7954 456.172 50.06 428.963 68.3844C401.754 86.7089 372.155 99.7342 341.857 106.717C311.559 113.699 281.155 114.502 252.381 109.079C223.607 103.657 197.026 92.1149 174.158 75.1128C77.9737 3.61286 68.107 -145.97 152.13 -259" stroke="#B4D8D6" stroke-width="60" stroke-miterlimit="10"/>
<path d="M461.111 -29.3137C429.774 12.8414 385.516 42.7105 338.072 53.7225C290.628 64.7346 243.886 55.9876 208.127 29.4058C172.369 2.82406 150.523 -39.4151 147.396 -88.0195C144.27 -136.624 160.118 -187.612 191.455 -229.767" stroke="#EA7C97" stroke-width="60" stroke-miterlimit="10"/>
<path d="M423.515 -57.2616C400.988 -26.9583 369.14 -5.51133 334.977 2.36139C300.814 10.2341 267.134 3.88761 241.347 -15.2819C215.559 -34.4515 199.777 -64.8738 197.471 -99.8564C195.165 -134.839 206.525 -171.516 229.051 -201.819" stroke="#BAB0F9" stroke-width="60" stroke-miterlimit="10"/>
</svg>
