<svg xmlns="http://www.w3.org/2000/svg" xmlns:android="http://schemas.android.com/apk/res/android" xmlns:aapt="http://schemas.android.com/aapt" width="165.054dp" height="86.379dp" viewportWidth="165.054" viewportHeight="86.379">
	<path d="M26.486,76.765l-1.3,3.359 3.934,0.313 0.862,-3.671Z" stroke-width="0.4" fill="#fff" stroke="#000"/>
	<path d="M37.713,78.202v3.423l3.956,-0.247v-4.38Z" stroke-width="0.4" fill="#fff" stroke="#000"/>
	<path d="M35.568,63.415l-5.229,15.354 -5.488,-1.867s3.564,-11.214 3.843,-13.487 0.756,-7.761 0.756,-7.761 11.464,-0.966 11.444,-0.944 2.563,6.378 2.344,11.306 -0.836,13.269 -0.836,13.269h-5.885v-14.718Z" stroke-width="0.4" fill="#f88" stroke="#000"/>
	<path d="M29.037,80.117s6.321,3.384 3.99,3.5 -8.856,-2 -8.856,-2 -0.023,-2.426 1.371,-2.371A14.071,14.071 0,0 1,29.037 80.117Z" stroke-width="0.4" fill="#fff" stroke="#000"/>
	<path d="M41.524,81.247s6.952,1.755 4.718,2.431S37.167,83.88 37.167,83.88 36.558,81.532 37.923,81.248A14.063,14.063 121,0 1,41.524 81.247Z" stroke-width="0.4" fill="#fff" stroke="#000"/>
	<path d="M32.392,37.431v-3.078s1.146,-3.162 3.536,-4.007a13.326,13.326 0,0 0,2.679 -1.092s-0.256,3.479 -0.311,4.072a3.021,3.021 0,0 1,-1.229 2.592c-1.182,0.78 0.369,2.952 0.369,2.952h-2.836Z" stroke-width="0.4" fill="#00000000" stroke="#000"/>
	<path d="M33.861,32.55c0.338,0.106 1.041,0.786 1.439,0.1s0.412,1.742 -0.875,1.779 -2.865,0.458 -3.178,-1.2 -0.827,-3.994 1.165,-5.619a4.373,4.373 0,0 1,4.953 -0.491c0.48,0.481 0.565,-0.366 1.459,0.142s1.5,1.809 0.639,2.369a4.99,4.99 0,0 0,-1.175 0.969l0.186,-1.649s-0.407,1.608 -1.4,1.765l-1.772,0.281v0.794l-0.765,-0.368S33.523,32.444 33.861,32.55Z" stroke-width="0.4" fill="#f88" stroke="#000"/>
	<path d="M47.485,27.752l-4.816,7.1 -2.78,0.794 1.549,4.422 3.243,-2.33s3.382,-4.147 4.086,-6.811c-0.037,0.221 0.2,0.128 0.211,0a15.083,15.083 0,0 0,-0.211 -4.286,4.436 4.436,0 0,0 -0.9,-2.1C47.214,23.969 47.485,27.752 47.485,27.752Z" stroke-width="0.4" fill="#00000000" stroke="#000"/>
	<path d="M64.285,6.147h-15.643v62.135h52.186v-62.135h-36.543Z" stroke-width="0.4" fill="#f88" stroke="#000"/>
	<path d="M65.144,8.703h-14.356v57.022h47.892v-57.022h-33.536Z" stroke-width="0.4" fill="#fff" stroke="#000"/>
	<path d="M70.598,3.109h-6.647v5.918h20.795v-5.918h-6.521a3.883,3.883 0,0 0,-4 -2.906A3.477,3.477 0,0 0,70.598 3.109Z" stroke-width="0.4" stroke="#000">
		<aapt:attr name="fill">
			<gradient startY="0.14724784" startX="74.3485" endY="9.027" endX="74.3485" type="linear">
				<item offset="0" color="#FFD0FFAE"/>
				<item offset="1" color="#FF45EDE2"/>
			</gradient>
		</aapt:attr>
	</path>
	<path d="M59.074,18.96m-3,0a3,3 0,1 1,6 0a3,3 0,1 1,-6 0" stroke-width="0.4" stroke="#00000000">
		<aapt:attr name="fill">
			<gradient startY="15.959999" startX="59.074" endY="21.96" endX="59.074" type="linear">
				<item offset="0" color="#FFD0FFAE"/>
				<item offset="1" color="#FF34EBE9"/>
			</gradient>
		</aapt:attr>
	</path>
	<path d="M59.074,18.96m-2.8,0a2.8,2.8 0,1 1,5.6 0a2.8,2.8 0,1 1,-5.6 0" stroke-width="0.4" fill="#00000000" stroke="#000"/>
	<path d="M59.074,30.96m-3,0a3,3 0,1 1,6 0a3,3 0,1 1,-6 0" stroke-width="0.4" stroke="#00000000">
		<aapt:attr name="fill">
			<gradient startY="27.96" startX="59.074" endY="33.96" endX="59.074" type="linear">
				<item offset="0" color="#FFD0FFAE"/>
				<item offset="1" color="#FF34EBE9"/>
			</gradient>
		</aapt:attr>
	</path>
	<path d="M59.074,30.96m-2.8,0a2.8,2.8 0,1 1,5.6 0a2.8,2.8 0,1 1,-5.6 0" stroke-width="0.4" fill="#00000000" stroke="#000"/>
	<path d="M59.074,42.96m-3,0a3,3 0,1 1,6 0a3,3 0,1 1,-6 0" stroke-width="0.4" stroke="#00000000">
		<aapt:attr name="fill">
			<gradient startY="39.96" startX="59.074" endY="45.96" endX="59.074" type="linear">
				<item offset="0" color="#FFD0FFAE"/>
				<item offset="1" color="#FF34EBE9"/>
			</gradient>
		</aapt:attr>
	</path>
	<path d="M59.074,42.96m-2.8,0a2.8,2.8 0,1 1,5.6 0a2.8,2.8 0,1 1,-5.6 0" stroke-width="0.4" fill="#00000000" stroke="#000"/>
	<path d="M59.074,54.96m-3,0a3,3 0,1 1,6 0a3,3 0,1 1,-6 0" stroke-width="0.4" stroke="#00000000">
		<aapt:attr name="fill">
			<gradient startY="51.96" startX="59.074" endY="57.96" endX="59.074" type="linear">
				<item offset="0" color="#FFD0FFAE"/>
				<item offset="1" color="#FF34EBE9"/>
			</gradient>
		</aapt:attr>
	</path>
	<path d="M59.074,54.96m-2.8,0a2.8,2.8 0,1 1,5.6 0a2.8,2.8 0,1 1,-5.6 0" stroke-width="0.4" fill="#00000000" stroke="#000"/>
	<path d="M64.739,17.192h13.54" stroke-width="0.4" fill="#00000000" stroke="#000"/>
	<path d="M40.605,42.591l4.05,1.546 8.287,-1.972s1.971,-2.639 2.129,-2.182 -0.717,1.85 -0.717,1.85l4.123,-0.271s0.609,0.625 -0.494,0.765 -2.722,0.434 -2.722,0.434 3.548,0.2 3.216,0.587 -3.406,0.292 -3.406,0.292 2.971,0.388 2.569,0.669 -2.764,0 -2.764,0 3.2,1.113 1.84,1.106a14.387,14.387 0,0 1,-3.316 -0.615,48.752 48.752,0 0,1 -7.792,2.607 18.682,18.682 0,0 1,-5.687 -0.36Z" stroke-width="0.4" fill="#fff" stroke="#000"/>
	<path d="M64.739,29.222h13.54" stroke-width="0.4" fill="#00000000" stroke="#000"/>
	<path d="M64.739,40.862h13.54" stroke-width="0.4" fill="#00000000" stroke="#000"/>
	<path d="M64.739,52.893h13.54" stroke-width="0.4" fill="#00000000" stroke="#000"/>
	<path d="M64.739,20.668h28.554" stroke-width="0.4" fill="#00000000" stroke="#000"/>
	<path d="M64.739,32.698h28.554" stroke-width="0.4" fill="#00000000" stroke="#000"/>
	<path d="M64.739,44.338h28.554" stroke-width="0.4" fill="#00000000" stroke="#000"/>
	<path d="M36.325,37.779a13.156,13.156 0,0 1,-4 -0.518c-2.73,-0.732 -3.174,4.92 -2.042,10.675s-2.519,8.242 0,8.478 10.592,-0.049 10.663,-1.74a44.283,44.283 0,0 0,-1.146 -6.738c-0.008,-0.04 1.146,-1.562 1.146,-1.562l1.172,-3.478 -2.726,-1.752s2.471,0.085 2.471,-1.123 -1.673,-4.911 -2.155,-4.919 -3.384,0.726 -3.384,0.726S37.518,37.932 36.325,37.779Z" stroke-width="0.4" stroke="#000">
		<aapt:attr name="fill">
			<gradient startY="35.093998" startX="34.941" endY="56.649998" endX="34.941" type="linear">
				<item offset="0" color="#FFD0FFAE"/>
				<item offset="1" color="#FF34EBE9"/>
			</gradient>
		</aapt:attr>
	</path>
	<path d="M64.739,56.369h28.554" stroke-width="0.4" fill="#00000000" stroke="#000"/>
	<path d="M39.88,48.51a8.869,8.869 0,0 1,-4.551 -2.824" stroke-width="0.4" fill="#00000000" stroke="#000"/>
	<path fill="#FF000000" d="M39.295,41.099l-2.292,-0.932" stroke-width="0.4" stroke="#000"/>
	<path d="M60.155,16.747l0.75,0.837 1.78,-1.736" stroke-width="0.4001002" fill="#00000000" stroke="#000"/>
	<path d="M60.155,28.747l0.75,0.837 1.78,-1.736" stroke-width="0.4001002" fill="#00000000" stroke="#000"/>
	<path d="M60.155,40.747l0.75,0.837 1.78,-1.736" stroke-width="0.4001002" fill="#00000000" stroke="#000"/>
	<path d="M60.155,52.747l0.75,0.837 1.78,-1.736" stroke-width="0.4001002" fill="#00000000" stroke="#000"/>
	<path d="M165.054,85.38L0.004,85.38" stroke-width="2" fill="#00000000" stroke="#000"/>
	<path d="M100.408,50.114l-12.7,34.236h52.746l10.162,-34.236Z" stroke-width="0.5" stroke="#000">
		<aapt:attr name="fill">
			<gradient startY="50.114" startX="119.162" endY="84.35" endX="119.162" type="linear">
				<item offset="0" color="#FFBBFDB6"/>
				<item offset="1" color="#FF3BECE7"/>
			</gradient>
		</aapt:attr>
	</path>
	<path d="M148.073,59.43L96.661,59.43l3.508,-9.194h50.689Z" stroke-width="0.5" fill="#f88" stroke="#000"/>
	<path d="M161.017,84.347h-21.292l11.354,-33.908v-0.424h0Z" stroke-width="0.5" fill="#ec5f5f" stroke="#000"/>
	<path d="M150.994,49.934l-7.276,34.537h17.3Z" stroke-width="0.5" fill="#f88" stroke="#000"/>
	<path d="M145.532,60.76h-47.665L89.883,83.747h48.148Z" stroke-width="0.5" fill="#fff" stroke="#000"/>
	<path d="M138.083,53.952a2,1.5 122.005,1 0,2.544 1.59a2,1.5 122.005,1 0,-2.544 -1.59z" stroke-width="1.000002" fill="#fff" stroke="#00000000"/>
	<path d="M138.507,54.217a1.5,1 122.005,1 0,1.696 1.06a1.5,1 122.005,1 0,-1.696 -1.06z" stroke-width="1.000002" fill="#00000000" stroke="#000"/>
	<path d="M127.083,53.952a2,1.5 122.005,1 0,2.544 1.59a2,1.5 122.005,1 0,-2.544 -1.59z" stroke-width="1.000002" fill="#fff" stroke="#00000000"/>
	<path d="M127.507,54.217a1.5,1 122.005,1 0,1.696 1.06a1.5,1 122.005,1 0,-1.696 -1.06z" stroke-width="1.000002" fill="#00000000" stroke="#000"/>
	<path d="M115.083,53.952a2,1.5 122.005,1 0,2.544 1.59a2,1.5 122.005,1 0,-2.544 -1.59z" stroke-width="1.000002" fill="#fff" stroke="#00000000"/>
	<path d="M115.507,54.217a1.5,1 122.005,1 0,1.696 1.06a1.5,1 122.005,1 0,-1.696 -1.06z" stroke-width="1.000002" fill="#00000000" stroke="#000"/>
	<path d="M103.083,53.952a2,1.5 122.005,1 0,2.544 1.59a2,1.5 122.005,1 0,-2.544 -1.59z" stroke-width="1.000002" fill="#fff" stroke="#00000000"/>
	<path d="M103.507,54.217a1.5,1 122.005,1 0,1.696 1.06a1.5,1 122.005,1 0,-1.696 -1.06z" stroke-width="1.000002" fill="#00000000" stroke="#000"/>
	<path d="M86.074,79.247L52.061,79.247L52.061,76.092L86.074,76.092L86.074,79.247Z" fill="#fff" stroke="#00000000"/>
	<path d="M52.561,76.592L52.561,78.747L85.574,78.747L85.574,76.592L52.561,76.592M51.561,75.592L86.574,75.592L86.574,79.747L51.561,79.747L51.561,75.592Z" fill="#000" stroke="#00000000"/>
	<path d="M82.061,83.57L48.061,83.57L48.061,80.731L82.061,80.731L82.061,83.57Z" fill="#fff" stroke="#00000000"/>
	<path d="M48.561,81.231L48.561,83.07L81.561,83.07L81.561,81.231L48.561,81.231M47.561,80.231L82.561,80.231L82.561,84.07L47.561,84.07L47.561,80.231Z" fill="#000" stroke="#00000000"/>
	<path d="M139.892,54.747s-1.141,-3.718 -0.88,-5.8 1.238,-4.431 2.9,-3.975c0.781,0.214 1.281,1.494 1.662,3.093a19.5,19.5 0,0 1,0.391 2.642h2.411s-0.651,-6.093 -3.682,-7.4 -4.822,2.053 -5.083,4.2 -0.717,5.383 0.619,7.237S139.892,54.747 139.892,54.747Z" stroke-width="0.5" stroke="#000">
	</path>
	<path d="M128.898,54.747a20.512,20.512 0,0 1,-0.8 -5.8c0.238,-2.085 1.132,-4.431 2.652,-3.975 0.714,0.214 1.172,1.494 1.52,3.093a21.215,21.215 0,0 1,0.358 2.642h2.205s-0.6,-6.093 -3.367,-7.4 -4.411,2.053 -4.649,4.2 -0.656,5.383 0.566,7.237S128.898,54.747 128.898,54.747Z" stroke-width="0.5" stroke="#000">
	</path>
	<path d="M116.898,54.747a20.512,20.512 0,0 1,-0.8 -5.8c0.238,-2.085 1.132,-4.431 2.652,-3.975 0.714,0.214 1.172,1.494 1.52,3.093a21.215,21.215 0,0 1,0.358 2.642h2.205s-0.6,-6.093 -3.367,-7.4 -4.411,2.053 -4.649,4.2 -0.656,5.383 0.566,7.237S116.898,54.747 116.898,54.747Z" stroke-width="0.5" stroke="#000">
	</path>
	<path d="M86.574,76.261h-34.195v2.753h34.195v1.542h-35.241v-5.672h35.241Z" stroke-width="0.1" stroke="#000">
		<aapt:attr name="fill">
			<gradient startY="74.884" startX="68.9535" endY="80.556" endX="68.9535" type="linear">
				<item offset="0" color="#FFBBFDB6"/>
				<item offset="1" color="#FF3BECE7"/>
			</gradient>
		</aapt:attr>
	</path>
	<path d="M82.528,81.005h-34.195v2.276h34.195v1.274h-35.241v-4.689h35.241Z" stroke-width="0.1" stroke="#000">
		<aapt:attr name="fill">
			<gradient startY="79.866" startX="64.9075" endY="84.555" endX="64.9075" type="linear">
				<item offset="0" color="#FFBBFDB6"/>
				<item offset="1" color="#FF3BECE7"/>
			</gradient>
		</aapt:attr>
	</path>
	<path d="M10.253,68.814a3.187,3.187 0,1 0,-3.187 3.187,3.187 3.187,0 0,0 3.187,-3.187" stroke-width="0.5" fill="#f88" stroke="#000"/>
	<path d="M161.253,34.73a3.187,3.187 0,1 0,-3.187 3.187,3.187 3.187,0 0,0 3.187,-3.187" stroke-width="0.5" fill="#f88" stroke="#000"/>
	<path d="M137.32,6.873a1.742,1.742 0,1 0,-1.742 1.742,1.742 1.742,0 0,0 1.742,-1.742" stroke-width="0.5" fill="#f88" stroke="#000"/>
	<path d="M13.738,15.873a1.742,1.742 0,1 0,-1.742 1.742,1.742 1.742,0 0,0 1.742,-1.742" stroke-width="0.5" fill="#f88" stroke="#000"/>
	<path d="M3.238,31.886a0.634,0.634 0,0 1,1.126 0l0.845,1.63a0.627,0.627 0,0 0,0.222 0.243l1.341,0.858a0.634,0.634 0,0 1,0 1.069l-1.285,0.821a0.634,0.634 0,0 0,-0.267 0.356l-0.81,2.767a0.635,0.635 0,0 1,-1.218 0l-0.809,-2.767a0.642,0.642 0,0 0,-0.267 -0.356l-1.285,-0.821a0.635,0.635 0,0 1,0 -1.069l1.341,-0.858a0.625,0.625 0,0 0,0.222 -0.243Z" stroke-width="0.4" fill="#51f7ed" stroke="#000"/>
	<path d="M133.432,28.855a0.454,0.454 0,0 1,0.807 0l0.605,1.168a0.448,0.448 0,0 0,0.159 0.174l0.961,0.614a0.455,0.455 0,0 1,0 0.766l-0.921,0.588a0.455,0.455 0,0 0,-0.191 0.255l-0.58,1.982a0.455,0.455 0,0 1,-0.873 0l-0.579,-1.982a0.459,0.459 0,0 0,-0.191 -0.255l-0.921,-0.588a0.455,0.455 0,0 1,0 -0.766l0.961,-0.614a0.448,0.448 0,0 0,0.159 -0.174Z" stroke-width="0.4" fill="#51f7ed" stroke="#000"/>
	<path d="M104.898,54.747a20.512,20.512 0,0 1,-0.8 -5.8c0.238,-2.085 1.132,-4.431 2.652,-3.975 0.714,0.214 1.172,1.494 1.52,3.093a21.215,21.215 0,0 1,0.358 2.642h2.205s-0.6,-6.093 -3.367,-7.4 -4.411,2.053 -4.649,4.2 -0.656,5.383 0.566,7.237S104.898,54.747 104.898,54.747Z" stroke-width="0.5" stroke="#000">
	</path>
</svg>
