<svg xmlns="http://www.w3.org/2000/svg" xmlns:android="http://schemas.android.com/apk/res/android" xmlns:aapt="http://schemas.android.com/aapt" width="165.054dp" height="78.753dp" viewportWidth="165.054" viewportHeight="78.753">
	<path d="M165.054,70.244L0.004,70.244" stroke-width="2" fill="#00000000" stroke="#000"/>
	<path d="M98.123,39.484l-11.079,29.862h46.005l8.864,-29.862Z" stroke-width="0.5" stroke="#000">
		<aapt:attr name="fill">
			<gradient startY="39.484" startX="114.4785" endY="69.346" endX="114.4785" type="linear">
				<item offset="0" color="#FFBBFDB6"/>
				<item offset="1" color="#FF3BECE7"/>
			</gradient>
		</aapt:attr>
	</path>
	<path d="M139.697,47.61L94.855,47.61l3.06,-8.019h44.212Z" stroke-width="0.5" fill="#f88" stroke="#000"/>
	<path d="M150.987,69.346h-18.571l9.9,-29.575v-0.369h0Z" stroke-width="0.5" fill="#ec5f5f" stroke="#000"/>
	<path d="M142.242,39.327l-6.347,30.124h15.089Z" stroke-width="0.5" fill="#f88" stroke="#000"/>
	<path d="M137.481,48.77h-41.574l-6.964,20.048h42Z" stroke-width="0.5" fill="#fff" stroke="#000"/>
	<path d="M130.983,42.831a1.744,1.308 122.005,1 0,2.218 1.386a1.744,1.308 122.005,1 0,-2.218 -1.386z" stroke-width="1.000002" fill="#fff" stroke="#00000000"/>
	<path d="M131.407,43.096a1.244,0.808 122.005,1 0,1.37 0.856a1.244,0.808 122.005,1 0,-1.37 -0.856z" stroke-width="1.000002" fill="#00000000" stroke="#000"/>
	<path d="M121.39,42.831a1.744,1.308 122.005,1 0,2.218 1.386a1.744,1.308 122.005,1 0,-2.218 -1.386z" stroke-width="1.000002" fill="#fff" stroke="#00000000"/>
	<path d="M121.814,43.096a1.244,0.808 122.005,1 0,1.37 0.856a1.244,0.808 122.005,1 0,-1.37 -0.856z" stroke-width="1.000002" fill="#00000000" stroke="#000"/>
	<path d="M110.922,42.831a1.744,1.308 122.005,1 0,2.218 1.386a1.744,1.308 122.005,1 0,-2.218 -1.386z" stroke-width="1.000002" fill="#fff" stroke="#00000000"/>
	<path d="M111.346,43.096a1.244,0.808 122.005,1 0,1.37 0.856a1.244,0.808 122.005,1 0,-1.37 -0.856z" stroke-width="1.000002" fill="#00000000" stroke="#000"/>
	<path d="M80.055,65.435 L79.892,59.695" stroke-width="0.999861" fill="#00000000" stroke="#000" strokeLineCap="round"/>
	<path d="M100.456,42.831a1.744,1.308 122.005,1 0,2.218 1.386a1.744,1.308 122.005,1 0,-2.218 -1.386z" stroke-width="1.000002" fill="#fff" stroke="#00000000"/>
	<path d="M100.88,43.096a1.244,0.808 122.005,1 0,1.37 0.856a1.244,0.808 122.005,1 0,-1.37 -0.856z" stroke-width="1.000002" fill="#00000000" stroke="#000"/>
	<path fill="#FF000000" d="M55.518,61.842h30.528v3.489h-30.528z"/>
	<path fill="#FF000000" d="M52.029,66.203h30.528v2.617h-30.528z"/>
	<path d="M132.559,43.524a16.494,16.494 0,0 1,-0.767 -5.062c0.227,-1.819 1.08,-3.865 2.529,-3.467 0.681,0.187 1.118,1.3 1.449,2.7a17.061,17.061 0,0 1,0.341 2.3h2.1s-0.568,-5.314 -3.211,-6.451 -4.206,1.79 -4.434,3.666 -0.625,4.7 0.54,6.312S132.559,43.524 132.559,43.524Z" stroke-width="0.5" stroke="#000">
	</path>
	<path d="M122.973,43.524a17.9,17.9 0,0 1,-0.7 -5.062c0.208,-1.819 0.987,-3.865 2.313,-3.467 0.623,0.187 1.022,1.3 1.325,2.7a18.5,18.5 0,0 1,0.313 2.3h1.923s-0.52,-5.314 -2.937,-6.451 -3.848,1.79 -4.055,3.666 -0.572,4.7 0.493,6.312S122.973,43.524 122.973,43.524Z" stroke-width="0.5" stroke="#000">
	</path>
	<path d="M112.506,43.524a17.9,17.9 0,0 1,-0.7 -5.062c0.208,-1.819 0.987,-3.865 2.313,-3.467 0.623,0.187 1.022,1.3 1.325,2.7a18.5,18.5 0,0 1,0.313 2.3h1.923s-0.52,-5.314 -2.937,-6.451 -3.848,1.79 -4.055,3.666 -0.572,4.7 0.493,6.312S112.506,43.524 112.506,43.524Z" stroke-width="0.5" stroke="#000">
	</path>
	<path d="M86.057,62.29h-29.826v2.4h29.826v1.345h-30.738v-4.947h30.738Z" stroke-width="0.1" stroke="#000">
		<aapt:attr name="fill">
			<gradient startY="61.088005" startX="70.688" endY="66.035" endX="70.688" type="linear">
				<item offset="0" color="#FFBBFDB6"/>
				<item offset="1" color="#FF3BECE7"/>
			</gradient>
		</aapt:attr>
	</path>
	<path d="M82.527,66.428h-29.826v1.985h29.826v1.112h-30.738v-4.09h30.738Z" stroke-width="0.1" stroke="#000">
		<aapt:attr name="fill">
			<gradient startY="65.435" startX="67.158005" endY="69.525" endX="67.158005" type="linear">
				<item offset="0" color="#FFBBFDB6"/>
				<item offset="1" color="#FF3BECE7"/>
			</gradient>
		</aapt:attr>
	</path>
	<path d="M59.258,45.531l-4.851,3.074" stroke-width="1" fill="#00000000" stroke="#000" strokeLineCap="round"/>
	<path d="M68.911,54.415 L65.404,58.963" stroke-width="1" fill="#00000000" stroke="#46eee3" strokeLineCap="round"/>
	<path d="M19.489,55.795a2.779,2.779 0,1 0,-2.779 2.779,2.779 2.779,0 0,0 2.779,-2.779" stroke-width="0.5" fill="#f88" stroke="#000"/>
	<path d="M142.472,26.065a2.779,2.779 0,1 0,-2.779 2.779,2.779 2.779,0 0,0 2.779,-2.779" stroke-width="0.5" fill="#f88" stroke="#000"/>
	<path d="M130.319,1.769a1.52,1.52 0,1 0,-1.52 1.52,1.52 1.52,0 0,0 1.52,-1.52" stroke-width="0.5" fill="#f88" stroke="#000"/>
	<path d="M22.529,9.619a1.52,1.52 0,1 0,-1.52 1.52,1.52 1.52,0 0,0 1.52,-1.52" stroke-width="0.5" fill="#f88" stroke="#000"/>
	<path d="M6.724,23.587a0.553,0.553 0,0 1,0.982 0l0.737,1.422a0.547,0.547 0,0 0,0.193 0.212l1.17,0.748a0.553,0.553 0,0 1,0 0.932l-1.121,0.716a0.553,0.553 0,0 0,-0.233 0.311l-0.707,2.413a0.554,0.554 0,0 1,-1.062 0l-0.705,-2.413a0.56,0.56 0,0 0,-0.233 -0.311l-1.121,-0.716a0.554,0.554 0,0 1,0 -0.932l1.17,-0.748a0.545,0.545 0,0 0,0.193 -0.212Z" stroke-width="0.4" fill="#51f7ed" stroke="#000"/>
	<path d="M121.521,13.376a0.4,0.4 0,0 1,0.7 0l0.528,1.018a0.391,0.391 0,0 0,0.138 0.152l0.838,0.536a0.4,0.4 0,0 1,0 0.668l-0.8,0.513a0.4,0.4 0,0 0,-0.167 0.223l-0.506,1.728a0.4,0.4 0,0 1,-0.761 0l-0.505,-1.728a0.4,0.4 0,0 0,-0.167 -0.223l-0.8,-0.513a0.4,0.4 0,0 1,0 -0.668l0.838,-0.536a0.391,0.391 0,0 0,0.139 -0.152Z" stroke-width="0.4" fill="#51f7ed" stroke="#000"/>
	<path d="M109.307,57.801c-0.19,0.106 -3.795,1.87 -4.023,2.506" strokeLineJoin="round" stroke-width="0.5" fill="#00000000" stroke="#fff" strokeLineCap="round"/>
	<path d="M48.695,51.683a8.7,8.7 0,1 1,13.406 -11.1l19.547,23.613a8.7,8.7 0,0 1,-13.407 11.1Z" stroke-width="0.6" fill="#fff" stroke="#000"/>
	<path d="M83.351,71.972l8.607,-37.483 -17.432,6.364 -7.987,26.614a8.7,8.7 0,0 0,16.811 4.5Z" stroke-width="0.6" fill="#fff" stroke="#000"/>
	<path d="M91.967,34.278c0.422,1.085 -3.161,3.5 -8,5.384s-9.113,2.54 -9.536,1.455 3.161,-3.5 8,-5.384S91.544,33.194 91.967,34.278Z" stroke-width="0.6" fill="#00000000" stroke="#000"/>
	<path d="M82.163,34.046v6.254a33.271,33.271 0,0 0,6.032 -2.546c2.933,-1.66 3.431,-2.435 3.431,-2.435l0.166,-1.273 -0.4,-2.425a5.527,5.527 0,0 1,0.664 -3.658l4.613,-8.022a0.912,0.912 0,0 0,-1.559 -0.944l-0.386,0.6 0.081,-0.345a0.611,0.611 0,0 0,-1.042 -0.557l-0.533,0.571v-0.374a0.578,0.578 0,0 0,-1.022 -0.37l-3.849,4.618v-0.253a0.522,0.522 0,0 0,-0.931 -0.325l-5.182,6.534a3.322,3.322 0,0 0,-0.614 2.892Z" stroke-width="0.6" fill="#fff" stroke="#000"/>
	<path fill="#FF000000" d="M93.282,19.125a0.18,0.18 0,0 1,0.038 0.25l-2.988,4.1a0.179,0.179 0,1 1,-0.289 -0.211l2.988,-4.1A0.18,0.18 0,0 1,93.282 19.125ZM94.999,19.458a0.18,0.18 0,0 1,0.037 0.251l-3.044,4.1a0.179,0.179 0,1 1,-0.288 -0.214l3.044,-4.1A0.179,0.179 0,0 1,94.998 19.462ZM88.473,23.003a0.179,0.179 0,0 1,0.03 0.251l-2.49,3.154a0.179,0.179 0,0 1,-0.282 -0.222l2.49,-3.155A0.18,0.18 0,0 1,88.472 23.003Z" fill-rule="evenOdd"/>
	<path d="M20.702,41.526l6.505,28.935h29.442l4.686,-14.307a6.639,6.639 0,0 0,0.232 -3.21l-2.223,-12.718a3.321,3.321 0,0 0,-3.271 -2.749h-32.13A3.32,3.32 0,0 0,20.702 41.526Z" stroke-width="0.6" fill="#fff" stroke="#000"/>
	<path d="M59.359,44.114a0.179,0.179 0,0 1,0.228 0.111l1.2,3.475a17.883,17.883 0,0 1,-0.368 12.63l-1.55,3.77 -1.547,5.029a0.179,0.179 0,0 1,-0.343 -0.105l1.552,-5.044 1.557,-3.786a17.533,17.533 0,0 0,0.361 -12.377l-1.2,-3.475A0.18,0.18 0,0 1,59.359 44.114Z" fill="#171625" fill-rule="evenOdd"/>
	<path d="M28.823,44.066l4.689,26.4h-13.116l-6.38,-24.484a7.467,7.467 0,1 1,14.807 -1.914Z" stroke-width="0.6" fill="#fff" stroke="#000"/>
	<path d="M38.656,28.668a10.03,10.03 0,0 1,-5.663 1.377,10.343 10.343,0 0,1 -9.638,-11 10.411,10.411 0,0 1,8.477 -9.73A10.717,10.717 0,0 1,39.747 6.523c5.728,0.318 10.132,4.889 9.837,10.21a9.028,9.028 0,0 1,-0.523 2.569,7.9 7.9,0 0,1 4.6,6.282 7.777,7.777 0,0 1,-6.665 8.748,7.566 7.566,0 0,1 -0.922,0.057A7.774,7.774 0,0 1,38.656 28.668Z" stroke-width="0.6" fill="#f88" stroke="#000"/>
	<path d="M41.328,42.119C38.782,42.119 36.602,40.213 36.258,37.685L35.734,33.838L35.699,33.587L35.446,33.579C34.849,33.56 34.251,33.463 33.671,33.292C31.948,32.785 30.495,31.655 29.58,30.109C28.666,28.564 28.374,26.746 28.759,24.992L30.442,17.318C30.781,15.776 31.647,14.385 32.88,13.402C34.099,12.431 35.625,11.896 37.176,11.896C37.579,11.896 37.987,11.932 38.388,12.003C41.505,12.556 43.841,15.144 44.067,18.298L44.087,18.574L44.364,18.577C44.58,18.579 44.797,18.607 45.009,18.662C46.716,19.107 47.665,21.16 47.124,23.241C46.809,24.45 46.028,25.47 45.035,25.969L44.84,26.067L44.873,26.283L46.399,36.216C46.795,38.797 45.193,41.257 42.673,41.939C42.232,42.059 41.779,42.119 41.328,42.119Z" strokeLineJoin="round" fill="#fff" stroke="#00000000" fill-rule="evenOdd"/>
	<path d="M37.176,12.196C35.693,12.196 34.233,12.707 33.067,13.637C31.887,14.577 31.059,15.907 30.735,17.383L29.052,25.056C28.683,26.736 28.963,28.476 29.838,29.957C30.714,31.437 32.105,32.519 33.756,33.005C34.312,33.168 34.884,33.261 35.456,33.279C35.748,33.289 35.991,33.508 36.031,33.798L36.555,37.645C36.879,40.025 38.931,41.819 41.328,41.819C41.753,41.819 42.179,41.762 42.594,41.65C44.967,41.008 46.475,38.691 46.103,36.262L44.577,26.328C44.537,26.071 44.668,25.818 44.901,25.701C45.817,25.24 46.54,24.293 46.833,23.165C47.333,21.245 46.48,19.355 44.933,18.953C44.745,18.904 44.553,18.878 44.361,18.877C44.048,18.874 43.79,18.632 43.768,18.32C43.552,15.303 41.318,12.827 38.336,12.298C37.952,12.23 37.562,12.196 37.176,12.196M37.176,11.596C37.593,11.596 38.016,11.632 38.44,11.707C41.754,12.295 44.136,15.064 44.366,18.277C44.605,18.279 44.845,18.31 45.084,18.372C46.955,18.859 47.998,21.072 47.414,23.316C47.063,24.665 46.205,25.717 45.17,26.237L46.696,36.171C47.115,38.9 45.417,41.508 42.751,42.229C39.593,43.083 36.402,40.968 35.961,37.726L35.436,33.879C34.824,33.859 34.203,33.762 33.586,33.58C29.872,32.487 27.636,28.709 28.466,24.928L30.149,17.254C30.885,13.902 33.854,11.596 37.176,11.596Z" strokeLineJoin="round" fill="#000" stroke="#00000000" fill-rule="evenOdd"/>
	<path d="M39.627,32.636l-4.2,1.317 0.307,2.252Z" fill="#171625"/>
	<path d="M34.202,12.044c-1.328,3.984 -2.185,6.151 -6.452,7.242 0,0 -1.01,-1.753 1.523,-4.859s2.244,-2.478 4.928,-2.383c0,0 5.516,-1.628 7.678,-0.091a16.5,16.5 0,0 1,4.067 5.169l0.384,1.054a18.1,18.1 0,0 1,-2.765 0.126l-1.628,3.247 -1.035,-3.585C37.278,17.127 34.966,14.865 34.202,12.044Z" stroke-width="0.6" fill="#f88" stroke="#000"/>
	<path d="M34.107,22.489a0.178,0.178 0,0 1,0.122 0.222l-0.925,3.157 1.145,-0.116a0.179,0.179 0,0 1,0.036 0.356l-1.41,0.143a0.18,0.18 0,0 1,-0.155 -0.064,0.178 0.178,0 0,1 -0.035,-0.165l1,-3.412A0.18,0.18 0,0 1,34.107 22.489Z" fill="#070707" fill-rule="evenOdd"/>
	<path fill="#FF000000" d="M45.442,21.33h-0.008l-0.028,0 -0.1,0.011c-0.088,0.01 -0.21,0.027 -0.345,0.053a2.24,2.24 0,0 0,-0.777 0.271c-0.021,0.015 -0.042,0.03 -0.063,0.047a2.523,2.523 0,0 1,0.8 0.045,2.661 2.661,0 0,1 0.408,0.162c0.06,0.029 0.111,0.055 0.148,0.075l0.043,0.024 0.012,0.007 0,0h0l-0.082,0.149 0.082,-0.149a0.179,0.179 0,1 1,-0.174 0.313h0l-0.011,-0.006 -0.039,-0.021c-0.035,-0.018 -0.082,-0.043 -0.137,-0.069a2.19,2.19 0,0 0,-0.346 -0.139,2.231 2.231,0 0,0 -0.7,-0.032c-0.114,0.009 -0.217,0.022 -0.29,0.033l-0.037,0.006a3.786,3.786 0,0 0,-0.36 0.958c-0.04,0.161 -0.067,0.3 -0.084,0.4 -0.009,0.05 -0.014,0.09 -0.018,0.117s0,0.024 0,0.031v0.009h0a0.179,0.179 0,0 1,-0.356 -0.042l0.178,0.021 -0.178,-0.021h0v-0.012c0,-0.008 0,-0.02 0,-0.035s0.011,-0.073 0.019,-0.127c0.019,-0.107 0.047,-0.257 0.089,-0.427a4,4 0,0 1,0.445 -1.131,1.6 1.6,0 0,1 0.444,-0.482 2.572,2.572 0,0 1,0.91 -0.327c0.146,-0.028 0.277,-0.046 0.371,-0.057l0.112,-0.012 0.031,0h0.012l0.013,0.179 -0.013,-0.179a0.179,0.179 0,0 1,0.025 0.357Z" fill-rule="evenOdd"/>
	<path d="M46.135,32.216l-10.571,2.933 0.166,2.324h-4.095l8.025,22.081 0.221,10.958L50.505,70.512l-2.158,-12.4 2.158,-20.642h-3.6Z" stroke-width="0.6" stroke="#000">
		<aapt:attr name="fill">
			<gradient startY="21.416527" endY="70.512" startX="31.635" endX="50.505" type="linear">
				<item offset="0" color="#FFD0FFAE"/>
				<item offset="1" color="#FF34EBE9"/>
			</gradient>
		</aapt:attr>
	</path>
	<path d="M29.151,20.45l1.476,-6.425 4.014,-2.591 5.7,5.186 2.225,0.171 4.757,2.462 -0.4,-6.667 -3.868,-3.542h-5.93l-8.282,3.038 -3.607,6.166 0.943,4.924Z" fill="#f88"/>
	<path fill="#FF000000" d="M77.256,46.99a1.679,1.679 54.217,1 0,0.538 -3.315a1.679,1.679 54.217,1 0,-0.538 3.315z" strokeLineJoin="round" stroke-width="0.5" stroke="#1a1a1a" strokeLineCap="round"/>
	<path d="M102.039,43.524a17.9,17.9 0,0 1,-0.7 -5.062c0.208,-1.819 0.987,-3.865 2.313,-3.467 0.623,0.187 1.022,1.3 1.325,2.7a18.5,18.5 0,0 1,0.313 2.3h1.923s-0.52,-5.314 -2.937,-6.451 -3.848,1.79 -4.055,3.666 -0.572,4.7 0.493,6.312S102.039,43.524 102.039,43.524Z" stroke-width="0.5" stroke="#000">
	</path>
</svg>
