<?xml version="1.0" encoding="utf-8"?>
<!-- Generator: Adobe Illustrator 27.5.0, SVG Export Plug-In . SVG Version: 6.00 Build 0)  -->
<svg version="1.1" xmlns="http://www.w3.org/2000/svg" xmlns:xlink="http://www.w3.org/1999/xlink" x="0px" y="0px"
	 viewBox="0 0 500 500" style="enable-background:new 0 0 500 500;" xml:space="preserve">
<g id="Background_Complete">
	<g>
		<rect y="382.398" style="fill:#EBEBEB;" width="500" height="0.25"/>
		<rect x="416.779" y="398.494" style="fill:#EBEBEB;" width="33.122" height="0.25"/>
		<rect x="322.527" y="401.208" style="fill:#EBEBEB;" width="8.693" height="0.25"/>
		<rect x="396.586" y="389.208" style="fill:#EBEBEB;" width="19.192" height="0.25"/>
		<rect x="52.459" y="390.888" style="fill:#EBEBEB;" width="43.193" height="0.25"/>
		<rect x="104.556" y="390.888" style="fill:#EBEBEB;" width="6.333" height="0.25"/>
		<rect x="131.471" y="395.111" style="fill:#EBEBEB;" width="93.676" height="0.25"/>
		<path style="fill:#EBEBEB;" d="M237.014,337.8H43.915c-3.147,0-5.708-2.561-5.708-5.708V60.66c0-3.147,2.561-5.708,5.708-5.708
			h193.099c3.146,0,5.707,2.561,5.707,5.708v271.432C242.721,335.239,240.16,337.8,237.014,337.8z M43.915,55.203
			c-3.01,0-5.458,2.448-5.458,5.458v271.432c0,3.01,2.448,5.458,5.458,5.458h193.099c3.009,0,5.457-2.448,5.457-5.458V60.66
			c0-3.009-2.448-5.458-5.457-5.458H43.915z"/>
		<path style="fill:#EBEBEB;" d="M453.31,337.8H260.212c-3.147,0-5.707-2.561-5.707-5.708V60.66c0-3.147,2.561-5.708,5.707-5.708
			H453.31c3.148,0,5.708,2.561,5.708,5.708v271.432C459.019,335.239,456.458,337.8,453.31,337.8z M260.212,55.203
			c-3.009,0-5.457,2.448-5.457,5.458v271.432c0,3.01,2.448,5.458,5.457,5.458H453.31c3.01,0,5.458-2.448,5.458-5.458V60.66
			c0-3.009-2.448-5.458-5.458-5.458H260.212z"/>
	</g>
	<g>
		<path style="fill:#E0E0E0;" d="M130.997,379.143H61.932c7.49-6.882,25.118-6.458,25.118-6.458s-12.227-13.139-7.717-21.56
			c4.51-8.421,16.583,10.043,16.583,10.043s-15.185-27.49-9.536-34.343c5.649-6.854,20.835,30.105,20.835,30.105
			s-9.224-39.111-3.676-40.22c5.549-1.109,11.346,37.086,11.346,37.086s-1.996-34.914,2.676-33.918s2.407,46.562,2.407,46.562
			s4.697-23.245,6.705-15.834c2.008,7.412-2.015,23.313-2.015,23.313C129.286,373.984,130.617,377.148,130.997,379.143z"/>
		<path style="fill:#E0E0E0;" d="M167.244,379.143h89.687c-9.726-8.938-32.618-8.386-32.618-8.386s15.878-17.063,10.021-27.998
			c-5.857-10.935-21.535,13.042-21.535,13.042s19.719-35.698,12.384-44.598c-7.335-8.9-27.057,39.094-27.057,39.094
			s11.979-50.789,4.773-52.23c-7.205-1.441-14.734,48.16-14.734,48.16s2.591-45.34-3.475-44.046
			c-6.066,1.293-3.125,60.465-3.125,60.465s-6.099-30.186-8.707-20.561c-2.608,9.625,2.616,30.274,2.616,30.274
			C169.466,372.443,167.737,376.553,167.244,379.143z"/>
		<path style="fill:#E0E0E0;" d="M249.482,379.143h69.065c-7.49-6.882-25.118-6.458-25.118-6.458s12.227-13.139,7.717-21.56
			c-4.51-8.421-16.583,10.043-16.583,10.043s15.185-27.49,9.536-34.343c-5.649-6.854-20.835,30.105-20.835,30.105
			s9.224-39.111,3.676-40.22c-5.549-1.109-11.346,37.086-11.346,37.086s1.996-34.914-2.676-33.918
			c-4.671,0.996-2.407,46.562-2.407,46.562s-4.697-23.245-6.705-15.834c-2.008,7.412,2.015,23.313,2.015,23.313
			C251.193,373.984,249.862,377.148,249.482,379.143z"/>
		<g>
			<path style="fill:#E0E0E0;" d="M114.587,379.143c-3.059-46.973-10.424-167.274-9.388-218.152l-4.905-0.332
				c0,0-4.908,153.281-2.226,218.484H114.587z"/>
			<polygon style="fill:#E0E0E0;" points="103.895,182.01 116.501,171.762 117.76,165.402 125.333,153.853 126.956,153.26 
				119.491,166.316 119.194,170.702 130.54,168.618 135.292,159.855 140.304,155.916 141.049,157.215 136.781,161.029 
				133.285,170.394 117.743,174.303 101.526,193.946 			"/>
			<polygon style="fill:#E0E0E0;" points="101.418,172.484 100.808,176.775 87.176,163.73 78.777,162.066 72.297,157.598 
				72.744,157.166 78.898,161.086 85.718,161.415 79.256,153.376 72.896,148.747 73.332,148.479 79.71,152.613 90.211,163.24 
				89.171,153.518 86.737,149.386 86.501,148.247 89.563,152.751 97.544,150.118 98.209,150.616 90.024,153.534 91.5,164.252 			"/>
			<path style="fill:#E0E0E0;" d="M146.792,155.742c0.308-1.742-2.449-2.986-5.427-3.188c-1.494-0.101-4.18-0.416-6.516-1.03
				c0.279-0.622,0.08-1.378,0.48-2.458c0.87-2.352,0.406-3.944-2.207-5.996c-2.613-2.051-5.247-1.654-10.965-0.983
				c-5.718,0.671-4.914-1.919-10.081-4.384c-5.166-2.465-23.124-1.44-26.432,0.856c-1.99,1.38-9.751,0.574-11.909,3.954
				c-2.158,3.38-14.895,2.518-13.211,5.452c1.684,2.935,3.702,3.071,3.37,7.985c-0.333,4.914,4.123,3.276,8.585,5.128
				c4.462,1.852,3.864-1.62,6.783-1.842c2.919-0.222,2.113-0.516,5.112-1.903c2.999-1.387,2.574,0.353,7.332,2.745
				c2.624,1.319,3.599-0.274,4.408-1.952c0.481,1.113-0.061,2.735,0.919,4.614c0.785,1.505,3.937,1.837,6.936,1.557
				c3.286,6.247,4.701,1.039,8.821,1.485c4.345,0.47,10.885-2.965,13.952-3.333c3.066-0.367,3.264-1.144,6.433,1.312
				c3.169,2.455,16.809-2.338,18.094-4.812C152.553,156.474,146.484,157.484,146.792,155.742z"/>
		</g>
		<g>
			<path style="fill:#E0E0E0;" d="M202.973,379.143c-2.905-45.949-8.044-134.654-7.237-174.234l-4.195-0.284
				c0,0-3.647,113.889-2.285,174.518H202.973z"/>
			<polygon style="fill:#E0E0E0;" points="194.62,222.885 205.401,214.122 206.478,208.682 212.954,198.805 214.343,198.298 
				207.958,209.464 207.704,213.215 217.408,211.433 221.472,203.938 225.759,200.569 226.396,201.68 222.745,204.942 
				219.755,212.952 206.463,216.294 192.594,233.094 			"/>
			<polygon style="fill:#E0E0E0;" points="192.501,214.739 191.98,218.408 180.321,207.252 173.137,205.829 167.596,202.008 
				167.978,201.638 173.241,204.99 179.074,205.272 173.548,198.396 168.108,194.438 168.48,194.209 173.935,197.744 
				182.916,206.833 182.027,198.518 179.945,194.984 179.743,194.01 182.362,197.862 189.188,195.61 189.757,196.036 
				182.756,198.532 184.019,207.699 			"/>
			<path style="fill:#E0E0E0;" d="M231.307,200.42c0.263-1.49-2.095-2.554-4.641-2.726c-1.278-0.086-3.575-0.356-5.573-0.881
				c0.239-0.532,0.068-1.178,0.41-2.103c0.744-2.012,0.347-3.373-1.888-5.128c-2.235-1.755-4.487-1.414-9.378-0.84
				s-4.203-1.641-8.622-3.75c-4.419-2.108-19.777-1.231-22.606,0.732c-1.702,1.181-8.339,0.491-10.185,3.382
				c-1.846,2.891-12.74,2.153-11.299,4.663c1.44,2.51,3.166,2.627,2.882,6.829c-0.284,4.202,3.526,2.802,7.343,4.386
				c3.816,1.584,3.304-1.385,5.801-1.575c2.496-0.19,1.807-0.442,4.372-1.628c2.565-1.186,2.202,0.302,6.271,2.348
				c2.244,1.128,3.078-0.234,3.77-1.67c0.411,0.952-0.052,2.339,0.786,3.946c0.671,1.287,3.367,1.571,5.932,1.332
				c2.81,5.343,4.021,0.889,7.544,1.27c3.716,0.402,9.31-2.536,11.932-2.85c2.622-0.314,2.791-0.978,5.501,1.122
				c2.711,2.1,14.376-1.999,15.475-4.115C236.235,201.047,231.044,201.91,231.307,200.42z"/>
		</g>
		<path style="fill:#E6E6E6;" d="M169.822,333.31c-0.93-6.585-18.446-141.867-22.41-225.812h-6.559
			c0,0,3.686,169.594,14.682,231.407L169.822,333.31z"/>
		<path style="fill:#F0F0F0;" d="M86.918,379.143h174.13c-18.883-10.301-63.328-9.665-63.328-9.665s30.827-19.665,19.456-32.268
			c-11.371-12.603-41.81,15.032-41.81,15.032s38.285-41.142,24.043-51.4c-14.242-10.257-52.531,45.056-52.531,45.056
			s23.257-58.535,9.267-60.195c-13.989-1.66-28.607,55.505-28.607,55.505s5.031-52.255-6.747-50.764
			c-11.778,1.491-6.068,69.688-6.068,69.688s-11.841-34.79-16.905-23.697s5.08,34.891,5.08,34.891
			C91.232,371.421,87.875,376.158,86.918,379.143z"/>
		<polygon style="fill:#E6E6E6;" points="147.569,135.593 163.425,120.818 164.529,112.238 173.568,96.183 175.676,95.248 
			166.915,113.299 166.915,119.164 181.829,115.368 187.365,103.276 193.682,97.581 194.791,99.243 189.452,104.704 
			185.642,117.485 165.307,124.087 145.49,151.694 		"/>
		<polygon style="fill:#E6E6E6;" points="143.413,123.137 142.988,128.903 123.668,112.767 112.338,111.309 103.31,105.945 
			103.866,105.329 112.41,109.993 121.519,109.817 112.193,99.698 103.31,94.11 103.866,93.714 112.728,98.642 127.663,111.841 
			125.403,98.994 121.791,93.714 121.374,92.218 125.856,97.938 136.242,93.714 137.173,94.317 126.54,98.939 129.47,113.073 		"/>
		<path style="fill:#F0F0F0;" d="M202.301,96.765c0.253-2.347-3.53-3.755-7.511-3.755c-1.998,0-5.601-0.178-8.766-0.784
			c0.315-0.853-0.018-1.841,0.417-3.316c0.947-3.21,0.185-5.287-3.478-7.782c-3.663-2.495-7.133-1.728-14.683-0.321
			c-7.551,1.408-6.714-2.112-13.813-4.928c-7.099-2.816-30.909,0.166-35.106,3.52c-2.524,2.017-12.927,1.643-15.496,6.336
			c-2.568,4.693-19.601,4.693-17.094,8.448c2.506,3.754,5.205,3.754,5.205,10.325c0,6.57,5.783,3.989,11.89,6.053
			c6.106,2.063,4.997-2.504,8.862-3.063c3.865-0.559,2.766-0.878,6.633-2.994c3.867-2.116,3.458,0.239,10.007,2.994
			c3.612,1.52,4.765-0.689,5.692-2.996c0.741,1.438,0.165,3.646,1.639,6.058c1.18,1.932,5.406,2.091,9.373,1.448
			c4.937,8.02,6.352,0.959,11.875,1.182c5.826,0.235,14.222-4.928,18.271-5.692c4.048-0.765,4.241-1.817,8.68,1.166
			c4.44,2.983,22.163-4.625,23.651-8.034S202.049,99.111,202.301,96.765z"/>
		<path style="fill:#F5F5F5;" d="M426.03,106.08c0-3.737-3.03-6.767-6.767-6.767c-0.676,0-1.327,0.102-1.943,0.287
			c0.099-0.679,0.152-1.372,0.152-2.078c0-7.914-6.416-14.33-14.33-14.33c-0.902,0-1.784,0.087-2.64,0.247
			c-2.202-3.605-6.162-6.019-10.695-6.019c-6.862,0-12.428,5.513-12.53,12.351c-0.07-0.001-0.138-0.011-0.209-0.011
			c-6.375,0-11.544,5.168-11.544,11.544s5.168,11.544,11.544,11.544h42.394l-0.009-0.01
			C423.102,112.736,426.03,109.753,426.03,106.08z"/>
		<path style="fill:#F5F5F5;" d="M279.918,169.282c0-3.737-3.03-6.767-6.767-6.767c-0.676,0-1.327,0.102-1.943,0.286
			c0.099-0.679,0.152-1.372,0.152-2.078c0-7.915-6.416-14.331-14.33-14.331c-0.902,0-1.784,0.087-2.64,0.247
			c-2.203-3.605-6.162-6.019-10.695-6.019c-6.862,0-12.428,5.513-12.53,12.351c-0.07-0.001-0.138-0.011-0.209-0.011
			c-6.376,0-11.544,5.168-11.544,11.544c0,6.376,5.168,11.544,11.544,11.544h42.394l-0.009-0.01
			C276.99,175.938,279.918,172.955,279.918,169.282z"/>
		<path style="fill:#F5F5F5;" d="M437.151,252.688c0-3.737-3.03-6.767-6.767-6.767c-0.676,0-1.327,0.102-1.943,0.286
			c0.099-0.679,0.152-1.372,0.152-2.078c0-7.914-6.416-14.33-14.33-14.33c-0.902,0-1.784,0.087-2.64,0.247
			c-2.202-3.605-6.162-6.019-10.695-6.019c-6.862,0-12.428,5.513-12.53,12.351c-0.07-0.001-0.138-0.011-0.209-0.011
			c-6.376,0-11.544,5.168-11.544,11.544c0,6.376,5.168,11.544,11.544,11.544h42.394l-0.009-0.01
			C434.223,259.344,437.151,256.361,437.151,252.688z"/>
		<path style="fill:#F5F5F5;" d="M98.806,222.154c0-2.259-1.831-4.09-4.09-4.09c-0.409,0-0.802,0.062-1.174,0.173
			c0.06-0.41,0.092-0.829,0.092-1.256c0-4.784-3.878-8.661-8.661-8.661c-0.545,0-1.078,0.053-1.595,0.149
			c-1.331-2.179-3.724-3.638-6.465-3.638c-4.147,0-7.511,3.332-7.573,7.465c-0.042-0.001-0.084-0.006-0.126-0.006
			c-3.854,0-6.977,3.124-6.977,6.977c0,3.854,3.124,6.977,6.977,6.977h25.623l-0.005-0.006
			C97.036,226.177,98.806,224.375,98.806,222.154z"/>
		<path style="fill:#F5F5F5;" d="M315.73,93.728c0-2.259-1.831-4.09-4.09-4.09c-0.408,0-0.802,0.062-1.174,0.173
			c0.06-0.41,0.092-0.829,0.092-1.256c0-4.784-3.878-8.661-8.661-8.661c-0.545,0-1.078,0.053-1.595,0.149
			c-1.331-2.179-3.724-3.638-6.464-3.638c-4.147,0-7.511,3.332-7.573,7.465c-0.042-0.001-0.084-0.006-0.126-0.006
			c-3.853,0-6.977,3.124-6.977,6.977c0,3.854,3.124,6.977,6.977,6.977h25.624l-0.005-0.006
			C313.961,97.75,315.73,95.948,315.73,93.728z"/>
	</g>
</g>
<g id="Background_Simple" style="display:none;">
	<g style="display:inline;">
		<path style="fill:#407BFF;" d="M405.52,101.625c-27.919-59.449-127.059-51.062-165.317-9.255s-50.696,68.599-85.208,52.983
			s-78.518-11.44-81.042,38.164c-2.525,49.604,37.913,108.263,102.09,125.615c64.177,17.352,64.161,78.759,149.1,66.368
			c46.31-6.756,47.365-56.86,40.825-98.301S437.898,170.569,405.52,101.625z"/>
		<path style="opacity:0.9;fill:#FFFFFF;" d="M405.52,101.625c-27.919-59.449-127.059-51.062-165.317-9.255
			s-50.696,68.599-85.208,52.983s-78.518-11.44-81.042,38.164c-2.525,49.604,37.913,108.263,102.09,125.615
			c64.177,17.352,64.161,78.759,149.1,66.368c46.31-6.756,47.365-56.86,40.825-98.301S437.898,170.569,405.52,101.625z"/>
	</g>
</g>
<g id="Shadow_1_">
	<ellipse id="_x3C_Path_x3E__359_" style="fill:#F5F5F5;" cx="250" cy="416.238" rx="193.889" ry="11.323"/>
</g>
<g id="Tree">
	<g>
		<g>
			<path style="fill:#407BFF;" d="M372.251,400.021c0,0-3.247-0.171-3.571-9.055c-0.324-8.884,5.399-11.256,9.803-10.166
				c0,0-0.643-6.325,2.211-6.093c2.853,0.232,2.659,4.456,2.659,4.456s0.974-8.969,4.869-8.973c3.895-0.004,0,10.61,0,10.61
				s5.389-2.587,7.369,0s-2.475,5.622-2.475,5.622s6.987,2.277,4.066,9.523c0,0,4.869,0.76,6.233,4.003c0,0-0.39-6.544,1.363-6.105
				c1.753,0.439,1.363,6.18,1.363,6.18s2.922-6.306,5.454-4.077c2.532,2.229-1.169,7.569-1.169,7.569s4.869-2.365,5.648,0.768
				c0.779,3.133-2.727,4.3-2.727,4.3s5.064-1.171,5.064,4.64c0,0,9.738-0.93,12.076,4.288h-58.041L372.251,400.021z"/>
			<path style="opacity:0.4;fill:#FFFFFF;enable-background:new    ;" d="M372.251,400.021c0,0-3.247-0.171-3.571-9.055
				c-0.324-8.884,5.399-11.256,9.803-10.166c0,0-0.643-6.325,2.211-6.093c2.853,0.232,2.659,4.456,2.659,4.456
				s0.974-8.969,4.869-8.973c3.895-0.004,0,10.61,0,10.61s5.389-2.587,7.369,0s-2.475,5.622-2.475,5.622s6.987,2.277,4.066,9.523
				c0,0,4.869,0.76,6.233,4.003c0,0-0.39-6.544,1.363-6.105c1.753,0.439,1.363,6.18,1.363,6.18s2.922-6.306,5.454-4.077
				c2.532,2.229-1.169,7.569-1.169,7.569s4.869-2.365,5.648,0.768c0.779,3.133-2.727,4.3-2.727,4.3s5.064-1.171,5.064,4.64
				c0,0,9.738-0.93,12.076,4.288h-58.041L372.251,400.021z"/>
		</g>
		<g>
			<g>
				<g>
					<path style="fill:#407BFF;" d="M342.608,309.022c-1.401,22.957-8.966,107.982-8.966,107.982l54.91,0.506l-15.475-153.594
						l24.642-7.512l5.173-14.931l20.806-11.775l10.172-15.613l-3.93-0.954l-11.231,14.424l-13.104,2.844l5.611-13.285h-6.241
						l-15.599,30.777l-16.01,3.282l-1.462-55.984c-16.075,7.513-21.218-4.997-21.218-4.997s-4.158,87.654-6.495,94.277l0,0
						c-2.035-1.025-4.34-2.787-6.571-4.751c-5.449-4.798-10.104-10.428-13.99-16.561l-1.042-1.645h-4.989L342.608,309.022z"/>
				</g>
				<g style="opacity:0.2;enable-background:new    ;">
					<g>
						<path d="M342.608,309.022c-1.401,22.957-8.966,107.982-8.966,107.982l54.91,0.506l-15.475-153.594l24.642-7.512l5.173-14.931
							l20.806-11.775l10.172-15.613l-3.93-0.954l-11.231,14.424l-13.104,2.844l5.611-13.285h-6.241l-15.599,30.777l-16.01,3.282
							l-1.462-55.984c-16.075,7.513-21.218-4.997-21.218-4.997s-4.158,87.654-6.495,94.277l0,0c-2.035-1.025-4.34-2.787-6.571-4.751
							c-5.449-4.798-10.104-10.428-13.99-16.561l-1.042-1.645h-4.989L342.608,309.022z"/>
					</g>
				</g>
			</g>
			<path style="opacity:0.1;enable-background:new    ;" d="M400.493,237.32l-6.697,12.903l-20.927,5.296
				c0,0,0.068-3.292,0.414-7.514l0.083,3.167l16.009-3.282l15.599-30.778h6.241l-5.611,13.285l13.104-2.844l11.231-14.424
				l0.547,0.133l-8.648,13.09L400.493,237.32z"/>
			<polygon style="fill:#407BFF;enable-background:new    ;" points="370.359,341.557 375.301,417.388 366.592,417.307 
				366.592,357.457 			"/>
			<path style="fill:#407BFF;enable-background:new    ;" d="M342.608,309.022l-25.009-47.509h4.989l1.042,1.645
				c3.886,6.132,8.541,11.763,13.99,16.561c2.231,1.965,4.537,3.727,6.572,4.751c2.337-6.623,6.495-94.277,6.495-94.277
				s2.256,5.476,8.44,7.004c0.238,28.316,0.475,56.631,0.713,84.947c1.774-4.044,3.313-7.893,3.461-12.086
				c0.531,11.602,1.235,24.076,1.191,35.523l-9.62,35.486l-1.92,76.115l-19.311-0.178
				C333.642,417.004,341.207,331.978,342.608,309.022z"/>
		</g>
		<g>
			<g>
				<path style="fill:#407BFF;" d="M280.807,160.661c-8.011,2.857-13.526,11.334-13.275,19.835
					c0.251,8.502,6.02,16.485,13.869,19.762c7.849,3.277,17.356,1.884,24.187-3.184c0.35,8.163,5.933,17.049,13.722,19.517
					c7.789,2.468,16.977-0.411,21.964-6.883c20.992,13.188,94.493,18.078,107.412-38.087c2.668-11.6-3.793-23.886-13.265-31.095
					c-9.472-7.209-21.507-10.161-33.323-11.607c-11.209-17.847-36.065-27.602-56.953-24.799
					c-20.888,2.803-39.461,18.61-45.568,38.781C278.281,142.957,280.497,162.087,280.807,160.661z"/>
			</g>
			<g style="opacity:0.2;enable-background:new    ;">
				<path d="M280.807,160.661c-8.011,2.857-13.526,11.334-13.275,19.835c0.251,8.502,6.02,16.485,13.869,19.762
					c7.849,3.277,17.356,1.884,24.187-3.184c0.35,8.163,5.933,17.049,13.722,19.517c7.789,2.468,16.977-0.411,21.964-6.883
					c20.992,13.188,94.493,18.078,107.412-38.087c2.668-11.6-3.793-23.886-13.265-31.095c-9.472-7.209-21.507-10.161-33.323-11.607
					c-11.209-17.847-36.065-27.602-56.953-24.799c-20.888,2.803-39.461,18.61-45.568,38.781
					C278.281,142.957,280.497,162.087,280.807,160.661z"/>
			</g>
		</g>
		<g>
			<path style="fill:#407BFF;" d="M306.743,271.151c2.377,3.513,6.866,5.465,11.056,4.807c4.19-0.658,7.865-3.893,9.05-7.965
				c4.975,3.5,12.662,2.634,17.699-0.776c5.037-3.41,7.632-10.069,6.23-15.988c-1.402-5.919-6.707-10.707-12.738-11.496
				c-0.629-5.788-3.527-10.65-8.468-13.731c-4.94-3.081-11.309-3.753-16.784-1.772c-6.484-1.189-13.123,1.139-17.854,5.73
				c-3.37,3.27-5.616,7.911-5.223,12.59c0.392,4.679,3.807,9.174,8.418,10.062c-1.536,3.499-1.972,7.427-0.482,10.946
				C299.138,267.077,303.161,269.819,306.743,271.151z"/>
			<path style="opacity:0.2;enable-background:new    ;" d="M306.743,271.151c2.377,3.513,6.866,5.465,11.056,4.807
				c4.19-0.658,7.865-3.893,9.05-7.965c4.975,3.5,12.662,2.634,17.699-0.776c5.037-3.41,7.632-10.069,6.23-15.988
				c-1.402-5.919-6.707-10.707-12.738-11.496c-0.629-5.788-3.527-10.65-8.468-13.731c-4.94-3.081-11.309-3.753-16.784-1.772
				c-6.484-1.189-13.123,1.139-17.854,5.73c-3.37,3.27-5.616,7.911-5.223,12.59c0.392,4.679,3.807,9.174,8.418,10.062
				c-1.536,3.499-1.972,7.427-0.482,10.946C299.138,267.077,303.161,269.819,306.743,271.151z"/>
		</g>
		<g>
			<path style="fill:#407BFF;" d="M412.56,186.234c-4.01-1.382-8.772-0.247-11.728,2.795c-2.955,3.042-3.952,7.835-2.454,11.803
				c-6.08,0.188-11.707,5.496-13.688,11.247c-1.981,5.752-0.058,12.634,4.617,16.526c4.675,3.892,11.792,4.535,17.089,1.544
				c3.979,4.251,9.215,6.399,15.016,5.896c5.801-0.503,11.297-3.789,14.485-8.661c5.899-2.943,9.81-8.791,10.837-15.302
				c0.732-4.638-0.259-9.698-3.383-13.205c-3.123-3.506-8.553-5.05-12.773-2.991c-0.873-3.721-2.882-7.123-6.187-9.043
				C421.089,184.926,416.225,185.149,412.56,186.234z"/>
			<path style="opacity:0.1;enable-background:new    ;" d="M412.56,186.234c-4.01-1.382-8.772-0.247-11.728,2.795
				c-2.955,3.042-3.952,7.835-2.454,11.803c-6.08,0.188-11.707,5.496-13.688,11.247c-1.981,5.752-0.058,12.634,4.617,16.526
				c4.675,3.892,11.792,4.535,17.089,1.544c3.979,4.251,9.215,6.399,15.016,5.896c5.801-0.503,11.297-3.789,14.485-8.661
				c5.899-2.943,9.81-8.791,10.837-15.302c0.732-4.638-0.259-9.698-3.383-13.205c-3.123-3.506-8.553-5.05-12.773-2.991
				c-0.873-3.721-2.882-7.123-6.187-9.043C421.089,184.926,416.225,185.149,412.56,186.234z"/>
		</g>
		<g>
			<path style="fill:#407BFF;" d="M375.446,415.289c0,0-20.163-13.069-16.339-15.275c3.824-2.206,17.275,10.846,17.275,10.846
				s-14.859-21.743-11.188-26.101c3.671-4.358,13.561,17.719,13.561,17.719s-6.725-25.241-1.978-28.01
				c4.747-2.769,6.469,25.297,6.469,25.297s1.855-30.401,10.55-30.025c8.695,0.376-3.964,30.025-3.964,30.025
				s12.264-17.593,16.615-12.599c4.352,4.993-13.846,19.02-13.846,19.02s13.608-6.398,14.518-1.651
				c0.91,4.747-15.013,9.791-15.013,9.791s5.117,1.468,6.301,3.183l-27.232,0.002C371.176,417.51,370.744,416.204,375.446,415.289z"
				/>
			<path style="opacity:0.6;fill:#FFFFFF;enable-background:new    ;" d="M375.446,415.289c0,0-20.163-13.069-16.339-15.275
				c3.824-2.206,17.275,10.846,17.275,10.846s-14.859-21.743-11.188-26.101c3.671-4.358,13.561,17.719,13.561,17.719
				s-6.725-25.241-1.978-28.01c4.747-2.769,6.469,25.297,6.469,25.297s1.855-30.401,10.55-30.025
				c8.695,0.376-3.964,30.025-3.964,30.025s12.264-17.593,16.615-12.599c4.352,4.993-13.846,19.02-13.846,19.02
				s13.608-6.398,14.518-1.651c0.91,4.747-15.013,9.791-15.013,9.791s5.117,1.468,6.301,3.183l-27.232,0.002
				C371.176,417.51,370.744,416.204,375.446,415.289z"/>
		</g>
	</g>
</g>
<g id="Stone">
	<g>
		<g>
			<path style="fill:none;stroke:#407BFF;stroke-miterlimit:10;" d="M88.668,326.154c0,0,6.011-6.864,12.858-2.029
				c6.847,4.835,13.633,40.408,13.633,40.408"/>
			<path style="fill:none;stroke:#407BFF;stroke-miterlimit:10;" d="M112.66,367.472c0,0-2.427-24.452-10.428-32.066
				c-8.001-7.614-13.033,5.859-13.033,5.859"/>
			<g>
				<path style="fill:#407BFF;" d="M107.499,328.369c0,0,4.517-0.908,5.393,2.97c0.877,3.878-7.521,16.313-7.521,16.313
					s-7.625-1.47-7.618-11.492C97.759,326.138,105.989,326.138,107.499,328.369z"/>
				<path style="opacity:0.2;fill:#FFFFFF;enable-background:new    ;" d="M107.499,328.369c0,0,4.517-0.908,5.393,2.97
					c0.877,3.878-7.521,16.313-7.521,16.313s-7.625-1.47-7.618-11.492C97.759,326.138,105.989,326.138,107.499,328.369z"/>
			</g>
			<g>
				<path style="fill:#407BFF;" d="M95.827,335.93c0,0,1.826-2.019-0.562-2.488c-2.388-0.468-13.429,1.514-11.813,12.506
					c0,0,13.241,0.108,14.178-4.323C98.567,337.193,95.827,335.93,95.827,335.93z"/>
				<path style="opacity:0.2;fill:#FFFFFF;enable-background:new    ;" d="M95.827,335.93c0,0,1.826-2.019-0.562-2.488
					c-2.388-0.468-13.429,1.514-11.813,12.506c0,0,13.241,0.108,14.178-4.323C98.567,337.193,95.827,335.93,95.827,335.93z"/>
			</g>
			<g>
				<path style="fill:#407BFF;" d="M112.827,317.083c0,0-0.508-2.024,1.277-1.481c1.785,0.543,8.543,5.862,3.489,12.719
					c0,0-9-4.697-8.038-8.034C110.518,316.95,112.827,317.083,112.827,317.083z"/>
				<path style="opacity:0.2;fill:#FFFFFF;enable-background:new    ;" d="M112.827,317.083c0,0-0.508-2.024,1.277-1.481
					c1.785,0.543,8.543,5.862,3.489,12.719c0,0-9-4.697-8.038-8.034C110.518,316.95,112.827,317.083,112.827,317.083z"/>
			</g>
			<path style="fill:none;stroke:#407BFF;stroke-miterlimit:10;" d="M278.694,371.682c0,0,11.362-41.139,32.28-52.233"/>
			<path style="fill:none;stroke:#407BFF;stroke-miterlimit:10;" d="M278.917,366.973c0,0,20.296-44.008,13.249-58.205"/>
			<path style="fill:none;stroke:#407BFF;stroke-miterlimit:10;" d="M278.11,370.182c0,0,16.5-55.12,26.693-61.62"/>
			<g>
				<path style="fill:#407BFF;" d="M295.324,310.697c0,0,2.983,0.792,3.422-1.042c0.439-1.834-8.744-10.51-17.966-5.717
					c0,0,1.404,8.659,7.325,11.037C294.025,317.354,295.324,310.697,295.324,310.697z"/>
				<path style="opacity:0.2;fill:#FFFFFF;enable-background:new    ;" d="M295.324,310.697c0,0,2.983,0.792,3.422-1.042
					c0.439-1.834-8.744-10.51-17.966-5.717c0,0,1.404,8.659,7.325,11.037C294.025,317.354,295.324,310.697,295.324,310.697z"/>
			</g>
			<g>
				<path style="fill:#407BFF;" d="M302.289,308.508c0,0-3.076,0.259-3.188-1.623c-0.112-1.882,10.445-8.822,18.689-2.492
					c0,0-2.895,8.281-9.14,9.588C302.405,315.289,302.289,308.508,302.289,308.508z"/>
				<path style="opacity:0.2;fill:#FFFFFF;enable-background:new    ;" d="M302.289,308.508c0,0-3.076,0.259-3.188-1.623
					c-0.112-1.882,10.445-8.822,18.689-2.492c0,0-2.895,8.281-9.14,9.588C302.405,315.289,302.289,308.508,302.289,308.508z"/>
			</g>
			<g>
				<path style="fill:#407BFF;" d="M312.065,316.823c0,0-1.365-2.355,1.068-2.316c2.433,0.04,12.819,4.279,8.947,14.693
					c0,0-12.973-2.653-12.966-7.183C309.121,317.487,312.065,316.823,312.065,316.823z"/>
				<path style="opacity:0.2;fill:#FFFFFF;enable-background:new    ;" d="M312.065,316.823c0,0-1.365-2.355,1.068-2.316
					c2.433,0.04,12.819,4.279,8.947,14.693c0,0-12.973-2.653-12.966-7.183C309.121,317.487,312.065,316.823,312.065,316.823z"/>
			</g>
			<g>
				<path style="fill:#407BFF;" d="M302.412,322.704c0,0,0.571-2.008,1.846-0.646c1.275,1.362,4.474,9.345-3.329,12.762
					c0,0-5.452-8.564-2.952-10.974C300.477,321.436,302.412,322.704,302.412,322.704z"/>
				<path style="opacity:0.2;fill:#FFFFFF;enable-background:new    ;" d="M302.412,322.704c0,0,0.571-2.008,1.846-0.646
					c1.275,1.362,4.474,9.345-3.329,12.762c0,0-5.452-8.564-2.952-10.974C300.477,321.436,302.412,322.704,302.412,322.704z"/>
			</g>
			<g>
				<path style="fill:#407BFF;" d="M91.929,323.379c0,0,0.992-1.836-0.871-1.75s-9.726,3.572-6.521,11.464
					c0,0,9.881-2.329,9.772-5.801C94.201,323.821,91.929,323.379,91.929,323.379z"/>
				<path style="opacity:0.2;fill:#FFFFFF;enable-background:new    ;" d="M91.929,323.379c0,0,0.992-1.836-0.871-1.75
					s-9.726,3.572-6.521,11.464c0,0,9.881-2.329,9.772-5.801C94.201,323.821,91.929,323.379,91.929,323.379z"/>
			</g>
		</g>
		<g>
			<path style="fill:#407BFF;" d="M267.68,391.53c0,0-6.595-0.257-7.253-13.568c-0.658-13.311,10.966-16.864,19.912-15.232
				c0,0-1.305-9.478,4.49-9.13c5.795,0.348,5.4,6.677,5.4,6.677s1.978-13.439,9.89-13.445c7.912-0.006,0,15.898,0,15.898
				s10.946-3.877,14.968,0c4.021,3.877-5.028,8.423-5.028,8.423s14.192,3.412,8.258,14.268c0,0,9.89,1.139,12.659,5.998
				c0,0-0.791-9.805,2.769-9.148c3.56,0.658,2.769,9.259,2.769,9.259s5.934-9.449,11.077-6.109
				c5.143,3.34-2.374,11.341-2.374,11.341s9.89-3.543,11.473,1.151c1.582,4.694-5.539,6.443-5.539,6.443s10.286-1.754,10.286,6.952
				c0,0,19.78-1.393,24.527,6.426h-117.89L267.68,391.53z"/>
			<path style="opacity:0.4;fill:#FFFFFF;enable-background:new    ;" d="M267.68,391.53c0,0-6.595-0.257-7.253-13.568
				c-0.658-13.311,10.966-16.864,19.912-15.232c0,0-1.305-9.478,4.49-9.13c5.795,0.348,5.4,6.677,5.4,6.677
				s1.978-13.439,9.89-13.445c7.912-0.006,0,15.898,0,15.898s10.946-3.877,14.968,0c4.021,3.877-5.028,8.423-5.028,8.423
				s14.192,3.412,8.258,14.268c0,0,9.89,1.139,12.659,5.998c0,0-0.791-9.805,2.769-9.148c3.56,0.658,2.769,9.259,2.769,9.259
				s5.934-9.449,11.077-6.109c5.143,3.34-2.374,11.341-2.374,11.341s9.89-3.543,11.473,1.151c1.582,4.694-5.539,6.443-5.539,6.443
				s10.286-1.754,10.286,6.952c0,0,19.78-1.393,24.527,6.426h-117.89L267.68,391.53z"/>
		</g>
		<g>
			<path style="fill:#407BFF;" d="M130.061,391.53c0,0,4.865-0.257,5.35-13.568c0.485-13.311-8.089-16.864-14.689-15.232
				c0,0,0.963-9.478-3.313-9.13c-4.275,0.348-3.983,6.677-3.983,6.677s-1.459-13.439-7.296-13.445c-5.837-0.006,0,15.898,0,15.898
				s-8.075-3.877-11.041,0c-2.966,3.877,3.709,8.423,3.709,8.423s-10.469,3.412-6.092,14.268c0,0-7.296,1.139-9.338,5.998
				c0,0,0.584-9.805-2.043-9.148c-2.627,0.658-2.043,9.259-2.043,9.259s-4.377-9.449-8.171-6.109
				c-3.794,3.34,1.751,11.341,1.751,11.341s-7.296-3.543-8.463,1.151c-1.167,4.694,4.086,6.443,4.086,6.443
				s-7.587-1.754-7.587,6.952c0,0-14.591-1.393-18.093,6.426h86.964L130.061,391.53z"/>
			<path style="opacity:0.4;fill:#FFFFFF;enable-background:new    ;" d="M130.061,391.53c0,0,4.865-0.257,5.35-13.568
				c0.485-13.311-8.089-16.864-14.689-15.232c0,0,0.963-9.478-3.313-9.13c-4.275,0.348-3.983,6.677-3.983,6.677
				s-1.459-13.439-7.296-13.445c-5.837-0.006,0,15.898,0,15.898s-8.075-3.877-11.041,0c-2.966,3.877,3.709,8.423,3.709,8.423
				s-10.469,3.412-6.092,14.268c0,0-7.296,1.139-9.338,5.998c0,0,0.584-9.805-2.043-9.148c-2.627,0.658-2.043,9.259-2.043,9.259
				s-4.377-9.449-8.171-6.109c-3.794,3.34,1.751,11.341,1.751,11.341s-7.296-3.543-8.463,1.151
				c-1.167,4.694,4.086,6.443,4.086,6.443s-7.587-1.754-7.587,6.952c0,0-14.591-1.393-18.093,6.426h86.964L130.061,391.53z"/>
		</g>
		<g>
			<path style="fill:#407BFF;" d="M86.637,415.512c0,0,20.163-13.069,16.339-15.275c-3.824-2.206-17.275,10.846-17.275,10.846
				s14.859-21.743,11.188-26.101c-3.671-4.357-13.561,17.719-13.561,17.719s6.725-25.241,1.978-28.01
				c-4.747-2.769-6.468,25.297-6.468,25.297s-1.855-30.401-10.55-30.025c-8.695,0.377,3.964,30.025,3.964,30.025
				s-12.264-17.593-16.615-12.599c-4.352,4.993,13.846,19.02,13.846,19.02s-13.608-6.398-14.518-1.651
				c-0.91,4.747,15.013,9.791,15.013,9.791s-5.117,1.468-6.301,3.183l27.232,0.002C90.907,417.733,91.339,416.427,86.637,415.512z"
				/>
			<path style="opacity:0.6;fill:#FFFFFF;enable-background:new    ;" d="M86.637,415.512c0,0,20.163-13.069,16.339-15.275
				c-3.824-2.206-17.275,10.846-17.275,10.846s14.859-21.743,11.188-26.101c-3.671-4.357-13.561,17.719-13.561,17.719
				s6.725-25.241,1.978-28.01c-4.747-2.769-6.468,25.297-6.468,25.297s-1.855-30.401-10.55-30.025
				c-8.695,0.377,3.964,30.025,3.964,30.025s-12.264-17.593-16.615-12.599c-4.352,4.993,13.846,19.02,13.846,19.02
				s-13.608-6.398-14.518-1.651c-0.91,4.747,15.013,9.791,15.013,9.791s-5.117,1.468-6.301,3.183l27.232,0.002
				C90.907,417.733,91.339,416.427,86.637,415.512z"/>
		</g>
		<g>
			<path style="fill:#407BFF;" d="M96.725,417.733c0,0,23.209-85.372,27.428-88.537c4.22-3.165,28.291-12.062,28.291-12.062
				s58.549,9.775,67.349,8.809c8.8-0.966,37.081-6.418,41.138,0S281,370.867,281,370.867l22.494,9.494l14.242,37.372H96.725z"/>
			<path style="opacity:0.6;fill:#FFFFFF;enable-background:new    ;" d="M317.74,417.733H96.73c0,0,23.09-84.97,27.39-88.52
				c0.02-0.01,0.03-0.02,0.03-0.02c0.87-0.65,2.57-1.54,4.73-2.55c8.36-3.89,23.56-9.51,23.56-9.51s58.55,9.78,67.35,8.81
				c8.8-0.97,37.08-6.42,41.14,0c0.86,1.37,2.27,4.19,3.95,7.79c6.2,13.29,16.12,37.13,16.12,37.13l22.49,9.5L317.74,417.733z"/>
			<path style="opacity:0.1;enable-background:new    ;" d="M264.88,333.733l-8.73,8.64l-22.75-5.35l-25.74,5.35l1.65,9.95
				l-9.37,11.16l3.33-11.16l-7.3-12.27c0,0-29.62,1.8-37.35,0c-4.85-1.13-19.52-8.27-29.74-13.41c8.36-3.89,23.56-9.51,23.56-9.51
				s58.55,9.78,67.35,8.81c8.8-0.97,37.08-6.42,41.14,0C261.79,327.313,263.2,330.133,264.88,333.733z"/>
			<path style="opacity:0.1;enable-background:new    ;" d="M317.74,417.733H96.73c0,0,23.09-84.97,27.39-88.52
				c0.02-0.01,0.03-0.02,0.03-0.02l-14.24,66.24l7.12,10.97l17.5-13.28l13.42,7.49l18.62-3.76l1.85-9.01l26.38-17.35l-16.56,15.34
				l5.83,17.5l25.35,4.37h28.01l11.58-7.72l-3.86-15.7l-5.83-9.1l29.55-0.07l-12.58,7.79l4.64,13.83l14.23,6.6l16.54-10.21
				l6.74,19.48L317.74,417.733z"/>
		</g>
		<g>
			<g>
				<path style="fill:#407BFF;" d="M288.197,417.733h36.634c0,0-7.295-11.162-10.404-9.746c-4.047,1.844-7.046-8.268-11.526-5.873
					c-1.578,0.844-0.806,3.549-1.801,4.638c-1.642,1.798-3.73,1.45-5.715,2.438C291.499,411.126,290.115,413.692,288.197,417.733z"
					/>
				<path style="opacity:0.2;enable-background:new    ;" d="M288.197,417.733h36.634c0,0-7.295-11.162-10.404-9.746
					c-4.047,1.844-7.046-8.268-11.526-5.873c-1.578,0.844-0.806,3.549-1.801,4.638c-1.642,1.798-3.73,1.45-5.715,2.438
					C291.499,411.126,290.115,413.692,288.197,417.733z"/>
			</g>
			<g>
				<path style="fill:#407BFF;" d="M320.828,414.62c0,0-2.405-13.953-0.745-15.998c1.66-2.045,1.951,7.613,1.951,7.613
					s5.58-20.161,9.151-20.267s-4.24,17.49-4.24,17.49s15.262-24.942,19.699-22.619s-15.975,24.432-15.975,24.432
					s11.164-9.605,13.623-6.893c2.46,2.712-12.393,11.007-12.393,11.007s6.549-1.472,6.542,0.708
					C338.434,412.271,327.384,415.858,320.828,414.62z"/>
				<path style="opacity:0.2;fill:#FFFFFF;enable-background:new    ;" d="M320.828,414.62c0,0-2.405-13.953-0.745-15.998
					c1.66-2.045,1.951,7.613,1.951,7.613s5.58-20.161,9.151-20.267s-4.24,17.49-4.24,17.49s15.262-24.942,19.699-22.619
					s-15.975,24.432-15.975,24.432s11.164-9.605,13.623-6.893c2.46,2.712-12.393,11.007-12.393,11.007s6.549-1.472,6.542,0.708
					C338.434,412.271,327.384,415.858,320.828,414.62z"/>
			</g>
			<g>
				<path style="fill:#407BFF;" d="M318.629,412.627c0,0-11.47-2.081-12.583-3.942c-1.113-1.861,6.438,0.641,6.438,0.641
					s-14.016-10.009-13.089-12.8c0.927-2.792,12.329,8.218,12.329,8.218s-14.979-18.846-11.93-21.621s14.383,19.254,14.383,19.254
					s-4.275-11.346-1.484-12.482c2.792-1.136,5.012,12.692,5.012,12.692s0.711-5.48,2.395-4.859
					C321.784,398.348,321.438,407.906,318.629,412.627z"/>
				<path style="opacity:0.2;fill:#FFFFFF;enable-background:new    ;" d="M318.629,412.627c0,0-11.47-2.081-12.583-3.942
					c-1.113-1.861,6.438,0.641,6.438,0.641s-14.016-10.009-13.089-12.8c0.927-2.792,12.329,8.218,12.329,8.218
					s-14.979-18.846-11.93-21.621s14.383,19.254,14.383,19.254s-4.275-11.346-1.484-12.482c2.792-1.136,5.012,12.692,5.012,12.692
					s0.711-5.48,2.395-4.859C321.784,398.348,321.438,407.906,318.629,412.627z"/>
			</g>
			<g>
				<path style="fill:#407BFF;" d="M317.768,411.102c0,0-11.077-11.097-10.879-14.007c0.198-2.91,6.622,5.647,6.622,5.647
					s-7.809-21.81-4.644-24.183c3.165-2.374,7.319,18.536,7.319,18.536s-2.094-32.313,3.404-33.04
					c5.498-0.727,1.123,32.306,1.123,32.306s3.979-15.815,7.935-14.93c3.956,0.886-4.198,17.868-4.198,17.868
					s4.989-5.51,6.373-3.532C332.207,397.746,324.493,408.041,317.768,411.102z"/>
				<path style="opacity:0.1;fill:#FFFFFF;enable-background:new    ;" d="M317.768,411.102c0,0-11.077-11.097-10.879-14.007
					c0.198-2.91,6.622,5.647,6.622,5.647s-7.809-21.81-4.644-24.183c3.165-2.374,7.319,18.536,7.319,18.536
					s-2.094-32.313,3.404-33.04c5.498-0.727,1.123,32.306,1.123,32.306s3.979-15.815,7.935-14.93
					c3.956,0.886-4.198,17.868-4.198,17.868s4.989-5.51,6.373-3.532C332.207,397.746,324.493,408.041,317.768,411.102z"/>
			</g>
			<path style="fill:#407BFF;" d="M304.339,417.733h29.193c0,0-5.813-8.895-8.291-7.766c-3.225,1.469-5.615-6.589-9.185-4.68
				c-1.258,0.672-0.642,2.828-1.435,3.696c-1.308,1.433-2.973,1.155-4.554,1.943C306.97,412.468,305.867,414.513,304.339,417.733z"
				/>
		</g>
		<g>
			<g>
				<path style="fill:#407BFF;" d="M122.039,417.733H85.405c0,0,7.295-11.162,10.404-9.746c4.047,1.844,7.046-8.268,11.526-5.873
					c1.578,0.844,0.806,3.549,1.801,4.638c1.642,1.798,3.73,1.45,5.715,2.438C118.737,411.126,120.121,413.692,122.039,417.733z"/>
				<path style="opacity:0.2;enable-background:new    ;" d="M122.039,417.733H85.405c0,0,7.295-11.162,10.404-9.746
					c4.047,1.844,7.046-8.268,11.526-5.873c1.578,0.844,0.806,3.549,1.801,4.638c1.642,1.798,3.73,1.45,5.715,2.438
					C118.737,411.126,120.121,413.692,122.039,417.733z"/>
			</g>
			<g>
				<path style="fill:#407BFF;" d="M89.409,414.62c0,0,2.405-13.953,0.745-15.998c-1.66-2.045-1.951,7.613-1.951,7.613
					s-5.58-20.161-9.151-20.267c-3.571-0.106,4.24,17.49,4.24,17.49s-15.262-24.942-19.699-22.619
					c-4.436,2.323,15.975,24.432,15.975,24.432s-11.164-9.605-13.623-6.893c-2.459,2.712,12.393,11.007,12.393,11.007
					s-6.549-1.472-6.542,0.708C71.802,412.271,82.852,415.858,89.409,414.62z"/>
				<path style="opacity:0.2;fill:#FFFFFF;enable-background:new    ;" d="M89.409,414.62c0,0,2.405-13.953,0.745-15.998
					c-1.66-2.045-1.951,7.613-1.951,7.613s-5.58-20.161-9.151-20.267c-3.571-0.106,4.24,17.49,4.24,17.49
					s-15.262-24.942-19.699-22.619c-4.436,2.323,15.975,24.432,15.975,24.432s-11.164-9.605-13.623-6.893
					c-2.459,2.712,12.393,11.007,12.393,11.007s-6.549-1.472-6.542,0.708C71.802,412.271,82.852,415.858,89.409,414.62z"/>
			</g>
			<g>
				<path style="fill:#407BFF;" d="M100.655,415.276c0,0,8.73-7.725,8.717-9.893c-0.013-2.168-5.174,3.886-5.174,3.886
					s6.798-15.825,4.558-17.731c-2.239-1.907-6.283,13.418-6.283,13.418s3.04-23.881-1.006-24.674
					c-4.046-0.792-2.319,23.921-2.319,23.921s-2.225-11.919-5.201-11.443c-2.976,0.475,2.293,13.452,2.293,13.452
					s-3.449-4.318-4.567-2.914C90.554,404.701,95.805,412.695,100.655,415.276z"/>
				<path style="opacity:0.2;fill:#FFFFFF;enable-background:new    ;" d="M100.655,415.276c0,0,8.73-7.725,8.717-9.893
					c-0.013-2.168-5.174,3.886-5.174,3.886s6.798-15.825,4.558-17.731c-2.239-1.907-6.283,13.418-6.283,13.418
					s3.04-23.881-1.006-24.674c-4.046-0.792-2.319,23.921-2.319,23.921s-2.225-11.919-5.201-11.443
					c-2.976,0.475,2.293,13.452,2.293,13.452s-3.449-4.318-4.567-2.914C90.554,404.701,95.805,412.695,100.655,415.276z"/>
			</g>
			<path style="fill:#407BFF;" d="M105.897,417.733H76.704c0,0,5.813-8.895,8.291-7.766c3.225,1.469,5.615-6.589,9.185-4.68
				c1.258,0.672,0.642,2.828,1.435,3.696c1.308,1.433,2.973,1.155,4.554,1.943C103.266,412.468,104.369,414.513,105.897,417.733z"/>
		</g>
	</g>
</g>
<g id="Character">
	<g id="_x3C_Group_x3E__37_">
		<path style="fill:#263238;" d="M174.867,226.041c0,0-33.616-5.245-40.037-2.494c-6.422,2.751-8.532,12.644-8.532,12.644
			s-1.143,2.007,2.33,2.255c0,0-14.229,35.451-9.73,42.245c4.499,6.794,49.82,9.506,55.969,6.184
			C181.016,283.552,195.787,228.535,174.867,226.041z"/>
		<path style="fill:#E4897B;" d="M194.667,259.82c0,0,4.449,10.333,5.453,11.768c1.005,1.435,23.149,11.624,23.149,11.624
			s2.683-0.43,5.41,0c2.727,0.431,6.494,1.579,6.835,2.009c0.341,0.431-4.118,6.889-4.118,6.889s-8.849,0.55-9.945-2.954
			c0,0-22.192-8.24-24.775-10.393c-2.583-2.153-9.759-14.925-9.759-14.925L194.667,259.82z"/>
		<path style="fill:#407BFF;" d="M188.302,237.204c4.159,2.478,10.673,29.181,12.071,32.346
			c1.399,3.165,18.396,10.879,18.396,10.879l-7.544,7.218c0,0-17.193-7.614-19.363-9.79c-2.17-2.176-10.743-24.33-10.743-24.33
			L188.302,237.204z"/>
		<g>
			<path style="fill:#263238;" d="M186.915,298.217c0,0,70.121-10.069,73.823,5.317c3.914,16.269-52.389,27.241-86.04,28.389
				c-33.651,1.147-43.332-6.245-37.926-47.826l45.396-0.11L186.915,298.217z"/>
			<path style="opacity:0.2;enable-background:new    ;" d="M186.915,298.217c0,0,70.121-10.069,73.823,5.317
				c3.914,16.269-52.389,27.241-86.04,28.389c-33.651,1.147-43.332-6.245-37.926-47.826l45.396-0.11L186.915,298.217z"/>
		</g>
		<g>
			<path style="fill:#407BFF;" d="M250.246,322.064c-0.077,0.048-0.176,0.043-0.247-0.013c-0.066-0.047-0.091-0.134-0.059-0.208
				c0.11-0.374,1.224-3.61,2.351-3.95c0.243-0.059,0.499,0.016,0.672,0.197c0.319,0.263,0.472,0.678,0.4,1.085
				c-0.182,0.605-0.551,1.138-1.055,1.52C251.668,321.22,250.977,321.679,250.246,322.064z M250.535,321.443
				c1.048-0.461,1.898-1.28,2.398-2.31c0.058-0.281-0.053-0.571-0.285-0.741c-0.063-0.078-0.169-0.109-0.264-0.077
				c-0.096,0.033-0.184,0.084-0.259,0.151C251.418,319.354,250.88,320.363,250.535,321.443z"/>
			<path style="fill:#407BFF;" d="M250.185,322.106c-0.076,0.028-0.16,0.003-0.209-0.061c-0.105-0.091-1.659-2.051-1.403-3.375
				c0.062-0.332,0.255-0.624,0.536-0.811c0.243-0.234,0.615-0.269,0.897-0.084c0.813,0.573,0.714,3.197,0.315,4.192l-0.029,0.099
				C250.262,322.089,250.224,322.103,250.185,322.106z M249.302,318.262c-0.14,0.122-0.235,0.288-0.269,0.471
				c-0.161,0.837,0.618,2.093,1.04,2.695c0.256-1.12,0.173-2.961-0.303-3.292c-0.052-0.027-0.149-0.103-0.39,0.065L249.302,318.262
				L249.302,318.262z"/>
		</g>
		<polygon style="fill:#E4897B;" points="225.959,330.301 240.655,330.311 247.712,330.317 248.553,322.89 242.028,322.018 
			226.089,319.887 		"/>
		<path style="fill:#263238;" d="M246.961,321.957l-1.789,8.476c-0.1,0.473,0.211,0.934,0.687,1.02l4.225,0.759
			c0,0,5.611,1.427,7.186,0.421c4.604-2.942,9.04-21.59,7.165-22.971c-0.686-0.506-1.876,0.26-2.47,0.868
			c-1.887,1.932-5.917,7.313-7.511,8.905c-1.863,1.862-5.17,1.919-6.621,1.843C247.414,321.257,247.048,321.547,246.961,321.957z"/>
		<polygon style="opacity:0.2;enable-background:new    ;" points="225.959,330.301 240.655,330.311 242.028,322.018 
			226.089,319.887 		"/>
		<g>
			<g>
				<path style="fill:#263238;" d="M170.453,297.712v1.854c0,1.251,1.041,2.399,2.3,2.399h68.387c1.259,0,2.473-1.148,2.473-2.399
					v-1.854H170.453z"/>
				<path style="opacity:0.2;fill:#FFFFFF;enable-background:new    ;" d="M170.453,297.712v1.854c0,1.251,1.041,2.399,2.3,2.399
					h68.387c1.259,0,2.473-1.148,2.473-2.399v-1.854H170.453z"/>
				<path style="opacity:0.2;fill:#FFFFFF;enable-background:new    ;" d="M195.974,297.712v1.854c0,1.251,1.057,2.399,2.308,2.399
					h42.858c1.259,0,2.473-1.148,2.473-2.399v-1.854H195.974z"/>
			</g>
			<g>
				<path style="fill:#263238;" d="M198.282,300.264h45.18c1.387,0,2.858-1.089,3.284-2.424l10.361-32.501
					c0.425-1.336-0.349-2.505-1.735-2.505h-45.18c-1.387,0-2.858,1.17-3.284,2.505l-10.362,32.46
					C196.121,299.134,196.896,300.264,198.282,300.264z"/>
				<path style="opacity:0.2;fill:#FFFFFF;enable-background:new    ;" d="M198.282,300.264h45.18c1.387,0,2.858-1.089,3.284-2.424
					l10.361-32.501c0.425-1.336-0.349-2.505-1.735-2.505h-45.18c-1.387,0-2.858,1.17-3.284,2.505l-10.362,32.46
					C196.121,299.134,196.896,300.264,198.282,300.264z"/>
				<path style="opacity:0.2;fill:#FFFFFF;enable-background:new    ;" d="M199.984,300.264h43.479c1.387,0,2.858-1.089,3.284-2.424
					l10.361-32.501c0.425-1.336-0.349-2.505-1.735-2.505h-43.479c-1.387,0-2.858,1.17-3.284,2.505l-10.362,32.46
					C197.823,299.134,198.597,300.264,199.984,300.264z"/>
			</g>
			<path style="opacity:0.2;fill:#FFFFFF;enable-background:new    ;" d="M226.42,283.037c-0.558,2.165,0.52,3.921,2.406,3.921
				c1.887,0,3.868-1.755,4.425-3.921c0.558-2.165-0.52-3.921-2.406-3.921C228.959,279.117,226.978,280.872,226.42,283.037z"/>
		</g>
		<path style="opacity:0.2;fill:#FFFFFF;enable-background:new    ;" d="M246.961,321.957l-1.789,8.476
			c-0.1,0.473,0.211,0.934,0.687,1.02l4.225,0.759c0,0,5.611,1.427,7.186,0.421c4.604-2.942,9.04-21.59,7.165-22.971
			c-0.686-0.506-1.876,0.26-2.47,0.868c-1.887,1.932-5.917,7.313-7.511,8.905c-1.863,1.862-5.17,1.919-6.621,1.843
			C247.414,321.257,247.048,321.547,246.961,321.957z"/>
		<g>
			<polygon points="150.264,289.985 136.078,290.17 136.349,285.563 150.264,285.262 			"/>
			<polygon points="178.244,284.654 182.478,284.563 183.996,289.544 178.244,289.619 			"/>
			<polygon points="176.434,284.694 176.434,289.643 152.445,289.956 152.445,285.214 			"/>
			<g>
				<path style="fill:#FFFFFF;" d="M162.607,288.778l-0.071-1.927c-0.039-1.073,0.748-1.981,1.755-2.023l4.339-0.182
					c0.483-0.013,0.954,0.163,1.313,0.516c0.358,0.353,0.566,0.833,0.586,1.354l0.071,1.926c0.039,1.072-0.748,1.98-1.755,2.023
					l-4.339,0.182l0,0c-0.024,0.001-0.048,0.002-0.072,0.002C163.458,290.65,162.646,289.825,162.607,288.778z M168.814,289.654
					c0.587-0.025,1.046-0.554,1.023-1.179l-0.071-1.926c-0.011-0.303-0.133-0.584-0.342-0.79c-0.209-0.205-0.482-0.319-0.765-0.3
					l-4.339,0.182c-0.587,0.024-1.046,0.554-1.023,1.179l0.071,1.927c0.023,0.626,0.509,1.119,1.107,1.09L168.814,289.654z"/>
			</g>
			<g>
				<path style="fill:#FFFFFF;" d="M163.352,288.148h2.176c0.276,0,0.5-0.224,0.5-0.5c0-0.276-0.224-0.5-0.5-0.5h-2.176
					c-0.276,0-0.5,0.224-0.5,0.5C162.852,287.924,163.075,288.148,163.352,288.148z"/>
			</g>
		</g>
		<g>
			<path style="fill:#407BFF;" d="M188.302,237.204c0,0-5.471,34.584-3.186,46.952l-50.585,1.471c0,0,5.981-35.728,13.946-49.206
				C148.476,236.42,161.691,214.356,188.302,237.204z"/>
			<path style="opacity:0.6;fill:#FFFFFF;" d="M188.302,237.204c0,0-5.471,34.584-3.186,46.952l-50.585,1.471
				c0,0,5.981-35.728,13.946-49.206C148.476,236.42,161.691,214.356,188.302,237.204z"/>
		</g>
		<g>
			<path style="fill:#E4897B;" d="M158.624,229.5c0,0,8.39,8.198,13.236,6.859c4.855-1.329,6.666-3.805,6.666-3.805
				s-3.892-1.715-3.468-2.639c0.048-0.106,0.174-0.299,0.347-0.578c1.445-2.196,6.589-9.219,6.589-9.219l-11.039-6.184
				c0,0-0.906,2.129-2.013,4.672c-1.493,3.372-3.352,7.466-3.988,8.227C163.854,228.171,158.624,229.5,158.624,229.5z"/>
			<path style="opacity:0.2;enable-background:new    ;" d="M168.941,218.605c0.693,3.892,2.389,8.487,6.464,10.731
				c1.445-2.196,6.589-9.219,6.589-9.219l-11.039-6.184C170.954,213.933,170.048,216.062,168.941,218.605z"/>
		</g>
		<g>
			<path style="fill:#263238;" d="M166.729,210.963c0,0-1.105,3.499-0.89,5.971c0.216,2.473-2.554,3.309-2.9,1.803
				c0,0,0.05,3.655,2.423,3.107c0,0-0.013,2.525,2.12,2.566c0,0,2.979-3.829,2.655-8.57
				C169.813,211.099,166.729,210.963,166.729,210.963z"/>
			<path style="fill:#263238;" d="M185.736,198.835c-3.599,1.49-2.976,9.85,2.993,17.004c3.675-3.164,5.342-10.46,4.473-13.342
				C191.812,197.885,188.871,197.549,185.736,198.835z"/>
			<path style="fill:#E4897B;" d="M190.982,219.19c0,0,0,0.009-0.009,0.026c-0.344,1.007-0.733,1.951-1.148,2.808
				c-3.549,7.231-13.755,8.634-18.275,1.483c-0.018-0.027-0.035-0.044-0.053-0.071c-2.984-4.811-1.863-9.305-0.618-17.092
				c0.247-1.651,0.874-3.214,1.837-4.582c3.408-4.865,10.108-6.048,14.973-2.64C193.613,203.237,193.259,212.542,190.982,219.19z"/>
			<path style="fill:#263238;" d="M181.876,211.024c-0.14,0.625,0.08,1.207,0.489,1.296c0.408,0.089,0.846-0.338,0.986-0.962
				c0.14-0.625-0.072-1.203-0.477-1.3C182.469,209.96,182.057,210.418,181.876,211.024z"/>
			<path style="fill:#263238;" d="M188.979,212.627c-0.14,0.625,0.08,1.207,0.489,1.296c0.408,0.089,0.854-0.334,0.998-0.967
				c0.143-0.633-0.08-1.207-0.489-1.296C189.569,211.571,189.119,212.002,188.979,212.627z"/>
			<path style="fill:#DE5753;" d="M186.595,212.402c0.317,2.078,0.919,4.103,1.789,6.016c-1.36,0.779-3.115-0.115-3.115-0.115
				L186.595,212.402z"/>
			<path style="fill:#263238;" d="M180.438,208.348c-0.084-0.008-0.162-0.044-0.222-0.103c-0.135-0.158-0.119-0.395,0.037-0.533
				c0.906-0.808,2.149-1.124,3.33-0.845c0.194,0.05,0.311,0.248,0.261,0.442c-0.002,0.009-0.005,0.017-0.007,0.025
				c-0.065,0.194-0.269,0.305-0.467,0.253l0,0c-0.934-0.205-1.91,0.054-2.621,0.694
				C180.659,208.348,180.546,208.372,180.438,208.348z"/>
			<path style="fill:#263238;" d="M192.751,210.957c-0.141-0.033-0.253-0.143-0.288-0.284c-0.192-0.938-0.822-1.728-1.694-2.124
				c-0.195-0.073-0.295-0.288-0.225-0.484c0.071-0.192,0.282-0.293,0.476-0.229c1.113,0.485,1.922,1.479,2.173,2.666
				c0.048,0.2-0.074,0.401-0.273,0.449c-0.002,0-0.004,0.001-0.006,0.001C192.86,210.964,192.805,210.966,192.751,210.957z"/>
			
				<path style="fill:none;stroke:#263238;stroke-width:0.5572;stroke-linecap:round;stroke-linejoin:round;stroke-miterlimit:10;" d="
				M179.219,218.387c0,0,0.816,2.806,4.575,3.456"/>
			<path style="fill:#263238;" d="M192.513,205.066c0,0,2.321-1.78,2.226-3.857c-0.138-3.031-1.963-5.049-4.081-6.308
				c-1.582-1.019-3.892-1.784-7.264-1.982c-8.865-0.522-13.687,2.138-15.205,6.875c-0.94,1.677-0.918,4.791-0.074,7.714
				c0.004,0.019,0.006,0.036,0.01,0.055c0,0,0.004-0.005,0.004-0.005c0.501,1.714,1.278,3.355,2.315,4.584
				c5.392-4.685,7.406-7.992,6.56-10.198c0.172-0.055,2.86-2.451,4.05-2.515c1.711-0.092,4.886,1.538,7.46,3.069
				c1.408,0.837,2.859-0.497,2.859-0.497L192.513,205.066z"/>
			<path style="fill:#E4897B;" d="M165.846,211.669c0.118,1.981,1.016,3.836,2.498,5.156c1.978,1.726,4.092,0.228,4.49-2.227
				c0.356-2.214-0.248-5.782-2.686-6.562C167.711,207.257,165.713,209.239,165.846,211.669z"/>
			<path style="fill:#407BFF;" d="M165.839,216.934c0,0,3.282-12.758,11.392-17.505c8.11-4.747,16.517-1.438,16.517-1.438
				s-0.298-3.409-0.545-3.804s-4.266-1.78-4.266-1.78s-2.286-3.363-5.463-4.451c-3.177-1.088-12.685-1.385-15.991,1.385
				c-3.307,2.769-5.516,8.407-4.115,8.506c1.401,0.099,2.471,0.099,2.471,0.099s-2.616,9.055-1.497,10.412
				C164.343,208.357,162.396,214.659,165.839,216.934z"/>
		</g>
		<g>
			<path style="fill:#407BFF;" d="M182.111,333.745c0.046-0.078,0.135-0.119,0.225-0.104c0.081,0.011,0.143,0.076,0.149,0.157
				c0.077,0.382,0.597,3.765-0.243,4.59c-0.187,0.165-0.449,0.218-0.686,0.139c-0.405-0.085-0.733-0.38-0.859-0.775
				c-0.12-0.62-0.041-1.263,0.226-1.836C181.244,335.154,181.642,334.426,182.111,333.745z M182.143,334.429
				c-0.713,0.896-1.084,2.016-1.046,3.161c0.079,0.276,0.313,0.481,0.597,0.523c0.092,0.04,0.2,0.018,0.27-0.055
				c0.069-0.073,0.124-0.16,0.159-0.254C182.334,336.689,182.341,335.546,182.143,334.429z"/>
			<polygon style="fill:#E4897B;" points="204.491,317.186 190.546,321.823 183.849,324.049 185.4,331.361 191.866,330.125 
				207.66,327.107 			"/>
			<path style="fill:#263238;" d="M187.205,331.742l-0.983-8.607c-0.055-0.48-0.496-0.82-0.974-0.751L181,323
				c0,0-5.774,0.42-6.951,1.873c-3.437,4.247-1.749,23.341,0.466,24.058c0.811,0.263,1.697-0.84,2.069-1.604
				c1.179-2.43,3.301-8.809,4.31-10.823c1.179-2.355,4.298-3.455,5.699-3.842C186.997,332.55,187.253,332.159,187.205,331.742z"/>
			<path style="fill:#407BFF;" d="M182.144,333.679c0.054-0.06,0.141-0.077,0.214-0.043c0.135,0.031,2.423,1.044,2.813,2.334
				c0.1,0.322,0.065,0.671-0.097,0.968c-0.106,0.32-0.419,0.524-0.755,0.492c-0.986-0.129-2.12-2.498-2.23-3.564l-0.02-0.101
				C182.085,333.73,182.111,333.7,182.144,333.679z M184.715,336.671c0.067-0.173,0.074-0.364,0.019-0.542
				c-0.247-0.816-1.522-1.565-2.175-1.901c0.295,1.111,1.225,2.702,1.801,2.773c0.059,0,0.18,0.022,0.314-0.239L184.715,336.671
				L184.715,336.671z"/>
			<polygon style="opacity:0.2;enable-background:new    ;" points="204.491,317.186 190.546,321.823 191.866,330.125 
				207.66,327.107 			"/>
			<g>
				<polygon style="fill:#407BFF;" points="194.292,331.421 198.268,331.792 195.893,318.04 191.324,320.442 				"/>
				<polygon style="opacity:0.6;fill:#FFFFFF;enable-background:new    ;" points="194.292,331.421 198.268,331.792 195.893,318.04 
					191.324,320.442 				"/>
			</g>
			<path style="opacity:0.2;fill:#FFFFFF;enable-background:new    ;" d="M187.205,331.742l-0.983-8.607
				c-0.055-0.48-0.496-0.82-0.974-0.751L181,323c0,0-5.774,0.42-6.951,1.873c-3.437,4.247-1.749,23.341,0.466,24.058
				c0.811,0.263,1.697-0.84,2.069-1.604c1.179-2.43,3.301-8.809,4.31-10.823c1.179-2.355,4.298-3.455,5.699-3.842
				C186.997,332.55,187.253,332.159,187.205,331.742z"/>
		</g>
		<path style="fill:#263238;" d="M239.32,320.939c0,0-65.236-25.337-85.214-21.104c-19.978,4.233-20.072,14.69-9.945,24.436
			c10.126,9.747,25.26,5.992,25.26,5.992s-11.89-7.126-11.061-11.524c0.829-4.398,8.387,5.66,8.387,5.66s39.427,9.641,71.979,7.1
			L239.32,320.939z"/>
		<g>
			<polygon style="fill:#407BFF;" points="240.113,319.883 236.448,318.205 234.341,331.933 239.436,331.099 			"/>
			<polygon style="opacity:0.6;fill:#FFFFFF;enable-background:new    ;" points="240.113,319.883 236.448,318.205 234.341,331.933 
				239.436,331.099 			"/>
		</g>
		<g>
			<path style="fill:#407BFF;" d="M154.484,226.842c0,0,8.824,23.989,8.368,29.392c-0.456,5.403-18.654,45.731-18.654,45.731
				l-15.033,6.043C129.165,308.009,132.288,248.693,154.484,226.842z"/>
			<path style="opacity:0.2;enable-background:new    ;" d="M154.484,226.842c0,0,8.824,23.989,8.368,29.392
				c-0.456,5.403-18.654,45.731-18.654,45.731l-15.033,6.043C129.165,308.009,132.288,248.693,154.484,226.842z"/>
			<path style="fill:#407BFF;" d="M186.346,296.511c0,0-4.713-11.19-6.222-17.394s3.765-38.051,0.93-48.732l7.247,6.819
				l-3.076,39.783L186.346,296.511z"/>
			<path style="opacity:0.2;enable-background:new    ;" d="M186.346,296.511c0,0-4.713-11.19-6.222-17.394
				s3.765-38.051,0.93-48.732l7.247,6.819l-3.076,39.783L186.346,296.511z"/>
			<path style="fill:#263238;" d="M132.822,279.117c0,0,31.285,6.013,26.34-51.152l-5.096-0.448c0,0,3.104,21.72-2.602,35.931
				c-5.706,14.211-19.176,13.539-19.176,13.539L132.822,279.117z"/>
			<path style="fill:#407BFF;" d="M162.669,253.724l-10.501-24.387l-3.186,4.191c0,0-0.565-5.911,1.282-7.626
				c1.846-1.714,6.946,0.431,8.967,0.941C161.252,227.352,162.669,253.724,162.669,253.724z"/>
			<path style="fill:#263238;" d="M179.219,230.759c0,0,4.053,11.988,3.395,30.779s2.714,17.225,2.714,17.225l0.485-1.777
				c0,0-1.895-0.218-1.739-6.547c0.156-6.33,0.978-31.879-1.461-38.588L179.219,230.759z"/>
			<path style="fill:#407BFF;" d="M181.338,253.031c0,0,0.962-18.013-4.057-23.274c0,0,3.793-1.419,5.333,0
				c1.54,1.419,1.915,15.13-1.107,23.967"/>
		</g>
		<path style="fill:#E4897B;" d="M155.929,260.356c0,0,4.578,10.633,5.612,12.11c1.034,1.477,23.822,11.962,23.822,11.962
			s2.762-0.443,5.567,0c2.806,0.443,6.683,1.625,7.033,2.068c0.351,0.443-4.237,7.089-4.237,7.089s-9.106,0.566-10.234-3.04
			c0,0-22.837-8.48-25.495-10.695c-2.658-2.215-10.042-15.359-10.042-15.359L155.929,260.356z"/>
		<path style="fill:#407BFF;" d="M150.264,236.507c4.88,0.015,11.726,29.797,13.033,33.834c1.307,4.037,21.475,12.697,21.475,12.697
			l-6.427,7.612c0,0-21.882-7.9-24.453-11.533c-2.571-3.633-10.362-24.336-10.719-29.117
			C142.813,245.22,147.033,236.497,150.264,236.507z"/>
	</g>
</g>
</svg>
