<?xml version="1.0" encoding="utf-8"?>
<!-- Generator: Adobe Illustrator 27.5.0, SVG Export Plug-In . SVG Version: 6.00 Build 0)  -->
<svg version="1.1" xmlns="http://www.w3.org/2000/svg" xmlns:xlink="http://www.w3.org/1999/xlink" x="0px" y="0px"
	 viewBox="0 0 500 500" style="enable-background:new 0 0 500 500;" xml:space="preserve">
<g id="Background_Complete">
	<g>
		<rect y="382.398" style="fill:#EBEBEB;" width="500" height="0.25"/>
		<rect x="423.667" y="398.494" style="fill:#EBEBEB;" width="26.235" height="0.25"/>
		<rect x="322.527" y="395.236" style="fill:#EBEBEB;" width="34.235" height="0.25"/>
		<rect x="389.333" y="389.208" style="fill:#EBEBEB;" width="26.445" height="0.25"/>
		<rect x="67.695" y="390.888" style="fill:#EBEBEB;" width="43.193" height="0.25"/>
		<rect x="52.459" y="390.888" style="fill:#EBEBEB;" width="6.333" height="0.25"/>
		<rect x="131.471" y="395.111" style="fill:#EBEBEB;" width="56.195" height="0.25"/>
		<path style="fill:#EBEBEB;" d="M237.014,337.8H43.915c-3.147,0-5.708-2.561-5.708-5.708V60.66c0-3.147,2.561-5.708,5.708-5.708
			h193.099c3.146,0,5.707,2.561,5.707,5.708v271.432C242.721,335.239,240.16,337.8,237.014,337.8z M43.915,55.203
			c-3.01,0-5.458,2.448-5.458,5.458v271.432c0,3.01,2.448,5.458,5.458,5.458h193.099c3.009,0,5.457-2.448,5.457-5.458V60.66
			c0-3.009-2.448-5.458-5.457-5.458H43.915z"/>
		<path style="fill:#EBEBEB;" d="M453.31,337.8H260.212c-3.147,0-5.707-2.561-5.707-5.708V60.66c0-3.147,2.561-5.708,5.707-5.708
			H453.31c3.148,0,5.708,2.561,5.708,5.708v271.432C459.019,335.239,456.458,337.8,453.31,337.8z M260.212,55.203
			c-3.009,0-5.457,2.448-5.457,5.458v271.432c0,3.01,2.448,5.458,5.457,5.458H453.31c3.01,0,5.458-2.448,5.458-5.458V60.66
			c0-3.009-2.448-5.458-5.458-5.458H260.212z"/>
	</g>
	<g>
		<g>
			<g>
				<g>
					<rect x="66.623" y="83.458" style="fill:#E6E6E6;" width="271.322" height="155.441"/>
					<rect x="68.509" y="83.458" style="fill:#F0F0F0;" width="273.472" height="155.441"/>
					
						<rect x="133.87" y="30.092" transform="matrix(-1.836970e-16 1 -1 -1.836970e-16 366.4233 -44.0664)" style="fill:#FAFAFA;" width="142.749" height="262.173"/>
					<polygon style="fill:#FFFFFF;" points="106.336,232.553 139.493,89.804 182.959,89.804 149.801,232.553 					"/>
					<polygon style="fill:#FFFFFF;" points="156.835,232.553 189.993,89.804 209.622,89.804 176.465,232.553 					"/>
					<polygon style="fill:#FFFFFF;" points="234.725,232.553 267.883,89.804 301.408,89.804 268.25,232.553 					"/>
					
						<rect x="264.598" y="160.82" transform="matrix(-1.836970e-16 1 -1 -1.836970e-16 497.1512 -174.7944)" style="fill:#E6E6E6;" width="142.749" height="0.717"/>
					<rect x="197.096" y="83.458" style="fill:#F0F0F0;" width="16.299" height="155.441"/>
					
						<rect x="125.362" y="160.82" transform="matrix(-1.836970e-16 1 -1 -1.836970e-16 357.9153 -35.5584)" style="fill:#E6E6E6;" width="142.749" height="0.717"/>
					<rect x="204.961" y="83.458" style="fill:#E6E6E6;" width="0.567" height="155.441"/>
				</g>
			</g>
			<g style="opacity:0.7;">
				
					<rect x="321.396" y="75.222" transform="matrix(-1 -1.224647e-16 1.224647e-16 -1 668.875 275.6059)" style="fill:#EBEBEB;" width="26.084" height="125.161"/>
				<rect x="304.51" y="75.222" style="fill:#E0E0E0;" width="16.886" height="110.547"/>
				
					<rect x="278.426" y="75.222" transform="matrix(-1 -1.224647e-16 1.224647e-16 -1 582.9356 275.6059)" style="fill:#EBEBEB;" width="26.084" height="125.161"/>
				<rect x="261.54" y="75.222" style="fill:#E0E0E0;" width="16.886" height="110.547"/>
				
					<rect x="235.456" y="75.222" transform="matrix(-1 -1.224647e-16 1.224647e-16 -1 496.9964 275.6059)" style="fill:#EBEBEB;" width="26.084" height="125.161"/>
				<rect x="218.57" y="75.222" style="fill:#E0E0E0;" width="16.886" height="110.547"/>
				
					<rect x="192.487" y="75.222" transform="matrix(-1 -1.224647e-16 1.224647e-16 -1 411.0572 275.6059)" style="fill:#EBEBEB;" width="26.084" height="125.161"/>
				<rect x="175.601" y="75.222" style="fill:#E0E0E0;" width="16.886" height="110.547"/>
				
					<rect x="149.517" y="75.222" transform="matrix(-1 -1.224647e-16 1.224647e-16 -1 325.118 275.6059)" style="fill:#EBEBEB;" width="26.084" height="125.161"/>
				<rect x="132.631" y="75.222" style="fill:#E0E0E0;" width="16.886" height="110.547"/>
				
					<rect x="106.547" y="75.222" transform="matrix(-1 -1.224647e-16 1.224647e-16 -1 239.1786 275.6059)" style="fill:#EBEBEB;" width="26.084" height="125.161"/>
				
					<rect x="63.578" y="75.222" transform="matrix(-1 -1.224647e-16 1.224647e-16 -1 153.2394 275.6059)" style="fill:#EBEBEB;" width="26.084" height="125.161"/>
				<rect x="89.662" y="75.222" style="fill:#E0E0E0;" width="16.886" height="110.547"/>
			</g>
		</g>
		<g>
			<rect x="399.635" y="284.333" style="fill:#E6E6E6;" width="33.546" height="98.065"/>
			<polygon style="fill:#F5F5F5;" points="424.223,382.399 433.181,382.399 433.181,365.483 414.831,365.483 			"/>
			<rect x="194.459" y="284.333" style="fill:#E6E6E6;" width="33.546" height="98.065"/>
			<rect x="220.187" y="284.333" style="fill:#F5F5F5;" width="212.994" height="92.243"/>
			<polygon style="fill:#F5F5F5;" points="229.144,382.399 220.187,382.399 220.187,365.483 238.536,365.483 			"/>
			<rect x="227.136" y="292.418" style="fill:#E6E6E6;" width="199.096" height="34.145"/>
			<rect x="227.136" y="333.87" style="fill:#E6E6E6;" width="199.096" height="34.144"/>
		</g>
		<g>
			<g>
				<g>
					<g>
						<g>
							
								<rect x="396.036" y="128.408" transform="matrix(-1 -1.224647e-16 1.224647e-16 -1 843.3378 265.038)" style="fill:#F0F0F0;" width="51.267" height="8.223"/>
							<rect x="371.586" y="128.408" style="fill:#E6E6E6;" width="24.45" height="8.223"/>
						</g>
					</g>
					<g>
						<g>
							<polygon style="fill:#EBEBEB;" points="396.98,136.627 421.669,136.627 403.669,148.379 396.98,148.379 							"/>
						</g>
					</g>
					<g>
						<g>
							<polygon style="fill:#E0E0E0;" points="394.405,136.627 419.094,136.627 401.093,148.379 394.405,148.379 							"/>
						</g>
					</g>
				</g>
				<g>
					
						<rect x="415.302" y="93.204" transform="matrix(-1 -1.224647e-16 1.224647e-16 -1 846.6515 221.6121)" style="fill:#E6E6E6;" width="16.047" height="35.203"/>
					<rect x="431.349" y="93.204" style="fill:#F0F0F0;" width="4.639" height="35.203"/>
					<polygon style="fill:#E6E6E6;" points="394.616,96.308 415.302,96.308 420.288,128.408 399.602,128.408 					"/>
					<polygon style="fill:#F0F0F0;" points="421.283,96.308 415.302,96.308 420.288,128.408 426.268,128.408 					"/>
					
						<rect x="385.08" y="92.028" transform="matrix(-1 -1.224647e-16 1.224647e-16 -1 793.6044 220.4357)" style="fill:#EBEBEB;" width="23.444" height="36.38"/>
					<rect x="408.524" y="92.028" style="fill:#F5F5F5;" width="6.778" height="36.38"/>
					<path style="fill:#E0E0E0;" d="M403.08,128.408h-1v-21.897c0-3.798-3.09-6.889-6.889-6.889s-6.89,3.09-6.89,6.889v21.897h-1
						v-21.897c0-4.35,3.539-7.889,7.89-7.889c4.35,0,7.889,3.539,7.889,7.889V128.408z"/>
				</g>
			</g>
			<g>
				<g>
					<g>
						<g>
							
								<rect x="396.036" y="199.713" transform="matrix(-1 -1.224647e-16 1.224647e-16 -1 843.3378 407.6494)" style="fill:#F0F0F0;" width="51.267" height="8.223"/>
							<rect x="371.586" y="199.713" style="fill:#E6E6E6;" width="24.45" height="8.223"/>
						</g>
					</g>
					<g>
						<g>
							<polygon style="fill:#EBEBEB;" points="396.98,207.932 421.669,207.932 403.669,219.685 396.98,219.685 							"/>
						</g>
					</g>
					<g>
						<g>
							<polygon style="fill:#E0E0E0;" points="394.405,207.932 419.094,207.932 401.093,219.685 394.405,219.685 							"/>
						</g>
					</g>
				</g>
				<g>
					
						<rect x="409.83" y="173.679" transform="matrix(-1 -1.224647e-16 1.224647e-16 -1 843.1044 373.3927)" style="fill:#E0E0E0;" width="23.444" height="26.034"/>
					<rect x="433.274" y="173.679" style="fill:#F0F0F0;" width="6.006" height="26.034"/>
					
						<rect x="402.58" y="166.32" transform="matrix(-1 -1.224647e-16 1.224647e-16 -1 825.252 366.033)" style="fill:#E0E0E0;" width="20.092" height="33.394"/>
					<rect x="422.672" y="166.32" style="fill:#EBEBEB;" width="4.09" height="33.394"/>
					
						<rect x="396.102" y="169.666" transform="matrix(-1 -1.224647e-16 1.224647e-16 -1 809.8131 369.379)" style="fill:#E6E6E6;" width="17.608" height="30.048"/>
					<rect x="413.711" y="169.666" style="fill:#F0F0F0;" width="5.091" height="30.048"/>
					
						<rect x="385.08" y="173.679" transform="matrix(-1 -1.224647e-16 1.224647e-16 -1 793.6044 373.3927)" style="fill:#F0F0F0;" width="23.444" height="26.034"/>
					<rect x="408.524" y="173.679" style="fill:#FAFAFA;" width="3.389" height="26.034"/>
					<path style="fill:#E0E0E0;" d="M403.08,199.713h-1v-21.897c0-3.798-3.09-6.889-6.889-6.889s-6.89,3.09-6.89,6.889v21.897h-1
						v-21.897c0-4.35,3.539-7.889,7.89-7.889c4.35,0,7.889,3.539,7.889,7.889V199.713z"/>
				</g>
			</g>
		</g>
		<g>
			<rect x="143.07" y="300.723" style="fill:#F5F5F5;" width="8.633" height="81.676"/>
			<rect x="147.947" y="300.723" style="fill:#F0F0F0;" width="7.511" height="81.676"/>
			<rect x="56.061" y="300.723" style="fill:#F5F5F5;" width="8.633" height="81.676"/>
			<rect x="60.938" y="300.723" style="fill:#F0F0F0;" width="7.511" height="81.676"/>
			<rect x="175.787" y="300.723" style="fill:#F5F5F5;" width="8.633" height="81.676"/>
			<rect x="180.665" y="300.723" style="fill:#F0F0F0;" width="7.511" height="81.676"/>
			<rect x="88.778" y="300.723" style="fill:#F5F5F5;" width="8.633" height="81.676"/>
			
				<rect x="56.061" y="292.418" transform="matrix(-1 -1.224647e-16 1.224647e-16 -1 244.237 595.199)" style="fill:#F0F0F0;" width="132.115" height="10.363"/>
			
				<rect x="56.061" y="292.418" transform="matrix(-1 -1.224647e-16 1.224647e-16 -1 149.7168 595.199)" style="fill:#E6E6E6;" width="37.594" height="10.363"/>
			<rect x="93.656" y="300.723" style="fill:#F0F0F0;" width="7.511" height="81.676"/>
		</g>
	</g>
</g>
<g id="Background_Simple" style="display:none;">
	<g style="display:inline;">
		<path style="fill:#407BFF;" d="M400.849,198.242c17.23,18.332,27.763,43.213,25.848,68.194
			c-2.439,31.806-27.787,64.466-61.733,63.114c-14.852-0.592-29.02-6.006-43.033-10.962c-21.143-7.478-42.749-14.086-65.019-16.736
			c-21.186-2.521-42.361,3.423-63.236,6.428c-17.789,2.561-36.2,3.653-53.506-1.199c-40.74-11.423-68.412-62.195-67.042-102.468
			c1.517-44.581,32.589-82.924,76.736-91.168c20.815-3.887,42.902-0.591,61.675,9.203c23.998,12.52,45.104,40.772,74.265,41.228
			c18.637,0.292,33.796-3.638,52.506,0.539c19.402,4.331,38.093,12.556,53.464,25.297
			C394.965,192.357,397.998,195.21,400.849,198.242z"/>
		<path style="opacity:0.9;fill:#FFFFFF;" d="M400.849,198.242c17.23,18.332,27.763,43.213,25.848,68.194
			c-2.439,31.806-27.787,64.466-61.733,63.114c-14.852-0.592-29.02-6.006-43.033-10.962c-21.143-7.478-42.749-14.086-65.019-16.736
			c-21.186-2.521-42.361,3.423-63.236,6.428c-17.789,2.561-36.2,3.653-53.506-1.199c-40.74-11.423-68.412-62.195-67.042-102.468
			c1.517-44.581,32.589-82.924,76.736-91.168c20.815-3.887,42.902-0.591,61.675,9.203c23.998,12.52,45.104,40.772,74.265,41.228
			c18.637,0.292,33.796-3.638,52.506,0.539c19.402,4.331,38.093,12.556,53.464,25.297
			C394.965,192.357,397.998,195.21,400.849,198.242z"/>
	</g>
</g>
<g id="Shadow_1_">
	<ellipse id="_x3C_Path_x3E__12_" style="fill:#F5F5F5;" cx="250" cy="416.238" rx="193.889" ry="11.323"/>
</g>
<g id="Books">
	<g>
		<g>
			<g>
				<g>
					<path style="fill:#407BFF;" d="M187.687,366.354h199.935c2.142,0,3.878,1.736,3.878,3.878v42.38
						c0,2.142-1.736,3.878-3.878,3.878H187.687V366.354z"/>
					<path style="opacity:0.2;" d="M187.687,366.354h199.935c2.142,0,3.878,1.736,3.878,3.878v42.38
						c0,2.142-1.736,3.878-3.878,3.878H187.687V366.354z"/>
				</g>
				
					<rect x="236.701" y="366.354" transform="matrix(-1 -1.224647e-16 1.224647e-16 -1 503.9953 782.8446)" style="opacity:0.2;" width="30.594" height="50.136"/>
				
					<rect x="280.437" y="366.354" transform="matrix(-1 -1.224647e-16 1.224647e-16 -1 576.3856 782.8446)" style="opacity:0.2;" width="15.512" height="50.136"/>
				<path style="fill:#407BFF;" d="M187.687,366.354h-66.223c-2.154,0-3.9,1.746-3.9,3.9v42.335c0,2.154,1.746,3.9,3.9,3.9h66.223
					V366.354z"/>
				<path style="opacity:0.9;fill:#FFFFFF;" d="M175.489,371.741h-57.926v39.364h57.926c2.81,0,5.088-2.278,5.088-5.088v-29.188
					C180.577,374.018,178.299,371.741,175.489,371.741z"/>
				<circle style="opacity:0.2;" cx="363.492" cy="391.422" r="14.337"/>
			</g>
			<g>
				<g>
					<path style="fill:#263238;" d="M202.149,329.96h199.935c2.142,0,3.878,1.736,3.878,3.878v28.639
						c0,2.142-1.736,3.878-3.878,3.878H202.149V329.96z"/>
					<path style="opacity:0.2;" d="M202.149,329.96h199.935c2.142,0,3.878,1.736,3.878,3.878v28.639
						c0,2.142-1.736,3.878-3.878,3.878H202.149V329.96z"/>
				</g>
				<path style="fill:#263238;" d="M202.149,329.96h-66.223c-2.154,0-3.901,1.746-3.901,3.9v28.594c0,2.154,1.746,3.901,3.901,3.901
					h66.223V329.96z"/>
				<path style="opacity:0.9;fill:#FFFFFF;" d="M189.951,335.346h-57.926v25.622h57.926c2.81,0,5.088-2.278,5.088-5.088v-15.447
					C195.039,337.624,192.761,335.346,189.951,335.346z"/>
				<g>
					<path style="opacity:0.3;fill:#407BFF;" d="M244.018,357.737h139.895c2.316,0,4.193-1.877,4.193-4.193v-10.772
						c0-2.316-1.877-4.193-4.193-4.193H244.018c-2.316,0-4.193,1.877-4.193,4.193v10.772
						C239.825,355.859,241.702,357.737,244.018,357.737z"/>
					
						<rect x="209.743" y="329.96" transform="matrix(-1 -1.224647e-16 1.224647e-16 -1 424.7918 696.314)" style="opacity:0.3;fill:#407BFF;" width="5.306" height="36.395"/>
					
						<rect x="219.438" y="329.96" transform="matrix(-1 -1.224647e-16 1.224647e-16 -1 444.182 696.314)" style="opacity:0.3;fill:#407BFF;" width="5.306" height="36.395"/>
				</g>
			</g>
			<g>
				<g>
					<path style="fill:#407BFF;" d="M180.039,292.418h199.935c2.142,0,3.878,1.736,3.878,3.878v29.786
						c0,2.142-1.736,3.878-3.878,3.878H180.039V292.418z"/>
					<path style="opacity:0.3;" d="M180.039,292.418h199.935c2.142,0,3.878,1.736,3.878,3.878v29.786
						c0,2.142-1.736,3.878-3.878,3.878H180.039V292.418z"/>
				</g>
				
					<rect x="229.053" y="292.418" transform="matrix(-1 -1.224647e-16 1.224647e-16 -1 527.5255 622.3774)" style="opacity:0.9;fill:#FFFFFF;" width="69.42" height="37.542"/>
				
					<rect x="328.294" y="292.418" transform="matrix(-1 -1.224647e-16 1.224647e-16 -1 691.786 622.3774)" style="opacity:0.9;fill:#FFFFFF;" width="35.198" height="37.542"/>
				<path style="fill:#407BFF;" d="M180.039,292.418h-66.223c-2.154,0-3.9,1.746-3.9,3.901v29.741c0,2.154,1.746,3.9,3.9,3.9h66.223
					V292.418z"/>
				<path style="opacity:0.9;fill:#FFFFFF;" d="M167.841,297.804h-57.926v26.769h57.926c2.81,0,5.088-2.278,5.088-5.088v-16.594
					C172.929,300.082,170.651,297.804,167.841,297.804z"/>
			</g>
			<g>
				<g>
					<path style="fill:#407BFF;" d="M194.501,267.519h199.935c2.142,0,3.878,1.736,3.878,3.878v17.143
						c0,2.142-1.736,3.878-3.878,3.878H194.501V267.519z"/>
					<path style="opacity:0.3;fill:#FFFFFF;" d="M194.501,267.519h199.935c2.142,0,3.878,1.736,3.878,3.878v17.143
						c0,2.142-1.736,3.878-3.878,3.878H194.501V267.519z"/>
					<path style="opacity:0.2;" d="M194.501,267.519h199.935c2.142,0,3.878,1.736,3.878,3.878v17.143
						c0,2.142-1.736,3.878-3.878,3.878H194.501V267.519z"/>
				</g>
				<g>
					<path style="fill:#407BFF;" d="M194.501,267.519h-66.223c-2.154,0-3.9,1.746-3.9,3.9v17.098c0,2.154,1.746,3.9,3.9,3.9h66.223
						V267.519z"/>
					<path style="opacity:0.3;fill:#FFFFFF;" d="M194.501,267.519h-66.223c-2.154,0-3.9,1.746-3.9,3.9v17.098
						c0,2.154,1.746,3.9,3.9,3.9h66.223V267.519z"/>
				</g>
				<path style="opacity:0.9;fill:#FFFFFF;" d="M182.303,272.905h-57.926v14.126h57.926c2.81,0,5.088-2.278,5.088-5.088v-3.951
					C187.391,275.183,185.113,272.905,182.303,272.905z"/>
				
					<rect x="212.396" y="274.082" transform="matrix(-1 -1.224647e-16 1.224647e-16 -1 515.4145 559.937)" style="opacity:0.4;fill:#263238;" width="90.623" height="11.772"/>
			</g>
		</g>
		<g>
			<g>
				<g>
					<path style="fill:#407BFF;" d="M257.493,259.284H228.9c-0.352,0-0.638,0.286-0.638,0.638v6.974
						c0,0.353,0.286,0.638,0.638,0.638h28.593V259.284z"/>
					<path style="opacity:0.2;" d="M257.493,259.284H228.9c-0.352,0-0.638,0.286-0.638,0.638v6.974c0,0.353,0.286,0.638,0.638,0.638
						h28.593V259.284z"/>
				</g>
				<path style="fill:#407BFF;" d="M257.493,259.284h10.898c0.354,0,0.642,0.287,0.642,0.642v6.967c0,0.354-0.287,0.642-0.642,0.642
					h-10.898V259.284z"/>
				<path style="opacity:0.9;fill:#FFFFFF;" d="M259.5,260.17h9.532v6.478H259.5c-0.462,0-0.837-0.375-0.837-0.837v-4.803
					C258.663,260.545,259.038,260.17,259.5,260.17z"/>
			</g>
			<g>
				<g>
					<path style="fill:#263238;" d="M255.113,253.295H226.52c-0.352,0-0.638,0.286-0.638,0.638v4.713
						c0,0.352,0.286,0.638,0.638,0.638h28.593V253.295z"/>
					<path style="opacity:0.2;" d="M255.113,253.295H226.52c-0.352,0-0.638,0.286-0.638,0.638v4.713
						c0,0.352,0.286,0.638,0.638,0.638h28.593V253.295z"/>
				</g>
				<path style="fill:#263238;" d="M255.113,253.295h10.898c0.355,0,0.642,0.287,0.642,0.642v4.705c0,0.354-0.287,0.642-0.642,0.642
					h-10.898V253.295z"/>
				<path style="opacity:0.9;fill:#FFFFFF;" d="M257.121,254.181h9.532v4.216h-9.532c-0.462,0-0.837-0.375-0.837-0.837v-2.542
					C256.283,254.556,256.658,254.181,257.121,254.181z"/>
			</g>
			<g>
				<g>
					<path style="fill:#407BFF;" d="M258.752,247.117h-28.593c-0.352,0-0.638,0.286-0.638,0.638v4.902
						c0,0.352,0.286,0.638,0.638,0.638h28.593V247.117z"/>
					<path style="opacity:0.3;" d="M258.752,247.117h-28.593c-0.352,0-0.638,0.286-0.638,0.638v4.902
						c0,0.352,0.286,0.638,0.638,0.638h28.593V247.117z"/>
				</g>
				<path style="fill:#407BFF;" d="M258.752,247.117h10.898c0.354,0,0.642,0.287,0.642,0.642v4.894c0,0.355-0.287,0.642-0.642,0.642
					h-10.898V247.117z"/>
				<path style="opacity:0.9;fill:#FFFFFF;" d="M260.759,248.003h9.532v4.405h-9.532c-0.462,0-0.837-0.375-0.837-0.837v-2.731
					C259.922,248.378,260.297,248.003,260.759,248.003z"/>
			</g>
			<g>
				<g>
					<path style="fill:#407BFF;" d="M256.372,243.019h-28.593c-0.352,0-0.638,0.286-0.638,0.638v2.821
						c0,0.352,0.286,0.638,0.638,0.638h28.593V243.019z"/>
					<path style="opacity:0.3;fill:#FFFFFF;" d="M256.372,243.019h-28.593c-0.352,0-0.638,0.286-0.638,0.638v2.821
						c0,0.352,0.286,0.638,0.638,0.638h28.593V243.019z"/>
					<path style="opacity:0.2;" d="M256.372,243.019h-28.593c-0.352,0-0.638,0.286-0.638,0.638v2.821
						c0,0.352,0.286,0.638,0.638,0.638h28.593V243.019z"/>
				</g>
				<g>
					<path style="fill:#407BFF;" d="M256.372,243.019h10.898c0.355,0,0.642,0.287,0.642,0.642v2.814
						c0,0.355-0.287,0.642-0.642,0.642h-10.898V243.019z"/>
					<path style="opacity:0.3;fill:#FFFFFF;" d="M256.372,243.019h10.898c0.355,0,0.642,0.287,0.642,0.642v2.814
						c0,0.355-0.287,0.642-0.642,0.642h-10.898V243.019z"/>
				</g>
				<path style="opacity:0.9;fill:#FFFFFF;" d="M258.379,243.906h9.532v2.325h-9.532c-0.462,0-0.837-0.375-0.837-0.837v-0.65
					C257.542,244.281,257.917,243.906,258.379,243.906z"/>
			</g>
			<g>
				<g>
					<path style="fill:#263238;" d="M255.113,237.03H226.52c-0.352,0-0.638,0.286-0.638,0.638v4.713
						c0,0.353,0.286,0.638,0.638,0.638h28.593V237.03z"/>
					<path style="opacity:0.2;" d="M255.113,237.03H226.52c-0.352,0-0.638,0.286-0.638,0.638v4.713c0,0.353,0.286,0.638,0.638,0.638
						h28.593V237.03z"/>
				</g>
				<path style="fill:#263238;" d="M255.113,237.03h7.268c0.354,0,0.642,0.287,0.642,0.642v4.705c0,0.354-0.287,0.642-0.642,0.642
					h-7.268V237.03z"/>
				<path style="opacity:0.9;fill:#FFFFFF;" d="M257.121,237.917h5.903v4.216h-5.903c-0.462,0-0.837-0.375-0.837-0.837v-2.542
					C256.283,238.292,256.658,237.917,257.121,237.917z"/>
			</g>
			<g>
				<g>
					<path style="fill:#407BFF;" d="M258.752,230.852h-28.593c-0.352,0-0.638,0.286-0.638,0.638v4.902
						c0,0.352,0.286,0.638,0.638,0.638h28.593V230.852z"/>
					<path style="opacity:0.3;" d="M258.752,230.852h-28.593c-0.352,0-0.638,0.286-0.638,0.638v4.902
						c0,0.352,0.286,0.638,0.638,0.638h28.593V230.852z"/>
				</g>
				<path style="fill:#407BFF;" d="M258.752,230.852h7.268c0.354,0,0.642,0.287,0.642,0.642v4.894c0,0.355-0.287,0.642-0.642,0.642
					h-7.268V230.852z"/>
				<path style="opacity:0.9;fill:#FFFFFF;" d="M260.759,231.739h5.903v4.405h-5.903c-0.462,0-0.837-0.375-0.837-0.837v-2.731
					C259.922,232.114,260.297,231.739,260.759,231.739z"/>
			</g>
			<g>
				<g>
					<path style="fill:#407BFF;" d="M256.372,226.755h-28.593c-0.352,0-0.638,0.286-0.638,0.638v2.821
						c0,0.352,0.286,0.638,0.638,0.638h28.593V226.755z"/>
					<path style="opacity:0.3;fill:#FFFFFF;" d="M256.372,226.755h-28.593c-0.352,0-0.638,0.286-0.638,0.638v2.821
						c0,0.352,0.286,0.638,0.638,0.638h28.593V226.755z"/>
					<path style="opacity:0.2;" d="M256.372,226.755h-28.593c-0.352,0-0.638,0.286-0.638,0.638v2.821
						c0,0.352,0.286,0.638,0.638,0.638h28.593V226.755z"/>
				</g>
				<g>
					<path style="fill:#407BFF;" d="M256.372,226.755h7.268c0.354,0,0.642,0.287,0.642,0.642v2.814c0,0.355-0.287,0.642-0.642,0.642
						h-7.268V226.755z"/>
					<path style="opacity:0.3;fill:#FFFFFF;" d="M256.372,226.755h7.268c0.354,0,0.642,0.287,0.642,0.642v2.814
						c0,0.355-0.287,0.642-0.642,0.642h-7.268V226.755z"/>
				</g>
				<path style="opacity:0.9;fill:#FFFFFF;" d="M258.379,227.641h5.903v2.325h-5.903c-0.462,0-0.837-0.375-0.837-0.837v-0.65
					C257.542,228.016,257.917,227.641,258.379,227.641z"/>
			</g>
		</g>
	</g>
</g>
<g id="Character_1_">
	<g>
		<g>
			<g>
				<g>
					<g>
						<polygon style="fill:#FFC3BD;" points="106.752,336.495 100.155,333.188 105.508,316.793 112.105,320.1 						"/>
						<path style="fill:#263238;" d="M100.729,330.609l8.105,1.704c0.295,0.062,0.474,0.314,0.431,0.605l-0.956,6.495
							c-0.099,0.674-0.856,1.172-1.533,1.017c-2.812-0.642-4.125-1.091-7.689-1.841c-2.193-0.461-9.755-1.987-12.68-2.997
							c-2.861-0.987-1.843-3.873-0.513-3.707c5.964,0.744,11.125,0.076,13.498-1.095C99.821,330.58,100.297,330.518,100.729,330.609
							z"/>
						<g>
							<polygon style="opacity:0.2;" points="112.105,320.106 105.506,316.797 102.437,326.206 109.349,328.558 							"/>
						</g>
						<g>
							<path style="fill:#407BFF;" d="M178.968,237.427c0,0-56.587,5.488-61.322,26.092c-6.805,29.615-16.008,57.75-16.008,57.75
								l12.66,2.233c1.941-8.431,16.375-38.04,23.146-57.926c15.325-2.291,56.308,6.402,62.443-5.254
								c5.018-9.536,4.897-19.111,4.897-19.111L178.968,237.427z"/>
							<path style="opacity:0.3;" d="M178.968,237.427c0,0-56.587,5.488-61.322,26.092c-6.805,29.615-16.008,57.75-16.008,57.75
								l12.66,2.233c1.941-8.431,16.375-38.04,23.146-57.926c15.325-2.291,56.308,6.402,62.443-5.254
								c5.018-9.536,4.897-19.111,4.897-19.111L178.968,237.427z"/>
						</g>
						<polygon style="fill:#407BFF;" points="115.091,327.981 100.293,322.624 101.004,316.669 116.492,320.75 						"/>
						<path style="fill:#407BFF;" d="M97.907,331.328c0.666,0.14,1.432,0.158,1.977,0.146c0.068-0.001,0.129-0.042,0.155-0.105
							c0.026-0.063,0.013-0.135-0.033-0.184c-0.197-0.209-1.946-2.034-2.899-1.874c-0.221,0.037-0.391,0.173-0.492,0.394
							c-0.166,0.364-0.16,0.686,0.019,0.957C96.86,331.007,97.348,331.211,97.907,331.328z M99.473,331.133
							c-1.345-0.014-2.287-0.254-2.553-0.66c-0.111-0.168-0.108-0.372,0.007-0.626c0.053-0.117,0.128-0.179,0.235-0.197
							C97.676,329.565,98.748,330.425,99.473,331.133z"/>
						<path style="fill:#407BFF;" d="M99.845,331.471c0.026,0.005,0.054,0.005,0.081-0.002c0.057-0.016,0.102-0.059,0.119-0.116
							c0.026-0.086,0.624-2.127,0.044-2.982c-0.157-0.23-0.38-0.359-0.663-0.385c-0.34-0.03-0.595,0.105-0.717,0.381
							c-0.332,0.752,0.427,2.484,1.056,3.063C99.787,331.451,99.815,331.464,99.845,331.471z M99.474,328.339
							c0.14,0.029,0.248,0.103,0.33,0.224c0.347,0.51,0.156,1.71-0.008,2.391c-0.516-0.662-0.991-1.956-0.773-2.45
							c0.041-0.094,0.121-0.199,0.372-0.177C99.422,328.33,99.449,328.334,99.474,328.339z"/>
					</g>
					<path style="fill:#FFC3BD;" d="M185.1,185.619c-0.339,3.723-0.876,7.218-1.463,10.812c-0.618,3.568-1.341,7.132-2.267,10.695
						c-0.921,3.568-1.997,7.134-3.516,10.737c-0.773,1.803-1.621,3.625-2.81,5.47c-0.597,0.923-1.265,1.855-2.112,2.79
						c-0.852,0.929-1.884,1.882-3.276,2.694l-0.411,0.239l-0.235,0.083c-2.724,0.967-4.935,0.614-6.732,0.219
						c-1.808-0.437-3.316-1.129-4.718-1.861c-1.394-0.755-2.663-1.592-3.858-2.499c-0.598-0.452-1.164-0.942-1.726-1.428
						c-0.574-0.492-1.084-0.974-1.66-1.566l3.148-4.55c1.163,0.386,2.428,0.877,3.641,1.235c1.213,0.387,2.41,0.745,3.559,0.997
						c1.137,0.278,2.25,0.421,3.141,0.442c0.883,0.029,1.517-0.239,1.353-0.31l-0.645,0.322c0.247-0.179,1.038-1.063,1.652-2.224
						c0.641-1.158,1.253-2.546,1.789-4.001c1.068-2.933,1.92-6.143,2.665-9.398c0.727-3.267,1.361-6.601,1.916-9.961
						c0.573-3.335,1.035-6.799,1.452-10.062L185.1,185.619z"/>
					<g>
						<path style="fill:#263238;" d="M175.218,180.144c-6.876,5.999-6.501,20.6-6.501,20.6l18.184,6.553
							c3.851-6.006,5.742-17.462,5.397-22.38C191.769,177.363,183.384,173.019,175.218,180.144z"/>
					</g>
					<path style="opacity:0.2;" d="M192.311,185.199c-3.267-1.565-7.741-1.068-12.161,2.792c-4.008,3.49-5.552,9.919-6.133,14.667
						l12.88,4.642C190.683,201.399,192.565,190.253,192.311,185.199z"/>
					<g>
						<polygon style="fill:#FFC3BD;" points="80.665,319.021 78.473,311.982 93.769,303.681 95.961,310.72 						"/>
						<path style="fill:#263238;" d="M78.945,311.323l5.549,6.149c0.202,0.224,0.199,0.533-0.008,0.743l-4.596,4.688
							c-0.477,0.486-1.382,0.444-1.838-0.08c-1.895-2.174-2.692-3.31-5.132-6.014c-1.501-1.663-6.767-7.151-8.84-9.448
							c-2.028-2.247,0.258-4.282,1.342-3.494c4.862,3.533,9.727,6.366,12.335,6.816C78.228,310.765,78.65,310.995,78.945,311.323z"
							/>
						<g>
							<polygon style="opacity:0.2;" points="95.958,310.724 93.765,303.682 82.61,309.741 87.26,315.448 							"/>
						</g>
						<g>
							<path style="fill:#407BFF;" d="M191.803,239.499c0,0-38.836,5.204-46.826,15.816c-13.925,18.495-58.019,48.962-58.019,48.962
								l4.015,12.892c0,0,60.054-25.334,70.735-46.513c19.621-1.506,51.546,4.948,56.575-7.226
								c3.349-8.107,1.702-20.217,1.702-20.217L191.803,239.499z"/>
							<path style="opacity:0.2;" d="M191.803,239.499c0,0-38.836,5.204-46.826,15.816c-13.925,18.495-58.019,48.962-58.019,48.962
								l4.015,12.892c0,0,60.054-25.334,70.735-46.513c19.621-1.506,51.546,4.948,56.575-7.226
								c3.349-8.107,1.702-20.217,1.702-20.217L191.803,239.499z"/>
						</g>
						<polygon style="fill:#407BFF;" points="91.784,319.084 83.237,305.307 88.703,300.82 96.923,315.642 						"/>
						<path style="fill:#407BFF;" d="M76.241,310.243c0.456,0.505,1.065,0.971,1.512,1.282c0.055,0.039,0.129,0.041,0.187,0.006
							c0.058-0.035,0.09-0.101,0.082-0.168c-0.036-0.285-0.375-2.79-1.241-3.221c-0.201-0.1-0.418-0.091-0.629,0.029
							c-0.348,0.197-0.533,0.461-0.548,0.784C75.584,309.367,75.858,309.819,76.241,310.243z M77.621,311.007
							c-1.079-0.803-1.699-1.551-1.675-2.036c0.01-0.201,0.132-0.365,0.374-0.502c0.112-0.063,0.209-0.07,0.306-0.021
							C77.092,308.681,77.452,310.008,77.621,311.007z"/>
						<path style="fill:#407BFF;" d="M77.724,311.499c0.018,0.02,0.041,0.036,0.067,0.046c0.055,0.021,0.117,0.012,0.165-0.024
							c0.072-0.055,1.757-1.352,1.79-2.385c0.009-0.278-0.096-0.514-0.31-0.702c-0.258-0.225-0.543-0.265-0.803-0.114
							c-0.711,0.413-1.117,2.26-0.95,3.098C77.689,311.449,77.703,311.476,77.724,311.499z M79.267,308.749
							c0.096,0.106,0.14,0.229,0.135,0.375c-0.02,0.616-0.881,1.474-1.414,1.928c-0.027-0.839,0.35-2.165,0.817-2.436
							c0.089-0.052,0.215-0.09,0.405,0.076C79.231,308.711,79.25,308.73,79.267,308.749z"/>
					</g>
					<path style="fill:#FFC3BD;" d="M155.387,218.841l-5.873-5.679l-4.084,7.944c0,0,7.143,3.911,8.927,2.124L155.387,218.841z"/>
					<polygon style="fill:#FFC3BD;" points="141.7,213.102 140.639,219.657 145.43,221.107 149.514,213.163 					"/>
					<g>
						<path style="fill:#263238;" d="M219.621,175.202c-0.746-1.949-2.061-3.887-4.147-3.856c-0.434,0.006-2.982,0.047-3.463,0.06
							c-2.402,0.065-5.402,0.224-8.306,0.589c-4.998,0.629-12.206,1.723-16.508,2.876c-2.496,0.677-4.901,1.531-6.814,2.257
							c-0.024,0.01-0.049,0.019-0.073,0.028c-2.242,0.876-3.621,3.135-3.396,5.532c0.996,10.572,3.489,39.921,2.048,55.117
							l41.022,5.407c2.467-7.826,3.444-25.734,3.461-40.335C223.458,194.084,222.67,183.167,219.621,175.202z"/>
					</g>
					<path style="opacity:0.2;" d="M223.243,195.34l-0.814,0.064l-5.203,4.494l-5.372,18.538l-18.48,3.223
						c4.487,2.269,17.545,2.733,25.27,0.687c2.594-0.687,4.402-3.041,4.515-5.722c0.195-4.636,0.285-9.338,0.285-13.743
						C223.443,200.49,223.391,197.941,223.243,195.34z"/>
					<g>
						<g>
							<path style="fill:#407BFF;" d="M156.895,201.388c0,0,3.603-1.995,10.377-0.054c6.773,1.941,11.532-0.323,11.532-0.323
								l2.524,4.74l-23.006,0.803L156.895,201.388z"/>
							<path style="opacity:0.8;fill:#FFFFFF;" d="M156.895,201.388c0,0,3.603-1.995,10.377-0.054
								c6.773,1.941,11.532-0.323,11.532-0.323l2.524,4.74l-23.006,0.803L156.895,201.388z"/>
						</g>
						<g>
							<path style="fill:#407BFF;" d="M156.895,201.388c0,0-0.15-1.45-4.52-1.595c-8.794-0.291-12.507-2.541-12.507-2.541
								l-0.359,2.271l18.813,7.031L156.895,201.388z"/>
							<path style="opacity:0.8;fill:#FFFFFF;" d="M156.895,201.388c0,0-0.15-1.45-4.52-1.595
								c-8.794-0.291-12.507-2.541-12.507-2.541l-0.359,2.271l18.813,7.031L156.895,201.388z"/>
						</g>
						<g>
							<path style="fill:#407BFF;" d="M164.283,235.127l-16.244-4.641c-0.403-0.115-0.743-0.46-0.855-0.867l-8.334-30.162
								c-0.189-0.685,0.334-1.212,1.012-1.018l15.509,4.431L164.283,235.127z"/>
							<path style="fill:#407BFF;" d="M189.613,236.538l-21.402-1.192l-8.912-32.256l21.652,1.206
								c0.472,0.026,0.925,0.406,1.058,0.887l8.377,30.32C190.546,236.082,190.183,236.569,189.613,236.538z"/>
							<g>
								<polygon style="fill:#407BFF;" points="164.283,235.127 168.211,235.346 159.299,203.089 155.37,202.87 								"/>
								<polygon style="opacity:0.3;" points="164.283,235.127 168.211,235.346 159.299,203.089 155.37,202.87 								"/>
							</g>
						</g>
					</g>
					<path style="fill:#FFC3BD;" d="M221.631,182.525c0.212,1.449,0.35,2.662,0.445,3.979c0.104,1.292,0.179,2.581,0.233,3.872
						c0.09,2.582,0.07,5.173-0.087,7.773c-0.311,5.198-1.122,10.469-2.893,15.694c-0.021,0.085-0.176,0.52-0.304,0.833
						c-0.137,0.326-0.296,0.64-0.462,0.941c-0.339,0.585-0.727,1.128-1.128,1.571c-0.808,0.91-1.656,1.557-2.462,2.052
						c-1.621,0.986-3.111,1.504-4.539,1.918c-2.85,0.806-5.507,1.06-8.121,1.235c-5.232,0.269-10.211-0.081-15.28-0.858l0.253-5.527
						c4.691-0.463,9.511-1.061,13.98-1.967c2.227-0.445,4.406-1.04,6.2-1.768c0.885-0.359,1.668-0.793,2.088-1.158
						c0.21-0.179,0.309-0.323,0.291-0.346c0.004-0.014-0.051,0.012-0.087,0.069c-0.028,0.03-0.05,0.069-0.075,0.112
						c-0.027,0.025-0.065,0.177-0.017-0.036c0.498-2.079,0.841-4.244,1.102-6.452c0.209-2.224,0.357-4.475,0.397-6.756
						c0.022-2.281-0.002-4.578-0.105-6.878c-0.046-1.15-0.109-2.3-0.199-3.442l-0.144-1.705l-0.148-1.606L221.631,182.525z"/>
					<g>
						<path style="fill:#263238;" d="M221.632,173.692c-4.866-3.716-11.575-3.605-14.324,6.165
							c-1.802,6.404-0.834,19.288-0.834,19.288l19.407-0.397C228.054,188.506,226.548,177.447,221.632,173.692z"/>
					</g>
					<path style="fill:#FFC3BD;" d="M201.804,155.683l-4.083,4.79l-5.558,6.529c0.343,0.845,0.647,1.709,0.87,2.553
						c0.963,3.463-2.156,4.166-5.023,5.914c0,0-4.267,5.655,5.957,4.021s11.735-6.994,11.735-6.994
						C201.151,169.342,201.482,161.66,201.804,155.683z"/>
					<g>
						<path style="fill:#407BFF;" d="M197.123,178.801c-0.941,0.264-1.988,0.508-3.152,0.688c-1.808,0.286-3.162,0.349-4.166,0.254
							l-0.232,1.184c-0.37,0.264-0.458,1.651,1.877,3.304C193.917,183.725,197.75,181.608,197.123,178.801z"/>
						<path style="fill:#263238;" d="M203.935,170.748c0,0-1.939,5.194-8.983,7.093c1.036,2.754-0.639,5.883-0.639,5.883
							s9.849-3.378,11.901-6.749c2.052-3.371,1.166-5.34,1.166-5.34C206.39,171.137,205.256,170.821,203.935,170.748z"/>
						<path style="fill:#263238;" d="M190.027,183.487c0,0,0.071-4.295,1.334-5.734c-0.661-1.939-0.308-2.974,0.704-4.691
							c-1.527,0.411-3.921,1.209-5.302,3.46S186.319,183.546,190.027,183.487z"/>
					</g>
					<path style="opacity:0.2;" d="M192.162,167.002c0.344,0.845,0.647,1.709,0.87,2.553c2.339-0.91,5.127-4.056,5.034-6.591
						c-0.035-0.953-0.171-1.857-0.347-2.491L192.162,167.002z"/>
					<path style="fill:#263238;" d="M178.611,144.2c-1.934,4.051-0.272,13.666,8.876,9.843
						C196.635,150.22,181.75,137.625,178.611,144.2z"/>
					<path style="fill:#263238;" d="M198.688,152.615c-0.836,1.75-0.118,5.905,3.835,4.253
						C206.475,155.215,200.044,149.774,198.688,152.615z"/>
					<path style="fill:#263238;" d="M199.798,155.414c-1.276,1.461-1.704,5.655,2.548,5.128
						C206.597,160.016,201.87,153.044,199.798,155.414z"/>
					<path style="fill:#FFC3BD;" d="M200.8,144.487c1.661,7.75,3.022,12.188,0.314,17.294c-4.074,7.681-14.329,7.142-18.243,0.121
						c-3.523-6.319-5.648-17.931,0.869-23.29C190.16,133.333,199.139,136.737,200.8,144.487z"/>
					<path style="fill:#263238;" d="M199.425,135.476c-1.586-6.874-10.809-4.483-15.51-0.323c-4.779,4.229-5.904,7.428-9.87,9.885
						c7.319,0.971,17.669-1.895,19.608-4.362c-0.22,2.512,1.7,5.382,3.154,6.263c-0.245,2.16,0.018,6.471,0.018,6.471l3.344-1.698
						l3.894-1.563C209.779,140.455,206.393,134.463,199.425,135.476z"/>
					<path style="fill:#FFFFFF;" d="M191.09,149.818c-0.127,0-0.238-0.091-0.261-0.22c-0.024-0.144,0.072-0.28,0.216-0.305
						l10.839-1.851c0.15-0.026,0.28,0.073,0.306,0.216c0.024,0.144-0.072,0.28-0.216,0.305l-10.839,1.851
						C191.119,149.816,191.105,149.818,191.09,149.818z"/>
					<path style="fill:#FFFFFF;" d="M189.642,156.253c-0.007,0-0.014,0-0.021-0.001c-2-0.014-4.205-2.15-4.915-4.76
						c-0.422-1.549-0.255-2.968,0.457-3.894c0.482-0.626,1.163-0.956,1.97-0.956c0.007,0,0.015,0,0.021,0
						c2,0.014,4.205,2.15,4.915,4.76l0,0c0.421,1.549,0.254,2.968-0.458,3.894C191.129,155.922,190.448,156.253,189.642,156.253z
						 M187.134,147.171c-0.637,0-1.173,0.259-1.552,0.751c-0.602,0.782-0.738,2.064-0.366,3.432
						c0.652,2.397,2.631,4.357,4.409,4.371c0.645,0.021,1.186-0.255,1.567-0.751c0.602-0.781,0.738-2.064,0.367-3.432
						c-0.652-2.397-2.631-4.357-4.409-4.371C187.145,147.171,187.139,147.171,187.134,147.171z"/>
					<path style="fill:#FFFFFF;" d="M183.446,153.015c-0.048,0-0.096-0.013-0.139-0.04c-0.124-0.076-0.163-0.239-0.087-0.364
						c0.632-1.029,1.982-0.74,2.037-0.727c0.143,0.032,0.232,0.173,0.2,0.315c-0.032,0.143-0.174,0.229-0.315,0.201
						c-0.011-0.003-1.037-0.218-1.471,0.488C183.621,152.97,183.535,153.015,183.446,153.015z"/>
					<path style="fill:#FFC3BD;" d="M205.449,150.422c-0.496,2.158-1.851,3.921-3.292,4.906c-2.167,1.482-3.865-0.361-3.776-2.936
						c0.079-2.318,1.303-5.883,3.726-6.329C204.494,145.623,206.016,147.954,205.449,150.422z"/>
					<path style="fill:#263238;" d="M188.441,150.998c0.286,0.575,0.219,1.204-0.15,1.404c-0.369,0.2-0.901-0.104-1.187-0.68
						c-0.286-0.575-0.219-1.204,0.15-1.404C187.624,150.118,188.155,150.422,188.441,150.998z"/>
					<path style="fill:#263238;" d="M182.104,153.599c0.255,0.59,0.153,1.214-0.227,1.394c-0.38,0.18-0.894-0.153-1.148-0.744
						s-0.153-1.214,0.227-1.394C181.335,152.676,181.85,153.008,182.104,153.599z"/>
					<path style="fill:#263238;" d="M178.902,150.068c0.116-0.034,0.214-0.122,0.254-0.245c0.531-1.632,1.872-2.048,1.885-2.052
						c0.2-0.059,0.314-0.27,0.254-0.469c-0.059-0.199-0.268-0.313-0.467-0.255c-0.001,0-0.002,0.001-0.002,0.001
						c-0.071,0.021-1.735,0.538-2.387,2.542c-0.065,0.198,0.044,0.411,0.242,0.475C178.755,150.089,178.832,150.088,178.902,150.068
						z"/>
					<path style="fill:#FFFFFF;" d="M181.933,158.311c-0.007,0-0.013,0-0.02,0c-1.826-0.013-3.838-1.96-4.486-4.34
						c-0.385-1.415-0.232-2.711,0.42-3.557c0.442-0.574,1.067-0.878,1.807-0.878c0.007,0,0.014,0,0.02,0.001
						c1.825,0.013,3.838,1.96,4.486,4.34l0,0c0.385,1.414,0.231,2.71-0.42,3.556C183.298,158.008,182.673,158.311,181.933,158.311z
						 M179.654,150.065c-0.57,0-1.05,0.232-1.389,0.671c-0.542,0.704-0.665,1.861-0.329,3.096c0.59,2.167,2.376,3.939,3.981,3.951
						c0.005,0,0.01,0,0.015,0c0.57,0,1.051-0.232,1.39-0.672c0.542-0.704,0.665-1.861,0.329-3.095l0,0
						c-0.59-2.167-2.376-3.939-3.98-3.951C179.665,150.065,179.659,150.065,179.654,150.065z"/>
					<path style="fill:#ED847E;" d="M184.196,152.676c0,0-0.107,3.431-0.874,5.368c1.201,0.499,2.595-0.492,2.595-0.492
						L184.196,152.676z"/>
					<path style="fill:#263238;" d="M187.221,159.853c2.426-0.72,3.334-2.635,3.374-2.723c0.044-0.094,0.002-0.206-0.092-0.25
						c-0.095-0.044-0.206-0.002-0.25,0.092c-0.01,0.022-1.041,2.204-3.825,2.679c-0.104,0.017-0.172,0.115-0.154,0.218
						c0.017,0.103,0.115,0.172,0.218,0.154C186.749,159.978,186.992,159.921,187.221,159.853z"/>
					<path style="fill:#263238;" d="M189.358,146.323c0.053-0.032,0.099-0.076,0.133-0.133c0.105-0.18,0.046-0.411-0.134-0.516
						c-1.778-1.044-3.336-0.247-3.401-0.212c-0.183,0.074-0.256,0.324-0.158,0.509c0.097,0.184,0.325,0.255,0.509,0.159
						c0.065-0.033,1.272-0.626,2.668,0.195C189.098,146.396,189.244,146.391,189.358,146.323z"/>
					<path style="fill:#FFC3BD;" d="M189.274,216.345l-6.265-2.651l0.213,7.964c0,0,6.21,2.515,7.241-0.795L189.274,216.345z"/>
					<polygon style="fill:#FFC3BD;" points="175.208,215.477 176.588,221.171 183.222,221.658 183.009,213.694 					"/>
				</g>
			</g>
		</g>
	</g>
</g>
</svg>
